<svg xmlns="http://www.w3.org/2000/svg" xml:space="preserve" viewBox="0 0 450.08 533.33"><path d="M3225.3 2256.01c-78.09 266.79-87.86 413.93-87.86 413.93-7.81 423.73 58.58 482.58 58.58 482.58 76.14 151.06 179.61 260.92 179.61 260.92L2844.59 4000c-39.05-32.37-266.49-158.9-266.49-158.9-110.32-53.95-329.96-125.55-329.96-125.55-224.52-74.55-560.33-69.65-560.33-69.65s-335.8-4.9-560.32 69.65c0 0-219.642 71.6-329.951 125.55 0 0-227.453 126.53-266.5 158.9L0 3413.44s103.477-109.86 179.617-260.92c0 0 66.379-58.85 58.571-482.58 0 0-9.762-147.14-87.856-413.93 0 0-80.043-211.87-68.332-341.35 0 0-10.742-352.13 33.191-425.7 0 0 87.856-538.499 415.848-735.651 0 0 166.93-115.739 366.07-175.579 0 0 342.641-117.21 554.961-315.839L1687.81 0l235.75 261.891c212.32 198.629 554.96 315.839 554.96 315.839 199.15 59.84 366.07 175.579 366.07 175.579 328 197.152 415.85 735.651 415.85 735.651 43.92 73.57 33.19 425.7 33.19 425.7 11.71 129.48-68.33 341.35-68.33 341.35" style="fill:#c6a845;fill-opacity:1;fill-rule:nonzero;stroke:none" transform="matrix(.13333 0 0 -.13333 0 533.333)"/><path d="M3148.04 2062.44c-25.51 91.97-51.03 183.95-76.54 275.93-28.47 104.99-54.06 231.01-66.46 374.62-8.58 99.21-9.44 190.5-6.05 271.9 40.29 189.33 80.57 328.3 197.39 463.25-115.48 125.54-230.95 251.09-346.43 376.63-175.99-101.02-436.14-220.75-768.07-276.86-156.62-26.48-299.33-33.73-422.26-31.53-119.23-2.2-257.64 5.05-409.54 31.53-321.916 56.11-574.232 175.84-744.916 276.86-111.992-125.54-223.984-251.09-335.98-376.63 113.296-134.95 152.363-273.92 191.429-463.25a2194 2194 0 0 0-5.859-271.9 2191.5 2191.5 0 0 0-64.461-374.62c-24.742-91.98-49.484-183.96-74.23-275.93a1432 1432 0 0 1-25.391-195.37c-8.715-144.22 5.676-269.12 24.859-366.42H3148.58c19.79 97.3 34.62 222.2 25.64 366.42-4.48 72.04-14.21 137.51-26.18 195.37" style="fill:#131a30;fill-opacity:1;fill-rule:nonzero;stroke:none" transform="matrix(.13333 0 0 -.13333 0 533.333)"/><path d="m2767.37 3625.38 237.67-261.83s-138.98-199.4-136.96-529.71c0 0 2.01-360.52 78.55-569.99 0 0 61.43-171.2 70.49-260.83 0 0 34.24-280.67-21.65-502.37H1659.62v1850.81s640.98-14.1 1107.75 273.92" style="fill:#c7b94c;fill-opacity:1;fill-rule:nonzero;stroke:none" transform="matrix(.13333 0 0 -.13333 0 533.333)"/><path d="m594.52 3625.38-228.508-261.83s133.621-199.4 131.683-529.71c0 0-1.937-360.52-75.523-569.99 0 0-59.067-171.2-67.781-260.83 0 0-32.922-280.67 20.82-502.37H1659.62v1850.81s-616.31-14.1-1065.1 273.92" style="fill:#a38630;fill-opacity:1;fill-rule:nonzero;stroke:none" transform="matrix(.13333 0 0 -.13333 0 533.333)"/><path d="M1508.31 2678.5a1314.6 1314.6 0 0 0-261.08-40.03c-108.68-5.6-202.99 3.07-277.441 15.1-166.226 18.01-392.008 151.53-428.359 173.58 228.242 179.31 523.02 196.77 523.02 196.77h400.8l-151.05 50.6c-129.91 20.14-453.169-28.2-453.169-28.2-112.316-20.34-318.547-152.28-367.144-184.14-124.227 100.65-179.688 212.34-179.688 212.34h-57.402c7.051-54.88 199.398-243.54 199.398-243.54-197.132-179.85-194.867-243.55-194.867-243.55h53.625c46.07 119.66 188.07 206.63 188.07 206.63 107.25-113.29 464.5-196.37 464.5-196.37 104.987-21.15 391.997-3.03 391.997-3.03 100.45 0 197.88 62.69 197.88 62.69z" style="fill:#c6a845;fill-opacity:1;fill-rule:nonzero;stroke:none" transform="matrix(.13333 0 0 -.13333 0 533.333)"/><path d="M1508.31 2678.5a1314.6 1314.6 0 0 0-261.08-40.03c-108.68-5.6-202.99 3.07-277.441 15.1-166.226 18.01-392.008 151.53-428.359 173.58 228.242 179.31 523.02 196.77 523.02 196.77h400.8l-151.05 50.6c-129.91 20.14-453.169-28.2-453.169-28.2-112.316-20.34-318.547-152.28-367.144-184.14-124.227 100.65-179.688 212.34-179.688 212.34h-57.402c7.051-54.88 199.398-243.54 199.398-243.54-197.132-179.85-194.867-243.55-194.867-243.55h53.625c46.07 119.66 188.07 206.63 188.07 206.63 107.25-113.29 464.5-196.37 464.5-196.37 104.987-21.15 391.997-3.03 391.997-3.03 100.45 0 197.88 62.69 197.88 62.69z" style="fill:none;stroke:#231f20;stroke-width:8.55992031;stroke-linecap:butt;stroke-linejoin:miter;stroke-miterlimit:10;stroke-dasharray:none;stroke-opacity:1" transform="matrix(.13333 0 0 -.13333 0 533.333)"/><path d="m1679 2686.81 139.73 90.63 98.19 61.93-52.12 46.84 88.37 49.84-44.56 33.99-93.66-59.17-35.5-19.38-74.52-80.06-16.11-39.28-20.76-69.86c3.64-5.16 7.29-10.32 10.94-15.48" style="fill:#c6a845;fill-opacity:1;fill-rule:nonzero;stroke:none" transform="matrix(.13333 0 0 -.13333 0 533.333)"/><path d="m1679 2686.81 139.73 90.63 98.19 61.93-52.12 46.84 88.37 49.84-44.56 33.99-93.66-59.17-35.5-19.38-74.52-80.06-16.11-39.28-20.76-69.86c3.64-5.16 7.29-10.32 10.94-15.48z" style="fill:none;stroke:#231f20;stroke-width:8.55992031;stroke-linecap:butt;stroke-linejoin:miter;stroke-miterlimit:10;stroke-dasharray:none;stroke-opacity:1" transform="matrix(.13333 0 0 -.13333 0 533.333)"/><path d="M3063.45 3075.53h60.42s-79.56-161.13-183.28-241.69c0 0 180.26-209.34 178.36-250.89h-52.87s-110.39 189.96-166.29 215.14c0 0-154.58-152.57-312.68-177.75 0 0-83.59-38.26-350.45-33.23l-99.7 10.58s-195.37 44.81-322.25 155.58l60.42 1.01s165.15-86.46 261.83-91.57c0 0 72.5-25.25 122.86-26.26 50.36-1 304.12 3.03 372.61 54.38 0 0 220.54 111.66 246.72 138.41 0 0-210.47 158.67-409.86 181.84 0 0-213.5 56.39-496.48-69.49l-48.34 35.25s187.32 112.79 436.06 103.73c0 0 338.37 4.02 541.78-215.52 0 0 147.04 128.91 161.14 210.48" style="fill:#c6a845;fill-opacity:1;fill-rule:nonzero;stroke:none" transform="matrix(.13333 0 0 -.13333 0 533.333)"/><path d="M3063.45 3075.53h60.42s-79.56-161.13-183.28-241.69c0 0 180.26-209.34 178.36-250.89h-52.87s-110.39 189.96-166.29 215.14c0 0-154.58-152.57-312.68-177.75 0 0-83.59-38.26-350.45-33.23l-99.7 10.58s-195.37 44.81-322.25 155.58l60.42 1.01s165.15-86.46 261.83-91.57c0 0 72.5-25.25 122.86-26.26 50.36-1 304.12 3.03 372.61 54.38 0 0 220.54 111.66 246.72 138.41 0 0-210.47 158.67-409.86 181.84 0 0-213.5 56.39-496.48-69.49l-48.34 35.25s187.32 112.79 436.06 103.73c0 0 338.37 4.02 541.78-215.52 0 0 147.04 128.91 161.14 210.48z" style="fill:none;stroke:#231f20;stroke-width:8.55992031;stroke-linecap:butt;stroke-linejoin:miter;stroke-miterlimit:10;stroke-dasharray:none;stroke-opacity:1" transform="matrix(.13333 0 0 -.13333 0 533.333)"/><path d="M851.961 1753.27s188.319-60.42 362.539-53.37c0 0 205.44 14.1 317.22 44.31l57.4 19.13h133.12s-43.49-94.66-160.31-112.79c0 0-50.35-17.12-189.32-22.15 0 0-134.94-16.11-274.93 18.13 0 0-203.418 44.3-245.719 106.74" style="fill:#e1d06b;fill-opacity:1;fill-rule:nonzero;stroke:none" transform="matrix(.13333 0 0 -.13333 0 533.333)"/><path d="M851.961 1753.27s188.319-60.42 362.539-53.37c0 0 205.44 14.1 317.22 44.31l57.4 19.13h133.12s-43.49-94.66-160.31-112.79c0 0-50.35-17.12-189.32-22.15 0 0-134.94-16.11-274.93 18.13 0 0-203.418 44.3-245.719 106.74z" style="fill:none;stroke:#231f20;stroke-width:8.55992031;stroke-linecap:butt;stroke-linejoin:miter;stroke-miterlimit:10;stroke-dasharray:none;stroke-opacity:1" transform="matrix(.13333 0 0 -.13333 0 533.333)"/><path d="M1086.1 3262.34s169.69-12.59 456.7-164.66c0 0 354.37-170.96 449.14-312.18 0 0-195.37 91.64-224.57 87.61-29.21-4.03-193.35 58.41-193.35 58.41s-400.81 125.88-465.26 278.95z" style="fill:#e1d06b;fill-opacity:1;fill-rule:nonzero;stroke:none" transform="matrix(.13333 0 0 -.13333 0 533.333)"/><path d="M1086.1 3262.34s169.69-12.59 456.7-164.66c0 0 354.37-170.96 449.14-312.18 0 0-195.37 91.64-224.57 87.61-29.21-4.03-193.35 58.41-193.35 58.41s-400.81 125.88-465.26 278.95z" style="fill:none;stroke:#231f20;stroke-width:8.55992031;stroke-linecap:butt;stroke-linejoin:miter;stroke-miterlimit:10;stroke-dasharray:none;stroke-opacity:1" transform="matrix(.13333 0 0 -.13333 0 533.333)"/><path d="M1101.71 3134.95s18.13-166.17 131.93-230.62c24.84-16.17 61-38.21 106.49-60.8 76.7-38.09 137.23-65.12 177.5-69.11 243.7-24.17 450.14-59.42 484.38-87.61 0 0-3.02 47.33-192.34 115.81 0 0-111.78 43.3-220.55 60.42-108.76 17.12-167.17 52.37-167.17 52.37s-163.14 40.28-320.24 219.54" style="fill:#e1d06b;fill-opacity:1;fill-rule:nonzero;stroke:none" transform="matrix(.13333 0 0 -.13333 0 533.333)"/><path d="M1101.71 3134.95s18.13-166.17 131.93-230.62c24.84-16.17 61-38.21 106.49-60.8 76.7-38.09 137.23-65.12 177.5-69.11 243.7-24.17 450.14-59.42 484.38-87.61 0 0-3.02 47.33-192.34 115.81 0 0-111.78 43.3-220.55 60.42-108.76 17.12-167.17 52.37-167.17 52.37s-163.14 40.28-320.24 219.54z" style="fill:none;stroke:#231f20;stroke-width:8.55992031;stroke-linecap:butt;stroke-linejoin:miter;stroke-miterlimit:10;stroke-dasharray:none;stroke-opacity:1" transform="matrix(.13333 0 0 -.13333 0 533.333)"/><path d="M1231.86 2871.1c15.15-32.41 40.35-75.75 81.91-117.45 82.23-82.49 177.8-107.74 220.75-116.23 19.59-2.53 49.72-6.03 86.66-8.68 63.41-4.54 110.37-4.68 124.27-3.87 64.2 3.78 250.76 0 279.46-27.18 0 0-25.68 64.19-225.83 100.45a1503 1503 0 0 0-67.51 4.81c-54.78 5.15-105.92 13-153.04 22.38a808 808 0 0 0-103.56 24.26c-103.95 31.71-185.06 79.44-243.11 121.51" style="fill:#e1d06b;fill-opacity:1;fill-rule:nonzero;stroke:none" transform="matrix(.13333 0 0 -.13333 0 533.333)"/><path d="M1231.86 2871.1c15.15-32.41 40.35-75.75 81.91-117.45 82.23-82.49 177.8-107.74 220.75-116.23 19.59-2.53 49.72-6.03 86.66-8.68 63.41-4.54 110.37-4.68 124.27-3.87 64.2 3.78 250.76 0 279.46-27.18 0 0-25.68 64.19-225.83 100.45a1503 1503 0 0 0-67.51 4.81c-54.78 5.15-105.92 13-153.04 22.38a808 808 0 0 0-103.56 24.26c-103.95 31.71-185.06 79.44-243.11 121.51z" style="fill:none;stroke:#231f20;stroke-width:8.55992031;stroke-linecap:butt;stroke-linejoin:miter;stroke-miterlimit:10;stroke-dasharray:none;stroke-opacity:1" transform="matrix(.13333 0 0 -.13333 0 533.333)"/><path d="M1476.58 2610.52s46.08-24.92 86.1-27.19c40.03-2.26 291.55 0 291.55 0s141.99-24.92 166.16-76.28c0 0-79.68 1.51-95.17 0-13.15-5.51-55.13-9.82-86.1-26.43h-147.27s-176.74 30.96-215.27 129.9" style="fill:#e1d06b;fill-opacity:1;fill-rule:nonzero;stroke:none" transform="matrix(.13333 0 0 -.13333 0 533.333)"/><path d="M1476.58 2610.52s46.08-24.92 86.1-27.19c40.03-2.26 291.55 0 291.55 0s141.99-24.92 166.16-76.28c0 0-79.68 1.51-95.17 0-13.15-5.51-55.13-9.82-86.1-26.43h-147.27s-176.74 30.96-215.27 129.9z" style="fill:none;stroke:#231f20;stroke-width:8.55992031;stroke-linecap:butt;stroke-linejoin:miter;stroke-miterlimit:10;stroke-dasharray:none;stroke-opacity:1" transform="matrix(.13333 0 0 -.13333 0 533.333)"/><path d="M1476.58 2545.57s107.26-102.72 278.7-106.5c171.46-3.77 209.22 12.84 209.22 12.84s-2.26-40.78-173.71-93.65c0 0-59.67-6.8-134.44 7.55 0 0-159.37 34.74-179.77 179.76" style="fill:#e1d06b;fill-opacity:1;fill-rule:nonzero;stroke:none" transform="matrix(.13333 0 0 -.13333 0 533.333)"/><path d="M1476.58 2545.57s107.26-102.72 278.7-106.5c171.46-3.77 209.22 12.84 209.22 12.84s-2.26-40.78-173.71-93.65c0 0-59.67-6.8-134.44 7.55 0 0-159.37 34.74-179.77 179.76z" style="fill:none;stroke:#231f20;stroke-width:8.55992031;stroke-linecap:butt;stroke-linejoin:miter;stroke-miterlimit:10;stroke-dasharray:none;stroke-opacity:1" transform="matrix(.13333 0 0 -.13333 0 533.333)"/><path d="M1436.55 2438.32s109.52-96.68 216.77-106.5c0 0 157.1-16.62 226.59 0 0 0-91.64-63.44-174.98-81.57h-80.31s-178.24 12.84-188.07 188.07" style="fill:#e1d06b;fill-opacity:1;fill-rule:nonzero;stroke:none" transform="matrix(.13333 0 0 -.13333 0 533.333)"/><path d="M1436.55 2438.32s109.52-96.68 216.77-106.5c0 0 157.1-16.62 226.59 0 0 0-91.64-63.44-174.98-81.57h-80.31s-178.24 12.84-188.07 188.07z" style="fill:none;stroke:#231f20;stroke-width:8.55992031;stroke-linecap:butt;stroke-linejoin:miter;stroke-miterlimit:10;stroke-dasharray:none;stroke-opacity:1" transform="matrix(.13333 0 0 -.13333 0 533.333)"/><path d="M1368.58 2327.29s99.7-98.69 179.25-106.75c0 0 125.89-19.13 185.3 0 0 0-46.58-57.9-112.28-69.23h-94.42s-140.48 37.01-157.85 175.98" style="fill:#e1d06b;fill-opacity:1;fill-rule:nonzero;stroke:none" transform="matrix(.13333 0 0 -.13333 0 533.333)"/><path d="M1368.58 2327.29s99.7-98.69 179.25-106.75c0 0 125.89-19.13 185.3 0 0 0-46.58-57.9-112.28-69.23h-94.42s-140.48 37.01-157.85 175.98z" style="fill:none;stroke:#231f20;stroke-width:8.55992031;stroke-linecap:butt;stroke-linejoin:miter;stroke-miterlimit:10;stroke-dasharray:none;stroke-opacity:1" transform="matrix(.13333 0 0 -.13333 0 533.333)"/><path d="M1336.36 2183.79s85.08-65.96 140.22-71.5c0 0 144.27-17.12 206.2 13.59 0 0-35.25-59.92-121.35-83.59 0 0-69.99-5.03-82.57 0 0 0-120.35 36.26-142.5 141.5" style="fill:#e1d06b;fill-opacity:1;fill-rule:nonzero;stroke:none" transform="matrix(.13333 0 0 -.13333 0 533.333)"/><path d="M1336.36 2183.79s85.08-65.96 140.22-71.5c0 0 144.27-17.12 206.2 13.59 0 0-35.25-59.92-121.35-83.59 0 0-69.99-5.03-82.57 0 0 0-120.35 36.26-142.5 141.5z" style="fill:none;stroke:#231f20;stroke-width:8.55992031;stroke-linecap:butt;stroke-linejoin:miter;stroke-miterlimit:10;stroke-dasharray:none;stroke-opacity:1" transform="matrix(.13333 0 0 -.13333 0 533.333)"/><path d="M1332.83 2047.33s83.08-50.35 113.8-54.88c0 0 144-11.59 176.73 7.05 0 0-28.19-42.3-87.11-59.92 0 0-50.85-8.56-86.09 0 0 0-92.66 14.1-117.33 107.75" style="fill:#e1d06b;fill-opacity:1;fill-rule:nonzero;stroke:none" transform="matrix(.13333 0 0 -.13333 0 533.333)"/><path d="M1332.83 2047.33s83.08-50.35 113.8-54.88c0 0 144-11.59 176.73 7.05 0 0-28.19-42.3-87.11-59.92 0 0-50.85-8.56-86.09 0 0 0-92.66 14.1-117.33 107.75z" style="fill:none;stroke:#231f20;stroke-width:8.55992031;stroke-linecap:butt;stroke-linejoin:miter;stroke-miterlimit:10;stroke-dasharray:none;stroke-opacity:1" transform="matrix(.13333 0 0 -.13333 0 533.333)"/><path d="M2228.1 1813.7h-61.94l-50.35 15.61 53.88 15.1h80.56zm186.8 2.01c-21.14 32.22-43.3 39.28-43.3 39.28h-107.75c-46.33 65.45-151.06 67.47-151.06 67.47h-230.61c-80.06 51.36 13.59 146.52 13.59 146.52l161.63 148.04c83.09 67.97 168.18 199.9 168.18 199.9 56.39 163.14 10.07 267.87 10.07 267.87-34.24 104.74-334.34 358.51-334.34 358.51-233.63 229.61-853.98 346.43-853.98 346.43 62.44-81.57 488.42-248.75 488.42-248.75l218.03-108.25c267.37-138.98 324.01-340.64 324.01-340.64 28.7-92.14-14.34-206.19-14.34-206.19-61.94-169.18-296.08-373.11-296.08-373.11-23.16-9.06-74.02-96.68-74.02-96.68-30.97-85.34-1.89-162.38-1.89-162.38 23.42-38.9 121.99-88.75 121.99-88.75 44.18-23.79.75-75.15.75-75.15-17.37-30.21-153.32-71-153.32-71-37.01-21.14-207.71-45.31-207.71-45.31-71.75-11.33-265.1 3.02-265.1 3.02-56.65 3.77-164.66 40.03-164.66 40.03 50.61-51.37 194.11-95.17 194.11-95.17 160.12-40.03 415.92-9.82 415.92-9.82 102.71 11.08 324.26 125.88 324.26 125.88 96.68 45.32 217.52 79.56 217.52 79.56h120.85c32.23-17.12 14.11-85.6 14.11-85.6 149.04 102.72 104.72 184.29 104.72 184.29" style="fill:#e1d06b;fill-opacity:1;fill-rule:nonzero;stroke:none" transform="matrix(.13333 0 0 -.13333 0 533.333)"/><path d="M2228.1 1813.7h-61.94l-50.35 15.61 53.88 15.1h80.56zm186.8 2.01c-21.14 32.22-43.3 39.28-43.3 39.28h-107.75c-46.33 65.45-151.06 67.47-151.06 67.47h-230.61c-80.06 51.36 13.59 146.52 13.59 146.52l161.63 148.04c83.09 67.97 168.18 199.9 168.18 199.9 56.39 163.14 10.07 267.87 10.07 267.87-34.24 104.74-334.34 358.51-334.34 358.51-233.63 229.61-853.98 346.43-853.98 346.43 62.44-81.57 488.42-248.75 488.42-248.75l218.03-108.25c267.37-138.98 324.01-340.64 324.01-340.64 28.7-92.14-14.34-206.19-14.34-206.19-61.94-169.18-296.08-373.11-296.08-373.11-23.16-9.06-74.02-96.68-74.02-96.68-30.97-85.34-1.89-162.38-1.89-162.38 23.42-38.9 121.99-88.75 121.99-88.75 44.18-23.79.75-75.15.75-75.15-17.37-30.21-153.32-71-153.32-71-37.01-21.14-207.71-45.31-207.71-45.31-71.75-11.33-265.1 3.02-265.1 3.02-56.65 3.77-164.66 40.03-164.66 40.03 50.61-51.37 194.11-95.17 194.11-95.17 160.12-40.03 415.92-9.82 415.92-9.82 102.71 11.08 324.26 125.88 324.26 125.88 96.68 45.32 217.52 79.56 217.52 79.56h120.85c32.23-17.12 14.11-85.6 14.11-85.6 149.04 102.72 104.72 184.29 104.72 184.29z" style="fill:none;stroke:#231f20;stroke-width:8.55992031;stroke-linecap:butt;stroke-linejoin:miter;stroke-miterlimit:10;stroke-dasharray:none;stroke-opacity:1" transform="matrix(.13333 0 0 -.13333 0 533.333)"/><path d="M498.043 925.48H2859.07s-145.02-152.57-329.3-205.441c0 0-382.18-116.309-583.09-288.519a1406 1406 0 0 1-107.32-91.2 1408 1408 0 0 1-133.24-144.07 1714 1714 0 0 1-136.71 130.789c-98.19 84.051-194.53 147.223-279.33 194.609 0 0-103.22 88.122-495.971 208.961 0 0-223.562 102.723-296.066 194.871" style="fill:#131a30;fill-opacity:1;fill-rule:nonzero;stroke:none" transform="matrix(.13333 0 0 -.13333 0 533.333)"/><path d="M776.004 923.59H2534.25c-74.18-28.531-148.37-57.07-222.55-85.598-89.64-35.633-216.09-93.582-344.42-181.273-81.46-55.66-144.6-110.27-164.36-127.598a1733 1733 0 0 1-102.01-97.133 1664 1664 0 0 1-104.67 88.184c-118.37 91.68-222.88 147.078-272.46 171.797-60.6 30.222-156.65 78.113-280.97 111.781-30.67 8.309-75.716 19.172-134.943 45.32a771 771 0 0 0-131.863 74.52" style="fill:#a38630;fill-opacity:1;fill-rule:nonzero;stroke:none" transform="matrix(.13333 0 0 -.13333 0 533.333)"/><path d="M776.004 923.59a771 771 0 0 1 131.863-74.52c59.227-26.148 104.273-37.011 134.943-45.32 124.32-33.668 220.37-81.559 280.97-111.781 49.58-24.719 154.09-80.117 272.46-171.797a1664 1664 0 0 0 104.67-88.184V923.59z" style="fill:#c7b94c;fill-opacity:1;fill-rule:nonzero;stroke:none" transform="matrix(.13333 0 0 -.13333 0 533.333)"/><path d="M3345.52 923.59H57.305c-16.633 0-30.114 13.48-30.114 30.109v516.841c0 16.63 13.48 30.11 30.114 30.11H3345.52c16.63 0 30.11-13.48 30.11-30.11V953.699c0-16.629-13.48-30.109-30.11-30.109" style="fill:#131a30;fill-opacity:1;fill-rule:nonzero;stroke:none" transform="matrix(.13333 0 0 -.13333 0 533.333)"/><path d="M2465.9 1284.94c-1.88-.2-3.75-.4-5.64-.6-4.67-27.25-7.98-54.83-14.53-81.62-4.3-17.53.28-23.14 17.39-22.97 13.68.14 21.86 3.63 18.82 19.42-5.49 28.56-10.71 57.18-16.04 85.77m-237.81-13.91c3.09-12.28-7.27-31.75 17.08-31.64 21.18.1 30.42 13.63 31.36 32.92 1.02 20.62-10.67 32.97-30.53 33.31-26.98.47-14-21.95-17.91-34.59m-69.38 80.24c49.54 14.65 100.33 13.73 148.71.29 45.87-12.74 58.93-83.58 23.41-120.95-13.35-14.05-15.31-17.77.83-29.12 20.93-14.7 10.72-42.04 19.63-62.84 19.81 4.3 17.45 21.19 20.55 33.48 13.53 53.67 26.69 107.44 38.79 161.45 10.16 45.33 45.43 19.36 69.18 25.04 21.08 5.04 32.81-3.77 38-27.45 16.11-73.47 35.45-146.23 52.56-219.49 2.67-11.4 18.1-32.17-4.41-33.77-21.47-1.52-53.56-19.47-65.66 14.37-6.95 19.43-10.4 31.75-35.08 32.27-25.83.54-35.96-8.26-36.9-32.99-.45-11.69-9.4-16.11-21.05-16.01-35.56.28-71.14.77-106.67-.19-19.64-.54-23.79 10.03-24.34 26.29-.71 21.29-1.72 42.63-3.81 63.82-1.68 17.06-12.4 24.56-29.48 23.15-17.34-1.44-14.11-14.66-14.44-25.46-.77-25.55-1.13-51.11-1.67-76.68-2.66-2.96-5.34-5.93-8-8.9-17.15-.04-34.29-.09-51.43-.13-3.28 3.15-6.56 6.29-9.84 9.43.06 85.37.11 170.74.17 256.1 5.83 2.13 7.51 4.74.95 8.29M1849.74 1215.92c-2.19 22.06-3.84 44.76-6.89 67.27-2.38 17.53-15.93 23.62-31.14 22.29-17.23-1.5-11.72-16.83-11.87-26.95-.59-41.25-.56-82.52 0-123.77.14-10.03-5.28-24.46 13.09-25.81 16.52-1.2 28.03 5.11 30.2 22.55 2.66 21.15 4.4 42.41 6.61 64.42m-125.18 2.05c0 36.92 1.4 73.91-.49 110.74-1.29 25.1 8.52 32.19 31.99 30.75 26.89-1.66 53.98.41 80.91-.71 48.98-2.04 75.91-26.7 82.74-74.64 6.43-45.26 6.19-90.64-.22-135.84-6.6-46.6-32.72-69.84-79.47-72.41-115.45-6.36-115.45-6.36-115.45 108.04 0 11.35 0 22.72-.01 34.07M2668.38 1220.76c0-22.68-.14-45.36.05-68.04.09-11.25-1.16-23.52 15.98-23.87 12.87-.27 23.96 4.46 26.12 16.95 7.99 46.35 6.95 93.12.79 139.56-1.91 14.33-14.64 20.73-28.58 20.31-17.34-.51-13.94-14.82-14.24-25.38-.58-19.83-.17-39.68-.12-59.53m122.79-82.65c-30.25-52.49-134.35-86.33-187.36-61.56-10.41 4.87-9.46 12.84-9.48 20.9-.19 79.37.29 158.74-.52 238.1-.2 19.31 7.83 24.64 25.38 23.72 18.38-.96 36.84-.18 55.26-.2 90.62-.09 114.68-23.36 117.13-115.6.95-35.37-.64-70.81-1.07-106.22zM757.359 1241.19c.043-29.83-.132-59.65.121-89.48.125-14.52.489-30.43 20.391-31.05 22.414-.69 23.418 16.4 23.477 32.61.203 58.23 1.703 116.52-.528 174.67-1.113 28.92 11.61 33.09 35.348 31.49 20.887-1.41 42.805 5.27 41.172-30.22-2.555-55.27.762-110.81-1.184-166.13-2.379-67.53-31.656-93.3-100.078-92.48-65.16.78-92.508 27.51-93.711 94.06-1 55.37 1.43 110.85-.898 166.14-1.383 32.66 18.254 28.37 38.199 28.39 20.066.02 40.687 3.96 38.133-28.56-2.328-29.64-.492-59.61-.442-89.44M541.234 1216.65c.973-21.31 1.512-42.66 3.067-63.92 1.035-14.22 2.008-29.68 20.941-32.17 11.516-1.51 20.156 4.58 21.727 15.68 1.98 14.07 16.824 34.05-3.781 41.19-23.325 8.07-17.61 23.8-15.883 37.45 2.726 21.59 21.777 13.79 34.336 13.78 74.8-.07 59.929 6.47 61.293-60.24.441-21.34-1.641-42.86.492-63.99 2.687-26.55-13.266-37.83-31.852-28.22-23.39 12.11-39.484 2.05-59.679-3.26-57.34-15.08-96.364 11.38-103.008 69.77-5.477 48.13-6.703 96.85 1.769 144.73 8.871 50.04 39.383 73.7 92.996 76.91 48.192 2.89 80.782-16.63 92.661-57.73 3.628-12.55 18.382-34.25-7.989-36.12-19.129-1.36-47.554-17.41-58.656 13.84-4.926 13.85-5.207 30.73-23.773 28.49-19.348-2.35-21.579-20.35-22.047-36.44-.578-19.9-.137-39.81-.137-59.72zM2064.29 1216.6c0 23.98.9 48.01-.36 71.92-.71 13.45-8.04 25.12-23.33 25.13-13.59.02-19.06-11.11-20.82-22.84-7.34-49.11-7.12-98.34-.11-147.46 1.64-11.5 6.15-22.38 20.55-22.84 16.31-.52 22.96 10.69 23.67 24.18 1.25 23.91.35 47.94.4 71.91m77.16.25c0-15.61.89-31.27-.14-46.81-4.42-66.05-33.74-97.31-92.39-99.42-66.85-2.39-93.31 20.41-105.41 89.23-7.23 41.1-6.07 81.78 1.46 122.64 10.5 56.95 38.51 81.27 95.63 82.02 55.02.71 85.38-21.84 96.78-75.75 4.94-23.35 4.55-47.83 6.58-71.79-.84-.05-1.67-.09-2.51-.12M1282.47 1288.63c-5.46-31.32-9.48-59.18-15.45-86.62-2.98-13.66-2.71-21.87 14.01-22.1 14.06-.19 27.36.65 22.01 19.93-7.81 28.09-4.83 58.71-20.57 88.79m3.53 69.22c38.33 10.99 50.13-9.62 57.24-44.73 13.82-68.16 32.6-135.31 48.6-203.06 2.69-11.39 18.1-31.93-5.85-32.41-21.32-.43-53.65-20.2-64.7 16.04-6.33 20.76-13.02 30.75-36.7 30.78-23.62.03-29.7-8.64-34.66-30.58-8.08-35.74-39.82-17.44-60.53-17.73-29.26-.41-13.08 23.7-10.68 34.63 15.21 69.32 35.3 137.65 48.4 207.32 7.01 37.24 24.68 46.95 58.88 39.74M353.5 1264.69l-11.699-.03c-3.512-20.47-6.59-41.04-10.68-61.4-2.965-14.74-2.316-24.01 17.137-23.77 20.004.25 19.535 11.61 17.109 25.09-3.621 20.1-7.879 40.08-11.867 60.11m-.32 94.39c33.75 9.9 46.609-9.98 53.89-45.3 14.032-68.05 32.77-135.12 48.598-202.82 2.703-11.56 15.469-33.06-6.754-33.2-21.41-.13-55.219-21.2-64.519 16.09-5.696 22.82-13.168 30.49-35.911 30.39-22.14-.1-30.664-5.91-35.851-29.73-8.328-38.24-42.684-16.75-63.973-16.8-22.547-.06-9.543 21.66-6.961 33.03 15.414 67.85 32.004 135.43 48.395 203.05 10.98 45.34 11.117 45.3 63.086 45.29" style="fill:#c5b74c;fill-opacity:1;fill-rule:nonzero;stroke:none" transform="matrix(.13333 0 0 -.13333 0 533.333)"/><path d="M2899.01 1282.06c-2.58.11-5.17.21-7.76.31-4.86-27.28-9.67-54.57-14.62-81.84-2.54-14.01 1.71-20.68 17.34-20.93 17.99-.28 21.5 6.85 18.19 23.2-5.32 26.23-8.86 52.82-13.15 79.26m-108.5-144.81c25.1 61.9 34.28 128.07 49.63 192.46 7.07 29.71 23.37 32.09 45.64 29.05 23.32-3.17 54.39 15.14 63.45-27.94 15.48-73.56 35.83-146.08 52.49-219.4 2.4-10.6 18.53-32.06-4.27-33.67-21.93-1.55-54.26-18.76-66.75 14.34-7.06 18.73-8.22 32.69-33.83 32.44-25.22-.25-31.92-9.88-38.83-33.02-9.8-32.78-41.52-14.3-62.42-14.22-22.8.1-12.1 18.32-8.1 31.51 2.82 9.29 2.55 19.52 3.65 29.32 0-.01-.66-.87-.66-.87M3091.68 1070.66c-27.21 1.19-64.05 3.82-77.7 45.69-3.92 12.04-17.38 35.09 4.44 39.41 18.95 3.75 46.85 15.17 60.68-10.45 7.22-13.36 10.33-26.25 28.52-24.83 12.03.94 17.2 9.23 19.12 19.6 3.31 17.82-5.01 30.42-20.34 38.21-18.95 9.62-39.26 16.81-57.39 27.71-33.9 20.38-45.92 58.82-33.85 101.13 12.26 43.02 45.88 56.25 85.13 56.82 37.47.56 76.52-2.66 90.59-46.73 3.73-11.69 19.73-34.24-3.25-38.84-18.47-3.69-46.27-16.97-59.89 12.02-5.57 11.88-7.65 25.4-24.7 23.14-8.99-1.18-15.19-7.54-17.92-16.37-5.06-16.31 2.75-28 15.59-35.93 12-7.4 25.18-13.03 38.14-18.75 56.47-24.93 74.3-55.29 63.71-109.17-8.56-43.49-40.39-63.14-110.88-62.66M1493.77 1070.57c-27.09 1.02-62.24 1.79-80.38 38.84-7.35 15-15.69 39.72.88 44.93 18.33 5.77 47.75 17.89 62.56-11.82 6.05-12.15 10.77-23.36 26.83-22.27 11.49.78 18.12 7.83 21.09 18.06 4.65 16.02-2.46 28.63-15.58 36.23-15.88 9.17-33.36 15.52-49.84 23.7-40.77 20.25-58.27 54.35-49.72 97.98 8.19 41.88 34.73 62.53 76.76 67.1 53.12 5.77 90.31-10.14 102.43-47.65 4.02-12.43 14.84-32.77-2.72-36.67-18.68-4.16-45.5-16.93-59.87 10.55-6.14 11.74-9.58 24.62-25.68 23.18-11.28-1-16.9-9.09-18.04-20.35-1.68-16.38 6.22-27.24 20.01-34.25 11.38-5.78 23.15-10.79 34.83-15.95 53.27-23.5 73.43-56.77 64.06-105.87-8.5-44.51-40.49-65.52-107.62-65.74M997.598 1219.7c0 36.98 1.937 74.09-.582 110.9-2.227 32.58 17.794 28.23 37.934 28.73 21.42.52 39 1.45 37.42-29.72-2.32-45.4-.83-90.99-.56-136.5.4-67.92-5.54-57.2 55.8-57.01 22.83.07 37.43-.6 35.65-30.91-1.4-23.86-7.5-32.31-31.76-30.89-32.59 1.91-65.57 2.59-98.05-.14-31.62-2.65-38.126 10.75-36.384 38.91 2.192 35.42.528 71.08.532 106.63M896.801 1219.17c-.008 36.8 1.812 73.72-.571 110.36-2.007 30.87 15.508 30.98 37.02 29.64 18.563-1.16 40.039 6.74 39.227-26.97-1.852-76.38-1.961-152.87.046-229.24.875-33.3-19.707-26.72-38.652-27.44-20.754-.78-39.516-2.43-37.605 29.05 2.304 38.08.547 76.39.535 114.6" style="fill:#c5b74c;fill-opacity:1;fill-rule:nonzero;stroke:none" transform="matrix(.13333 0 0 -.13333 0 533.333)"/><path d="M2157.59 1086.88c3.28-3.14 6.56-6.28 9.84-9.43-6.75-.47-10.28 2.4-9.84 9.43M2158.71 1351.27c6.56-3.55 4.88-6.16-.95-8.29.32 2.77.63 5.53.95 8.29M2218.86 1077.58c2.66 2.97 5.34 5.94 8 8.9.62-5.92-1.53-9.36-8-8.9" style="fill:#d6bf5e;fill-opacity:1;fill-rule:nonzero;stroke:none" transform="matrix(.13333 0 0 -.13333 0 533.333)"/></svg>