<svg xmlns="http://www.w3.org/2000/svg" viewBox="99.79 99.79 1240.43 1240.43"><defs><clipPath id="a" clipPathUnits="userSpaceOnUse"><path d="M-914.195 537.435h1080v-1080h-1080Z"/></clipPath><clipPath id="b" clipPathUnits="userSpaceOnUse"><path d="M-955.26 385.89h1080v-1080h-1080Z"/></clipPath><clipPath id="c" clipPathUnits="userSpaceOnUse"><path d="M-279.89 693.32h1080v-1080h-1080Z"/></clipPath><clipPath id="d" clipPathUnits="userSpaceOnUse"><path d="M-981.96 537.43h1080v-1080h-1080Z"/></clipPath><clipPath id="e" clipPathUnits="userSpaceOnUse"><path d="M-954.45 691.16h1080v-1080h-1080Z"/></clipPath><clipPath id="f" clipPathUnits="userSpaceOnUse"><path d="M-843.61 538.52h1080v-1080h-1080Z"/></clipPath><clipPath id="g" clipPathUnits="userSpaceOnUse"><path d="M-278.62 385.89h1080v-1080h-1080Z"/></clipPath><clipPath id="h" clipPathUnits="userSpaceOnUse"><path d="M-954.47 691.16h1080v-1080h-1080Z"/></clipPath><clipPath id="i" clipPathUnits="userSpaceOnUse"><path d="M-256.51 322.97h1080v-1080h-1080Z"/></clipPath><clipPath id="j" clipPathUnits="userSpaceOnUse"><path d="M-508.291 178.702h1080v-1080h-1080Z"/></clipPath><clipPath id="k" clipPathUnits="userSpaceOnUse"><path d="M-809.31 299.79H270.692v-1080h-1080Z"/></clipPath><clipPath id="l" clipPathUnits="userSpaceOnUse"><path d="M-289.96 211.136h1080v-1080h-1080Z"/></clipPath><clipPath id="m" clipPathUnits="userSpaceOnUse"><path d="M-390.726 153.646h1080v-1080h-1080Z"/></clipPath><clipPath id="n" clipPathUnits="userSpaceOnUse"><path d="M-591.832 210.582h1080v-1080h-1080Z"/></clipPath><clipPath id="o" clipPathUnits="userSpaceOnUse"><path d="M-695.917 246.753h1080v-1080h-1080Z"/></clipPath><clipPath id="p" clipPathUnits="userSpaceOnUse"><path d="M-264.173 727.008h1080v-1080h-1080Z"/></clipPath><clipPath id="q" clipPathUnits="userSpaceOnUse"><path d="M-294.556 776.923h1080v-1080h-1080Z"/></clipPath><clipPath id="r" clipPathUnits="userSpaceOnUse"><path d="M-323.322 786.412h1080v-1080h-1080Z"/></clipPath><clipPath id="s" clipPathUnits="userSpaceOnUse"><path d="M-342.173 833.604h1080v-1080h-1080Z"/></clipPath><clipPath id="t" clipPathUnits="userSpaceOnUse"><path d="M-841.47 797.33h1080v-1080h-1080Z"/></clipPath><clipPath id="u" clipPathUnits="userSpaceOnUse"><path d="M-439.07 875.01h1080v-1080h-1080Z"/></clipPath><clipPath id="v" clipPathUnits="userSpaceOnUse"><path d="M-509.28 906.78h1080v-1080h-1080Z"/></clipPath><clipPath id="w" clipPathUnits="userSpaceOnUse"><path d="M-534.556 878.03h1080v-1080h-1080Z"/></clipPath><clipPath id="x" clipPathUnits="userSpaceOnUse"><path d="M-670.896 871.348h1080v-1080h-1080Z"/></clipPath><clipPath id="y" clipPathUnits="userSpaceOnUse"><path d="M-680.981 847.646h1080v-1080h-1080Z"/></clipPath><clipPath id="z" clipPathUnits="userSpaceOnUse"><path d="M-728.726 821.22h1080v-1080h-1080Z"/></clipPath><clipPath id="A" clipPathUnits="userSpaceOnUse"><path d="M-317.024 643.008h1080v-1080h-1080Z"/></clipPath><clipPath id="B" clipPathUnits="userSpaceOnUse"><path d="M-317.024 671.944h1080v-1080h-1080Z"/></clipPath><clipPath id="C" clipPathUnits="userSpaceOnUse"><path d="M-542.3 444.11h1080v-1080h-1080Z"/></clipPath><clipPath id="D" clipPathUnits="userSpaceOnUse"><path d="M-621.19 535.35h1080v-1080h-1080Z"/></clipPath><clipPath id="E" clipPathUnits="userSpaceOnUse"><path d="M-585.36 476.03h1080v-1080h-1080Z"/></clipPath><clipPath id="F" clipPathUnits="userSpaceOnUse"><path d="M-585.36 476.03h1080v-1080h-1080Z"/></clipPath><clipPath id="G" clipPathUnits="userSpaceOnUse"><path d="M-932.26 533.05h1080v-1080h-1080Z"/></clipPath><clipPath id="H" clipPathUnits="userSpaceOnUse"><path d="M-871.96 507.306h1080v-1080h-1080Z"/></clipPath><clipPath id="I" clipPathUnits="userSpaceOnUse"><path d="M-876.045 531.05h1080v-1080h-1080Z"/></clipPath><clipPath id="J" clipPathUnits="userSpaceOnUse"><path d="M-151.929 533.499h1080v-1080h-1080Z"/></clipPath><clipPath id="K" clipPathUnits="userSpaceOnUse"><path d="M-212.23 507.754h1080v-1080h-1080Z"/></clipPath><clipPath id="L" clipPathUnits="userSpaceOnUse"><path d="M-208.144 531.499h1080v-1080h-1080Z"/></clipPath><clipPath id="M" clipPathUnits="userSpaceOnUse"><path d="M-540 994.16H540v-1080H-540Z"/></clipPath><clipPath id="N" clipPathUnits="userSpaceOnUse"><path d="M-949.29 689.25h1080v-1080h-1080Z"/></clipPath><clipPath id="O" clipPathUnits="userSpaceOnUse"><path d="M-540.52 836.11h1080v-1080h-1080Z"/></clipPath></defs><path d="M0 0c0-209.669-169.971-379.64-379.64-379.64S-759.28-209.669-759.28 0s169.971 379.64 379.64 379.64S0 209.669 0 0" clip-path="url(#a)" style="fill:#fff;fill-opacity:1;fill-rule:nonzero;stroke:none" transform="matrix(1.33333 0 0 -1.33333 1218.927 716.58)"/><path d="M0 0h-152.83C-205.38 89.99-303 150.46-414.74 150.46S-624.09 89.99-676.65 0h-153.11c61.83 169.23 224.25 290.03 414.89 290.03C-224.24 290.03-61.82 169.23 0 0" clip-path="url(#b)" style="fill:#223e86;fill-opacity:1;fill-rule:nonzero;stroke:none" transform="matrix(1.33333 0 0 -1.33333 1273.68 514.52)"/><path d="M0 0h-152.77c-18.3 48.47-28.31 101.01-28.31 155.89 0 53.24 9.42 104.28 26.69 151.54H-1.28c-26.18-44.83-41.18-96.98-41.18-152.63C-42.46 98.24-26.97 45.31 0 0" clip-path="url(#c)" style="fill:#fff;fill-opacity:1;fill-rule:nonzero;stroke:none" transform="matrix(1.33333 0 0 -1.33333 373.187 924.427)"/><path d="M0 0c0-54.06-9.72-105.86-27.51-153.73h-152.02c26.18 44.83 41.18 96.98 41.18 152.64 0 55.65-15 107.8-41.18 152.63h152.84C-9.42 104.28 0 53.24 0 0" clip-path="url(#d)" style="fill:#fff;fill-opacity:1;fill-rule:nonzero;stroke:none" transform="matrix(1.33333 0 0 -1.33333 1309.28 716.573)"/><path d="M0 0c-62.41-168.09-224.25-287.85-414.06-287.85-189 0-350.27 118.74-413.27 285.69h152.77c52.85-88.8 149.79-148.29 260.63-148.29 111.74 0 209.35 60.46 261.91 150.45z" clip-path="url(#e)" style="fill:#cc2026;fill-opacity:1;fill-rule:nonzero;stroke:none" transform="matrix(1.33333 0 0 -1.33333 1272.6 921.547)"/><path d="M0 0c0-55.66-15-107.81-41.18-152.64-52.56-89.99-150.17-150.45-261.91-150.45-110.84 0-207.78 59.49-260.63 148.29-26.97 45.31-42.46 98.24-42.46 154.8 0 55.65 15 107.8 41.18 152.63 52.56 89.99 150.17 150.46 261.91 150.46s209.36-60.47 261.91-150.46C-15 107.8 0 55.65 0 0Z" clip-path="url(#f)" style="fill:none;stroke:#1d1d1b;stroke-width:7;stroke-linecap:butt;stroke-linejoin:miter;stroke-miterlimit:10;stroke-dasharray:none;stroke-opacity:1" transform="matrix(1.33333 0 0 -1.33333 1124.813 718.027)"/><path d="M0 0h-.01" clip-path="url(#g)" style="fill:none;stroke:#1d1d1b;stroke-width:7;stroke-linecap:butt;stroke-linejoin:miter;stroke-miterlimit:10;stroke-dasharray:none;stroke-opacity:1" transform="matrix(1.33333 0 0 -1.33333 371.493 514.52)"/><path d="M0 0h-.02" clip-path="url(#h)" style="fill:none;stroke:#1d1d1b;stroke-width:7;stroke-linecap:butt;stroke-linejoin:miter;stroke-miterlimit:10;stroke-dasharray:none;stroke-opacity:1" transform="matrix(1.33333 0 0 -1.33333 1272.627 921.547)"/><path d="m0 0-18 24.13 28.09-10.72Zm51.07 26.56-4.6-4.73-73.79 29.24-9.19-12.26L8.3-25.27l-4.85-8.17 6.26-4.98 15.7 19.53-5.88 5.11-5.87-5.62L5.11-7.65 18.26 9.71l13.4-6-4.08-6.26 6.51-5.87 23.74 30.13z" clip-path="url(#i)" style="fill:#fcfbf5;fill-opacity:1;fill-rule:nonzero;stroke:none" transform="matrix(1.33333 0 0 -1.33333 342.013 430.627)"/><path d="m0 0 6.202 29.458 10.53-28.161Zm53.692-20.754-6.59.324-26.851 74.692-15.274-1.211-18.448-75.986-9.336-1.763.403-7.989 25.033 1.134-.055 7.79-8.097.688 3.162 14.183 21.719 1.613 4.358-14.02-7.394-1.078-.1-8.766 38.301 2.111z" clip-path="url(#j)" style="fill:#fcfbf5;fill-opacity:1;fill-rule:nonzero;stroke:none" transform="matrix(1.33333 0 0 -1.33333 677.721 238.27)"/><path d="m0 0 27.636 11.937-16.92-24.853zm14.04-55.825-3.539 5.568 45.5 65.037-9.805 11.774-72.7-28.79-6.828 6.606-6.292-4.939 15.374-19.788 6.33 4.54-4.111 7.01 13.407 5.603L5.228-20.01l-8.934-11.65-5.148 5.416-7.215-4.978L7.76-61.281z" clip-path="url(#k)" style="fill:#fcfbf5;fill-opacity:1;fill-rule:nonzero;stroke:none" transform="matrix(1.33333 0 0 -1.33333 1079.079 399.72)"/><path d="m0 0 34.596 22.851 4.34-7.149-7.276-6.128 37.659-55.148 14.17 9.829-7.787 15.83 9.447 6.511 12.894-22.213L47.362-70.34l-4.596 7.659 6.894 4.851L11.872-2.426 4.213-7.021z" clip-path="url(#l)" style="fill:#fcfbf5;fill-opacity:1;fill-rule:nonzero;stroke:none" transform="matrix(1.33333 0 0 -1.33333 386.613 281.514)"/><path d="M0 0s38.638 13.702 38.638 13.447 2.213-8.596 2.213-8.596l-8.17-3.234 21.617-62.468 9.021 2.298 1.787-8-38.297-13.362L24.851-72l8.511 3.66L10.809-4.894 2.255-7.447z" clip-path="url(#m)" style="fill:#fcfbf5;fill-opacity:1;fill-rule:nonzero;stroke:none" transform="matrix(1.33333 0 0 -1.33333 520.968 204.862)"/><path d="m0 0 32.596-9.277 1.702 8.47-13.532 4.892 14.213 48 20.255-68.34 12-2.894 20.596 72 10.638-1.787L100 59.83l-31.574 8.085-1.873-8.511 12.681-3.574-10.128-36.596L52.34 73.191l-28.255 8-2.298-8.17 9.617-3.319L13.021 6.638 2.723 8.596Z" clip-path="url(#n)" style="fill:#fcfbf5;fill-opacity:1;fill-rule:nonzero;stroke:none" transform="matrix(1.33333 0 0 -1.33333 789.11 280.776)"/><path d="m0 0 4.17 5.702L71.404 43.66 54.213 55.234 43.404 42.213l-9.447 7.149 15.915 19.915 48.426-33.958-4.426-5.872L26.468-7.83l18.383-12.085L55.66-8l9.446-6.468-15.957-20.426Z" clip-path="url(#o)" style="fill:#fcfbf5;fill-opacity:1;fill-rule:nonzero;stroke:none" transform="matrix(1.33333 0 0 -1.33333 927.89 329.003)"/><path d="m0 0 29.106-39.574-13.021-10.979-5.489 6.127L20.17-36 7.787-19.915l-18.638-14.298 8.298-9.574 6.893 4.085 3.32-4.596-18.511-14.808-3.447 4.978 7.149 6.256-8.298 10.34-18.766-15.191 4.468-6.383-3.829-3.83-18.639 23.872L-47.872-36l5.234-5.745L-.383-9.957l-4.596 7.148z" clip-path="url(#p)" style="fill:#fff;fill-opacity:1;fill-rule:nonzero;stroke:none" transform="matrix(1.33333 0 0 -1.33333 352.23 969.344)"/><path d="m0 0 4.34 4.34 21.703-19.787-3.83-3.319-7.277 4.851Q2.73-28.069-9.482-42.219c-5.586-6.472-4.911-15.527 1.567-21.228 9.575-8.425 20.043 1.787 23.234 4.979 3.192 3.191 21.958 25.021 21.958 25.021l-6 6.511 3.702 3.83L51.83-38.298l-3.958-4.085-4.978 4.851-26.298-28.213S5.234-77.489-8.17-71.234s-20.936 18.638-16.085 30.255c0 0 .383 1.788 10.34 13.66S5.617-5.234 5.617-5.234z" clip-path="url(#q)" style="fill:#fff;fill-opacity:1;fill-rule:nonzero;stroke:none" transform="matrix(1.33333 0 0 -1.33333 392.74 1035.897)"/><path d="M0 0s15.83 1.191 18.043.851S25.277 0 23.064-5.362c-2.213-5.361-12.17-1.957-15.915-.851S0-3.532 0-3.532Z" clip-path="url(#r)" style="fill:#fff;fill-opacity:1;fill-rule:nonzero;stroke:none" transform="matrix(1.33333 0 0 -1.33333 431.095 1048.55)"/><path d="m0 0 9.319 14.426 48-27.575-8.553-15.957-6.638 4.212 4.723 11.107L36.383-8.01 9.447-52.723l8.17-5.49-3.064-4.468-27.447 15.83 2.937 4.723 8.553-3.829L24.894-.511 14.043 5.745 6.766-3.702z" clip-path="url(#s)" style="fill:#fff;fill-opacity:1;fill-rule:nonzero;stroke:none" transform="matrix(1.33333 0 0 -1.33333 456.23 1111.472)"/><path d="m0 0-19.16 17.35c3.97 4.73 12.21 16.28 23.09 7.08S0 0 0 0m-24.39 21.11-16.74 15.14s9.11 12.71 17.96 7.35c8.85-5.35 7.76-14.55-1.22-22.49M11.94 35.1c-12.82 8.47-23.5-3.33-23.5-3.33 1.41 3.15 7.93 13.87-3.5 21.36-11.43 7.5-22.65-4.63-22.65-4.63l-21.85-25.2 3.62-3.66 6.32 6.13L-9.88-9.51l-4.07-6.34 3.69-3.14S7.62 1.47 10 5.33s14.77 21.3 1.94 29.77" clip-path="url(#t)" style="fill:#fff;fill-opacity:1;fill-rule:nonzero;stroke:none" transform="matrix(1.33333 0 0 -1.33333 1121.96 1063.107)"/><path d="M0 0c-1.48-10.24-10.38-12.81-21.19-7.64l7.43 21.32S1.49 10.24 0 0m-7.11-32.42c-4.23-13.61-24.03-5.9-24.03-5.9l8.53 24.4c5.9-1.81 19.74-4.9 15.5-18.5m5.96 47.72-31.71 10.32-1.97-4.76 8.11-3.44-17.02-50.34-7.43 1.28-1.45-4.62s25.81-8.5 30.29-9.19 25.37-5.31 28.17 9.8C8.65-20.53-6.38-15.3-6.38-15.3c3.45-.07 15.87-1.9 18.32 11.55S-1.15 15.3-1.15 15.3" clip-path="url(#u)" style="fill:#fff;fill-opacity:1;fill-rule:nonzero;stroke:none" transform="matrix(1.33333 0 0 -1.33333 585.427 1166.68)"/><path d="M0 0c-1.15-15.33-9.31-27.21-18.24-26.54-8.92.67-15.22 13.64-14.07 28.97 1.15 15.32 9.32 27.2 18.24 26.53S1.15 15.33 0 0m-16.09 34.37c-17.13 0-31.02-15.32-31.02-34.21 0-18.9 13.89-34.22 31.02-34.22 17.14 0 31.03 15.32 31.03 34.22 0 18.89-13.89 34.21-31.03 34.21" clip-path="url(#v)" style="fill:#fff;fill-opacity:1;fill-rule:nonzero;stroke:none" transform="matrix(1.33333 0 0 -1.33333 679.04 1209.04)"/><path d="m0 0 30.255 1.915V-3.83l-8.17-.766 2.553-52.34H44.17s.256 14.681 1.022 14.681c.765 0 8.17.127 8.17.127l-.383-20.681-49.833-1.659v5.745l8.216.893L8.553-5.489 0-5.234Z" clip-path="url(#w)" style="fill:#fff;fill-opacity:1;fill-rule:nonzero;stroke:none" transform="matrix(1.33333 0 0 -1.33333 712.74 1170.706)"/><path d="m0 0 7.319 3.404L1.702 16.34s-33.021 3.915-40.34-19.914 5.276-44.937 26.893-47.49 32.511 13.107 32.511 13.107l-3.745 13.446-7.659-1.872 2.723-11.574S.851-48.511-10.894-42.383s-16.51 20.766-16.851 30.809c-.34 10.042 3.064 21.617 21.788 23.148z" clip-path="url(#x)" style="fill:#fff;fill-opacity:1;fill-rule:nonzero;stroke:none" transform="matrix(1.33333 0 0 -1.33333 894.528 1161.798)"/><path d="M0 0c.511.383 26.426 14.809 26.426 14.809l2.553-4.979-6.894-4.724S47.489-41.957 48-41.085s16.34 10.064 16.34 10.064l-4.978 11.872 7.532 3.83 7.787-16.468-43.404-25.022-2.171 5.362 6.766 4.341L9.957-.894 1.915-4.213Z" clip-path="url(#y)" style="fill:#fff;fill-opacity:1;fill-rule:nonzero;stroke:none" transform="matrix(1.33333 0 0 -1.33333 907.975 1130.195)"/><path d="M0 0c.255.383 22.723 18.638 22.723 18.638l3.064-4.085-6.893-6.383 26.298-29.617s9.574-9.765 20.297 1.054-4.085 23.967-7.915 29.074c-3.829 5.106-15.063 18.638-15.063 18.638l-7.277-5.106-4.085 4.085 18.383 14.936 3.191-4.596-5.872-5.489L68.298 5.234s12.511-12.638 6.383-26.425-26.523-20.298-36.496-11.873C28.213-24.638 9.702 0 9.702 0L2.936-4.085Z" clip-path="url(#z)" style="fill:#fff;fill-opacity:1;fill-rule:nonzero;stroke:none" transform="matrix(1.33333 0 0 -1.33333 971.634 1094.96)"/><path d="M0 0v-15.319s23.234-22.213 50.298 0c0 0 25.787-23.745 48.766.255 0 0 27.319-22.468 50.553.255 0 0 24.255-22.212 50.809-.255 0 0 25.531-23.489 49.276.255 0 0 26.553-24.51 50.298.256 0 0 25.787-24.511 49.532.255 0 0 23.489-24.255 50.553 0 0 0 18.128-24 49.277-.766V0s-24-24.766-49.277 0c0 0-25.787-25.021-50.808 0 0 0-21.447-24.766-50.043 0 0 0-21.447-24.511-49.532 0 0 0-24.511-25.021-49.532 0 0 0-25.532-24.255-50.808 0 0 0-21.958-24.255-50.298 0 0 0-22.724-25.532-48.511 0 0 0-23.489-25.021-50.553 0" clip-path="url(#A)" style="fill:#223e86;fill-opacity:1;fill-rule:nonzero;stroke:none" transform="matrix(1.33333 0 0 -1.33333 422.698 857.344)"/><path d="M0 0v-15.319s23.234-22.213 50.298 0c0 0 25.787-23.745 48.766.255 0 0 27.319-22.468 50.553.255 0 0 24.255-22.212 50.809-.255 0 0 25.531-23.489 49.276.255 0 0 26.553-24.51 50.298.256 0 0 25.787-24.511 49.532.255 0 0 23.489-24.255 50.553 0 0 0 18.128-24 49.277-.766V0s-24-24.766-49.277 0c0 0-25.787-25.021-50.808 0 0 0-21.447-24.766-50.043 0 0 0-21.447-24.511-49.532 0 0 0-24.511-25.021-49.532 0 0 0-25.532-24.255-50.808 0 0 0-21.958-24.255-50.298 0 0 0-22.724-25.532-48.511 0 0 0-23.489-25.021-50.553 0" clip-path="url(#B)" style="fill:#223e86;fill-opacity:1;fill-rule:nonzero;stroke:none" transform="matrix(1.33333 0 0 -1.33333 422.698 895.925)"/><path d="m0 0 43.06-31.92-16.08-52.59h-54.89l-16.6 52.59z" clip-path="url(#C)" style="fill:#1d1d1b;fill-opacity:1;fill-rule:nonzero;stroke:none" transform="matrix(1.33333 0 0 -1.33333 723.067 592.147)"/><path d="m0 0-40.68-6.47-21.44-36.42 7.66-10.9s-29.11-6.46-48.86 0l6.81 11.24-22.12 36.08-39.49 6.3-7.15-8.17s-18.3 28.26-13.62 65.7l4.77-2.04 33.02 20.77 1.36 43.23-4.6 2.38s10.56 10.9 32.34 18.9v-5.62l33.11-21.11 32.26 21.11v5.62s21.95-7.83 32.68-18.56l-4.94-3.4.85-42.38 33.36-20.94 5.45 2.21S24.68 18.21 6.64-8zm-78.89 156.26c-61.48 0-111.32-49.84-111.32-111.32S-140.37-66.38-78.89-66.38 32.43-16.54 32.43 44.94-17.41 156.26-78.89 156.26" clip-path="url(#D)" style="fill:#223e86;fill-opacity:1;fill-rule:nonzero;stroke:none" transform="matrix(1.33333 0 0 -1.33333 828.253 713.8)"/><path d="m0 0-16.08-52.59h-54.89L-87.57 0l44.51 31.92Z" clip-path="url(#E)" style="fill:#1d1d1b;fill-opacity:1;fill-rule:nonzero;stroke:none" transform="matrix(1.33333 0 0 -1.33333 780.48 634.707)"/><path d="m0 0-16.08-52.59h-54.89L-87.57 0l44.51 31.92Z" clip-path="url(#F)" style="fill:#223e86;fill-opacity:1;fill-rule:nonzero;stroke:none" transform="matrix(1.33333 0 0 -1.33333 780.48 634.707)"/><path d="M0 0s15.49.34 14.47-11.92c0 0-5.71 9.71-14.47 11.92m-36.09 26.38s4.94 1.07 7.7-.42c2.77-1.49 6.13-6.09 7.45-7.71 1.32-1.61 1.41-3.06 1.41-3.06s-5.88 9.41-16.56 11.19m-19.27-.64s1.49.22 2.85.3c0 0-1.28-1.87-2.85-.3M16.3-18.55c1.91 2.55 2.17 7.66 2.17 7.66s8.68.38 9.19 6.51c.51 6.12-2.3 6.51-8.05 10.59-5.74 4.09-9.06 5.24-8.17 11.24 0 0 7.03-1.54 6.39 6.89 0 0-4.47-.38-6.64-5.36 0 0-6.51-5.49 1.53-11.24C20.76 2 30.21-4 17.19-5.92c0 0-8.68 10.98-25.28 8.56 0 0-5.87 6.25-7.4 12-1.53 5.74-7.79 16.76-25.79 14.7 0 0-.72 1.55.3 2.74 1.02 1.2 5.49 5.45-6.25 9.53.3-.27 5.9-5.31 3.91-6.67-2.04-1.41-7.41-2.39-10.47-5.6s-5.49-5.51-7.4-6.66c-1.92-1.15-4.22-.77-3.83-2.55.38-1.79 1.53-6.39 4.08-5.11s2.43 3.06 5.36 2.04c2.94-1.02 6.9-2.55 8.3-2.81 0 0-3.1-15.28 4.39-22 0 0 3.02-.94 11.82 0 0 0-9.57-1.74-9.7-3.27s-1.91-14.04.13-17.75c2.04-3.7 1.4-6.51 3.57-6.51s3.58 3.96 3.58 3.96-2.94 1.28-3.07 3.45c-.12 2.17.64 11.1.64 11.1s6.51-5.49 12.77-4.34c6.25 1.15 7.79 3.07 12.25 1.92 4.47-1.15 6.9-1.92 6.9-1.92l1.15 4.85S.59-32.21 10.93-38.98c0 0 1.41-2.42 1.15-5.87-.25-3.45-2.55-2.68-2.93-2.94-.24-.15-.52-.88-.71-1.42l-.005-.014c-3.557.185-7.07.237-10.455.193-.065.11-.11.203-.11.265 0 .34.426 1.446 1.106 2.383.681.936.936 5.446 1.022 7.319.085 1.872 2.553 4.595 1.872 5.361s-2.894 2.298-3.83 4.851-1.276 5.362-1.276 5.362l-1.617 1.107c-2.639 1.446-11.575.68-11.575.68C-14.3-29.107-3.917-36.681-3.917-36.681s1.276-8.511-.936-9.532c-1.344-.62-2.934-2.022-3.98-3.029-13.123-.642-22.914-2.418-22.914-2.418h58.808c-4.377 1.001-8.943 1.66-13.513 2.073l.002.007c.31 1.2 1.6 6.31 1.6 7.66 0 1.54-.13 2.69 1.02 3.71s1.27 2.42-.9 4.46c-2.17 2.05-2.8 7.28-2.55 8.56.26 1.27 1.66 4.08 3.58 6.64" clip-path="url(#G)" style="fill:#223e86;fill-opacity:1;fill-rule:nonzero;stroke:none" transform="matrix(1.33333 0 0 -1.33333 1243.013 710.733)"/><path d="m0 0 4.149 3.596s-3.191.298-6 .361c-2.809.064-3.191 1.979-3.191 1.979C-5.745.574 0 0 0 0" clip-path="url(#H)" style="fill:#223e86;fill-opacity:1;fill-rule:nonzero;stroke:none" transform="matrix(1.33333 0 0 -1.33333 1162.613 676.408)"/><path d="M0 0c-2.106-4.213-7.404-13.085-7.596-13.596-.191-.51-.447-2.234-.191-5.042.255-2.809.255-3.958 2.042-3.894S-3-20.745-2.234-19.34c.766 1.404-1.34 1.148-.958 3.766.383 2.617 4.361 8.659 5.053 9.468s1.713 1.829 4.458-1.49 5.298-3.766 5.298-3.766S6.83-5.106 5.808 0c0 0-3.702 4.213-5.808 0" clip-path="url(#I)" style="fill:#223e86;fill-opacity:1;fill-rule:nonzero;stroke:none" transform="matrix(1.33333 0 0 -1.33333 1168.06 708.067)"/><path d="M0 0s-15.49.34-14.47-11.92c0 0 5.71 9.71 14.47 11.92m36.09 26.38s-4.94 1.07-7.7-.42c-2.77-1.49-6.13-6.09-7.45-7.71-1.32-1.61-1.41-3.06-1.41-3.06s5.88 9.41 16.56 11.19m19.27-.64s-1.49.22-2.85.3c0 0 1.28-1.87 2.85-.3M-16.3-18.55c-1.91 2.55-2.17 7.66-2.17 7.66s-8.68.38-9.19 6.51c-.51 6.12 2.3 6.51 8.05 10.59 5.74 4.09 9.06 5.24 8.17 11.24 0 0-7.03-1.54-6.39 6.89 0 0 4.47-.38 6.64-5.36 0 0 6.51-5.49-1.53-11.24C-20.76 2-30.21-4-17.19-5.92c0 0 8.68 10.98 25.28 8.56 0 0 5.87 6.25 7.4 12 1.53 5.74 7.79 16.76 25.79 14.7 0 0 .72 1.55-.3 2.74-1.02 1.2-5.49 5.45 6.25 9.53-.3-.27-5.9-5.31-3.91-6.67 2.04-1.41 7.41-2.39 10.47-5.6s5.49-5.51 7.4-6.66c1.92-1.15 4.22-.77 3.83-2.55-.38-1.79-1.53-6.39-4.08-5.11s-2.43 3.06-5.36 2.04c-2.94-1.02-6.9-2.55-8.3-2.81 0 0 3.1-15.28-4.39-22 0 0-3.02-.94-11.82 0 0 0 9.57-1.74 9.7-3.27s1.91-14.04-.13-17.75c-2.04-3.7-1.4-6.51-3.57-6.51s-3.58 3.96-3.58 3.96 2.94 1.28 3.07 3.45c.12 2.17-.64 11.1-.64 11.1s-6.51-5.49-12.77-4.34c-6.25 1.15-7.79 3.07-12.25 1.92C6.43-20.34 4-21.11 4-21.11l-1.15 4.85S-.59-32.21-10.93-38.98c0 0-1.41-2.42-1.15-5.87.25-3.45 2.55-2.68 2.93-2.94.24-.15.52-.88.71-1.42l.005-.014c3.557.185 7.07.237 10.455.193.065.11.11.203.11.265 0 .34-.426 1.446-1.106 2.383-.681.936-.937 5.446-1.022 7.319-.085 1.872-2.553 4.595-1.872 5.361s2.894 2.298 3.83 4.851 1.276 5.362 1.276 5.362l1.617 1.107c2.639 1.446 11.575.68 11.575.68C14.3-29.107 3.917-36.681 3.917-36.681s-1.276-8.511.936-9.532c1.344-.62 2.934-2.022 3.98-3.029 13.123-.642 22.914-2.418 22.914-2.418h-58.808c4.376 1.001 8.943 1.66 13.513 2.073l-.002.007c-.31 1.2-1.6 6.31-1.6 7.66 0 1.54.13 2.69-1.02 3.71s-1.27 2.42.9 4.46c2.17 2.05 2.8 7.28 2.55 8.56-.26 1.27-1.66 4.08-3.58 6.64" clip-path="url(#J)" style="fill:#223e86;fill-opacity:1;fill-rule:nonzero;stroke:none" transform="matrix(1.33333 0 0 -1.33333 202.572 711.331)"/><path d="m0 0-4.149 3.596s3.192.298 6 .361c2.809.064 3.192 1.979 3.192 1.979C5.745.574 0 0 0 0" clip-path="url(#K)" style="fill:#223e86;fill-opacity:1;fill-rule:nonzero;stroke:none" transform="matrix(1.33333 0 0 -1.33333 282.972 677.006)"/><path d="M0 0c2.106-4.213 7.404-13.085 7.596-13.596.191-.51.447-2.234.191-5.042-.255-2.809-.255-3.958-2.042-3.894-1.788.064-2.745 1.787-3.511 3.192-.766 1.404 1.34 1.148.958 3.766-.383 2.617-4.361 8.659-5.053 9.468s-1.713 1.829-4.458-1.49-5.298-3.766-5.298-3.766S-6.83-5.106-5.808 0c0 0 3.702 4.213 5.808 0" clip-path="url(#L)" style="fill:#223e86;fill-opacity:1;fill-rule:nonzero;stroke:none" transform="matrix(1.33333 0 0 -1.33333 277.525 708.665)"/><path d="M0 0c-250.42 0-454.16 203.74-454.16 454.16S-250.42 908.32 0 908.32s454.16-203.74 454.16-454.16S250.42 0 0 0m428.6 635.22c-23.42 55.39-56.96 105.14-99.68 147.86-42.72 42.71-92.46 76.25-147.85 99.68C123.71 907.02 62.8 919.32 0 919.32c-62.79 0-123.71-12.3-181.06-36.56-55.39-23.43-105.14-56.97-147.86-99.68-42.71-42.72-76.25-92.47-99.68-147.86-24.26-57.35-36.56-118.27-36.56-181.06s12.3-123.71 36.56-181.06c23.43-55.39 56.97-105.14 99.68-147.86 42.72-42.71 92.47-76.25 147.86-99.68C-123.71 1.3-62.79-11 0-11c62.8 0 123.71 12.3 181.07 36.56 55.39 23.43 105.13 56.97 147.85 99.68 42.72 42.72 76.26 92.47 99.68 147.86 24.26 57.35 36.56 118.27 36.56 181.06s-12.3 123.71-36.56 181.06" clip-path="url(#M)" style="fill:#223e86;fill-opacity:1;fill-rule:nonzero;stroke:none" transform="matrix(1.33333 0 0 -1.33333 720 1325.547)"/><path d="M0 0c-63.12-170.02-227.45-284.26-408.9-284.26-180.43 0-344.44 113.38-408.12 282.13C-835.57 47-844.98 98.8-844.98 151.82c0 51.44 8.87 101.79 26.36 149.65 62.59 171.32 227.24 286.42 409.72 286.42 182.47 0 347.12-115.1 409.7-286.42l.7-1.88c17.03-47.29 25.67-97 25.67-147.77C27.17 99.59 18.03 48.51 0 0m11.15 305.25-1.33 3.61H9.8c-15.4 41.06-36.78 79.58-63.56 114.56a449.3 449.3 0 0 1-96.21 92.9c-75.91 54.02-165.45 82.57-258.93 82.57-93.49 0-183.03-28.55-258.94-82.57a449.3 449.3 0 0 1-96.21-92.9c-27.57-36-49.41-75.76-64.91-118.17-17.93-49.07-27.02-100.69-27.02-153.43 0-54.35 9.64-107.45 28.66-157.83 15.8-41.86 37.8-81.06 65.38-116.51a449.2 449.2 0 0 1 95.99-91.5c75.5-53.15 164.39-81.24 257.05-81.24 93.07 0 182.28 28.32 257.98 81.9a449.2 449.2 0 0 1 96.1 92.2C-27.24-85.44-5.33-45.96 10.32-3.83 28.8 45.91 38.17 98.28 38.17 151.82c0 52.74-9.09 104.36-27.02 153.43" clip-path="url(#N)" style="fill:#223e86;fill-opacity:1;fill-rule:nonzero;stroke:none" transform="matrix(1.33333 0 0 -1.33333 1265.72 919)"/><path d="M0 0c-104.4 0-202.45 55.79-255.9 145.6-27.28 45.82-41.69 98.38-41.69 151.99 0 52.75 13.98 104.57 40.43 149.86C-203.94 538.57-105.4 595.18 0 595.18c105.41 0 203.95-56.61 257.16-147.73 26.45-45.29 40.43-97.11 40.43-149.86s-13.98-104.58-40.43-149.87C203.94 56.6 105.4 0 0 0m266.66 452.99C153.44 655.4-153.42 655.36-266.65 453-387.8 253.45-233.58-15.26 0-11c233.6-4.3 387.76 264.45 266.66 463.99" clip-path="url(#O)" style="fill:#223e86;fill-opacity:1;fill-rule:nonzero;stroke:none" transform="matrix(1.33333 0 0 -1.33333 720.693 1114.813)"/></svg>