<svg xmlns="http://www.w3.org/2000/svg" xml:space="preserve" style="shape-rendering:geometricPrecision;text-rendering:geometricPrecision;image-rendering:optimizeQuality;fill-rule:evenodd;clip-rule:evenodd" viewBox="91.43 17.66 12317.16 14464.67"><defs><style>.fil0{fill:#b00000}</style></defs><g id="Layer_x0020_1"><g id="_851461144"><path d="M12408.32 10333.48V416.1c-2780.33 1013.4-4833.1 874.8-6158.31-398.44C4924.81 1290.9 2872.04 1429.5 91.7 416.1v9917.38c-8.67 1030.72 190.55 1697.66 597.65 2000.8 433.06 372.46 1203.93 623.62 2321.26 762.22 1091.35 95.26 1844.9 207.88 2269.3 355.11 415.75 95.28 736.24 441.73 970.1 1030.72 233.86-588.99 554.33-935.44 970.08-1030.72 424.41-147.23 1186.63-259.85 2277.97-355.11 1117.34-138.6 1888.19-389.76 2312.62-762.22 407.07-303.14 606.29-970.08 597.64-2000.8m-329.14-9475.64c-2572.46 857.48-4512.64 718.89-5829.17-415.75C4933.46 1576.73 2993.28 1715.32 420.83 857.84v9856.75c-25.99 814.17 285.82 1368.52 935.44 1671.66 433.08 199.22 1013.39 329.14 1749.63 398.44l1160.62 129.92c1074.04 129.92 1732.3 407.08 1983.49 848.81 251.17-441.73 918.11-718.89 1983.47-848.81l1160.65-129.92c736.22-69.3 1316.53-199.22 1749.61-398.44 649.61-303.14 961.42-857.49 935.44-1671.66z" class="fil0"/><path d="M12079.18 857.84c-2572.46 857.48-4512.64 718.89-5829.17-415.75C4933.46 1576.73 2993.28 1715.32 420.83 857.84v9856.75c-25.99 814.17 285.82 1368.52 935.44 1671.66 433.08 199.22 1013.39 329.14 1749.63 398.44l1160.62 129.92c1074.04 129.92 1732.3 407.08 1983.49 848.81 251.17-441.73 918.11-718.89 1983.47-848.81l1160.65-129.92c736.22-69.3 1316.53-199.22 1749.61-398.44 649.61-303.14 961.42-857.49 935.44-1671.66z" style="fill:#fff"/><path d="M11074.44 2607.45c34.66 60.62 51.97 164.56 51.97 320.47l-8.66 407.09c0 95.29 0 164.56 8.66 216.53h8.67v25.99c8.66 86.63 25.99 147.25 43.3 190.56v8.66h-355.11l-17.33-8.66c-8.65-8.67-8.65-25.98-17.33-60.64l-17.31-69.28c-60.64 60.62-129.92 103.94-199.22 129.92-69.3 25.99-147.25 43.3-233.86 43.3-147.25 0-268.5-34.64-346.45-112.6-86.63-77.95-129.92-173.23-129.92-285.82 0-77.96 17.31-147.26 60.62-207.88 34.64-60.62 86.61-112.59 164.56-138.58 60.65-25.98 164.58-60.64 294.51-86.62 164.56-25.99 285.82-51.97 355.1-77.96v-25.98c0-69.28-17.31-112.59-51.97-138.58-34.64-25.98-95.26-43.31-190.54-43.31-60.63 0-112.59 8.67-147.25 34.66-43.3 25.98-51.97 69.27-43.3 129.92h-381.11v-17.33c-8.65-25.99 0-69.3 8.65-129.92 17.33-77.96 69.3-147.26 164.59-207.88 95.26-60.62 242.51-95.28 424.4-95.28 164.56 0 294.49 17.33 372.44 60.64 86.63 34.64 147.25 77.96 181.89 138.58m-770.86 883.47c43.3 34.64 86.61 51.97 147.23 51.97 60.65 0 121.27-17.33 181.89-60.63 43.32-25.98 77.96-69.29 86.63-112.61 8.66-25.98 17.31-86.61 17.31-164.56v-60.62l-216.53 51.97c-103.94 25.98-173.23 43.29-199.22 60.62-43.29 25.98-69.28 69.3-69.28 112.59 0 43.32 17.31 86.63 51.97 121.27M9151.59 2408.23c164.58 0 294.51 34.66 389.77 103.94 95.28 69.29 164.58 173.23 207.87 311.81l8.68 8.67v8.66l8.65 69.3h-372.42999999999995l-8.68-8.68c-8.65-60.62-34.64-112.59-69.28-147.23-43.31-34.66-95.28-51.97-164.58-51.97-77.95 0-147.23 25.99-199.2 86.61s-77.95 155.91-77.95 294.48c0 155.91 25.98 268.52 77.95 329.15 51.97 60.62 121.25 95.28 207.88 95.28 60.62 0 112.59-17.33 155.9-51.97 43.3-43.31 77.96-103.94 95.27-190.57v-8.65h372.45l-8.67 60.62v8.68l-8.66 8.65v17.33c-43.31 147.23-112.59 259.85-207.87 337.8-103.94 77.95-242.52 121.25-415.75 121.25-199.22 0-355.13-60.63-467.72-190.55-121.27-121.27-181.89-294.48-181.89-511.03 0-216.53 60.62-389.77 181.89-519.69 112.59-121.25 277.17-181.89 476.37-181.89m-874.79-467.72v329.14l-8.68 8.66h-346.45l-8.66-8.66v-329.14l8.66-8.66h346.45zm-363.79 502.38 8.66-8.68h346.45l8.68 8.68v1333.8600000000001h-363.79V2442.89m-320.48-25.99c69.3-8.67 138.59-8.67 199.22 0v320.47l-8.66 8.66-69.3-8.66-164.56 17.33c-51.97 8.66-95.28 25.99-129.92 51.97-25.98 25.98-51.97 69.28-77.95 129.92-17.33 60.63-25.99 199.2-25.99 424.41v415.75h-372.45000000000005V2442.89l8.67-8.68h329.12l8.68 8.68v225.18c34.64-69.28 77.95-129.92 129.92-173.21 43.29-43.32 103.94-69.3 173.22-77.96m-1030.71-632.3-398.44 424.43h-8.65v8.65h-225.21l-8.65-8.65v-8.68l233.86-424.4v-8.66h407.09v17.310000000000002m-632.3 987.41c-43.29 51.97-69.27 121.27-69.27 216.55h528.34c0-95.28-25.99-173.24-77.95-216.55-51.97-51.97-112.6-77.95-181.9-77.95-77.95 0-147.25 25.98-199.22 77.95m8.68 675.6c51.97 60.64 121.25 86.62 207.87 86.62 51.97 0 95.27-17.33 138.58-43.31 43.32-34.64 69.3-86.61 86.61-147.25h415.75l-25.98 69.3-17.31 43.31c-51.97 112.59-121.27 190.55-216.55 251.17-103.94 69.3-233.86 103.94-389.77 103.94-251.17 0-433.06-77.96-545.67-233.86-95.27-121.25-138.58-277.16-138.58-459.05 0-216.55 60.62-389.76 181.89-519.69 121.27-129.92 277.17-190.56 467.72-190.56 216.53 0 381.11 69.3 502.36 199.22 121.27 129.92 181.89 337.8 173.23 606.3l-8.65 8.67h-918.13c8.68 95.26 34.66 164.56 86.63 225.19M4413.77 2616.1c60.63-69.27 121.27-121.24 190.55-155.9 69.3-34.64 147.25-51.97 233.86-51.97 95.28 0 181.89 17.33 259.84 60.64 77.96 43.3 129.92 103.94 164.58 181.89 25.99 51.97 34.64 147.23 34.64 277.16v848.8299999999999h-381.10999999999996v-762.1999999999999c0-129.93-17.31-207.88-43.29-251.19-25.99-43.32-77.96-69.3-147.25-69.3-43.32 0-95.29 17.33-138.58 43.31-43.32 25.99-69.3 69.3-95.28 129.92-17.33 51.97-25.99 138.58-25.99 268.5v632.3l-8.65 8.66h-372.46000000000004l-8.66-8.66v-718.91c0-129.92-8.65-207.87-17.32-251.19-8.66-34.63-25.99-60.62-51.97-77.95-25.99-17.31-69.28-25.98-112.6-25.98-51.96 0-103.93 17.33-147.25 43.31-43.29 25.99-69.28 69.3-86.61 121.27-25.98 51.97-34.63 138.58-34.63 268.5v649.61h-381.12V2442.89l8.66-8.68h337.8v8.68h8.67v164.56c121.25-129.92 259.84-199.22 424.41-199.22 86.6 0 164.56 17.33 233.86 51.97 60.62 34.66 112.59 86.63 155.9 155.9m-1948.83-684.25 8.66 8.66h8.67l736.22 1827.58v8.66h-424.41L2638.18 3361h-727.57l-147.25 415.75h-415.75v-8.66l718.91-1827.58h8.65v-8.66zm43.31 1108.68-242.53-640.96-233.86 640.96zM8380.73 6245.27l8.66 138.58c17.33 60.64 51.97 77.95 103.94 34.65 528.34-285.82 1013.39-519.68 1455.12-710.25-381.11 303.16-831.5 597.64-1342.53 883.47-34.64 43.31-34.64 77.95 8.67 112.61l43.3 51.97c60.64 43.3 129.92 34.64 216.55-8.67 233.86-112.6 450.39-251.17 666.92-398.42-155.91 207.87-381.09 415.75-684.25 632.28-77.95 60.64-155.91 60.64-242.52 17.33l-320.48-259.85-259.85 147.25-285.83 155.91 103.94 112.59 640.96 614.97 441.73 311.82c121.27 121.24 164.56 285.83 129.92 493.7-77.95-95.28-147.25-190.56-216.53-303.16-8.67-25.98-34.66-43.31-69.29-43.31-43.32-8.66-77.96 8.67-86.61 34.66v112.59c0 77.95-17.33 129.92-60.65 155.91-77.95-103.94-112.59-242.52-121.24-407.1 0-25.98-17.33-60.62-60.65-86.61-95.26-60.62-199.2-129.92-311.81-199.22-259.84-121.24-528.34-303.14-805.52-554.32l-597.64 363.78-121.25 467.72c-17.33 147.25 34.64 251.19 164.56 303.16 450.39 251.16 840.16 545.67 1160.65 866.14 43.29 34.63 77.95 86.6 86.61 164.56 8.65 103.93-60.63 268.52-190.55 493.7-147.25 259.85-251.19 537.02-311.81 831.5l-51.97 129.92c-43.31 60.65-43.31 129.93-17.33 225.21l60.62 181.89c34.66 147.25 129.93 251.19 294.51 294.48l95.26 17.33c43.31 0 60.64 17.33 34.66 51.97-60.64 60.63-147.25 86.61-259.84 77.96h-69.3c-138.58 8.65-242.52-43.32-303.16-138.58-77.96-164.58-190.55-268.52-320.47-320.49-129.92-60.62-155.91-147.23-77.95-268.5l121.26-173.23c112.6-181.89 147.24-381.1 86.61-597.65-25.98-199.2 17.33-389.76 112.59-588.96 43.32-51.97 34.66-77.96-25.98-86.63-233.86-60.62-485.03-147.23-744.87-251.17-60.65-25.98-103.94-34.66-121.27-8.68-17.33 17.33-25.98 43.32-17.33 86.63 0 112.6-8.65 207.88-17.31 285.83-43.31 147.23-51.97 268.5-43.31 355.11l-8.66 164.58c25.99 121.25 0 225.19-60.64 311.81l-190.55 190.55c-285.83 251.19-537.02 519.69-744.89 814.17-164.56 190.57-207.88 389.77-121.25 606.32l164.56 329.12c43.32 60.64 86.61 86.63 121.27 77.95 34.64-8.65 51.97 17.33 51.97 60.65 0 34.64-17.33 51.97-60.64 43.29H5106.7c-86.63 0-147.25-43.29-173.24-138.58l-43.31-86.6c-51.97-147.26-147.23-259.85-285.83-320.49l-17.31-8.66c-95.28-34.64-138.6-86.6-138.6-155.9-17.31-103.94 34.66-190.55 147.25-259.85 199.22-147.25 355.13-389.76 450.39-718.91 77.96-311.81 242.54-545.67 485.05-710.23 95.29-77.95 121.27-216.53 60.63-433.08l-69.28-207.88c-112.61-207.87-173.24-476.37-190.57-805.51-147.23 0-268.5-25.99-381.09-69.28l-1117.33 692.9c95.26 121.27 199.2 251.19 320.47 381.11 43.31 43.32 69.3 43.32 95.28 0 43.29-86.6 77.95-190.54 103.94-303.15 60.62 329.14 77.95 571.65 43.29 718.91-251.17-25.99-485.03-129.93-701.58-320.47l268.52 51.97c77.96 0 95.27-17.33 51.97-51.97-112.61-147.25-207.87-277.18-285.83-407.1l-1203.96 762.2-60.62-95.26 1195.28-779.53c-259.84-424.43-381.11-753.55-372.43-996.08 43.29-337.8 233.86-519.69 562.98-528.35 233.86 0 415.75 60.63 528.36 181.89l337.8 355.13c69.28 77.95 138.58 138.58 216.53 181.89l121.27-77.95c-8.68-95.28-69.3-216.55-181.89-355.13-164.58-251.19-303.16-519.69-415.75-796.86-43.32-43.29-43.32-77.95 0-121.25l588.96-840.17c103.94-199.21 277.18-337.8 528.37-424.41 121.24-51.97 207.87-112.59 268.5-173.24 86.6-95.26 112.59-225.18 69.29-389.76-77.95-216.53-86.62-398.42-8.67-545.68 77.95-155.9 199.22-242.51 381.11-259.84 121.27 0 259.85 34.66 415.75 95.28 43.32 17.33 86.61 25.99 129.92 25.99l129.93-25.99-69.3 121.27c-17.31 17.31-25.99 43.29-17.31 69.28 0 121.27 8.65 233.86 17.31 346.47l77.95 95.26-95.26 51.97-34.66 164.58c-17.31 51.97-17.31 95.27-8.66 138.58l43.32 103.94-69.3 43.31c-43.31-8.67-95.28-17.33-147.25-43.31-60.63-34.64-103.94-34.64-121.25 8.65-25.98 43.32-25.98 77.96 8.66 121.27 34.63 43.32 103.93 60.62 199.22 69.3 129.92 8.65 242.51 77.95 320.46 207.87 155.91 233.86 346.46 476.38 563.01 727.57l424.4-259.85 121.27-77.95 8.65-441.73c-8.65-86.63 25.99-147.26 112.6-173.24 372.45-138.58 701.58-225.21 978.75-251.19l-762.2 320.49c-86.63 43.29-129.93 121.25-129.93 216.53m407.08 4070.9c147.25 0 268.52 51.97 372.46 147.23 95.26 103.94 147.23 225.2 147.23 372.46 0 147.23-51.97 268.5-147.23 363.78-103.94 103.94-225.21 155.91-372.46 155.91-147.23 0-277.15-51.97-381.09-155.91-95.28-95.28-147.25-216.55-147.25-363.78 0-147.26 51.97-268.52 147.25-372.46 103.94-95.26 233.86-147.23 381.09-147.23M5626.39 7769.69l-190.57 268.5c-17.31 25.99-34.64 34.64-60.62 17.33-181.89-86.63-277.18-190.56-303.16-311.81l-86.61-407.1c-17.33-51.96-17.33-86.6 8.65-103.93 121.27-69.3 233.86-164.56 329.15-285.83 17.33-25.99 34.64-25.99 43.31 0 103.94 155.9 190.55 329.14 259.85 528.34 43.29 95.28 43.29 199.22 0 294.5m1576.37-606.31-398.42 251.19 138.58-441.74c17.33-60.62 43.31-60.62 69.29-8.65zm-2563.78 1325.2-311.82-320.46c-147.25-138.58-303.15-199.23-467.72-190.55-277.17 25.98-424.42 181.89-450.41 450.39 8.68 268.5 129.93 571.66 355.13 892.12l1048.03-666.91c-60.62-43.32-121.24-103.94-173.21-164.59m459.04 147.26c77.96 25.98 155.91 25.98 233.86 17.33v-155.91z" class="fil0"/></g></g></svg>