<svg xmlns="http://www.w3.org/2000/svg" data-bbox="60.762 39.43 490.772 725.45" data-type="ugc" viewBox="60.76 214.66 490.77 550.22"><g fill-rule="evenodd"><path fill="#f3e638" d="M92.78 559.89h112.14l.16-10.64c2.16 1.67 1.43 2.71 8.11 7.5 5.27 3.78 4.25 2.82 11.28 1.19 14.42-3.34 20.64-.13 19.94-12.21-.27-4.67-1.66-8.74-3.54-12.35-6.75-12.98-23.38-3.59-37.61-2.81-1.17 5.12.06 12.21-.02 17.54-6.39-3.3-11.99-15.68-12.3-15.97-1.02-.98-4.02-.94-6.37-3.23-3.33-3.25-4.44-7.66-6.56-12.56-1.16-2.67-6.98-3.82-7.89-11.28 11.13-11.42 21.24-10.69 34.03-16.15.98-8.78 1.25-8.01 8.82-11.33 22.81-9.99 54.38-14.46 79.2-8.44 3.58.87 4.5-.98 6.9-2.59 8.58-5.74 22.57-7.61 34.38-6.16.11 2.32-1.13 10.8-1.55 13.63-.74 4.97-2.27 8.25-4.24 11.82 3.75 1.06 9.28 1.7 13.55 2.73 11.42 2.75 31.29 9.92 40.44 7.44 3.31-.9 7.36-4.64 9.73-6.52l27.53-21.28c18.87-13.21 39.88-15.56 60.22-.87 1.89 1.37 2.93 2.4 4.52 3.62 1.86 1.43 2.19 2.17 4.16 3.97 12.22 11.18 3.75 18.39-1.41 18.87-7.63.71-7.58-5.87-19.1-13.67-7.18-4.85-15.98-7.22-26.16-4.06-8.09 2.52-15.08 8.1-20.25 12.31-6.23 5.06-12.11 9.45-18.22 14.31l-27.37 21.42c-3.05 2.45-5.9 4.76-9.12 7.16l-36.03 28.55 189.09.05c.48-3.35-24.15-156.2-25.33-163.67l-19.27-122.87c-.92-6.1-5.55-37.98-6.66-41.2l-323.93-.03c-1.35 3.66-2.66 15.47-3.36 20.07-13.65 88.72-28.33 177.67-41.77 266.39-1 6.61-6.68 37.31-6.14 41.32m36.64-132.87c.86-1.15.89-.85 1.96-1.83l5.68-5.81c2.11-2.7 3.97-5.41 5.71-9.12 5.65-12.03 33.04-93.23 39.16-111.06 2.8-8.17 10.45-27.01 10.22-34.77-.11-3.67-1.19-5.83-3.51-7.97l-1.85-1.82h38.69l47.33 133.91c3.91 11.09 7.32 22.14 14.01 31.42 2.95 4.1 5.35 4.92 7.77 7.06l-47.82-.1c3.94-3 8-4 6.82-11.58-.4-2.57-3.44-12.19-4.52-14.06-1.01 1.26-1.83 3.55-2.8 5.31-12.67 22.98-48.88 28.92-69.17 5.39-3.66-4.24-4.12-6.99-6.02-9.84-1.99 2.78-3.69 10.51-3 14.9.82 5.19 4.37 7.4 7.17 9.99l-45.85-.03ZM341.2 281.17c-.07-22.43-6.74-22.67-9.11-26.52l58.13-.02c18.18.02 34.99 5.84 39.98 24.85 6.85 26.14-14.19 43.87-15.58 46.62 15.08.72 23.79 8.08 29.36 17.08 7.01 11.34 8.77 21.76 7.66 37.53-2.11 30.06-14.95 46.32-46.11 46.33l-72.89-.03c1.75-1.37 3.27-1.46 4.9-3.32 1.08-1.22 2.06-3.05 2.6-5.07 1.19-4.46 1.07-9.34 1.08-14.03l-.02-123.44Zm119.97 125.77c14.06-4.67 20.92 15.16 7.34 19.53-13.7 4.42-21.56-14.81-7.34-19.53m-152.35-.14c13.69-4.25 21.03 15.41 6.71 19.75-13.51 4.09-21.09-15.28-6.71-19.75"/><path fill="#005a13" d="M315.1 573.77c-4.13 0-5.54 1.85-7.69 3.49l-67.03 52.6c-14.82 11.52-34.32 27.52-48.59 38.02-17.36 12.77-39.28 15.21-58.2 3.39-6.55-4.09-12.17-9.23-16.49-15.56-3.45-5.06-4.48-10.8 1.33-14.27 7.55-4.51 11.35 2.59 14.04 6.07 11.23 14.54 29.9 18.18 45.73 8.71 3.82-2.28 19.89-15.22 24.64-18.91l60.63-47.5c3.91-3.1 10.97-8.68-1.47-8.48-6.1.1-13.12 1.08-17.84 3.97-4.53 2.77-7.04 8.2-14.24 7.46-10.63-1.09-20.26-12.57-24.29-18.94l-115.36.15c-3.23 18.56-11.89 69.6-11.89 86.11 0 24.73 8.17 45.08 22.01 55.86 16.53 12.86 33.87 16.38 60.16 16.38h114.83c9.63 0 17.08-1.03 25.09 3.64 2.37 1.38 3.7 2.94 5.53 3.98 3.35-1.66 6.66-7.6 20.09-7.62h127.74c48.87-.13 79.78-20.75 79.78-71.28 0-21.96-8.56-62.83-11.83-87.18l-206.69-.1Z"/><path fill="#0b0c0c" d="M92.78 559.89c-.54-4.01 5.14-34.71 6.14-41.32 13.44-88.72 28.12-177.67 41.77-266.39.71-4.61 2.02-16.41 3.36-20.07l323.93.03c1.11 3.23 5.74 35.1 6.66 41.2l19.27 122.87c1.18 7.46 25.81 160.31 25.33 163.67l-189.09-.05 36.03-28.55c3.21-2.39 6.07-4.71 9.12-7.16l27.37-21.42c6.1-4.86 11.99-9.25 18.22-14.31 5.17-4.2 12.16-9.79 20.25-12.31 10.17-3.16 18.98-.79 26.16 4.06 11.52 7.79 11.47 14.37 19.1 13.67 5.16-.48 13.63-7.69 1.41-18.87-1.97-1.8-2.3-2.55-4.16-3.97-1.59-1.22-2.63-2.25-4.52-3.62-20.34-14.69-41.35-12.34-60.22.87l-27.53 21.28c-2.36 1.88-6.41 5.63-9.73 6.52-9.15 2.48-29.02-4.69-40.44-7.44-4.28-1.03-9.81-1.67-13.55-2.73 1.97-3.57 3.51-6.85 4.24-11.82.42-2.83 1.66-11.31 1.55-13.63-11.81-1.45-25.8.43-34.38 6.16-2.4 1.6-3.32 3.45-6.9 2.59-24.82-6.02-56.4-1.55-79.2 8.44-7.58 3.32-7.85 2.56-8.82 11.33-12.8 5.46-22.9 4.73-34.03 16.15.91 7.46 6.74 8.61 7.89 11.28 2.12 4.9 3.23 9.31 6.56 12.56 2.34 2.29 5.35 2.25 6.37 3.23.31.3 5.91 12.67 12.3 15.97.07-5.33-1.15-12.42.02-17.54 14.24-.78 30.86-10.17 37.61 2.81 1.88 3.61 3.27 7.68 3.54 12.35.7 12.08-5.51 8.87-19.94 12.21-7.02 1.63-6.01 2.59-11.28-1.19-6.69-4.79-5.95-5.83-8.11-7.5l-.16 10.63H92.78Zm200.16-81.29c1.64-3.6 2.32-3.5 4.7-5.34 9.3-7.18 17.99-10.46 31.16-9.15-.47 4.17-2.5 14.09-4.05 17.61-2.2 5.02-3.25 5.07-5.8 5.25-2.95.21-7.08.21-9.34 1.37 14.84 1.01 27.67 2.74 40.57 7.98 9.45 3.84 20 9.12 11.33 17.85-2.76 2.78-53.43 41.86-60.17 47.12 1.61-4.59 2.63-5.05 3.47-11.54 1.52-11.75.09-28.3-4.46-38.44.34 5.3 1.74 10.72 1.99 16.73.38 8.92-.17 24.85-6.14 31.33-5.9 6.42-14.82 10.88-23.6 13.73-10.51 3.41-7.25 1.32-15.88 2.77-17.68 2.97-19.22 12.18-26.31 10.5-.82-2.8-.62-5.08-.48-7.92-1.93 1.4-2.65 3.91-3.26 6.62-1.73-2.36-1.33-6.56-1.07-9.2-2 1.97-3.19 5.59-3.22 9.27-3.83-1.6-14.21-11.3-13.3-17.26 2.84-2.7 13.13-4.9 18.08-5.78 4.86-.87 17.39-.87 20.22-3.2 4.62-3.81 3.63-13.66 2.23-19.44-1.59-6.53-4.53-12.08-8.39-15.05-7.67-5.9-26.61.91-40.14 2-11.03.88-15.57 1.48-18.87-10.5-.61-2.23-.44-2.04 1.01-3.43 2.16-2.08 3.14-4.66 4.91-6.29-3.8.83-4.67 3.98-9.05 4.6-1.63-1.74-2.58-2.21-2.78-5.37 5.21-4.39 8.38-5.27 16.25-8.05 3.11-1.1 6.16-1.98 9.32-3.12 8.05-2.9.41-1.29 9.69-2.34-.45-1.43-2.4-.99-2.99-3.7-.4-1.81-.13-3.93 1.39-5 1.68-1.19 7.39-3.47 9.54-4.34 7-2.82 13.93-4.72 21.85-5.98 12.92-2.06 38.26-1.75 50.53 1.81l-.36 6.7 1.42-2.79Zm-93.92 60.14-2.49-4.08c-.69-1.34-1.77-2.92-1.75-4.45l4.34-.28-.11 8.81Zm14.11 23.04c.04-.09.14.25.2.33l-3.48.83c-.69-1.8-1.43-3.66-1.28-6.01l4.34 4.5c.06.07.18.44.22.35m333.41 131.2c-1.26 3.75-2.05 6.35-3.56 9.84-8.04 18.66-23.43 32.02-41.9 39.44-6.67 2.68-14.3 4.9-21.47 5.8-8.99 1.13-16.24 1.99-25.28 1.99H345.25c-7.54 0-20.72-1.34-25.92 1.35-7.67 3.97-10.05 11.09-13.31 13.48-1.68-1.23-5.95-7.95-9.89-11.16-5.5-4.48-7.68-3.67-16.9-3.67h-124.4c-9.55.02-19.09-1.65-28.43-3.14-3.54-.56-5.08-1.26-7.93-2.12-14.79-4.46-28.54-12.24-38.38-24.29-28.8-35.26-18.67-77.28-12.13-118.09L69 595.8c1.2-5.64 1.6-11.18 2.72-16.9l21.02-133.99c.3-1.28.27-2.08.51-3.8l1.02-6.64c.15-.95.54-2.62.63-3.2l8-50.85c.23-1.26.22-2.12.4-3.43l11.48-73.68c.08-.54.48-2.27.63-3.2.2-1.24.17-2.21.39-3.44.29-1.59.55-1.94.73-3.58.85-7.87 2.65-15.69 3.73-23.54.67-4.9 1.57-8.94 2.08-13.71.65-6.15 2.63-14.59 3.28-20.64.74-6.89 2.9-13.7 2.9-20.54h355c0 5.58 3.43 22.76 4.48 29.92l4.34 27.76c2.74 15.04 4.85 31.15 7.24 46.32l22.9 145.53c1.7 9.32 2.32 16.79 4.31 27.75.41 2.26.56 4.04.96 6.22.41 2.24.49 3.65.94 5.75 1.74 8.16 3.83 24.85 5.35 34.36l10.05 63.63c.22 1.22.13 1.88.26 3.09l1.58 8.95c4.75 26.12 9.49 52.68.62 79.03ZM315.1 573.77l206.69.1c3.27 24.35 11.83 65.21 11.83 87.18 0 50.54-30.91 71.15-79.78 71.28H326.1c-13.44.02-16.74 5.96-20.09 7.62-1.83-1.05-3.16-2.6-5.53-3.98-8.01-4.67-15.46-3.64-25.09-3.64H160.56c-26.29 0-43.63-3.51-60.16-16.38-13.84-10.77-22.01-31.12-22.01-55.86 0-16.51 8.66-67.55 11.89-86.11l115.36-.15c4.03 6.36 13.66 17.84 24.29 18.94 7.2.74 9.71-4.69 14.24-7.46 4.73-2.89 11.74-3.87 17.84-3.97 12.43-.2 5.38 5.38 1.47 8.48l-60.63 47.5c-4.75 3.69-20.82 16.62-24.64 18.91-15.83 9.47-34.5 5.83-45.73-8.71-2.69-3.48-6.49-10.58-14.04-6.07-5.82 3.47-4.79 9.22-1.33 14.27 4.32 6.33 9.94 11.47 16.49 15.56 18.92 11.82 40.84 9.38 58.2-3.39 14.27-10.5 33.77-26.5 48.59-38.02l67.03-52.6c2.16-1.64 3.56-3.49 7.69-3.49Z"/><path fill="#0c0c0c" d="m341.2 281.17.02 123.44c0 4.68.11 9.57-1.08 14.03-.54 2.02-1.52 3.84-2.6 5.07-1.63 1.86-3.16 1.95-4.9 3.32l72.89.03c31.16 0 44-16.27 46.11-46.33 1.11-15.78-.65-26.2-7.66-37.53-5.57-9.01-14.28-16.36-29.36-17.08 1.38-2.75 22.43-20.48 15.58-46.62-4.98-19.01-21.79-24.83-39.98-24.85l-58.13.02c2.36 3.85 9.04 4.09 9.11 26.52m26.42-4.77c9.09-.21 24.31-1.31 31 3.05 7.62 4.96 7.43 15.07 3 24.58-3.66 7.85-9.59 14.58-14.52 18.99-.98.88-1.09 1.14-2.14 2.16-2.94 2.83-13.97 10.81-17.4 11.96l.06-60.73Zm-.01 127.74c-.48-9.15-.06-19.46-.06-28.74 0-6.37-.99-10.81 1.56-12.96 7.86-6.61 16.65-12.56 27.96-14.17 19.84-2.83 27.85 11.05 27.71 29.05-.18 23.36-9.5 27.37-29.3 27.14-9.3-.11-18.58-.29-27.87-.32"/><path fill="#fff" d="m291.52 481.39.36-6.7c-12.27-3.55-37.61-3.87-50.53-1.81-7.92 1.26-14.85 3.16-21.85 5.98-2.16.87-7.86 3.15-9.54 4.34-1.52 1.07-1.78 3.19-1.39 5 .59 2.71 2.54 2.28 2.99 3.7-9.28 1.05-1.65-.56-9.69 2.34-3.16 1.14-6.21 2.02-9.32 3.12-7.87 2.78-11.04 3.66-16.25 8.05.2 3.16 1.15 3.63 2.78 5.37 4.38-.62 5.25-3.77 9.05-4.6-1.77 1.63-2.75 4.22-4.91 6.29-1.45 1.39-1.62 1.21-1.01 3.43 3.3 11.98 7.84 11.39 18.87 10.5 13.53-1.08 32.47-7.9 40.14-2 3.86 2.97 6.8 8.52 8.39 15.05 1.41 5.78 2.4 15.63-2.23 19.44-2.83 2.34-15.36 2.33-20.22 3.2-4.95.88-15.24 3.08-18.08 5.78-.91 5.97 9.47 15.67 13.3 17.26.03-3.68 1.22-7.29 3.22-9.27-.27 2.64-.66 6.84 1.07 9.2.61-2.71 1.33-5.22 3.26-6.62-.14 2.84-.34 5.12.48 7.92 7.09 1.68 8.63-7.53 26.31-10.5 8.63-1.45 5.37.64 15.88-2.77 8.78-2.85 17.69-7.31 23.6-13.73 5.97-6.49 6.52-22.41 6.14-31.33-.25-6-1.65-11.43-1.99-16.73 4.55 10.13 5.97 26.69 4.46 38.44-.84 6.49-1.86 6.95-3.47 11.54 6.74-5.26 57.41-44.34 60.17-47.12 8.67-8.73-1.88-14.01-11.33-17.85-12.9-5.24-25.74-6.97-40.57-7.98 2.25-1.16 6.39-1.16 9.34-1.37 2.55-.18 3.6-.24 5.8-5.25 1.54-3.52 3.57-13.45 4.05-17.61-13.17-1.31-21.86 1.97-31.16 9.15-2.38 1.84-3.07 1.74-4.7 5.34l-1.42 2.79Zm7.56.73c7.48-3.64 3.66 1.53 9.71-8.23 1.8-2.91 7.06-5.02 11.9-4.94-5.04 1.52-9.41 2.65-10.37 7.93-.56 3.08-.52 5.04-3.23 5.8-2.46.69-6.23.29-8.01-.57Zm-60.65 6.22c-.46.52-5.65 5.37-7.3 5.97-3.01 1.1-8.56 1.88-11.14.25l1.25-2.81c-1.98.17-3.51.91-5.1-.06 2.68-1.2 4.16-1.38 6.52-2.97 5.97-4.03 9.32-8.19 21.05-1.96-2.93.2-4.25-.78-7.57-.35.86.9 1.36.92 2.28 1.93Z"/><path fill="#0c0c0c" d="m129.42 427.02 45.85.03c-2.8-2.59-6.36-4.8-7.17-9.99-.69-4.39 1-12.12 3-14.9 1.89 2.85 2.36 5.59 6.02 9.84 20.29 23.53 56.5 17.59 69.17-5.39.97-1.76 1.78-4.04 2.8-5.31 1.08 1.88 4.12 11.49 4.52 14.06 1.18 7.58-2.88 8.58-6.82 11.58l47.82.1c-2.42-2.15-4.82-2.96-7.77-7.06-6.69-9.28-10.1-20.33-14.01-31.42L225.5 254.65h-38.69l1.85 1.82c2.32 2.14 3.4 4.3 3.51 7.97.24 7.76-7.41 26.6-10.22 34.77-6.12 17.83-33.51 99.02-39.16 111.06-1.74 3.71-3.6 6.42-5.71 9.12l-5.68 5.81c-1.07.98-1.1.68-1.96 1.83M210.1 287.2c.73.72.16-.2 1 1.34l23.53 69.24c-3.63-1.62-6.31-3.74-10.95-5.28-21.48-7.11-35.39 4.26-38.54 5.11zm-31.2 104.01c-1.53-17.19 12.47-30.09 28.21-31.37 17.16-1.39 32.42 10.62 33.71 26.24 1.44 17.34-12.43 30.1-28.12 31.41-17.55 1.47-32.44-10.88-33.81-26.28Z"/><path fill="#fdf300" d="M367.61 404.16c9.29.03 18.57.21 27.87.32 19.8.23 29.11-3.79 29.3-27.14.14-18-7.87-31.88-27.71-29.05-11.31 1.61-20.1 7.56-27.96 14.17-2.56 2.15-1.56 6.6-1.56 12.96 0 9.28-.42 19.59.06 28.74M178.9 391.21c1.37 15.41 16.26 27.75 33.81 26.28 15.68-1.31 29.56-14.07 28.12-31.41-1.3-15.62-16.56-27.63-33.71-26.24-15.74 1.28-29.74 14.18-28.21 31.37M367.55 337.15c3.43-1.16 14.47-9.13 17.4-11.96 1.05-1.02 1.16-1.28 2.14-2.16 4.93-4.41 10.86-11.14 14.52-18.99 4.43-9.51 4.62-19.62-3-24.58-6.69-4.35-21.91-3.26-31-3.05l-.06 60.73ZM185.14 357.61c3.15-.85 17.06-12.22 38.54-5.11 4.64 1.54 7.32 3.65 10.95 5.28l-23.53-69.24c-.84-1.54-.27-.62-1-1.34z"/><path fill="#0c0c0c" d="M308.82 406.8c-14.38 4.47-6.8 23.84 6.71 19.75 14.32-4.34 6.98-24-6.71-19.75M461.17 406.94c-14.22 4.72-6.36 23.95 7.34 19.53 13.58-4.38 6.73-24.2-7.34-19.53"/><path fill="#0b0c0c" d="M238.43 488.34c-.92-1.01-1.42-1.03-2.28-1.93 3.32-.43 4.64.55 7.57.35-11.74-6.23-15.08-2.07-21.05 1.96-2.36 1.59-3.84 1.77-6.52 2.97 1.59.97 3.12.23 5.1.06l-1.25 2.81c2.58 1.63 8.13.84 11.14-.25 1.64-.6 6.83-5.45 7.3-5.97"/><path fill="#0f1010" d="M299.08 482.12c1.78.85 5.54 1.26 8.01.57 2.72-.77 2.67-2.73 3.23-5.8.97-5.27 5.33-6.4 10.37-7.93-4.85-.09-10.1 2.03-11.9 4.94-6.05 9.75-2.23 4.58-9.71 8.23"/><path fill="#f5f5f6" d="m199.02 538.74.11-8.81-4.34.28c-.02 1.52 1.06 3.11 1.75 4.45l2.49 4.08Z"/><path fill="#fafaf9" d="m209.85 562.94 3.48-.83c-.06-.08-.15-.42-.2-.33-.04.08-.16-.28-.22-.35l-4.34-4.5c-.15 2.36.58 4.22 1.28 6.01"/></g></svg>