<svg xmlns="http://www.w3.org/2000/svg" width="345.307" height="359.48" viewBox="0 0 258.98 269.61"><defs><clipPath id="a"><path d="M238 76h20.98v15H238Zm0 0"/></clipPath><clipPath id="b"><path d="M238 132h20.98v16H238Zm0 0"/></clipPath><clipPath id="c"><path d="M0 0h258.98v269.61H0Zm0 0"/></clipPath></defs><path d="M257.402 1.574V181.91c.278 13.16-7.246 37.805-26.199 51.528-18.95 13.722-52.394 10.359-52.394 10.359-39.297-3.64-49.332 21.562-49.332 21.562s-10.008-25.203-49.305-21.562c0 0-33.445 3.363-52.395-10.36C8.824 219.716 1.301 195.07 1.578 181.91V1.574z" style="stroke:none;fill-rule:nonzero;fill:#001356;fill-opacity:1"/><path d="M20.715 76.223H39.93V61.125H20.715zM1.578 61.063h19.078v-7.004H1.578zM.746 90.047h19.945V76.234H.746zM20.715 104.598h20.601V90.105H20.715zM2.133 118.012H20.69v-13.426H2.133zM20.715 132.582h17.828v-14.523H20.715zM.746 147.66h19.91v-15.015H.746zM20.715 161.305h17v-13.563h-17zM20.793 186.012l23.418-1.973-3.297-8.379-20.226-.015zM30.21 204.77 54.314 196l-5.536-6.469-25.558 5.914zM49.227 219.164l19.992-15.191-5.903-2.125-24.203 12.261zM73.02 225.922l13.058-17.285-9.039-2.805-16.07 17.18zM1.023 175.645h19.668v-14.383H1.023zM5.367 199.566l17.852-4.12-2.426-9.434-18.344 1.754z" style="stroke:none;fill-rule:evenodd;fill:#f16e03;fill-opacity:1"/><path d="m18.676 224.535 20.437-10.426-8.902-9.34-19.223 6.985zM44.098 241.16l16.87-18.148-11.741-3.848-19.399 14.547zM76.367 243.484l7.668-16.558-11.015-1.004-13.16 17.453zM105.3 244.902l.59-15.797-9.577-1.37-3.93 16.714zM116.938 232.328l-.782-17.285-9.625-3.156-.64 17.218zM127.54 259.758l-1.423-20.676-9.18-6.754 1.008 18.047z" style="stroke:none;fill-rule:evenodd;fill:#f16e03;fill-opacity:1"/><path d="m129.402 245.691-.078-12.285-4.265-9.511 1.058 15.187zM96.297 227.652l3.93-17.125-7.696-1.699-8.496 18.098zM238.125 76.29h-19.219V61.194h19.219zM257.258 61.129H238.18v-7h19.078z" style="stroke:none;fill-rule:evenodd;fill:#f16e03;fill-opacity:1"/><g clip-path="url(#a)"><path d="M258.09 90.117h-19.945V76.305h19.945z" style="stroke:none;fill-rule:evenodd;fill:#f16e03;fill-opacity:1"/></g><path d="M238.125 104.664h-20.602V90.176h20.602zM256.703 118.082h-18.558v-13.426h18.558zM238.125 132.652h-17.832V118.13h17.832z" style="stroke:none;fill-rule:evenodd;fill:#f16e03;fill-opacity:1"/><g clip-path="url(#b)"><path d="M258.09 147.73h-19.91v-15.02h19.91z" style="stroke:none;fill-rule:evenodd;fill:#f16e03;fill-opacity:1"/></g><path d="M238.125 161.375h-17.004v-13.562h17.004zM238.04 186.082l-23.411-1.973 3.293-8.379 20.226-.02zM228.629 204.84l-24.106-8.77 5.54-6.472 25.558 5.914zM209.613 219.234l-19.992-15.195 5.899-2.121 24.207 12.262zM185.816 225.988l-13.058-17.281 9.043-2.809 16.07 17.18z" style="stroke:none;fill-rule:evenodd;fill:#f16e03;fill-opacity:1"/><path d="M257.813 175.71h-19.668v-14.382h19.667zM253.469 199.637l-17.848-4.125 2.418-9.43 18.348 1.754zM240.16 224.602l-20.433-10.422 8.902-9.34 19.223 6.984zM214.738 241.23l-16.867-18.152 11.742-3.844 19.395 14.547zM182.469 243.55l-7.668-16.558 11.015-1.004 13.164 17.457zM153.535 244.969l-.586-15.793 9.574-1.375 3.93 16.719z" style="stroke:none;fill-rule:evenodd;fill:#f16e03;fill-opacity:1"/><path d="m141.898 232.395.782-17.282 9.625-3.156.644 17.219zM131.3 259.828l1.419-20.676 9.18-6.757-1.004 18.046zM129.305 245.73l.02-12.324 4.452-9.445-1.058 15.191zM162.54 227.719l-3.927-17.121 7.692-1.703 8.496 18.097z" style="stroke:none;fill-rule:evenodd;fill:#f16e03;fill-opacity:1"/><g clip-path="url(#c)"><path d="M2574.023 2680.358V876.998c2.774-131.601-72.46-378.046-261.992-515.273-189.492-137.227-523.945-103.594-523.945-103.594-392.969 36.407-493.32-215.625-493.32-215.625s-100.079 252.032-493.047 215.625c0 0-334.453-33.633-523.946 103.594C88.243 498.952 13.008 745.397 15.781 876.998v1803.36Zm0 0" style="fill:none;stroke-width:31.4169;stroke-linecap:butt;stroke-linejoin:miter;stroke:#001356;stroke-opacity:1;stroke-miterlimit:4" transform="matrix(.1 0 0 -.1 0 269.61)"/></g><path d="M250.766 45.285H8.21v-34.77h242.555z" style="stroke:none;fill-rule:nonzero;fill:#f16e03;fill-opacity:1"/><path d="M40.633 23.785c-.848-3.351-4.137-3.965-6.301-3.965-4.074 0-7.367 2.555-7.367 7.582 0 4.496 1.883 7.953 7.46 7.953 1.977 0 5.391-.796 6.427-5.238h2.945c-1.254 7.207-8.149 7.528-9.84 7.528-5.11 0-10.125-2.82-10.125-10.16 0-5.88 3.95-9.95 10.5-9.95 5.797 0 8.809 3.059 9.246 6.25zM68.434 18.04h3.039v19.1h-3.04v-8.913H56.68v8.914h-3.04V18.039h3.04v7.902h11.754zM85.89 37.14h-3.038v-19.1h3.039zM113.035 23.785c-.847-3.351-4.14-3.965-6.3-3.965-4.075 0-7.368 2.555-7.368 7.582 0 4.496 1.88 7.953 7.461 7.953 1.973 0 5.39-.796 6.426-5.238h2.945c-1.254 7.207-8.148 7.528-9.844 7.528-5.109 0-10.12-2.82-10.12-10.16 0-5.88 3.949-9.95 10.5-9.95 5.796 0 8.804 3.059 9.245 6.25zM136.54 16.18h-2.099l2.79-3.754h3.386Zm-.72 3.64c-4.89 0-7.836 3.274-7.836 7.77s2.946 7.765 7.836 7.765 7.836-3.27 7.836-7.765c0-4.496-2.945-7.77-7.836-7.77m0 17.825c-8.398 0-10.968-5.934-10.968-10.055 0-4.125 2.57-10.055 10.968-10.055s10.97 5.93 10.97 10.055c0 4.12-2.571 10.055-10.97 10.055M174.746 37.14h-3.039v-19.1h15.578v2.288h-12.539v5.852h11.035v2.289h-11.035zM195.59 37.14h-3.258v-2.82h3.258zM222.64 23.785c-.843-3.351-4.136-3.965-6.3-3.965-4.074 0-7.363 2.555-7.363 7.582 0 4.496 1.878 7.953 7.457 7.953 1.976 0 5.39-.796 6.425-5.238h2.946c-1.254 7.207-8.149 7.528-9.84 7.528-5.11 0-10.125-2.82-10.125-10.16 0-5.88 3.95-9.95 10.5-9.95 5.8 0 8.808 3.059 9.25 6.25zM238.281 37.14h-3.261v-2.82h3.261z" style="stroke:none;fill-rule:nonzero;fill:#001356;fill-opacity:1"/><path d="M222.531 164.313c.555 13.484-6.465 23.093-6.465 23.093-10.527 18.84-40.824 21.614-40.824 21.614-45.808 4.8-45.996 21.785-45.996 21.785s.3-16.985-45.512-21.785c0 0-30.293-2.774-40.82-21.614 0 0-7.02-9.61-6.465-23.094.184-13.855-.004-108.523-.004-108.523h186.067s-.164 94.668.02 108.524" style="stroke:none;fill-rule:nonzero;fill:#fff;fill-opacity:1"/><path d="M2225.313 1052.975c5.546-134.844-64.649-230.937-64.649-230.937-105.273-188.399-408.242-216.133-408.242-216.133-458.086-48.008-459.961-217.852-459.961-217.852s3.008 169.844-455.117 217.852c0 0-302.93 27.734-408.203 216.133 0 0-70.196 96.093-64.649 230.937 1.836 138.555-.039 1085.234-.039 1085.234h1860.664s-1.64-946.68.195-1085.234Zm0 0" style="fill:none;stroke-width:22.1671;stroke-linecap:butt;stroke-linejoin:miter;stroke:#001356;stroke-opacity:1;stroke-miterlimit:4" transform="matrix(.1 0 0 -.1 0 269.61)"/><path d="m126.566 176.805-.867-.192c.028-.004.055-.023.102-.027q.388.09.765.219m10.75 2.332-5.48-1.188a9 9 0 0 1 2.879-.613c.922.535 1.789 1.144 2.601 1.8m-2.601-1.801c.95.539 1.797 1.144 2.601 1.8l3.23.704c-2.015-2.656-4.702-4.188-8.007-5.047.816.82 1.469 1.676 2.176 2.543m-6.63 6.668c.65-.43 1.337-.832 2.075-1.125.07-1.387.098-2.805.145-4.121-1.188-.781-2.407-1.508-3.739-1.953l-.867-.192c-1.738.625-3.219 1.774-4.445 3.035-.133 1.032-.067 1.97.035 2.883Zm8.325 1.809-2.969-.645c-.921-.867-1.996-1.711-3.293-2.29.067-1.374.094-2.753.157-4.12.453-.324.968-.59 1.53-.809l5.481 1.188c.63.504 1.211 1.031 1.774 1.593.125 1.625.043 3.102-.387 4.622-.789.082-1.558.246-2.293.46m3.285.71-3.28-.71c.804-.231 1.6-.399 2.288-.461.371.363.707.761.992 1.171m3.086.668-.129-.027c.043-.07.094-.14.133-.207a1.2 1.2 0 0 0-.004.234m-5.465-8.054c.61.496 1.196 1.027 1.778 1.586.816.082 1.656.304 2.43.57-.301-.52-.63-1.008-.977-1.453Zm-3.875 6.031c.434.402.832.82 1.2 1.219.566-.203 1.16-.41 1.77-.575Zm-7.488.445-3.238-.707a23 23 0 0 1-1.2-.691c-.163.097-.324.219-.48.336l1.68.355c-.414-.21-.82-.457-1.203-.71-.067-.567-.153-1.106-.223-1.665l6.797 1.473c-.79.52-1.5 1.094-2.133 1.61m14.813 3.215-6.414-1.394c.109-.352.199-.688.289-1.047.547-.207 1.16-.41 1.773-.575l3.281.711c.516.715.895 1.48 1.07 2.305m1.761.379-1.187-.258a16 16 0 0 0 1.312-1.785l.13.027a13.4 13.4 0 0 1-.255 2.016m-15.828 2.324-8.308-1.797a7.3 7.3 0 0 1-.153-1.632c.578-1.52 1.551-2.633 2.797-3.551l1.68.355c.937.512 1.922.887 2.832 1.07.129-.12.266-.238.406-.363l-3.238-.707c.875.477 1.773.848 2.847 1.063.208 1.754.739 3.601 1.418 5.27-.093.097-.19.19-.28.292m10.871 2.36a9 9 0 0 0 1.723-.602c.633-1.176 1.246-2.305 1.574-3.742a6 6 0 0 0-.101-.719l-6.414-1.394a22 22 0 0 1-1.766 4.191c.277.488.57.941.879 1.375l-6.766-1.469c.098-.097.2-.191.29-.293 1.894.262 3.84.442 5.597.387.27.457.566.926.89 1.379Zm2.54.55-.903-.195c.059-.32.082-.64.086-.957.652-1.156 1.289-2.422 1.586-3.797.148-.18.305-.36.46-.543l1.188.258a12.3 12.3 0 0 1-2.418 5.234m-5.551.02-8.782-1.906c.301-.356.61-.692.922-1.024l-8.308-1.797c.097.453.242.887.406 1.305l6.973 1.516c.296-.348.617-.692.93-1.024l6.765 1.469c.347.488.715.953 1.11 1.434 1.097-.16 2.093-.32 2.995-.543l-4.093-.887c.343.496.714.973 1.097 1.43q-.013.016-.015.027m4.64 1.004-.273-.059c.129-.386.219-.761.281-1.16l.902.195a9.4 9.4 0 0 1-.91 1.024m-.273-.059.273.059c-.14.137-.285.265-.426.402q.089-.23.153-.46m-8.38 3.028c.505-.063.993-.16 1.497-.286 1.285-1.054 1.867-2.062 2.516-3.687l-8.782-1.906a21 21 0 0 0-1.59 2.062c-1.511-.363-3.117-1.015-4.437-1.851a10 10 0 0 1-.953-1.727l6.973 1.516a19 19 0 0 0-1.582 2.062c.335 1.153.96 2.043 1.675 2.797Zm3.528.761-3.527-.761c.516-.059 1.008-.16 1.496-.286.879.434 1.996.668 2.852.606-.247.16-.524.3-.82.441m-8.21-1.78c.265.276.542.538.82.804 1.507.297 2.71.36 3.863.215Zm.878 2.355-.137-.036a13.4 13.4 0 0 1-3.027-1.05c1.203-.043 2.234-.075 3.106-.465 1.402.289 2.695.355 3.863.215l3.527.761c-1.773.805-4.484 1.172-7.332.575" style="stroke:none;fill-rule:evenodd;fill:#fff;fill-opacity:1"/><path d="M1301.484 867.31c19.18-8.593 33.477-22.812 44.922-35.077 12.696 4.453 26.133 8.75 40.625 10.351 4.297 15.196 5.117 29.961 3.867 46.211-12.695 12.618-27.421 24.336-43.75 33.946-16.64-.938-32.5-6.055-44.101-14.22-.625-13.671-.899-27.46-1.563-41.21m44.922-35.077c12.735 4.648 28.555 9.219 40.625 10.351 12.07-12.304 20.547-26.093 21.64-41.953-3.28-14.375-9.413-25.664-15.741-37.422-12.852-6.328-28.633-8.75-47.188-11.445-7.539 8.984-13.789 17.656-19.883 28.086 8.907 16.25 15.977 33.75 20.547 52.383m81.446-5.703c-5.157-8.75-12.11-17.617-19.063-25.352-2.969-13.75-9.336-26.406-15.86-37.969-.156-8.867-2.03-17.5-5.195-25.78 24.454 21.6 39.414 54.765 40.118 89.1m-101.993-46.68c5.664-9.805 12.657-19.414 19.883-28.086-6.562-16.445-12.304-26.64-25.312-37.148-16.875-4.336-32.07-5.078-53.594-.703-10.274 9.453-20.352 20.039-24.961 36.015 8.242 12.266 17.734 23.203 28.008 33.79 18.945-2.618 38.398-4.415 55.976-3.868m-5.43-65.234c-15.742-4.297-33.32-4.961-53.593-.703-8.711-3.907-19.024-4.22-31.055-4.649 43.79-21.367 91.133-15.078 113.164-.703-8.554-.625-19.726 1.719-28.515 6.055m-64.804 121.797c2.07-17.54 7.383-36.016 14.18-52.696-10-10.508-19.883-21.953-27.93-33.789-15.117 3.633-31.172 10.156-44.375 18.516-9.219 13.672-15.312 28.125-15.117 46.64 6.484 17.032 18.125 29.102 32.773 38.868 13.086-8.086 24.961-14.493 40.469-17.54m-40.508 17.734c12.735-8.477 27.344-15.274 40.352-17.813 11.953 10.235 27.851 23.36 46.133 30.977.703 13.867.976 28.047 1.445 41.21-14.102 9.337-28.79 17.774-45.04 21.72-17.89-6.133-32.929-17.735-45.468-30.625-2.07-16.641.899-30.664 2.578-45.47m132.031 68.594c16.915-9.649 30.586-21.29 43.79-33.868 8.164-.82 16.562-3.046 24.296-5.703-20.898 35.664-51.015 54.844-89.843 65 8.164-8.203 14.687-16.757 21.757-25.43m0 0" style="fill:none;stroke-width:1.993;stroke-linecap:round;stroke-linejoin:round;stroke:#001356;stroke-opacity:1;stroke-miterlimit:4" transform="matrix(.1 0 0 -.1 0 269.61)"/><path d="M125.8 176.586c-1.89.66-3.35 1.855-4.542 3.059a8.6 8.6 0 0 0-1.88.273c1.669-2.55 5.981-4.7 8.517-5.195a6.35 6.35 0 0 0-2.094 1.863m-7.562 11.516c-.047 1.816.653 3.425 1.512 4.664-.16.71-.395 1.488-.25 2.238-1.758-2.465-2.621-5.5-2.36-9.07.29.918.602 1.55 1.098 2.168" style="stroke:none;fill-rule:evenodd;fill:#fff;fill-opacity:1"/><path d="M1258.008 930.24c-18.906-6.6-33.516-18.554-45.43-30.585-6.015-.117-13.125-1.25-18.789-2.735 16.68 25.508 59.805 46.993 85.156 51.953-8.75-4.96-15.39-10.937-20.937-18.632m-75.625-115.156c-.469-18.164 6.523-34.257 15.117-46.64-1.602-7.11-3.945-14.883-2.5-22.383-17.578 24.648-26.21 55-23.594 90.703 2.89-9.18 6.016-15.508 10.977-21.68m0 0" style="fill:none;stroke-width:2.0081;stroke-linecap:round;stroke-linejoin:round;stroke:#001356;stroke-opacity:1;stroke-miterlimit:4" transform="matrix(.1 0 0 -.1 0 269.61)"/><path d="M130.148 182.879c1.891.898 3.223 2.137 4.493 3.508a20.4 20.4 0 0 1-2.055 5.238c-1.758.055-3.734-.137-5.606-.387a20 20 0 0 1-1.418-5.27c1.364-1.171 2.91-2.398 4.586-3.09m8.942-2.149c.125 1.528.035 3.122-.387 4.622 1.336 1.312 2.098 2.851 2.164 4.148.711-.809 1.36-1.594 1.918-2.543.227-1.984-.074-3.77-1.262-5.664-.773-.266-1.593-.496-2.433-.563m.203 12.56c-1.285.632-3.012.901-4.719 1.144-.578 1.37-1.058 2.546-2.527 3.699a5.8 5.8 0 0 0 2.848.62c1.742-.593 3.054-1.57 3.878-2.894.325-.84.5-1.703.52-2.57m-15.106 1.327c.418 1.48 1.297 2.5 2.497 3.602-.871.41-2.09.426-3.094.465-1.8-.766-3.266-2.02-4.086-3.692-.149-.676.05-1.414.246-2.226a15 15 0 0 0 4.438 1.851m3.708-19.894c-.957.515-1.512 1.12-2.098 1.87 1.77.423 3.168 1.302 4.508 2.165 1.207-.805 2.672-1.309 4.41-1.422-.7-.852-1.332-1.691-2.176-2.543-1.422-.645-3.351-.633-4.644-.07" style="stroke:none;fill-rule:evenodd;fill:#001356;fill-opacity:1"/><path d="M1301.484 867.31c18.907-8.983 32.227-21.366 44.922-35.077-4.648-19.18-11.367-35.86-20.547-52.383-17.578-.547-37.343 1.367-56.054 3.867-7.305 17.266-11.993 35.274-14.18 52.696 13.633 11.718 29.102 23.984 45.86 30.898m89.414 21.485c1.25-15.273.352-31.21-3.867-46.21 13.36-13.126 20.977-28.516 21.64-41.485 7.11 8.086 13.595 15.938 19.18 25.43 2.266 19.843-.742 37.695-12.617 56.64-7.734 2.657-15.937 4.961-24.336 5.625m2.032-125.586c-12.852-6.328-30.118-9.023-47.188-11.445-5.781-13.71-10.586-25.469-25.273-36.992 8.984-4.649 19.531-6.64 28.476-6.211 17.422 5.937 30.547 15.703 38.79 28.945 3.242 8.399 5 17.032 5.195 25.703m-151.055-13.28c4.18-14.806 12.969-25 24.96-36.016-8.71-4.102-20.898-4.258-30.937-4.649-18.007 7.656-32.656 20.195-40.859 36.914-1.484 6.758.508 14.14 2.461 22.266 14.063-8.75 29.063-14.844 44.375-18.516m37.07 198.944c-9.57-5.156-15.117-11.21-20.976-18.71 17.695-4.22 31.68-13.008 45.078-21.641 12.07 8.047 26.719 13.086 44.101 14.219-6.992 8.515-13.32 16.914-21.757 25.43-14.22 6.445-33.516 6.327-46.446.702m0 0" style="fill:none;stroke-width:.497;stroke-linecap:round;stroke-linejoin:round;stroke:#231f20;stroke-opacity:1;stroke-miterlimit:4" transform="matrix(.1 0 0 -.1 0 269.61)"/><path d="M121.508 184.215c-1.649 1.09-2.762 2.5-3.27 3.898-.496-.62-.84-1.324-1.09-2.156.051-2.187.942-4.394 2.235-6.039a8.8 8.8 0 0 1 1.87-.27c-.21 1.48.087 3.13.255 4.567" style="stroke:none;fill-rule:evenodd;fill:#001356;fill-opacity:1"/><path d="M1215.078 853.952c-16.484-10.899-27.617-25-32.695-38.985-4.961 6.211-8.399 13.242-10.899 21.563.508 21.875 9.414 43.945 22.344 60.39 5.664 1.485 12.461 2.5 18.711 2.696-2.11-14.805.86-31.29 2.54-45.664m0 0" style="fill:none;stroke-width:.798;stroke-linecap:round;stroke-linejoin:round;stroke:#001356;stroke-opacity:1;stroke-miterlimit:4" transform="matrix(.1 0 0 -.1 0 269.61)"/><path d="M130.148 182.879c-4.191 3.039-4.18 2.52-3.168 8.36a20 20 0 0 1-1.418-5.27c1.364-1.172 2.91-2.399 4.586-3.09m8.942-2.149c.125 1.528.035 3.122-.387 4.622 1.375-2.301-.176-4.41 2.82-4.059-.773-.266-1.593-.496-2.433-.563m.203 12.56c-1.285.632-3.012.901-4.719 1.144-.578 1.37-1.058 2.546-2.527 3.699 1.8-.317 1.96-2.281 3.281-3.008 1.332-.742 2.75-.453 3.965-1.836m-15.106 1.327c-4.921-.793-4.171-1.258-4.683.375-.149-.676.05-1.414.246-2.226a15 15 0 0 0 4.438 1.851m3.708-19.894c-.957.515-1.512 1.12-2.098 1.87 2.621-1.284 1.488-1.937 6.742-1.8-1.422-.645-3.351-.633-4.644-.07" style="stroke:none;fill-rule:evenodd;fill:#001356;fill-opacity:1"/><path d="M1301.484 867.31c-41.914-30.39-41.796-25.194-31.68-83.593-7.304 17.266-11.992 35.274-14.179 52.696 13.633 11.718 29.102 23.984 45.86 30.898m89.414 21.485c1.25-15.273.352-31.21-3.867-46.21 13.75 23.007-1.758 44.1 28.203 40.585-7.734 2.657-15.937 4.961-24.336 5.625m2.032-125.586c-12.852-6.328-30.118-9.023-47.188-11.445-5.781-13.71-10.586-25.469-25.273-36.992 18.008 3.164 19.61 22.812 32.812 30.078 13.32 7.422 27.5 4.531 39.649 18.36m-151.055-13.28c-49.219 7.929-41.719 12.577-46.836-3.75-1.484 6.757.508 14.14 2.461 22.265 14.063-8.75 29.063-14.844 44.375-18.516m37.07 198.944c-9.57-5.156-15.117-11.21-20.976-18.71 26.21 12.851 14.883 19.375 67.422 18.007-14.22 6.446-33.516 6.328-46.446.703m0 0" style="fill:none;stroke-width:.497;stroke-linecap:round;stroke-linejoin:round;stroke:#001356;stroke-opacity:1;stroke-miterlimit:4" transform="matrix(.1 0 0 -.1 0 269.61)"/><path d="M1012.578 1572.975h579.18" style="fill:none;stroke-width:12.567;stroke-linecap:butt;stroke-linejoin:miter;stroke:#4f4757;stroke-opacity:1;stroke-miterlimit:4" transform="matrix(.1 0 0 -.1 0 269.61)"/><path d="M1015.156 1451.96s300.742 145 577.813-6.446" style="fill:none;stroke-width:7.523;stroke-linecap:butt;stroke-linejoin:miter;stroke:#4f4757;stroke-opacity:1;stroke-miterlimit:4" transform="matrix(.1 0 0 -.1 0 269.61)"/><path d="M1015.156 1392.858s297.617 144.531 574.727-6.914" style="fill:none;stroke-width:7.523;stroke-linecap:butt;stroke-linejoin:miter;stroke:#4f4757;stroke-opacity:1;stroke-miterlimit:4" transform="matrix(.1 0 0 -.1 0 269.61)"/><path d="M1100.117 1424.733v58.867" style="fill:none;stroke-width:8.027;stroke-linecap:butt;stroke-linejoin:miter;stroke:#4f4757;stroke-opacity:1;stroke-miterlimit:4" transform="matrix(.1 0 0 -.1 0 269.61)"/><path d="M1182.54 1445.748v59.336" style="fill:none;stroke-width:8.058;stroke-linecap:butt;stroke-linejoin:miter;stroke:#4f4757;stroke-opacity:1;stroke-miterlimit:4" transform="matrix(.1 0 0 -.1 0 269.61)"/><path d="M1264.922 1453.795v61.211" style="fill:none;stroke-width:8.1821;stroke-linecap:butt;stroke-linejoin:miter;stroke:#4f4757;stroke-opacity:1;stroke-miterlimit:4" transform="matrix(.1 0 0 -.1 0 269.61)"/><path d="M1347.305 1453.795v60.274" style="fill:none;stroke-width:8.121;stroke-linecap:butt;stroke-linejoin:miter;stroke:#4f4757;stroke-opacity:1;stroke-miterlimit:4" transform="matrix(.1 0 0 -.1 0 269.61)"/><path d="M1429.727 1444.89v61.562" style="fill:none;stroke-width:8.208;stroke-linecap:butt;stroke-linejoin:miter;stroke:#4f4757;stroke-opacity:1;stroke-miterlimit:4" transform="matrix(.1 0 0 -.1 0 269.61)"/><path d="M1512.11 1419.186v61.875" style="fill:none;stroke-width:8.23;stroke-linecap:butt;stroke-linejoin:miter;stroke:#4f4757;stroke-opacity:1;stroke-miterlimit:4" transform="matrix(.1 0 0 -.1 0 269.61)"/><path d="M1066.875 1472.506v103.242" style="fill:none;stroke-width:7.804;stroke-linecap:butt;stroke-linejoin:miter;stroke:#4f4757;stroke-opacity:1;stroke-miterlimit:4" transform="matrix(.1 0 0 -.1 0 269.61)"/><path d="M1146.953 1494.577v80.664" style="fill:none;stroke-width:6.9;stroke-linecap:butt;stroke-linejoin:miter;stroke:#4f4757;stroke-opacity:1;stroke-miterlimit:4" transform="matrix(.1 0 0 -.1 0 269.61)"/><path d="M1227.031 1509.108v66.133" style="fill:none;stroke-width:6.2469;stroke-linecap:butt;stroke-linejoin:miter;stroke:#4f4757;stroke-opacity:1;stroke-miterlimit:4" transform="matrix(.1 0 0 -.1 0 269.61)"/><path d="M1307.148 1513.053v62.188" style="fill:none;stroke-width:6.059;stroke-linecap:butt;stroke-linejoin:miter;stroke:#4f4757;stroke-opacity:1;stroke-miterlimit:4" transform="matrix(.1 0 0 -.1 0 269.61)"/><path d="M1387.266 1509.81v65.43" style="fill:none;stroke-width:6.2151;stroke-linecap:butt;stroke-linejoin:miter;stroke:#4f4757;stroke-opacity:1;stroke-miterlimit:4" transform="matrix(.1 0 0 -.1 0 269.61)"/><path d="M1467.344 1493.64v81.6" style="fill:none;stroke-width:6.9389;stroke-linecap:butt;stroke-linejoin:miter;stroke:#4f4757;stroke-opacity:1;stroke-miterlimit:4" transform="matrix(.1 0 0 -.1 0 269.61)"/><path d="M1547.422 1467.194v108.047" style="fill:none;stroke-width:7.9849;stroke-linecap:butt;stroke-linejoin:miter;stroke:#4f4757;stroke-opacity:1;stroke-miterlimit:4" transform="matrix(.1 0 0 -.1 0 269.61)"/><path d="M1130.234 1573.64h-76.875v61.679h76.875ZM1236.094 1573.64h-76.875v61.679h76.875ZM1341.992 1573.64h-76.914v61.679h76.914ZM1447.852 1573.64h-76.875v61.679h76.875ZM1553.71 1573.64h-76.874v61.679h76.875Zm0 0" style="fill:none;stroke-width:8.168;stroke-linecap:butt;stroke-linejoin:miter;stroke:#4f4757;stroke-opacity:1;stroke-miterlimit:4" transform="matrix(.1 0 0 -.1 0 269.61)"/><path d="M514.063 828.64v826.17h-11.836v46.524H487.46v33.243h-27.734v105.312l.039 32.344c357.422 130.234 605.273-32.344 605.273-32.344v-105.312h-27.734v-33.243h-14.766v-46.523h-11.836V828.639s-166.953-130.547-496.64 0Zm0 0" style="fill:none;stroke-width:12.567;stroke-linecap:square;stroke-linejoin:miter;stroke:#001356;stroke-opacity:1;stroke-miterlimit:4" transform="matrix(.1 0 0 -.1 0 269.61)"/><path d="M517.188 1617.663s181.171 82.773 488.71-11.446" style="fill:none;stroke-width:12.567;stroke-linecap:square;stroke-linejoin:miter;stroke:#001356;stroke-opacity:1;stroke-miterlimit:4" transform="matrix(.1 0 0 -.1 0 269.61)"/><path d="M512.695 952.272s191.172-80.352 493.203-2.774M512.695 1554.89s191.172 80.35 493.203 2.772M512.695 1002.155s288.164-55.39 498.75 0M512.695 1491.452s191.172 80.351 493.203 2.773M512.695 1441.569s288.164 55.43 498.75 0M515.469 1061.725s285.39-51.25 498.75-4.14M515.469 1388.64s285.39 51.25 498.75 4.14M510.273 893.756s268.75-94.218 501.524-5.547M948.672 798.014v68.36" style="fill:none;stroke-width:12.567;stroke-linecap:butt;stroke-linejoin:miter;stroke:#001356;stroke-opacity:1;stroke-miterlimit:4" transform="matrix(.1 0 0 -.1 0 269.61)"/><path d="M948.672 938.405v51.367M948.672 1049.225v51.406" style="fill:none;stroke-width:10.896;stroke-linecap:butt;stroke-linejoin:miter;stroke:#001356;stroke-opacity:1;stroke-miterlimit:4" transform="matrix(.1 0 0 -.1 0 269.61)"/><path d="M948.672 1688.522v-65.352" style="fill:none;stroke-width:12.287;stroke-linecap:butt;stroke-linejoin:miter;stroke:#001356;stroke-opacity:1;stroke-miterlimit:4" transform="matrix(.1 0 0 -.1 0 269.61)"/><path d="M948.672 1570.905v-59.375" style="fill:none;stroke-width:11.712;stroke-linecap:butt;stroke-linejoin:miter;stroke:#001356;stroke-opacity:1;stroke-miterlimit:4" transform="matrix(.1 0 0 -.1 0 269.61)"/><path d="M948.672 1452.077v-51.407M948.672 1166.998v51.368" style="fill:none;stroke-width:10.896;stroke-linecap:butt;stroke-linejoin:miter;stroke:#001356;stroke-opacity:1;stroke-miterlimit:4" transform="matrix(.1 0 0 -.1 0 269.61)"/><path d="M948.672 1284.42v63.399" style="fill:none;stroke-width:12.1049;stroke-linecap:butt;stroke-linejoin:miter;stroke:#001356;stroke-opacity:1;stroke-miterlimit:4" transform="matrix(.1 0 0 -.1 0 269.61)"/><path d="M982.11 876.53v68.36" style="fill:none;stroke-width:12.567;stroke-linecap:butt;stroke-linejoin:miter;stroke:#001356;stroke-opacity:1;stroke-miterlimit:4" transform="matrix(.1 0 0 -.1 0 269.61)"/><path d="M982.11 994.42v54.492" style="fill:none;stroke-width:11.223;stroke-linecap:butt;stroke-linejoin:miter;stroke:#001356;stroke-opacity:1;stroke-miterlimit:4" transform="matrix(.1 0 0 -.1 0 269.61)"/><path d="M982.11 1103.64v60.272" style="fill:none;stroke-width:11.801;stroke-linecap:butt;stroke-linejoin:miter;stroke:#001356;stroke-opacity:1;stroke-miterlimit:4" transform="matrix(.1 0 0 -.1 0 269.61)"/><path d="M982.11 1615.475v-51.758" style="fill:none;stroke-width:10.934;stroke-linecap:butt;stroke-linejoin:miter;stroke:#001356;stroke-opacity:1;stroke-miterlimit:4" transform="matrix(.1 0 0 -.1 0 269.61)"/><path d="M982.11 1500.788v-53.086" style="fill:none;stroke-width:11.078;stroke-linecap:butt;stroke-linejoin:miter;stroke:#001356;stroke-opacity:1;stroke-miterlimit:4" transform="matrix(.1 0 0 -.1 0 269.61)"/><path d="M982.11 1220.24v67.657" style="fill:none;stroke-width:12.5031;stroke-linecap:butt;stroke-linejoin:miter;stroke:#001356;stroke-opacity:1;stroke-miterlimit:4" transform="matrix(.1 0 0 -.1 0 269.61)"/><path d="M982.11 1347.116v51.875" style="fill:none;stroke-width:10.946;stroke-linecap:butt;stroke-linejoin:miter;stroke:#001356;stroke-opacity:1;stroke-miterlimit:4" transform="matrix(.1 0 0 -.1 0 269.61)"/><path d="M908.71 859.928v68.32" style="fill:none;stroke-width:12.567;stroke-linecap:butt;stroke-linejoin:miter;stroke:#001356;stroke-opacity:1;stroke-miterlimit:4" transform="matrix(.1 0 0 -.1 0 269.61)"/><path d="M908.71 983.678v54.492" style="fill:none;stroke-width:11.223;stroke-linecap:butt;stroke-linejoin:miter;stroke:#001356;stroke-opacity:1;stroke-miterlimit:4" transform="matrix(.1 0 0 -.1 0 269.61)"/><path d="M908.71 1103.64v60.272" style="fill:none;stroke-width:11.801;stroke-linecap:butt;stroke-linejoin:miter;stroke:#001356;stroke-opacity:1;stroke-miterlimit:4" transform="matrix(.1 0 0 -.1 0 269.61)"/><path d="M908.71 1629.655v-51.72" style="fill:none;stroke-width:10.934;stroke-linecap:butt;stroke-linejoin:miter;stroke:#001356;stroke-opacity:1;stroke-miterlimit:4" transform="matrix(.1 0 0 -.1 0 269.61)"/><path d="M908.71 1513.248v-53.086" style="fill:none;stroke-width:11.078;stroke-linecap:butt;stroke-linejoin:miter;stroke:#001356;stroke-opacity:1;stroke-miterlimit:4" transform="matrix(.1 0 0 -.1 0 269.61)"/><path d="M908.71 1220.24v67.657" style="fill:none;stroke-width:12.5031;stroke-linecap:butt;stroke-linejoin:miter;stroke:#001356;stroke-opacity:1;stroke-miterlimit:4" transform="matrix(.1 0 0 -.1 0 269.61)"/><path d="M908.71 1347.116v63.632" style="fill:none;stroke-width:12.1249;stroke-linecap:butt;stroke-linejoin:miter;stroke:#001356;stroke-opacity:1;stroke-miterlimit:4" transform="matrix(.1 0 0 -.1 0 269.61)"/><path d="M824.18 851.96v68.788" style="fill:none;stroke-width:12.6109;stroke-linecap:butt;stroke-linejoin:miter;stroke:#001356;stroke-opacity:1;stroke-miterlimit:4" transform="matrix(.1 0 0 -.1 0 269.61)"/><path d="M824.18 983.678v54.492" style="fill:none;stroke-width:11.223;stroke-linecap:butt;stroke-linejoin:miter;stroke:#001356;stroke-opacity:1;stroke-miterlimit:4" transform="matrix(.1 0 0 -.1 0 269.61)"/><path d="M824.18 1103.64v60.272" style="fill:none;stroke-width:11.801;stroke-linecap:butt;stroke-linejoin:miter;stroke:#001356;stroke-opacity:1;stroke-miterlimit:4" transform="matrix(.1 0 0 -.1 0 269.61)"/><path d="M824.18 1644.303v-57.383" style="fill:none;stroke-width:11.516;stroke-linecap:butt;stroke-linejoin:miter;stroke:#001356;stroke-opacity:1;stroke-miterlimit:4" transform="matrix(.1 0 0 -.1 0 269.61)"/><path d="M824.18 1526.764v-62.226" style="fill:none;stroke-width:11.991;stroke-linecap:butt;stroke-linejoin:miter;stroke:#001356;stroke-opacity:1;stroke-miterlimit:4" transform="matrix(.1 0 0 -.1 0 269.61)"/><path d="M722.578 851.96v66.562" style="fill:none;stroke-width:12.403;stroke-linecap:butt;stroke-linejoin:miter;stroke:#001356;stroke-opacity:1;stroke-miterlimit:4" transform="matrix(.1 0 0 -.1 0 269.61)"/><path d="M722.578 978.795v59.375" style="fill:none;stroke-width:11.714;stroke-linecap:butt;stroke-linejoin:miter;stroke:#001356;stroke-opacity:1;stroke-miterlimit:4" transform="matrix(.1 0 0 -.1 0 269.61)"/><path d="M722.578 1651.14v-57.384" style="fill:none;stroke-width:11.516;stroke-linecap:butt;stroke-linejoin:miter;stroke:#001356;stroke-opacity:1;stroke-miterlimit:4" transform="matrix(.1 0 0 -.1 0 269.61)"/><path d="M722.578 1526.764v-62.226" style="fill:none;stroke-width:11.991;stroke-linecap:butt;stroke-linejoin:miter;stroke:#001356;stroke-opacity:1;stroke-miterlimit:4" transform="matrix(.1 0 0 -.1 0 269.61)"/><path d="M630.234 864.42v56.328" style="fill:none;stroke-width:11.411;stroke-linecap:butt;stroke-linejoin:miter;stroke:#001356;stroke-opacity:1;stroke-miterlimit:4" transform="matrix(.1 0 0 -.1 0 269.61)"/><path d="M630.234 989.225v54.492" style="fill:none;stroke-width:11.223;stroke-linecap:butt;stroke-linejoin:miter;stroke:#001356;stroke-opacity:1;stroke-miterlimit:4" transform="matrix(.1 0 0 -.1 0 269.61)"/><path d="M630.234 1644.303v-60.273" style="fill:none;stroke-width:11.801;stroke-linecap:butt;stroke-linejoin:miter;stroke:#001356;stroke-opacity:1;stroke-miterlimit:4" transform="matrix(.1 0 0 -.1 0 269.61)"/><path d="M630.234 1518.444v-62.188" style="fill:none;stroke-width:11.991;stroke-linecap:butt;stroke-linejoin:miter;stroke:#001356;stroke-opacity:1;stroke-miterlimit:4" transform="matrix(.1 0 0 -.1 0 269.61)"/><path d="M824.18 1220.24v67.657" style="fill:none;stroke-width:12.5031;stroke-linecap:butt;stroke-linejoin:miter;stroke:#001356;stroke-opacity:1;stroke-miterlimit:4" transform="matrix(.1 0 0 -.1 0 269.61)"/><path d="M824.18 1347.116v63.632M725.898 1347.116v63.632M625.04 1339.42v63.633" style="fill:none;stroke-width:12.1249;stroke-linecap:butt;stroke-linejoin:miter;stroke:#001356;stroke-opacity:1;stroke-miterlimit:4" transform="matrix(.1 0 0 -.1 0 269.61)"/><path d="M552.656 879.89v63.398" style="fill:none;stroke-width:12.103;stroke-linecap:butt;stroke-linejoin:miter;stroke:#001356;stroke-opacity:1;stroke-miterlimit:4" transform="matrix(.1 0 0 -.1 0 269.61)"/><path d="M552.656 996.842v58.32" style="fill:none;stroke-width:11.609;stroke-linecap:butt;stroke-linejoin:miter;stroke:#001356;stroke-opacity:1;stroke-miterlimit:4" transform="matrix(.1 0 0 -.1 0 269.61)"/><path d="M552.656 1103.64v60.272" style="fill:none;stroke-width:11.801;stroke-linecap:butt;stroke-linejoin:miter;stroke:#001356;stroke-opacity:1;stroke-miterlimit:4" transform="matrix(.1 0 0 -.1 0 269.61)"/><path d="M552.656 1633.248v-65.468" style="fill:none;stroke-width:12.3;stroke-linecap:butt;stroke-linejoin:miter;stroke:#001356;stroke-opacity:1;stroke-miterlimit:4" transform="matrix(.1 0 0 -.1 0 269.61)"/><path d="M552.656 1506.686v-59.453" style="fill:none;stroke-width:11.721;stroke-linecap:butt;stroke-linejoin:miter;stroke:#001356;stroke-opacity:1;stroke-miterlimit:4" transform="matrix(.1 0 0 -.1 0 269.61)"/><path d="M552.656 1220.24v67.657" style="fill:none;stroke-width:12.5031;stroke-linecap:butt;stroke-linejoin:miter;stroke:#001356;stroke-opacity:1;stroke-miterlimit:4" transform="matrix(.1 0 0 -.1 0 269.61)"/><path d="M552.656 1347.116v47.812" style="fill:none;stroke-width:10.5099;stroke-linecap:butt;stroke-linejoin:miter;stroke:#001356;stroke-opacity:1;stroke-miterlimit:4" transform="matrix(.1 0 0 -.1 0 269.61)"/><path d="M859.96 773.444v80.976" style="fill:none;stroke-width:13.6771;stroke-linecap:butt;stroke-linejoin:miter;stroke:#001356;stroke-opacity:1;stroke-miterlimit:4" transform="matrix(.1 0 0 -.1 0 269.61)"/><path d="M859.96 922.584v61.641" style="fill:none;stroke-width:11.938;stroke-linecap:butt;stroke-linejoin:miter;stroke:#001356;stroke-opacity:1;stroke-miterlimit:4" transform="matrix(.1 0 0 -.1 0 269.61)"/><path d="M859.96 1040.514v62.852" style="fill:none;stroke-width:12.0509;stroke-linecap:butt;stroke-linejoin:miter;stroke:#001356;stroke-opacity:1;stroke-miterlimit:4" transform="matrix(.1 0 0 -.1 0 269.61)"/><path d="M859.96 1709.928v-70.039" style="fill:none;stroke-width:12.7229;stroke-linecap:butt;stroke-linejoin:miter;stroke:#001356;stroke-opacity:1;stroke-miterlimit:4" transform="matrix(.1 0 0 -.1 0 269.61)"/><path d="M871.055 1751.725v-45.781M882.773 1788.131v-45.742" style="fill:none;stroke-width:10.284;stroke-linecap:butt;stroke-linejoin:miter;stroke:#001356;stroke-opacity:1;stroke-miterlimit:4" transform="matrix(.1 0 0 -.1 0 269.61)"/><path d="M623.36 1747.39v-47.267" style="fill:none;stroke-width:10.453;stroke-linecap:butt;stroke-linejoin:miter;stroke:#001356;stroke-opacity:1;stroke-miterlimit:4" transform="matrix(.1 0 0 -.1 0 269.61)"/><path d="M611.68 1788.131v-45.742" style="fill:none;stroke-width:10.284;stroke-linecap:butt;stroke-linejoin:miter;stroke:#001356;stroke-opacity:1;stroke-miterlimit:4" transform="matrix(.1 0 0 -.1 0 269.61)"/><path d="M579.336 1732.194v-47.266" style="fill:none;stroke-width:10.453;stroke-linecap:butt;stroke-linejoin:miter;stroke:#001356;stroke-opacity:1;stroke-miterlimit:4" transform="matrix(.1 0 0 -.1 0 269.61)"/><path d="M567.656 1772.936v-45.742M919.57 1743.405v-45.743M931.25 1779.81v-45.741M961.992 1725.788v-45.743M973.672 1762.194v-45.742" style="fill:none;stroke-width:10.284;stroke-linecap:butt;stroke-linejoin:miter;stroke:#001356;stroke-opacity:1;stroke-miterlimit:4" transform="matrix(.1 0 0 -.1 0 269.61)"/><path d="M859.96 1586.569v-66.055" style="fill:none;stroke-width:12.356;stroke-linecap:butt;stroke-linejoin:miter;stroke:#001356;stroke-opacity:1;stroke-miterlimit:4" transform="matrix(.1 0 0 -.1 0 269.61)"/><path d="M859.96 1465.631v-57.773" style="fill:none;stroke-width:11.553;stroke-linecap:butt;stroke-linejoin:miter;stroke:#001356;stroke-opacity:1;stroke-miterlimit:4" transform="matrix(.1 0 0 -.1 0 269.61)"/><path d="M859.96 1166.998v51.368" style="fill:none;stroke-width:10.896;stroke-linecap:butt;stroke-linejoin:miter;stroke:#001356;stroke-opacity:1;stroke-miterlimit:4" transform="matrix(.1 0 0 -.1 0 269.61)"/><path d="M859.96 1284.42v63.399" style="fill:none;stroke-width:12.1049;stroke-linecap:butt;stroke-linejoin:miter;stroke:#001356;stroke-opacity:1;stroke-miterlimit:4" transform="matrix(.1 0 0 -.1 0 269.61)"/><path d="M587.5 801.96v72.382" style="fill:none;stroke-width:12.934;stroke-linecap:butt;stroke-linejoin:miter;stroke:#001356;stroke-opacity:1;stroke-miterlimit:4" transform="matrix(.1 0 0 -.1 0 269.61)"/><path d="M587.5 928.405v61.289" style="fill:none;stroke-width:11.9031;stroke-linecap:butt;stroke-linejoin:miter;stroke:#001356;stroke-opacity:1;stroke-miterlimit:4" transform="matrix(.1 0 0 -.1 0 269.61)"/><path d="M587.5 1696.647v-56.758" style="fill:none;stroke-width:11.4529;stroke-linecap:butt;stroke-linejoin:miter;stroke:#001356;stroke-opacity:1;stroke-miterlimit:4" transform="matrix(.1 0 0 -.1 0 269.61)"/><path d="M587.5 1578.795v-69.765" style="fill:none;stroke-width:12.6981;stroke-linecap:butt;stroke-linejoin:miter;stroke:#001356;stroke-opacity:1;stroke-miterlimit:4" transform="matrix(.1 0 0 -.1 0 269.61)"/><path d="M587.5 1454.772v-56.367" style="fill:none;stroke-width:11.414;stroke-linecap:butt;stroke-linejoin:miter;stroke:#001356;stroke-opacity:1;stroke-miterlimit:4" transform="matrix(.1 0 0 -.1 0 269.61)"/><path d="M673.398 778.756v79.219" style="fill:none;stroke-width:13.531;stroke-linecap:butt;stroke-linejoin:miter;stroke:#001356;stroke-opacity:1;stroke-miterlimit:4" transform="matrix(.1 0 0 -.1 0 269.61)"/><path d="M673.398 918.64v65.585" style="fill:none;stroke-width:12.312;stroke-linecap:butt;stroke-linejoin:miter;stroke:#001356;stroke-opacity:1;stroke-miterlimit:4" transform="matrix(.1 0 0 -.1 0 269.61)"/><path d="M673.398 1713.405v-63.399" style="fill:none;stroke-width:12.1049;stroke-linecap:butt;stroke-linejoin:miter;stroke:#001356;stroke-opacity:1;stroke-miterlimit:4" transform="matrix(.1 0 0 -.1 0 269.61)"/><path d="M673.398 1589.342v-66.055" style="fill:none;stroke-width:12.356;stroke-linecap:butt;stroke-linejoin:miter;stroke:#001356;stroke-opacity:1;stroke-miterlimit:4" transform="matrix(.1 0 0 -.1 0 269.61)"/><path d="M673.398 1465.631v-57.773" style="fill:none;stroke-width:11.553;stroke-linecap:butt;stroke-linejoin:miter;stroke:#001356;stroke-opacity:1;stroke-miterlimit:4" transform="matrix(.1 0 0 -.1 0 269.61)"/><path d="M762.07 773.444v80.976" style="fill:none;stroke-width:13.6771;stroke-linecap:butt;stroke-linejoin:miter;stroke:#001356;stroke-opacity:1;stroke-miterlimit:4" transform="matrix(.1 0 0 -.1 0 269.61)"/><path d="M762.07 912.506v67.11" style="fill:none;stroke-width:12.455;stroke-linecap:butt;stroke-linejoin:miter;stroke:#001356;stroke-opacity:1;stroke-miterlimit:4" transform="matrix(.1 0 0 -.1 0 269.61)"/><path d="M762.07 1711.92v-63.398" style="fill:none;stroke-width:12.1049;stroke-linecap:butt;stroke-linejoin:miter;stroke:#001356;stroke-opacity:1;stroke-miterlimit:4" transform="matrix(.1 0 0 -.1 0 269.61)"/><path d="m761.992 1592.936.156-66.016" style="fill:none;stroke-width:12.352;stroke-linecap:butt;stroke-linejoin:miter;stroke:#001356;stroke-opacity:1;stroke-miterlimit:4" transform="matrix(.1 0 0 -.1 0 269.61)"/><path d="M762.07 1465.631v-57.773" style="fill:none;stroke-width:11.553;stroke-linecap:butt;stroke-linejoin:miter;stroke:#001356;stroke-opacity:1;stroke-miterlimit:4" transform="matrix(.1 0 0 -.1 0 269.61)"/><path d="M513.984 1103.248h78.828" style="fill:none;stroke-width:13.096;stroke-linecap:butt;stroke-linejoin:miter;stroke:#001356;stroke-opacity:1;stroke-miterlimit:4" transform="matrix(.1 0 0 -.1 0 269.61)"/><path d="M764.023 1103.248h248.75M1012.773 1166.022h-248.75" style="fill:none;stroke-width:12.567;stroke-linecap:butt;stroke-linejoin:miter;stroke:#001356;stroke-opacity:1;stroke-miterlimit:4" transform="matrix(.1 0 0 -.1 0 269.61)"/><path d="M592.813 1166.022h-78.829" style="fill:none;stroke-width:13.096;stroke-linecap:butt;stroke-linejoin:miter;stroke:#001356;stroke-opacity:1;stroke-miterlimit:4" transform="matrix(.1 0 0 -.1 0 269.61)"/><path d="M764.023 1223.288h248.75" style="fill:none;stroke-width:12.567;stroke-linecap:butt;stroke-linejoin:miter;stroke:#001356;stroke-opacity:1;stroke-miterlimit:4" transform="matrix(.1 0 0 -.1 0 269.61)"/><path d="M513.984 1223.288h79.532" style="fill:none;stroke-width:13.1531;stroke-linecap:butt;stroke-linejoin:miter;stroke:#001356;stroke-opacity:1;stroke-miterlimit:4" transform="matrix(.1 0 0 -.1 0 269.61)"/><path d="M597.656 1284.264h-83.672" style="fill:none;stroke-width:13.493;stroke-linecap:butt;stroke-linejoin:miter;stroke:#001356;stroke-opacity:1;stroke-miterlimit:4" transform="matrix(.1 0 0 -.1 0 269.61)"/><path d="M764.023 1284.264h248.75M1012.773 1347.038H748.79" style="fill:none;stroke-width:12.567;stroke-linecap:butt;stroke-linejoin:miter;stroke:#001356;stroke-opacity:1;stroke-miterlimit:4" transform="matrix(.1 0 0 -.1 0 269.61)"/><path d="M609.336 1347.038h-95.352" style="fill:none;stroke-width:13.13;stroke-linecap:butt;stroke-linejoin:miter;stroke:#001356;stroke-opacity:1;stroke-miterlimit:4" transform="matrix(.1 0 0 -.1 0 269.61)"/><path d="M76.402 165.555v-27.47s.91-5.913-8.691-6.468c0 0-6.258-.496-8.684 5.172-.183 7.39 0 27.711 0 27.711z" style="stroke:none;fill-rule:nonzero;fill:#001356;fill-opacity:1"/><path d="M503.555 1699.81s240.351 137.15 519.61-2.812" style="fill:none;stroke-width:13.13;stroke-linecap:butt;stroke-linejoin:miter;stroke:#001356;stroke-opacity:1;stroke-miterlimit:4" transform="matrix(.1 0 0 -.1 0 269.61)"/><path d="M487.46 1734.577s234.454 148.71 549.845 0" style="fill:none;stroke-width:13.13;stroke-linecap:butt;stroke-linejoin:miter;stroke:#001356;stroke-opacity:1;stroke-miterlimit:4" transform="matrix(.1 0 0 -.1 0 269.61)"/><path d="M464.727 1825.631s286.718 120.508 602.148-28.242M503.555 1658.248s240.351 137.149 519.61-2.812" style="fill:none;stroke-width:13.13;stroke-linecap:butt;stroke-linejoin:miter;stroke:#001356;stroke-opacity:1;stroke-miterlimit:4" transform="matrix(.1 0 0 -.1 0 269.61)"/><path d="m1020.04 1745.163-.274 48.085-50.938 19.063-1.719-47.461M871.055 1791.881v43.985l51.25-10.04v-47.343M786.992 1800.163v45.039l40.196-2.774v-43.633M734.375 1800.163v45.039l-48.516-1.72v-43.32M651.953 1795.319l-.703 42.968-55.43-9.023v-47.11M514.531 1754.46l-.468 54.374 52.187 14.532-.234-50.196M603.203 1912.858v79.414l-41.562 2.773-86.797-29.57-.586-85.703 88.633 23.086-1.25 92.187" style="fill:none;stroke-width:12.567;stroke-linecap:butt;stroke-linejoin:miter;stroke:#001356;stroke-opacity:1;stroke-miterlimit:4" transform="matrix(.1 0 0 -.1 0 269.61)"/><path d="m750.742 1924.225 1.406 75.625-41.054 17.617-87.969-10.273v-86.524l86.484 4.414 2.93 89.414M785.86 1925.084v73.282l38.124 13.203 77.696-16.094.195-91.25-77.031 14.688-.86 92.656M930.977 1897.233v79.14l27.89 4.414 83.555-38.125v-90.195l-75.86 34.102-.859 94.218" style="fill:none;stroke-width:12.1249;stroke-linecap:butt;stroke-linejoin:miter;stroke:#001356;stroke-opacity:1;stroke-miterlimit:4" transform="matrix(.1 0 0 -.1 0 269.61)"/><path d="M688.164 1278.756v-180.469" style="fill:none;stroke-width:11.266;stroke-linecap:butt;stroke-linejoin:miter;stroke:#fff;stroke-opacity:1;stroke-miterlimit:4" transform="matrix(.1 0 0 -.1 0 269.61)"/><path d="M620.078 1226.92H763.36M620.04 1143.795h143.32" style="fill:none;stroke-width:10.0391;stroke-linecap:butt;stroke-linejoin:miter;stroke:#fff;stroke-opacity:1;stroke-miterlimit:4" transform="matrix(.1 0 0 -.1 0 269.61)"/><path d="M650.117 1268.99v-159.843M738.203 1268.99v-159.843" style="fill:none;stroke-width:10.602;stroke-linecap:butt;stroke-linejoin:miter;stroke:#fff;stroke-opacity:1;stroke-miterlimit:4" transform="matrix(.1 0 0 -.1 0 269.61)"/><path d="m1014.219 1273.913 141.445 51.562" style="fill:none;stroke-width:7.5;stroke-linecap:butt;stroke-linejoin:miter;stroke:#001356;stroke-opacity:1;stroke-miterlimit:4" transform="matrix(.1 0 0 -.1 0 269.61)"/><path d="m1012.89 1230.123 142.383 51.914" style="fill:none;stroke-width:7.523;stroke-linecap:butt;stroke-linejoin:miter;stroke:#001356;stroke-opacity:1;stroke-miterlimit:4" transform="matrix(.1 0 0 -.1 0 269.61)"/><path d="m1014.219 1190.28 141.914 51.718" style="fill:none;stroke-width:7.5121;stroke-linecap:butt;stroke-linejoin:miter;stroke:#001356;stroke-opacity:1;stroke-miterlimit:4" transform="matrix(.1 0 0 -.1 0 269.61)"/><path d="m1015.586 1148.483 140.625 51.289" style="fill:none;stroke-width:7.478;stroke-linecap:butt;stroke-linejoin:miter;stroke:#001356;stroke-opacity:1;stroke-miterlimit:4" transform="matrix(.1 0 0 -.1 0 269.61)"/><path d="m1011.445 1106.686 143.711 52.422" style="fill:none;stroke-width:7.56;stroke-linecap:butt;stroke-linejoin:miter;stroke:#001356;stroke-opacity:1;stroke-miterlimit:4" transform="matrix(.1 0 0 -.1 0 269.61)"/><path d="m1010.04 1064.85 145.273 52.93" style="fill:none;stroke-width:7.599;stroke-linecap:butt;stroke-linejoin:miter;stroke:#001356;stroke-opacity:1;stroke-miterlimit:4" transform="matrix(.1 0 0 -.1 0 269.61)"/><path d="m1014.219 1023.053 141.875 51.719" style="fill:none;stroke-width:7.5101;stroke-linecap:butt;stroke-linejoin:miter;stroke:#001356;stroke-opacity:1;stroke-miterlimit:4" transform="matrix(.1 0 0 -.1 0 269.61)"/><path d="m1010.04 981.256 145.468 53.047" style="fill:none;stroke-width:7.605;stroke-linecap:butt;stroke-linejoin:miter;stroke:#001356;stroke-opacity:1;stroke-miterlimit:4" transform="matrix(.1 0 0 -.1 0 269.61)"/><path d="m1008.672 939.46 146.562 53.437" style="fill:none;stroke-width:7.634;stroke-linecap:butt;stroke-linejoin:miter;stroke:#001356;stroke-opacity:1;stroke-miterlimit:4" transform="matrix(.1 0 0 -.1 0 269.61)"/><path d="m1012.813 897.623 142.421 51.914" style="fill:none;stroke-width:7.525;stroke-linecap:butt;stroke-linejoin:miter;stroke:#001356;stroke-opacity:1;stroke-miterlimit:4" transform="matrix(.1 0 0 -.1 0 269.61)"/><path d="m1012.813 855.827 141.484 51.601" style="fill:none;stroke-width:7.5;stroke-linecap:butt;stroke-linejoin:miter;stroke:#001356;stroke-opacity:1;stroke-miterlimit:4" transform="matrix(.1 0 0 -.1 0 269.61)"/><path d="M1152.773 1365.827V878.873M1106.016 1349.225V862.233M1059.258 1335.358V848.366" style="fill:none;stroke-width:10.038;stroke-linecap:butt;stroke-linejoin:miter;stroke:#001356;stroke-opacity:1;stroke-miterlimit:4" transform="matrix(.1 0 0 -.1 0 269.61)"/><path d="M2090.195 828.64v826.17h11.797v46.524h14.766v33.243h27.734v105.312l-.039 32.344c-357.46 130.234-605.234-32.344-605.234-32.344v-105.312h27.695v-33.243h14.766v-46.523h11.836V828.639s166.953-130.547 496.68 0Zm0 0" style="fill:none;stroke-width:12.567;stroke-linecap:square;stroke-linejoin:miter;stroke:#001356;stroke-opacity:1;stroke-miterlimit:4" transform="matrix(.1 0 0 -.1 0 269.61)"/><path d="M2087.031 1617.663s-181.133 82.773-488.75-11.446" style="fill:none;stroke-width:12.567;stroke-linecap:square;stroke-linejoin:miter;stroke:#001356;stroke-opacity:1;stroke-miterlimit:4" transform="matrix(.1 0 0 -.1 0 269.61)"/><path d="M2091.523 952.272s-191.171-80.352-493.242-2.774M2091.523 1554.89s-191.171 80.35-493.242 2.772M2091.523 1002.155s-288.164-55.39-498.75 0M2091.523 1491.452s-191.171 80.351-493.242 2.773M2091.523 1441.569s-288.164 55.43-498.75 0M2088.75 1061.725s-285.39-51.25-498.75-4.14M2088.75 1388.64s-285.39 51.25-498.75 4.14M2093.945 893.756s-268.75-94.218-501.523-5.547M1655.586 798.014v68.36" style="fill:none;stroke-width:12.567;stroke-linecap:butt;stroke-linejoin:miter;stroke:#001356;stroke-opacity:1;stroke-miterlimit:4" transform="matrix(.1 0 0 -.1 0 269.61)"/><path d="M1655.586 938.405v51.367M1655.586 1049.225v51.406" style="fill:none;stroke-width:10.896;stroke-linecap:butt;stroke-linejoin:miter;stroke:#001356;stroke-opacity:1;stroke-miterlimit:4" transform="matrix(.1 0 0 -.1 0 269.61)"/><path d="M1655.586 1688.522v-65.352" style="fill:none;stroke-width:12.287;stroke-linecap:butt;stroke-linejoin:miter;stroke:#001356;stroke-opacity:1;stroke-miterlimit:4" transform="matrix(.1 0 0 -.1 0 269.61)"/><path d="M1655.586 1570.905v-59.375" style="fill:none;stroke-width:11.712;stroke-linecap:butt;stroke-linejoin:miter;stroke:#001356;stroke-opacity:1;stroke-miterlimit:4" transform="matrix(.1 0 0 -.1 0 269.61)"/><path d="M1655.586 1452.077v-51.407M1655.586 1166.998v51.368" style="fill:none;stroke-width:10.896;stroke-linecap:butt;stroke-linejoin:miter;stroke:#001356;stroke-opacity:1;stroke-miterlimit:4" transform="matrix(.1 0 0 -.1 0 269.61)"/><path d="M1655.586 1284.42v63.399" style="fill:none;stroke-width:12.1049;stroke-linecap:butt;stroke-linejoin:miter;stroke:#001356;stroke-opacity:1;stroke-miterlimit:4" transform="matrix(.1 0 0 -.1 0 269.61)"/><path d="M1622.07 876.53v68.36" style="fill:none;stroke-width:12.567;stroke-linecap:butt;stroke-linejoin:miter;stroke:#001356;stroke-opacity:1;stroke-miterlimit:4" transform="matrix(.1 0 0 -.1 0 269.61)"/><path d="M1622.07 994.42v54.492" style="fill:none;stroke-width:11.223;stroke-linecap:butt;stroke-linejoin:miter;stroke:#001356;stroke-opacity:1;stroke-miterlimit:4" transform="matrix(.1 0 0 -.1 0 269.61)"/><path d="M1622.07 1103.64v60.272" style="fill:none;stroke-width:11.801;stroke-linecap:butt;stroke-linejoin:miter;stroke:#001356;stroke-opacity:1;stroke-miterlimit:4" transform="matrix(.1 0 0 -.1 0 269.61)"/><path d="M1622.07 1615.475v-51.758" style="fill:none;stroke-width:10.934;stroke-linecap:butt;stroke-linejoin:miter;stroke:#001356;stroke-opacity:1;stroke-miterlimit:4" transform="matrix(.1 0 0 -.1 0 269.61)"/><path d="M1622.07 1500.788v-53.086" style="fill:none;stroke-width:11.078;stroke-linecap:butt;stroke-linejoin:miter;stroke:#001356;stroke-opacity:1;stroke-miterlimit:4" transform="matrix(.1 0 0 -.1 0 269.61)"/><path d="M1622.07 1220.24v67.657" style="fill:none;stroke-width:12.5031;stroke-linecap:butt;stroke-linejoin:miter;stroke:#001356;stroke-opacity:1;stroke-miterlimit:4" transform="matrix(.1 0 0 -.1 0 269.61)"/><path d="M1622.07 1347.116v51.875" style="fill:none;stroke-width:10.946;stroke-linecap:butt;stroke-linejoin:miter;stroke:#001356;stroke-opacity:1;stroke-miterlimit:4" transform="matrix(.1 0 0 -.1 0 269.61)"/><path d="M1695.508 859.928v68.32" style="fill:none;stroke-width:12.567;stroke-linecap:butt;stroke-linejoin:miter;stroke:#001356;stroke-opacity:1;stroke-miterlimit:4" transform="matrix(.1 0 0 -.1 0 269.61)"/><path d="M1695.508 983.678v54.492" style="fill:none;stroke-width:11.223;stroke-linecap:butt;stroke-linejoin:miter;stroke:#001356;stroke-opacity:1;stroke-miterlimit:4" transform="matrix(.1 0 0 -.1 0 269.61)"/><path d="M1695.508 1103.64v60.272" style="fill:none;stroke-width:11.801;stroke-linecap:butt;stroke-linejoin:miter;stroke:#001356;stroke-opacity:1;stroke-miterlimit:4" transform="matrix(.1 0 0 -.1 0 269.61)"/><path d="M1695.508 1629.655v-51.72" style="fill:none;stroke-width:10.934;stroke-linecap:butt;stroke-linejoin:miter;stroke:#001356;stroke-opacity:1;stroke-miterlimit:4" transform="matrix(.1 0 0 -.1 0 269.61)"/><path d="M1695.508 1513.248v-53.086" style="fill:none;stroke-width:11.078;stroke-linecap:butt;stroke-linejoin:miter;stroke:#001356;stroke-opacity:1;stroke-miterlimit:4" transform="matrix(.1 0 0 -.1 0 269.61)"/><path d="M1695.508 1220.24v67.657" style="fill:none;stroke-width:12.5031;stroke-linecap:butt;stroke-linejoin:miter;stroke:#001356;stroke-opacity:1;stroke-miterlimit:4" transform="matrix(.1 0 0 -.1 0 269.61)"/><path d="M1695.508 1347.116v63.632" style="fill:none;stroke-width:12.1249;stroke-linecap:butt;stroke-linejoin:miter;stroke:#001356;stroke-opacity:1;stroke-miterlimit:4" transform="matrix(.1 0 0 -.1 0 269.61)"/><path d="M1780.04 851.96v68.788" style="fill:none;stroke-width:12.6109;stroke-linecap:butt;stroke-linejoin:miter;stroke:#001356;stroke-opacity:1;stroke-miterlimit:4" transform="matrix(.1 0 0 -.1 0 269.61)"/><path d="M1780.04 983.678v54.492" style="fill:none;stroke-width:11.223;stroke-linecap:butt;stroke-linejoin:miter;stroke:#001356;stroke-opacity:1;stroke-miterlimit:4" transform="matrix(.1 0 0 -.1 0 269.61)"/><path d="M1780.04 1103.64v60.272" style="fill:none;stroke-width:11.801;stroke-linecap:butt;stroke-linejoin:miter;stroke:#001356;stroke-opacity:1;stroke-miterlimit:4" transform="matrix(.1 0 0 -.1 0 269.61)"/><path d="M1780.04 1644.303v-57.383" style="fill:none;stroke-width:11.516;stroke-linecap:butt;stroke-linejoin:miter;stroke:#001356;stroke-opacity:1;stroke-miterlimit:4" transform="matrix(.1 0 0 -.1 0 269.61)"/><path d="M1780.04 1526.764v-62.226" style="fill:none;stroke-width:11.991;stroke-linecap:butt;stroke-linejoin:miter;stroke:#001356;stroke-opacity:1;stroke-miterlimit:4" transform="matrix(.1 0 0 -.1 0 269.61)"/><path d="M1881.64 851.96v66.562" style="fill:none;stroke-width:12.403;stroke-linecap:butt;stroke-linejoin:miter;stroke:#001356;stroke-opacity:1;stroke-miterlimit:4" transform="matrix(.1 0 0 -.1 0 269.61)"/><path d="M1881.64 978.795v59.375" style="fill:none;stroke-width:11.714;stroke-linecap:butt;stroke-linejoin:miter;stroke:#001356;stroke-opacity:1;stroke-miterlimit:4" transform="matrix(.1 0 0 -.1 0 269.61)"/><path d="M1881.64 1651.14v-57.384" style="fill:none;stroke-width:11.516;stroke-linecap:butt;stroke-linejoin:miter;stroke:#001356;stroke-opacity:1;stroke-miterlimit:4" transform="matrix(.1 0 0 -.1 0 269.61)"/><path d="M1881.64 1526.764v-62.226" style="fill:none;stroke-width:11.991;stroke-linecap:butt;stroke-linejoin:miter;stroke:#001356;stroke-opacity:1;stroke-miterlimit:4" transform="matrix(.1 0 0 -.1 0 269.61)"/><path d="M1973.984 864.42v56.328" style="fill:none;stroke-width:11.411;stroke-linecap:butt;stroke-linejoin:miter;stroke:#001356;stroke-opacity:1;stroke-miterlimit:4" transform="matrix(.1 0 0 -.1 0 269.61)"/><path d="M1973.984 989.225v54.492" style="fill:none;stroke-width:11.223;stroke-linecap:butt;stroke-linejoin:miter;stroke:#001356;stroke-opacity:1;stroke-miterlimit:4" transform="matrix(.1 0 0 -.1 0 269.61)"/><path d="M1973.984 1644.303v-60.273" style="fill:none;stroke-width:11.801;stroke-linecap:butt;stroke-linejoin:miter;stroke:#001356;stroke-opacity:1;stroke-miterlimit:4" transform="matrix(.1 0 0 -.1 0 269.61)"/><path d="M1973.984 1518.444v-62.188" style="fill:none;stroke-width:11.991;stroke-linecap:butt;stroke-linejoin:miter;stroke:#001356;stroke-opacity:1;stroke-miterlimit:4" transform="matrix(.1 0 0 -.1 0 269.61)"/><path d="M1780.04 1220.24v67.657" style="fill:none;stroke-width:12.5031;stroke-linecap:butt;stroke-linejoin:miter;stroke:#001356;stroke-opacity:1;stroke-miterlimit:4" transform="matrix(.1 0 0 -.1 0 269.61)"/><path d="M1780.04 1347.116v63.632M1893.79 1347.116v63.632M1978.75 1342.35v63.633" style="fill:none;stroke-width:12.1249;stroke-linecap:butt;stroke-linejoin:miter;stroke:#001356;stroke-opacity:1;stroke-miterlimit:4" transform="matrix(.1 0 0 -.1 0 269.61)"/><path d="M2051.563 879.89v63.398" style="fill:none;stroke-width:12.103;stroke-linecap:butt;stroke-linejoin:miter;stroke:#001356;stroke-opacity:1;stroke-miterlimit:4" transform="matrix(.1 0 0 -.1 0 269.61)"/><path d="M2051.563 996.842v58.32" style="fill:none;stroke-width:11.609;stroke-linecap:butt;stroke-linejoin:miter;stroke:#001356;stroke-opacity:1;stroke-miterlimit:4" transform="matrix(.1 0 0 -.1 0 269.61)"/><path d="M2051.563 1103.64v60.272" style="fill:none;stroke-width:11.801;stroke-linecap:butt;stroke-linejoin:miter;stroke:#001356;stroke-opacity:1;stroke-miterlimit:4" transform="matrix(.1 0 0 -.1 0 269.61)"/><path d="M2051.563 1633.248v-65.468" style="fill:none;stroke-width:12.3;stroke-linecap:butt;stroke-linejoin:miter;stroke:#001356;stroke-opacity:1;stroke-miterlimit:4" transform="matrix(.1 0 0 -.1 0 269.61)"/><path d="M2051.563 1506.686v-59.453" style="fill:none;stroke-width:11.721;stroke-linecap:butt;stroke-linejoin:miter;stroke:#001356;stroke-opacity:1;stroke-miterlimit:4" transform="matrix(.1 0 0 -.1 0 269.61)"/><path d="M2051.563 1220.24v67.657" style="fill:none;stroke-width:12.5031;stroke-linecap:butt;stroke-linejoin:miter;stroke:#001356;stroke-opacity:1;stroke-miterlimit:4" transform="matrix(.1 0 0 -.1 0 269.61)"/><path d="M2051.563 1347.116v47.812" style="fill:none;stroke-width:10.5099;stroke-linecap:butt;stroke-linejoin:miter;stroke:#001356;stroke-opacity:1;stroke-miterlimit:4" transform="matrix(.1 0 0 -.1 0 269.61)"/><path d="M1744.258 773.444v80.976" style="fill:none;stroke-width:13.6771;stroke-linecap:butt;stroke-linejoin:miter;stroke:#001356;stroke-opacity:1;stroke-miterlimit:4" transform="matrix(.1 0 0 -.1 0 269.61)"/><path d="M1744.258 922.584v61.641" style="fill:none;stroke-width:11.938;stroke-linecap:butt;stroke-linejoin:miter;stroke:#001356;stroke-opacity:1;stroke-miterlimit:4" transform="matrix(.1 0 0 -.1 0 269.61)"/><path d="M1744.258 1040.514v62.852" style="fill:none;stroke-width:12.0509;stroke-linecap:butt;stroke-linejoin:miter;stroke:#001356;stroke-opacity:1;stroke-miterlimit:4" transform="matrix(.1 0 0 -.1 0 269.61)"/><path d="M1744.258 1709.928v-70.039" style="fill:none;stroke-width:12.7229;stroke-linecap:butt;stroke-linejoin:miter;stroke:#001356;stroke-opacity:1;stroke-miterlimit:4" transform="matrix(.1 0 0 -.1 0 269.61)"/><path d="M1733.164 1751.725v-45.781M1721.484 1788.131v-45.742" style="fill:none;stroke-width:10.284;stroke-linecap:butt;stroke-linejoin:miter;stroke:#001356;stroke-opacity:1;stroke-miterlimit:4" transform="matrix(.1 0 0 -.1 0 269.61)"/><path d="M1980.86 1747.39v-47.267" style="fill:none;stroke-width:10.453;stroke-linecap:butt;stroke-linejoin:miter;stroke:#001356;stroke-opacity:1;stroke-miterlimit:4" transform="matrix(.1 0 0 -.1 0 269.61)"/><path d="M1992.54 1788.131v-45.742" style="fill:none;stroke-width:10.284;stroke-linecap:butt;stroke-linejoin:miter;stroke:#001356;stroke-opacity:1;stroke-miterlimit:4" transform="matrix(.1 0 0 -.1 0 269.61)"/><path d="M2024.883 1732.194v-47.266" style="fill:none;stroke-width:10.453;stroke-linecap:butt;stroke-linejoin:miter;stroke:#001356;stroke-opacity:1;stroke-miterlimit:4" transform="matrix(.1 0 0 -.1 0 269.61)"/><path d="M2036.563 1772.936v-45.742M1684.648 1743.405v-45.743M1672.969 1779.81v-45.741M1642.227 1725.788v-45.743M1630.508 1762.194v-45.742" style="fill:none;stroke-width:10.284;stroke-linecap:butt;stroke-linejoin:miter;stroke:#001356;stroke-opacity:1;stroke-miterlimit:4" transform="matrix(.1 0 0 -.1 0 269.61)"/><path d="M1744.258 1586.569v-66.055" style="fill:none;stroke-width:12.356;stroke-linecap:butt;stroke-linejoin:miter;stroke:#001356;stroke-opacity:1;stroke-miterlimit:4" transform="matrix(.1 0 0 -.1 0 269.61)"/><path d="M1744.258 1465.631v-57.773" style="fill:none;stroke-width:11.553;stroke-linecap:butt;stroke-linejoin:miter;stroke:#001356;stroke-opacity:1;stroke-miterlimit:4" transform="matrix(.1 0 0 -.1 0 269.61)"/><path d="M1744.258 1166.998v51.368" style="fill:none;stroke-width:10.896;stroke-linecap:butt;stroke-linejoin:miter;stroke:#001356;stroke-opacity:1;stroke-miterlimit:4" transform="matrix(.1 0 0 -.1 0 269.61)"/><path d="M1744.258 1284.42v63.399" style="fill:none;stroke-width:12.1049;stroke-linecap:butt;stroke-linejoin:miter;stroke:#001356;stroke-opacity:1;stroke-miterlimit:4" transform="matrix(.1 0 0 -.1 0 269.61)"/><path d="M2016.719 801.96v72.382" style="fill:none;stroke-width:12.934;stroke-linecap:butt;stroke-linejoin:miter;stroke:#001356;stroke-opacity:1;stroke-miterlimit:4" transform="matrix(.1 0 0 -.1 0 269.61)"/><path d="M2016.719 928.405v61.289" style="fill:none;stroke-width:11.9031;stroke-linecap:butt;stroke-linejoin:miter;stroke:#001356;stroke-opacity:1;stroke-miterlimit:4" transform="matrix(.1 0 0 -.1 0 269.61)"/><path d="M2016.719 1696.647v-56.758" style="fill:none;stroke-width:11.4529;stroke-linecap:butt;stroke-linejoin:miter;stroke:#001356;stroke-opacity:1;stroke-miterlimit:4" transform="matrix(.1 0 0 -.1 0 269.61)"/><path d="M2016.719 1578.795v-69.765" style="fill:none;stroke-width:12.6981;stroke-linecap:butt;stroke-linejoin:miter;stroke:#001356;stroke-opacity:1;stroke-miterlimit:4" transform="matrix(.1 0 0 -.1 0 269.61)"/><path d="M2016.719 1454.772v-56.367" style="fill:none;stroke-width:11.414;stroke-linecap:butt;stroke-linejoin:miter;stroke:#001356;stroke-opacity:1;stroke-miterlimit:4" transform="matrix(.1 0 0 -.1 0 269.61)"/><path d="M1930.82 778.756v79.219" style="fill:none;stroke-width:13.531;stroke-linecap:butt;stroke-linejoin:miter;stroke:#001356;stroke-opacity:1;stroke-miterlimit:4" transform="matrix(.1 0 0 -.1 0 269.61)"/><path d="M1930.82 918.64v65.585" style="fill:none;stroke-width:12.312;stroke-linecap:butt;stroke-linejoin:miter;stroke:#001356;stroke-opacity:1;stroke-miterlimit:4" transform="matrix(.1 0 0 -.1 0 269.61)"/><path d="M1930.82 1713.405v-63.399" style="fill:none;stroke-width:12.1049;stroke-linecap:butt;stroke-linejoin:miter;stroke:#001356;stroke-opacity:1;stroke-miterlimit:4" transform="matrix(.1 0 0 -.1 0 269.61)"/><path d="M1930.82 1589.342v-66.055" style="fill:none;stroke-width:12.356;stroke-linecap:butt;stroke-linejoin:miter;stroke:#001356;stroke-opacity:1;stroke-miterlimit:4" transform="matrix(.1 0 0 -.1 0 269.61)"/><path d="M1930.82 1465.631v-57.773" style="fill:none;stroke-width:11.553;stroke-linecap:butt;stroke-linejoin:miter;stroke:#001356;stroke-opacity:1;stroke-miterlimit:4" transform="matrix(.1 0 0 -.1 0 269.61)"/><path d="M1842.148 773.444v80.976" style="fill:none;stroke-width:13.6771;stroke-linecap:butt;stroke-linejoin:miter;stroke:#001356;stroke-opacity:1;stroke-miterlimit:4" transform="matrix(.1 0 0 -.1 0 269.61)"/><path d="M1842.148 912.506v67.11" style="fill:none;stroke-width:12.455;stroke-linecap:butt;stroke-linejoin:miter;stroke:#001356;stroke-opacity:1;stroke-miterlimit:4" transform="matrix(.1 0 0 -.1 0 269.61)"/><path d="M1842.148 1711.92v-63.398" style="fill:none;stroke-width:12.1049;stroke-linecap:butt;stroke-linejoin:miter;stroke:#001356;stroke-opacity:1;stroke-miterlimit:4" transform="matrix(.1 0 0 -.1 0 269.61)"/><path d="m1842.227 1592.936-.118-66.016" style="fill:none;stroke-width:12.352;stroke-linecap:butt;stroke-linejoin:miter;stroke:#001356;stroke-opacity:1;stroke-miterlimit:4" transform="matrix(.1 0 0 -.1 0 269.61)"/><path d="M1842.148 1465.631v-57.773" style="fill:none;stroke-width:11.553;stroke-linecap:butt;stroke-linejoin:miter;stroke:#001356;stroke-opacity:1;stroke-miterlimit:4" transform="matrix(.1 0 0 -.1 0 269.61)"/><path d="M2090.234 1103.248h-78.828" style="fill:none;stroke-width:13.096;stroke-linecap:butt;stroke-linejoin:miter;stroke:#001356;stroke-opacity:1;stroke-miterlimit:4" transform="matrix(.1 0 0 -.1 0 269.61)"/><path d="M1840.195 1103.248h-248.71M1591.484 1166.022h248.711" style="fill:none;stroke-width:12.567;stroke-linecap:butt;stroke-linejoin:miter;stroke:#001356;stroke-opacity:1;stroke-miterlimit:4" transform="matrix(.1 0 0 -.1 0 269.61)"/><path d="M2011.406 1166.022h78.828" style="fill:none;stroke-width:13.096;stroke-linecap:butt;stroke-linejoin:miter;stroke:#001356;stroke-opacity:1;stroke-miterlimit:4" transform="matrix(.1 0 0 -.1 0 269.61)"/><path d="M1840.195 1223.288h-248.71" style="fill:none;stroke-width:12.567;stroke-linecap:butt;stroke-linejoin:miter;stroke:#001356;stroke-opacity:1;stroke-miterlimit:4" transform="matrix(.1 0 0 -.1 0 269.61)"/><path d="M2090.234 1223.288h-79.53" style="fill:none;stroke-width:13.1531;stroke-linecap:butt;stroke-linejoin:miter;stroke:#001356;stroke-opacity:1;stroke-miterlimit:4" transform="matrix(.1 0 0 -.1 0 269.61)"/><path d="M2006.523 1284.264h83.711" style="fill:none;stroke-width:13.493;stroke-linecap:butt;stroke-linejoin:miter;stroke:#001356;stroke-opacity:1;stroke-miterlimit:4" transform="matrix(.1 0 0 -.1 0 269.61)"/><path d="M1840.195 1284.264h-248.71M1591.484 1347.038h263.985" style="fill:none;stroke-width:12.567;stroke-linecap:butt;stroke-linejoin:miter;stroke:#001356;stroke-opacity:1;stroke-miterlimit:4" transform="matrix(.1 0 0 -.1 0 269.61)"/><path d="M1994.883 1347.038h95.351" style="fill:none;stroke-width:13.13;stroke-linecap:butt;stroke-linejoin:miter;stroke:#001356;stroke-opacity:1;stroke-miterlimit:4" transform="matrix(.1 0 0 -.1 0 269.61)"/><path d="M184.02 165.555v-27.47s-.915-5.913 8.695-6.468c0 0 6.254-.496 8.68 5.172.183 7.39 0 27.711 0 27.711z" style="stroke:none;fill-rule:nonzero;fill:#001356;fill-opacity:1"/><path d="M2100.664 1699.81s-240.39 137.15-519.57-2.812" style="fill:none;stroke-width:13.13;stroke-linecap:butt;stroke-linejoin:miter;stroke:#001356;stroke-opacity:1;stroke-miterlimit:4" transform="matrix(.1 0 0 -.1 0 269.61)"/><path d="M2116.758 1734.577s-234.414 148.71-549.844 0" style="fill:none;stroke-width:13.13;stroke-linecap:butt;stroke-linejoin:miter;stroke:#001356;stroke-opacity:1;stroke-miterlimit:4" transform="matrix(.1 0 0 -.1 0 269.61)"/><path d="M2139.492 1825.631s-286.719 120.508-602.148-28.242M2100.664 1658.248s-240.39 137.149-519.57-2.812" style="fill:none;stroke-width:13.13;stroke-linecap:butt;stroke-linejoin:miter;stroke:#001356;stroke-opacity:1;stroke-miterlimit:4" transform="matrix(.1 0 0 -.1 0 269.61)"/><path d="m1584.18 1745.163.273 48.085 50.938 19.063 1.718-47.461M1733.164 1791.881v43.985l-51.25-10.04v-47.343M1817.227 1800.163v45.039l-40.196-2.774v-43.633M1869.844 1800.163v45.039l48.515-1.72v-43.32M1952.305 1795.319l.664 42.968 55.43-9.023v-47.11M2089.688 1754.46l.468 54.374-52.187 14.532.234-50.196M2001.016 1912.858v79.414l41.562 2.773 86.797-29.57.586-85.703-88.633 23.086 1.25 92.187" style="fill:none;stroke-width:12.567;stroke-linecap:butt;stroke-linejoin:miter;stroke:#001356;stroke-opacity:1;stroke-miterlimit:4" transform="matrix(.1 0 0 -.1 0 269.61)"/><path d="m1853.477 1924.225-1.407 75.625 41.055 17.617 87.969-10.273v-86.524l-86.485 4.414-2.93 89.414M1818.36 1925.084v73.282l-38.126 13.203-77.695-16.094-.195-91.25 77.031 14.688.86 92.656M1673.203 1897.233v79.14l-27.812 4.414-83.555-38.125-.078-90.195 75.898 34.102.82 94.218" style="fill:none;stroke-width:12.1249;stroke-linecap:butt;stroke-linejoin:miter;stroke:#001356;stroke-opacity:1;stroke-miterlimit:4" transform="matrix(.1 0 0 -.1 0 269.61)"/><path d="M1916.055 1278.756v-180.469" style="fill:none;stroke-width:11.266;stroke-linecap:butt;stroke-linejoin:miter;stroke:#fff;stroke-opacity:1;stroke-miterlimit:4" transform="matrix(.1 0 0 -.1 0 269.61)"/><path d="M1984.14 1226.92h-143.28M1984.14 1143.795h-143.28" style="fill:none;stroke-width:10.0391;stroke-linecap:butt;stroke-linejoin:miter;stroke:#fff;stroke-opacity:1;stroke-miterlimit:4" transform="matrix(.1 0 0 -.1 0 269.61)"/><path d="M1954.102 1268.99v-159.843M1866.055 1268.99v-159.843" style="fill:none;stroke-width:10.602;stroke-linecap:butt;stroke-linejoin:miter;stroke:#fff;stroke-opacity:1;stroke-miterlimit:4" transform="matrix(.1 0 0 -.1 0 269.61)"/><path d="m1590.04 1273.913-141.485 51.562" style="fill:none;stroke-width:7.5;stroke-linecap:butt;stroke-linejoin:miter;stroke:#001356;stroke-opacity:1;stroke-miterlimit:4" transform="matrix(.1 0 0 -.1 0 269.61)"/><path d="m1591.328 1230.123-142.383 51.914" style="fill:none;stroke-width:7.523;stroke-linecap:butt;stroke-linejoin:miter;stroke:#001356;stroke-opacity:1;stroke-miterlimit:4" transform="matrix(.1 0 0 -.1 0 269.61)"/><path d="m1590.04 1190.28-141.954 51.718" style="fill:none;stroke-width:7.5121;stroke-linecap:butt;stroke-linejoin:miter;stroke:#001356;stroke-opacity:1;stroke-miterlimit:4" transform="matrix(.1 0 0 -.1 0 269.61)"/><path d="m1588.633 1148.483-140.625 51.289" style="fill:none;stroke-width:7.478;stroke-linecap:butt;stroke-linejoin:miter;stroke:#001356;stroke-opacity:1;stroke-miterlimit:4" transform="matrix(.1 0 0 -.1 0 269.61)"/><path d="m1592.813 1106.686-143.75 52.422" style="fill:none;stroke-width:7.56;stroke-linecap:butt;stroke-linejoin:miter;stroke:#001356;stroke-opacity:1;stroke-miterlimit:4" transform="matrix(.1 0 0 -.1 0 269.61)"/><path d="m1594.18 1064.85-145.274 52.93" style="fill:none;stroke-width:7.599;stroke-linecap:butt;stroke-linejoin:miter;stroke:#001356;stroke-opacity:1;stroke-miterlimit:4" transform="matrix(.1 0 0 -.1 0 269.61)"/><path d="m1590.04 1023.053-141.915 51.719" style="fill:none;stroke-width:7.5101;stroke-linecap:butt;stroke-linejoin:miter;stroke:#001356;stroke-opacity:1;stroke-miterlimit:4" transform="matrix(.1 0 0 -.1 0 269.61)"/><path d="m1594.18 981.256-145.47 53.047" style="fill:none;stroke-width:7.605;stroke-linecap:butt;stroke-linejoin:miter;stroke:#001356;stroke-opacity:1;stroke-miterlimit:4" transform="matrix(.1 0 0 -.1 0 269.61)"/><path d="m1595.547 939.46-146.563 53.437" style="fill:none;stroke-width:7.634;stroke-linecap:butt;stroke-linejoin:miter;stroke:#001356;stroke-opacity:1;stroke-miterlimit:4" transform="matrix(.1 0 0 -.1 0 269.61)"/><path d="m1591.406 897.623-142.422 51.914" style="fill:none;stroke-width:7.525;stroke-linecap:butt;stroke-linejoin:miter;stroke:#001356;stroke-opacity:1;stroke-miterlimit:4" transform="matrix(.1 0 0 -.1 0 269.61)"/><path d="m1591.406 855.827-141.484 51.601" style="fill:none;stroke-width:7.5;stroke-linecap:butt;stroke-linejoin:miter;stroke:#001356;stroke-opacity:1;stroke-miterlimit:4" transform="matrix(.1 0 0 -.1 0 269.61)"/><path d="M1451.445 1365.827V878.873M1498.203 1349.225V862.233M1544.96 1335.358V848.366" style="fill:none;stroke-width:10.038;stroke-linecap:butt;stroke-linejoin:miter;stroke:#001356;stroke-opacity:1;stroke-miterlimit:4" transform="matrix(.1 0 0 -.1 0 269.61)"/></svg>