<svg version="1.1" id="Capa_1" xmlns="http://www.w3.org/2000/svg" x="0" y="0" viewBox="0 0 2087.6 2099.6" xml:space="preserve">
  <style type="text/css">
    .st0{fill:red}.st1{fill:#fff}
  </style>
    <g>
      <path class="st0" d="M74.7 1046.4c.9-31.8.7-63.7 3.1-95.4 1.9-25.8 6.1-51.6 10.9-77.1 13.4-72.2 34-142.4 63.3-209.8C208.9 533.5 289.8 420 395.4 324.3 474.7 252.4 563 194.4 661 151.6c67.7-29.6 138-51.1 210.7-63.8 36.2-6.3 73-9.3 109.5-13.6 47.5-5.5 94.8-1.9 142.2 1.8 47.2 3.7 93.9 10.5 140 21.4 80.7 19.1 158 47.7 230.9 87.3 211.8 115.2 361.9 285.5 452.1 508.8 25.8 63.8 43.8 129.8 54.5 197.8 10.1 64 13.3 128.5 11.5 193.3-5.9 214.2-76.6 405.2-208.1 573.3-129 164.9-295.7 275.8-496.1 336-45 13.5-90.9 23.9-137.7 28.5-39.1 3.9-78.5 5.2-117.8 5.5-39.1.4-78.3-1.2-117.4-3.3-33.3-1.8-66-8.6-98.4-16.1-208.8-48.4-384-153.2-524.8-314.7-103.1-118.1-173-254-210.7-406.2-9.8-39.4-18.3-79.2-22.5-119.6-2.4-22.5-2.7-45.2-3.4-67.9-.5-18-.1-36-.1-54-.2.3-.5.3-.7.3zm976.3 923.9c81.1-2 102.3-3.7 159.5-15 106.6-21 207.2-57.8 299.9-115 79.9-49.4 151.9-108.3 213.9-179 96-109.5 161.5-235.2 199.7-375.4 11.2-41.2 19.5-83 24-125.4 2.6-24.5 3.9-49.2 4.7-73.8 1.9-60.2.2-120.3-9.5-179.9-12.1-74.1-32.1-145.9-61.9-214.8-85.9-198.2-223.6-349.4-413.3-453-81.9-44.7-169.3-74.1-260.7-91.7-41.9-8.1-84.4-12.1-127-13.9-51-2.1-101.9.1-152.6 6.6-60.9 7.9-120.5 21.8-178.5 42C588 238.3 453.8 333.7 344.4 464.2c-87.2 104-147.1 222.1-181.5 353.3-10.4 39.8-19.5 80-23.6 120.9-3.1 31-4.3 62.1-5.1 93.3-1.2 43.8-.6 87.7 4.6 131.3 5.8 49.2 16.1 97.5 30.1 145 42 143 112.3 269.6 216.9 376.5 30.7 31.3 60.9 63.3 95.6 90.2 107.2 83.2 226.1 142.5 358.8 172.9 32 7.3 64 15 96.7 17.4 37.8 2.7 76 3.6 114.1 5.3z"/>
      <path class="st1" d="M1051 1970.3c-38.1-1.7-76.3-2.7-114.3-5.4-32.8-2.3-64.7-10-96.7-17.4-132.7-30.4-251.6-89.7-358.8-172.9-34.7-26.9-64.9-58.8-95.6-90.2C281 1577.7 210.6 1451 168.7 1308c-13.9-47.5-24.2-95.9-30.1-145-5.2-43.6-5.8-87.5-4.6-131.3.9-31.1 2-62.3 5.1-93.3 4-41 13.2-81.1 23.6-120.9C197 686.3 257 568.1 344.2 464.2 453.6 333.7 587.8 238.3 749 182c58-20.3 117.5-34.1 178.5-42 50.7-6.6 101.6-8.8 152.6-6.6 42.6 1.8 85.1 5.8 127 13.9 91.4 17.6 178.8 47 260.7 91.7 189.7 103.6 327.4 254.8 413.3 453 29.9 68.9 49.8 140.7 61.9 214.8 9.7 59.6 11.4 119.7 9.5 179.9-.8 24.6-2 49.3-4.7 73.8-4.5 42.4-12.8 84.2-24 125.4-38.2 140.2-103.8 266-199.7 375.4-62 70.7-134 129.6-213.9 179-92.7 57.3-193.3 94-299.9 115-57 11.3-78.2 13-159.3 15zm445-1650.7c-4.1-2.7-7.5-5.1-11-7.3-56.1-35.1-116.2-61.3-178.9-81.9-52-17-105-30.3-159.4-36.1-31.1-3.3-62.5-4.2-93.7-4.9-47.2-1.1-94.3.1-141 8-53.6 9.1-106 22.9-157 41.8-84.1 31.2-162.2 73.4-233.2 128.2-64.1 49.5-119.6 107.6-167.2 173.1-97 133.1-151.9 281.9-165 446.1-4.4 55.8-3 111.5 3.6 167.1 6.7 56.2 18 111.4 36 165.1 58.2 173.7 160.2 316.1 305.9 427.2 2.8 2.1 5.7 4.1 8.7 5.9 6 3.6 8.1 3.2 12.2-2.4 3.1-4.3 6.2-8.7 9.1-13.1 76.6-115.1 152.9-230.3 229.7-345.3 229.1-342.9 454.5-688.2 677.9-1034.8 7.6-11.9 15.2-24 23.3-36.7zM599.9 1792.4c17.8 9.7 35 19.6 52.5 28.7 72.7 37.7 149.5 64 229.8 79.6 26.3 5.1 52.9 9.3 79.5 11.2 31.4 2.3 62.9 2.1 94.4 2.3 67.6.4 134.2-7 199.7-24.7 85.7-23.1 165.9-58.4 241.1-105.3 186.4-116.4 326.7-310.9 378.2-524.2 8.8-36.3 16.4-72.8 20-110 4.4-45.5 4.9-91.2 3.8-136.9-.4-18.8-.7-37.8-3.2-56.4-4.1-30-9.2-59.9-15.5-89.5-15.8-74.4-41.1-145.6-75.9-213.3-59.4-115.5-143.2-210.5-243.5-291.7-3.8-3.1-8.1-5.6-12.6-8.6-325 474.1-639.2 954.3-948.3 1438.8z"/>
      <path class="st0" d="M1496 319.6c-8.1 12.7-15.7 24.8-23.4 36.9-223.4 346.6-448.8 691.9-677.9 1034.8-76.8 114.9-153.1 230.2-229.7 345.3-3 4.4-6 8.8-9.1 13.1-4 5.5-6.2 6-12.2 2.4-3-1.8-5.9-3.8-8.7-5.9-145.7-111.1-247.7-253.5-305.9-427.2-18-53.6-29.3-108.9-36-165.1-6.6-55.6-8-111.3-3.6-167.1 13-164.2 68-313 165-446.1 47.7-65.4 103.1-123.5 167.2-173.1 71-54.9 149.1-97.1 233.2-128.2 51-18.9 103.4-32.7 157-41.8 46.7-8 93.8-9.2 141-8 31.3.7 62.7 1.6 93.7 4.9 54.4 5.8 107.4 19 159.4 36.1 62.7 20.5 122.8 46.8 178.9 81.9 3.5 2 6.9 4.4 11.1 7.1zM813.7 773.3c-.5 6.5-.7 12.8-1.6 19-2.1 14.3-3.3 28.9-7.1 42.7-4.6 16.2-23.8 27.1-38.8 23.7-16.1-3.6-28.1-12.8-32.5-29.1-3.4-12.5-6-25.3-7-38.2-3.9-53.4-3.3-106.9-.9-160.4.6-14.4 2.9-28.9 5.9-42.9 4.2-19.6 18.1-30.9 37.3-33 12.8-1.4 22.4 3.4 29.3 14 6.1 9.2 9 19.6 10.9 30.3 1.7 9.8 3.3 19.7 4.9 29.5h83.2c0-12.1.5-23.9-.1-35.7-.8-17.4-4.1-34.3-13.5-49.6-16.1-26.2-37.7-45.3-68.7-51.2-20.3-3.9-41.1-4.2-61.7-3.6-19.7.6-38 6.3-55.1 15.9-28 15.6-43.5 40.7-53 70.4-8.4 26.4-9.8 53.7-9.8 81 0 45.5.7 91 2 136.4.7 24.3 6.6 47.8 17.3 69.8 14.6 30.1 37.3 51.1 70.4 58.6 23.2 5.3 47.1 6.2 70.6 4.5 44.8-3.1 77.4-25.3 95.3-67.2 7.5-17.5 9.7-36.3 10.2-55.2.3-9.9 0-19.8 0-29.9-29.2.2-58.1.2-87.5.2z"/>
      <path d="M599.9 1792.4C909 1307.9 1223.2 827.7 1548 353.7c4.5 3 8.8 5.5 12.6 8.6 100.4 81.2 184.2 176.3 243.5 291.7 34.8 67.7 60 138.9 75.9 213.3 6.3 29.6 11.4 59.5 15.5 89.5 2.6 18.6 2.8 37.5 3.2 56.4 1.1 45.7.5 91.4-3.8 136.9-3.6 37.2-11.2 73.7-20 110-51.5 213.3-191.7 407.9-378.2 524.2-75.2 46.9-155.4 82.2-241.1 105.3-65.5 17.7-132.1 25.1-199.7 24.7-31.5-.2-63 0-94.4-2.3-26.6-2-53.3-6.1-79.5-11.2-80.3-15.6-157.1-41.9-229.8-79.6-17.4-9.2-34.6-19-52.3-28.8zm581.7-190.7c1.4.1 2.2.2 3.1.2 47.3-.6 94.6-1.1 142-2 14.1-.3 28.7-.2 42.2-3.6 35.1-9 58.7-32.6 73-65.1 10.9-24.6 14.2-51.2 16.4-77.9 2.9-36.1 2.9-72.3 1-108.4-1.5-28.2-4.8-56.1-13-83.2-13.6-45-46.8-83.1-109.2-82.8-50 .3-100-1.6-150-2.5h-5.5v425.3z"/>
      <path class="st1" d="M813.7 773.3h87.5c0 10.1.2 20 0 29.9-.5 18.9-2.7 37.6-10.2 55.2-17.9 41.9-50.5 64-95.3 67.2-23.5 1.6-47.5.7-70.6-4.5-33.1-7.5-55.8-28.5-70.4-58.6-10.7-22-16.6-45.5-17.3-69.8-1.3-45.5-2-90.9-2-136.4 0-27.3 1.4-54.6 9.8-81 9.4-29.7 25-54.8 53-70.4 17.1-9.5 35.4-15.3 55.1-15.9 20.7-.6 41.4-.3 61.7 3.6 31 5.9 52.6 25 68.7 51.2 9.4 15.2 12.7 32.1 13.5 49.6.6 11.8.1 23.6.1 35.7h-83.2c-1.6-9.8-3.2-19.7-4.9-29.5-1.9-10.7-4.8-21.1-10.9-30.3-7-10.6-16.6-15.4-29.3-14-19.2 2.1-33.1 13.4-37.3 33-3 14.1-5.3 28.6-5.9 42.9-2.4 53.5-3 107 .9 160.4.9 12.8 3.6 25.7 7 38.2 4.4 16.3 16.4 25.4 32.5 29.1 15 3.4 34.2-7.5 38.8-23.7 3.9-13.8 5.1-28.4 7.1-42.7.9-6.4 1.1-12.7 1.6-19.2zM1181.6 1601.7v-425.3h5.5c50 .9 100 2.8 150 2.5 62.3-.4 95.6 37.8 109.2 82.8 8.2 27.1 11.5 55 13 83.2 1.9 36.1 1.9 72.3-1 108.4-2.1 26.6-5.5 53.2-16.4 77.9-14.4 32.5-38 56.1-73 65.1-13.5 3.5-28.1 3.4-42.2 3.6-47.3 1-94.6 1.4-142 2-.9.1-1.7-.1-3.1-.2zm87.9-65.8c20.8-1.5 41.5-.5 61.7-5.4 16-3.8 27.4-13.3 32.5-28.8 4.2-12.7 7.9-25.9 9.3-39.2 4.4-41.7 3.8-83.5 2.1-125.3-.8-18.7-3.1-37.1-8.8-55-6.4-20.1-18.9-33.4-40.4-36.6-5.6-.8-11.3-1.5-16.9-1.6-13.1-.2-26.2-.1-39.5-.1v292z"/>
      <path d="M1269.5 1535.9v-292c13.3 0 26.4-.2 39.5.1 5.6.1 11.3.8 16.9 1.6 21.5 3.2 34 16.5 40.4 36.6 5.7 17.9 8 36.4 8.8 55 1.7 41.8 2.3 83.7-2.1 125.3-1.4 13.3-5.1 26.4-9.3 39.2-5.1 15.5-16.5 25-32.5 28.8-20.2 4.9-40.9 3.9-61.7 5.4z"/>
    </g>
</svg>
