<svg xmlns="http://www.w3.org/2000/svg" xml:space="preserve" id="Capa_1" x="0" y="0" version="1.1" viewBox="0 0 383.2 525.79"><style id="style1" type="text/css">.st0,.st1{fill-rule:evenodd;clip-rule:evenodd;fill:#ff0013}.st1{fill:#f2e731}</style><g id="g8" transform="translate(-116.04 -56.176)"><path id="path1" d="M156.53 534.62c-15.96-13.14-26.17-32.93-26.17-54.98V140.49h99.38c49.42 0 61.39-14.5 100.42-14.5s46.75 52.27 51.44 14.5h97.84zm325.11-394.13v339.15c0 1.64-.06 3.27-.17 4.89V140.49Z" class="st0"/><path id="path2" d="M481.47 484.53c-2.56 37.05-33.95 62.42-71.95 62.42h-51.76c-18.19 0-39.59 4.9-51.76 17.17-10.65-10.26-33.56-17.17-51.76-17.17h-51.76c-22.01 0-36.98-3.94-52.6-18.53l329.55-387.93h2.03v344.04z" class="st1"/><path id="path3" d="M483.29 140.49v339.15q0 2.46-.18 4.89c-2.55 37.05-33.95 62.42-71.95 62.42H359.4c-18.19 0-39.59 4.9-51.76 17.17-10.65-10.26-33.56-17.17-51.76-17.17h-51.76c-18.73 0-32.37-2.86-45.65-12.71l-.31.38c-2.34-1.93-4.55-4-6.63-6.19l-.02-.01c-12.07-12.8-19.51-29.97-19.51-48.78V140.49h351.12zm15.29-14.5.66 361.33c.08 41.96-35.35 76.32-78.55 76.32h-56.36c-19.79 0-43.11 5.23-56.36 18.33-11.59-10.95-36.57-18.33-56.36-18.33h-56.36c-43.19 0-78.47-34.34-78.55-76.32l-.66-361.33h267.63z" style="fill-rule:evenodd;clip-rule:evenodd;fill:#050006"/><path id="path4" d="M288.4 60.91c-1.18-.59-3.77-1.61-6.49-.87-3.7 1-19.14 5.65-32.83 22a7.17 7.17 0 0 0-1.15 7.17s-5.19.71-7.01 4.42c-2.46 5.01-7.69 15.95-8.76 26.49-.21 2.09.21 5.77 2.46 8.05 0 0-3.93 3.39-3.02 8.3 1.16 6.19 3.5 20.12 9.16 29.88.66 1.15 1.66 2.8 3.02 4.09 1.43 2.44 2.97 4.7 4.58 6.79.3.83.73 1.66 1.37 2.41 2.47 2.89 11.9 12.25 21.75 17.23.86.47 1.55.83 2 1.06 3.39 1.72 5.83 1.74 7.38 1.39.76 1.26 2.33 2.84 5.62 3.63.62.15 1.32.32 2.08.5.7.24 1.35.4 1.87.51 1.91.39 3.75.7 5.54.96 3.16.47 6.86.82 11.1.82h.44c4.24 0 7.94-.35 11.1-.83 1.78-.25 3.63-.57 5.54-.96.52-.11 1.17-.27 1.87-.51.76-.18 1.46-.35 2.08-.5 3.28-.79 4.87-2.37 5.62-3.63 1.54.36 3.99.34 7.38-1.39.46-.23 1.15-.59 2.01-1.06 9.85-4.98 19.27-14.33 21.74-17.22.64-.75 1.08-1.59 1.37-2.41a65 65 0 0 0 4.59-6.79c1.36-1.3 2.36-2.95 3.02-4.09 5.66-9.76 8-23.69 9.16-29.88.92-4.92-3.02-8.3-3.02-8.3 2.25-2.28 2.67-5.95 2.46-8.05-1.06-10.54-6.3-21.48-8.75-26.49-1.82-3.71-7.01-4.42-7.01-4.42 1.14-2.97.11-5.66-1.15-7.17-13.69-16.35-29.12-21-32.83-22-2.72-.74-5.31.28-6.49.87-.54-1.1-1.67-2.49-3.98-2.97l-.1-.02c-1.5-.85-3.06-1.22-4.28-1.34a82 82 0 0 0-10.55-.37 82 82 0 0 0-10.55.37c-1.22.13-2.79.5-4.28 1.34l-.1.02c-2.29.48-3.42 1.87-3.96 2.97" style="fill-rule:evenodd;clip-rule:evenodd;fill:#201d1e"/><path id="path6" d="M292.23 70.12s13.12-5.01 28.58-.73c.45.12 9.35 10.12 11.42 20.86.13.67-8.02 12.55-9.38 13.77 0 0-19.03-2.48-29.02.88-.64.22-11.81-13.23-14.06-14.61-.98-.59 10.4-17.32 12.46-20.17m10.36 89.82s-13.51-6.12-23.43-17.92c0 0-16.27 5.46-19.37 7.51-.79.52-3.52 9.21-.65 20.32.85 3.3 14.24 15.29 23.46 17.73 1.4.37 11.25-1.31 20.94-8.44.71-.53-1.66-9.28-.95-19.2m26.62-52.33s7.69-12.4 9.04-13.65c1.35-1.26 20.45 2.39 23.18 3.25 1.97.62 8.82 17.7 8.75 27.31-.01 1.13-7.93 15.96-13.26 18.18-1.06.44-17.68-6.65-19.28-7.16.01-.01-1.35-15.52-8.43-27.93m-17.17 52.33s13.51-6.12 23.43-17.92c0 0 16.26 5.46 19.36 7.51.79.52 3.52 9.21.65 20.32-.85 3.3-14.24 15.29-23.46 17.73-1.4.37-11.25-1.31-20.94-8.44-.7-.53 1.67-9.28.96-19.2m-26.62-52.33s-7.69-12.4-9.04-13.65c-1.35-1.26-20.45 2.39-23.18 3.25-1.96.62-8.82 17.7-8.75 27.31.01 1.13 7.93 15.96 13.26 18.18 1.06.44 17.68-6.65 19.28-7.16-.01-.01 1.35-15.52 8.43-27.93" style="fill-rule:evenodd;clip-rule:evenodd;fill:#fff"/><path id="path7" d="M273.32 295.11c-1.81 5-4.9 9.36-8.95 12.56-8.85 7.05-16.73 7.31-44.94 7.31h-57.06l9.67-53.21h21.94l-6.17 33.98c16.6.13 30.83.2 35.08.2 17.82 0 22.97 0 26.66-3.34 2.62-2.44 3.75-5.84 6.8-22.64.96-5.26 3.73-17 .36-20.33-2.51-2.44-10.94-2.7-26.33-2.7-3.86 0-17.58.03-33.73.1H174.7l3.47-19.11 52.34-.15c3.85 0 7.82.13 19.18.39 15.98.25 21.33 1.15 26.79 5 6.49 4.49 7.1 12.44 2.73 36.54-2.28 12.58-4.24 20.53-5.89 25.4" class="st1"/><path id="path8" d="M414.27 441.64c3.35-.12 5.57-1.02 6.71-2.72 1.22-1.62 2.14-4.04 2.72-7.25.36-1.97.46-3.38.52-5.4-.06-1.49-.54-2.71-1.46-3.63-.94-.9-2.46-1.41-4.53-1.55h-78.44l3.47-19.11h80.22c5.34.11 9.54.65 12.59 1.63 9.26 3.02 11.88 8.91 11.43 19.01-.38 7.45-1.49 11.06-3.38 18.64-.39 1.53-1.06 3.29-1.99 5.3-5.4 11.14-18.49 14.31-28.77 14.31H355.1l-4.7 26.39h-22.63l9.62-52.97h22.45l-1.28 7.19z" class="st0"/></g></svg>