<svg xmlns="http://www.w3.org/2000/svg" xml:space="preserve" id="Layer_1" x="0" y="0" version="1.0" viewBox="0 0 1774 2186.18"><style id="style2" type="text/css">.st0{fill:#010000}.st10{fill:#8d3031}</style><g id="XMLID_1_" transform="translate(206 586.775)"><g id="XMLID_48_"><path id="XMLID_80_" d="M1568 1191c-4.9.5-3.8 4.8-4.5 7.7-6 24.2-15.8 46.6-30.5 66.9-8.4 11.6-18.4 22-27.9 32.7-58.3 65.4-116.7 130.8-175.1 196.1-10.9 12.2-21.9 24.2-32.5 36.6-17.7 20.8-40.1 34.9-64.9 45.4-27.5 11.6-56.5 17.7-86.1 21-16.6 1.9-33.2 1.9-49.9 1.9-278.6 0-557.2-.1-835.8.1-38.3 0-75.8-4.6-112.2-16.6-26.6-8.7-51.3-21.2-71.4-40.9-13.3-13-25.3-27.4-37.7-41.3-35.3-39.5-70.5-79.1-105.7-118.7-30.4-34.1-61-68-91.2-102.1-25-28.2-39.9-61.2-44.8-98.6-.5-3.6-.9-7.3-3.7-10.1v-32c.3-.2.6-.3.7-.6.3-.7.1-1.2-.7-1.4v-4c2.5-.2 3.4-1.9 3.6-4 2.4-21.1 10.1-40.7 16.5-60.7 45.1-140.9 90.5-281.7 135.7-422.6C2 483.6 54 321.5 106 159.4c46.6-145 93.1-290 139.7-435 24.5-76.5 49.2-152.9 73.5-229.4 8.4-26.5 25.9-45.5 49-59.7 23.8-14.6 50-22 77.9-22 157.3-.1 314.7-.1 472 0 27.9 0 54.1 7.5 77.9 22.1 24.7 15.2 41.6 36.2 50.6 64.5 53.5 168.3 107.7 336.4 161.7 504.5 68 211.9 136.1 423.9 204.2 635.8 40.1 125 80.4 250 120.3 375 10.5 33 22.1 65.7 31.1 99.2.6 2.2.8 4.8 4.1 4.6v12c-2.9 2.7-2 5.3 0 8v32c-1.9 2.7-2.9 5.3 0 8zm-886.5 330.1c146.3 0 292.7-.1 439 .1 15.8 0 31.3-1.9 46.3-6.5 28.7-8.9 55.2-21.7 75.3-45.1 18.7-21.7 37.6-43.3 56.4-64.9 51.8-59.6 103.8-119.1 155.4-178.8 26.3-30.5 35.2-65 22.6-104.2-31.3-97.4-62.3-194.9-93.5-292.3-36.8-114.9-73.5-229.8-110.3-344.7-65.7-205.3-131.4-410.7-197.1-616-33.8-105.3-67.6-210.7-101.3-316.1-4.1-12.9-9.9-24.8-18.3-35.3-13.8-17.3-30.5-27-54-26.9-147.3.6-294.7.4-442 .1-18.4 0-33 6.6-45.4 19.3-11.9 12.1-19.7 26.7-24.9 42.8-57.9 181.2-116 362.4-174 543.7-42.7 133.3-85.3 266.6-128 399.9-54.3 170-108.8 340.1-163.2 510.2-12.4 38.7-24.7 77.5-37.2 116.2-11.1 34.4-4.9 65.8 15.9 94.6 4.1 5.7 8.9 10.7 13.5 16 67.9 78.3 135.9 156.5 203.8 234.8 8.8 10.2 18.5 19.1 30.1 26 29.2 17.4 60.3 27.2 94.8 27.2 145.4-.3 290.7-.1 436.1-.1" style="fill:#8c2f30"/><path id="XMLID_75_" d="M1568 1139c-2-2.7-2.9-5.3 0-8z" class="st0" style="fill:#010000"/><path id="XMLID_74_" d="M1568 1179c-2.9-2.7-1.9-5.3 0-8z" class="st0" style="fill:#010000"/><path id="XMLID_73_" d="M-206 1137c.8.2 1.1.7.7 1.4-.1.3-.5.4-.7.6z" class="st0" style="fill:#010000"/><path id="XMLID_52_" d="M682.6-450.1c66.7 0 133.3.3 200-.2 19.3-.1 32.4 8 41.2 24.4 3.5 6.5 6.2 13.2 8.7 20.2 22.9 64.6 43 130.2 64 195.4 103.6 321.1 207.1 642.3 310.7 963.4 35.2 109.3 70.4 218.5 105.5 327.9 5.8 18 11.8 36.1 14.2 55 2.5 20.3-2.7 38.2-16.4 53.6-77.4 86.4-154.9 172.7-232.1 259.3-14.9 16.8-34.1 23.8-55 27.8-15.4 3-31 4.5-46.7 4.5-130 0-260 .1-390 .1-1.7 0-3.3-.3-5-.4v-169.3c-6.1 4.5-10.5 9.5-14.5 14.6-17.7 22.9-41.1 36.3-68.9 43.1-27.1 6.6-54.6 9-82.2 9.1-112.7.4-225.3.2-338 .1-15.6 0-14 1.5-14-13.8v-641c0-2.7.1-5.3 0-8-.1-5.6 3-8.6 8-10 4.2-1.2 8.6-.9 12.9-.9h143c13.5 0 12.2-1.1 12.2 12.6v483c0 8.8.1 8.9 8.9 8.9 51.3 0 102.7 0 154-.1 2.2 0 4.7.7 6.4-1.7.1-3.7-1.5-7.1-2.6-10.5-16.9-54.4-33.9-108.7-50.8-163.1-36.2-116.5-72.4-232.9-108.6-349.3-5-16-5-16-22.1-16.1h-151c-10.6 0-10.6-.1-10.6-10.2v-148c0-10.7 2.1-12.9 12.6-13.5 1.7-.1 3.3-.1 5-.1 54.7 0 109.3-.1 164 0 19.7 0 39.3 1.4 58.5 6.2 48.3 12 80.3 42 95.5 89.1 28 87.2 55.2 174.6 82.7 262 31.5 100.1 63 200.1 94.6 300.1 1 3.3.9 7.5 5.3 10.5V683.5c0-2.7-.1-5.3 0-8 .2-7.9.2-7.9 7.7-8.1 2.3-.1 4.7 0 7 0 47.7 0 95.3-.1 143 0 16.7 0 14.9-2 14.9 14.9v681c0 3 .1 6 0 9-.2 4.5 1.4 7 6.3 6.7 2.3-.2 4.7 0 7 0 46.3 0 92.7.1 139 0 17.8 0 16 2.6 16-15.9v-679c0-3-.1-6 0-9 .3-7.1.5-7.4 7.3-7.7 2.3-.1 4.7 0 7 0h147c2.7 0 5.3-.1 8 0 4.3.2 6-1.9 5.8-6.1-.1-2.7 0-5.3 0-8 0-46.7.1-93.3 0-140-.1-16.7 3-15.4-15.4-15.4h-485c-5 0-10 .7-14.9-1-.1-53-.2-105.9-.4-158.9 0-7-.3-14-.5-21 .1-3.7.4-7.3.4-11 0-33-.1-65.9-.2-98.9-.8-179.8-1.9-359.7-1.3-539.5.1-39 2-77.9 1.2-116.9 0 0 .3-.4.3-.3l.6.1z" style="fill:#e7be2b"/><path id="XMLID_51_" d="M681.6-449.2c.8 39-1.1 77.9-1.2 116.9-.6 179.8.5 359.7 1.3 539.5.1 33 .2 65.9.2 98.9 0 3.7-.2 7.3-.4 11-1.8 3.4-1.5 7.1-1.5 10.7v27.9c0 43.8-.1 87.7 0 131.5 0 3.2-2.1 7.4 2.4 9.7 4.9 1.7 9.9 1 14.9 1h485c18.4 0 15.4-1.2 15.4 15.4.1 46.7.1 93.3 0 140 0 2.7-.1 5.3 0 8 .2 4.2-1.5 6.3-5.8 6.1-2.7-.1-5.3 0-8 0h-147c-2.3 0-4.7-.1-7 0-6.7.3-7 .6-7.3 7.7-.1 3 0 6 0 9v679c0 18.4 1.7 15.8-16 15.9-46.3.1-92.7 0-139 0-2.3 0-4.7-.2-7 0-4.9.3-6.5-2.1-6.3-6.7.2-3 0-6 0-9v-681c0-16.9 1.8-14.9-14.9-14.9-47.7-.1-95.3 0-143 0-2.3 0-4.7-.1-7 0-7.4.3-7.5.3-7.7 8.1-.1 2.7 0 5.3 0 8v481.1c-4.3-3-4.2-7.2-5.3-10.5-31.6-100-63.1-200.1-94.6-300.1-27.5-87.3-54.7-174.8-82.7-262-15.1-47.1-47.1-77.1-95.5-89.1-19.2-4.8-38.8-6.1-58.5-6.2-54.7-.1-109.3 0-164 0-1.7 0-3.3-.1-5 .1-10.5.7-12.6 2.8-12.6 13.5v148c0 10.1.1 10.2 10.6 10.2h151c17.1 0 17.2.1 22.1 16.1 36.2 116.4 72.4 232.8 108.6 349.1 16.9 54.4 33.9 108.7 50.8 163.1 1.1 3.5 2.7 6.8 2.6 10.5-1.7 2.4-4.2 1.7-6.4 1.7-51.3.1-102.7.1-154 .1-8.7 0-8.9-.2-8.9-8.9v-483c0-13.7 1.3-12.5-12.2-12.6h-143c-4.3 0-8.7-.3-12.9.9-5 1.4-8.1 4.4-8 10 .1 2.7 0 5.3 0 8v641c0 15.3-1.5 13.8 14 13.8 112.7 0 225.3.3 338-.1 27.6-.1 55.2-2.5 82.2-9.1 27.8-6.8 51.2-20.2 68.9-43.1 4-5.2 8.4-10.1 14.5-14.6v169.3c-3.7.1-7.3.4-11 .4H244.5c-3 0-6-.1-9 0-16.7.6-30.4-5.7-42.2-17.2-18-17.4-33.8-36.8-50.4-55.4-39.5-44.2-78.7-88.7-118.1-133.1C0 1247-25.4 1218.7-50.3 1190c-11.7-13.5-14.7-30.4-15.3-47.6s3.5-33.8 8.7-50c17.6-55.2 35.4-110.4 53.1-165.6C63.4 717.1 130.7 507.4 198 297.7c59.5-185.3 119-370.5 178.4-555.8 14.6-45.4 29.1-90.7 43.7-136.1 4-12.4 9-24.4 16.6-35.1 9.3-13 21.5-20.4 38-20.4 68 .1 136 0 204 .1 1 0 2 .2 2.9.4" class="st10" style="fill:#8d3031"/><path id="XMLID_50_" d="m681.9-449.6.2-.6.5.1v.6z" class="st10" style="fill:#8d3031"/><path id="XMLID_49_" d="M682.5 496.9c-4.4-2.3-2.4-6.4-2.4-9.7-.1-43.8-.1-87.7 0-131.5v-27.9c0-3.6-.3-7.3 1.5-10.7.2 7 .5 14 .5 21 .1 52.9.2 105.8.4 158.8" style="fill:#733529"/></g></g></svg>