<svg xmlns="http://www.w3.org/2000/svg" xml:space="preserve" viewBox="0 0 250 244.05"><ellipse cx="125" cy="122.023" fill="#29176F" rx="125" ry="122.025"/><path fill="#FFF" d="M10.913 122.023c0 61.267 51.18 111.113 114.087 111.113s114.087-49.846 114.087-111.113c0-29.628-11.834-57.498-33.321-78.474-21.56-21.046-50.243-32.637-80.766-32.637-62.908 0-114.087 49.845-114.087 111.11"/><path fill="#29176F" d="m43.385 169.328 3.593 5.046q1.063 1.49 1.313 2.698a4.8 4.8 0 0 1-.082 2.345 5.9 5.9 0 0 1-1.142 2.124 10 10 0 0 1-1.936 1.787q-1.762 1.255-3.019 1.546-1.257.29-2.42.045-1.163-.244-1.963-.907-1.095-.903-1.741-1.81l-3.594-5.046zm-.07 5.17-6.006 4.275.593.833q.759 1.065 1.315 1.347.556.281 1.326.117t2.09-1.104q1.748-1.245 1.986-2.274.238-1.03-.701-2.35zM52.04 181.047l7.78 8.021-2.068 2.007-4.87-5.021-1.54 1.493 4.518 4.657-1.975 1.918-4.519-4.66-1.91 1.853 5.012 5.168-2.193 2.127-7.922-8.167zM61.61 190.642l5.486 4.234q1.792 1.383 2.026 2.924.234 1.542-.98 3.115-1.249 1.62-2.925 1.777-1.675.161-3.672-1.38l-1.806-1.395-3.06 3.963-3.314-2.56zm-.2 7.11.808.625q.954.737 1.596.703a1.35 1.35 0 0 0 1.041-.55q.39-.502.324-1.111c-.066-.61-.374-.847-.991-1.322l-.94-.727zM68.763 204.527q1.596-2.894 4.098-3.617t5.38.865q2.95 1.628 3.672 4.092.722 2.466-.853 5.319-1.142 2.07-2.572 3.012a5.7 5.7 0 0 1-3.154.952q-1.725.01-3.69-1.074-2.001-1.103-2.958-2.463-.96-1.36-1.013-3.187-.054-1.828 1.09-3.899m3.643 2.03q-.989 1.79-.754 2.94.233 1.147 1.378 1.778 1.176.65 2.244.242 1.067-.412 2.162-2.394.92-1.668.672-2.81-.249-1.141-1.4-1.777-1.105-.61-2.206-.197t-2.096 2.219M81.85 218.943l4.577-12.694 6.536 2.358q1.82.655 2.668 1.314.848.657 1.133 1.716.284 1.055-.153 2.267-.381 1.056-1.107 1.66c-.726.604-1.047.668-1.687.796q-.61.122-1.557.007.616.486.853.836.16.233.387.894.227.657.266.985l.57 4.363-4.433-1.597-.697-4.635q-.128-.897-.357-1.234a1.75 1.75 0 0 0-.856-.642l-.347-.125-1.857 5.152zm6.661-6.13 1.655.597q.268.097 1.101.201.418.063.78-.17.362-.229.512-.645.222-.616-.05-1.084-.27-.471-1.344-.858l-1.723-.62zM99.12 210.74l12.413 2.537-.667 3.263-4.165-.852-2.034 9.952-4.084-.833 2.035-9.953-4.165-.852zM113.448 213.34l4.157.4-1.29 13.426-4.158-.398zM119.135 214.093l4.362-.07 3.19 9.664 2.838-9.758 4.234-.067-4.793 13.572-4.52.072zM135.023 220.505q-.533-3.262.988-5.374 1.52-2.114 4.761-2.643 3.326-.542 5.415.948 2.09 1.491 2.615 4.707.381 2.333-.16 3.957a5.67 5.67 0 0 1-1.891 2.695q-1.35 1.074-3.565 1.435-2.254.369-3.847-.108-1.591-.476-2.764-1.88c-1.173-1.404-1.298-2.181-1.552-3.737m4.119-.654q.327 2.017 1.221 2.776.895.757 2.184.547 1.325-.217 1.912-1.198.585-.982.22-3.216-.308-1.88-1.208-2.623t-2.198-.533q-1.245.204-1.855 1.208t-.276 3.039M155.63 209.245l6.447-2.543q2.106-.83 3.548-.242 1.445.589 2.174 2.437.75 1.901.028 3.421-.72 1.521-3.065 2.447l-2.124.837 1.837 4.657-3.896 1.536zm6.005 3.815.95-.375q1.122-.443 1.422-1.011c.3-.568.22-.772.06-1.177a1.5 1.5 0 0 0-.788-.846q-.558-.255-1.643.173l-1.105.436zM179.473 210.65l-4.156 2.3.507 2.265-3.728 2.064-2.097-14.261 3.978-2.204 10.972 9.352-3.817 2.111zm-2.178-2.13-3.653-3.522 1.052 4.962zM184.345 205.132l2.999-2.608q.69.69 1.312.851 1.01.26 1.961-.468.71-.542.838-1.169.13-.625-.207-1.065-.317-.417-.936-.466-.615-.05-2.171.676-2.553 1.177-4.103 1.077-1.557-.097-2.518-1.354a3.54 3.54 0 0 1-.716-1.928q-.083-1.1.556-2.256.641-1.157 2.314-2.438 2.055-1.57 3.719-1.632t3.142 1.45l-2.981 2.57q-.678-.628-1.33-.652-.65-.025-1.351.512-.578.443-.684.91-.103.47.165.82.195.256.593.276.397.034 1.414-.455 2.53-1.194 3.834-1.433 1.307-.24 2.278.142a3.8 3.8 0 0 1 1.64 1.259q.79 1.031.885 2.338t-.585 2.539-2.236 2.424q-2.735 2.093-4.594 1.844-1.857-.246-3.238-1.764M189.429 189.807l8.863-9.058 2.382 2.331-2.975 3.038 7.262 7.108-2.917 2.98-7.26-7.107-2.975 3.038zM204.28 184.18q-2.681-1.93-3.097-4.501-.418-2.57 1.504-5.236 1.97-2.731 4.502-3.154 2.534-.42 5.177 1.486 1.92 1.383 2.682 2.913a5.7 5.7 0 0 1 .565 3.246q-.197 1.713-1.51 3.535-1.336 1.852-2.798 2.64-1.466.787-3.285.621-1.821-.165-3.74-1.55m2.452-3.37q1.658 1.194 2.827 1.101 1.168-.094 1.932-1.155.786-1.09.508-2.198-.28-1.11-2.116-2.433-1.545-1.114-2.707-1.006-1.163.11-1.934 1.179-.737 1.021-.459 2.164t1.95 2.348M69.918 47.608l-3.825 2.813.793 2.18-3.433 2.524-3.906-13.871 3.662-2.693 12.077 7.865-3.515 2.583zm-2.432-1.833-4.073-3.023 1.679 4.785zM73.796 42.22l3.401-2.055q.562.797 1.146 1.063.951.429 2.012-.125.791-.413 1.026-1.008.235-.594-.02-1.084-.245-.465-.843-.619-.6-.155-2.255.294-2.716.722-4.225.356-1.516-.36-2.25-1.764a3.54 3.54 0 0 1-.373-2.021q.106-1.1.934-2.128t2.697-2.003q2.293-1.195 3.94-.972 1.65.225 2.848 1.967l-3.377 2.021q-.561-.735-1.197-.87-.636-.136-1.42.273-.644.336-.828.78t.021.835q.149.285.537.374.386.1 1.47-.207 2.696-.742 4.023-.754t2.218.53q.89.542 1.4 1.521.602 1.15.471 2.454-.13 1.302-1.01 2.4t-2.619 2.004q-3.052 1.592-4.839 1.031-1.788-.563-2.888-2.293M86.021 33.438q-1.046-3.132.115-5.462t4.278-3.37q3.193-1.067 5.495.07t3.333 4.226q.75 2.244.475 3.932a5.68 5.68 0 0 1-1.435 2.962q-1.16 1.277-3.29 1.988-2.163.723-3.812.508-1.648-.217-3.03-1.413-1.379-1.199-2.129-3.44m3.96-1.304q.647 1.938 1.65 2.544t2.243.191q1.273-.426 1.694-1.488.42-1.061-.297-3.21-.603-1.805-1.61-2.396-1.008-.59-2.255-.172-1.196.399-1.638 1.488-.44 1.089.212 3.043M111.627 28.055l3.783.504q-.117 1.576-.733 2.72a5 5 0 0 1-1.69 1.85q-1.074.706-2.863.996-2.171.353-3.65-.055-1.478-.407-2.735-1.835-1.259-1.427-1.66-3.906-.537-3.306.932-5.368 1.469-2.061 4.684-2.583 2.515-.41 4.12.375 1.605.783 2.647 2.776l-3.501 1.4q-.29-.58-.544-.826a2.4 2.4 0 0 0-.964-.59 2.46 2.46 0 0 0-1.158-.073q-1.4.228-1.96 1.475-.427.927-.137 2.716.36 2.217 1.165 2.93.806.712 2.024.514 1.18-.191 1.676-.952.497-.762.564-2.068M117.714 19.461l4.176-.194.627 13.482-4.176.193zM133.955 30.887l-4.738-.315-.8 2.178-4.25-.282 5.953-13.124 4.535.302 4.165 13.795-4.351-.289zm-.68-2.969-1.165-4.937-1.8 4.74zM149.766 30.227l3.333 1.863q-.689 1.422-1.684 2.26t-2.254 1.098c-1.259.26-1.85.13-3.03-.13q-2.15-.471-3.375-1.395t-1.868-2.715q-.643-1.792-.104-4.246.72-3.273 2.846-4.649 2.125-1.375 5.308-.676 2.492.548 3.696 1.868t1.437 3.558l-3.772.01q-.057-.643-.201-.969a2.4 2.4 0 0 0-.68-.902 2.46 2.46 0 0 0-1.05-.494q-1.385-.305-2.367.647-.74.705-1.129 2.477-.482 2.194.005 3.154.486.96 1.691 1.225 1.17.256 1.911-.269c.741-.525.924-.921 1.287-1.715M158.626 24.504l3.947 1.37-4.422 12.75-3.948-1.37zM163.517 33.243q1.461-2.965 3.926-3.802 2.467-.837 5.414.616 3.023 1.49 3.858 3.92.834 2.428-.607 5.352-1.046 2.121-2.43 3.128-1.384 1.006-3.107 1.096c-1.723.09-2.393-.241-3.738-.904q-2.047-1.01-3.068-2.323-1.02-1.314-1.158-3.138t.91-3.945m3.732 1.861q-.904 1.833-.618 2.97t1.459 1.715q1.207.594 2.254.136t2.049-2.49q.842-1.71.542-2.839-.302-1.129-1.482-1.71-1.13-.559-2.212-.094c-1.082.465-1.385 1.079-1.992 2.312m7.03-8.064 2.89 1.424-3.884 1.155-1.61-.795zM182.96 35.792l3.15 2.288-.278 9.023 4.388-6.037 3.178 2.31-7.93 10.912-3.179-2.31.269-8.962-4.356 5.993-3.17-2.304z"/><path fill="#FFF" d="M210.616 38.58C187.752 16.26 157.346 3.967 125 3.967c-66.737 0-121.031 52.96-121.031 118.055C3.969 187.12 58.263 240.08 125 240.08s121.031-52.96 121.031-118.057c0-31.515-12.577-61.15-35.415-83.444M125 235.12c-64.002 0-116.071-50.735-116.071-113.097C8.929 59.663 60.998 8.928 125 8.928c31.044 0 60.219 11.792 82.15 33.2 21.875 21.353 33.921 49.727 33.921 79.895 0 62.362-52.069 113.096-116.071 113.096"/><path fill="#29176F" d="m125 40.75 2.767 8.515h8.952l-7.242 5.261 2.766 8.515L125 57.779l-7.242 5.262 2.766-8.515-7.242-5.261h8.952zM124.354 68.154c-.05.042-5.013 4.144-17.102 4.144-12.2 0-18.75-4.179-18.815-4.221l-.576-.376-.556.406-20.2 14.865.663.81c.085.103 8.541 10.549 8.541 21.65 0 9.045-3.732 15.73-7.684 22.807-4.527 8.109-9.21 16.493-9.21 29.336 0 16.554 13.478 26.715 26.09 30.701 5.13 1.622 10.066 2.453 14.838 3.256 8.672 1.46 16.864 2.84 24.016 8.894l.641.543.641-.543c7.153-6.055 15.343-7.434 24.016-8.894 4.773-.803 9.707-1.634 14.84-3.256 12.611-3.986 26.087-14.147 26.087-30.7 0-12.844-4.682-21.228-9.21-29.337-3.95-7.077-7.683-13.762-7.683-22.807 0-11.101 8.455-21.547 8.54-21.65l.664-.81L162.14 67.7l-.578.377c-.065.042-6.615 4.22-18.816 4.22-12.089 0-17.052-4.101-17.101-4.143l-.642-.546z"/><path fill="#BA2825" d="m102.333 189.856-1.66-.28c-4.706-.792-9.571-1.611-14.57-3.191-15.468-4.89-24.703-15.661-24.703-28.81 0-12.326 4.554-20.482 8.957-28.369 4.081-7.309 7.936-14.213 7.936-23.774 0-7.012-3.026-13.593-5.567-17.886l29.607 22.27zm77.309-60.65c-4.08-7.309-7.936-14.213-7.936-23.774 0-7.012 3.026-13.592 5.567-17.886l-29.608 22.27v80.042l1.663-.282c4.705-.792 9.57-1.611 14.57-3.191 15.467-4.89 24.702-15.661 24.702-28.81 0-12.326-4.553-20.482-8.958-28.369"/><path fill="#FFF500" d="M125 124.383c1.07-.807 47.19-35.497 54.802-41.223l-17.76-13.07c-1.886 1.058-8.373 4.192-19.295 4.192-10.663 0-16.049-2.995-17.747-4.156-1.698 1.161-7.084 4.156-17.748 4.156-10.922 0-17.409-3.134-19.294-4.191L70.197 83.16c7.613 5.726 53.732 40.415 54.803 41.222"/><radialGradient id="a" cx="124.367" cy="87.355" r="17.87" gradientUnits="userSpaceOnUse"><stop offset=".343" style="stop-color:#fff"/><stop offset=".604" style="stop-color:#fdfdfd"/><stop offset=".698" style="stop-color:#f6f6f6"/><stop offset=".765" style="stop-color:#ebebeb"/><stop offset=".819" style="stop-color:#dadada"/><stop offset=".865" style="stop-color:#c4c4c4"/><stop offset=".906" style="stop-color:#a8a8a8"/><stop offset=".944" style="stop-color:#888"/><stop offset=".977" style="stop-color:#646464"/><stop offset="1" style="stop-color:#454545"/></radialGradient><path fill="url(#a)" fill-rule="evenodd" d="M125 82.538c-7.022 0-12.716 5.693-12.716 12.715 0 7.02 5.694 12.716 12.716 12.716 7.024 0 12.717-5.695 12.717-12.716 0-7.022-5.693-12.715-12.717-12.715" clip-rule="evenodd"/><path d="M136.102 89.023q-.048-.088-.095-.18h-.005a13 13 0 0 0-.695-1.062 12.66 12.66 0 0 0-8.325-5.093 12.64 12.64 0 0 0-9.467 2.266 12.6 12.6 0 0 0-3.516 3.89h-.005a12.775 12.775 0 0 0-1.56 4.415 12.65 12.65 0 0 0 2.274 9.483c4.12 5.672 12.095 6.93 17.774 2.805a12.65 12.65 0 0 0 5.084-8.31 12.6 12.6 0 0 0-1.464-8.214m-1.02-1.078c.207.286.397.58.578.877-.641-.032-1.991-.093-2.454-.114a10.4 10.4 0 0 0-4.55-3.29l-.903-2.295a12.37 12.37 0 0 1 7.328 4.822m-1.576 12.957c-.79.133-3.73.628-3.73.63l-2.377-3.314 1.311-3.937 3.922-1.417 2.538 3.213q-.031.384-.09.77a10.2 10.2 0 0 1-1.574 4.055m-8.288-13.647 3.303-1.587a10.14 10.14 0 0 1 4.495 3.26l-.447 3.581-3.92 1.37-3.431-2.518zm-7.962 5.609 4.034 1.417 1.312 3.937-2.376 3.314-3.738-.632a10.1 10.1 0 0 1-1.669-4.814zm-.273-3.949a10.2 10.2 0 0 1 4.486-3.251l3.314 1.591v4.106l-3.431 2.518-3.921-1.37zm5.897 9.52h4.24l2.399 3.425-2.01 3.29c-1.657.42-3.384.413-5.017.001l-2.01-3.29zM117.68 85.18a12.4 12.4 0 0 1 4.574-2.071l-.905 2.303a10.5 10.5 0 0 0-4.557 3.296l-2.459.119a12.4 12.4 0 0 1 3.347-3.647m-5.109 9.48c.44.333 1.58 1.203 1.974 1.505a10.4 10.4 0 0 0 1.705 4.88l-.667 2.346q-.337-.39-.649-.813a12.36 12.36 0 0 1-2.363-7.918m7.586 12.058 2.281-1.294c1.67.418 3.433.427 5.127.002l2.28 1.29a12.5 12.5 0 0 1-9.688.002m17.134-9.525a12.37 12.37 0 0 1-2.871 6.199l-.668-2.348a10.5 10.5 0 0 0 1.698-4.874l1.986-1.51c.036.837-.01 1.685-.145 2.533"/></svg>