<?xml version="1.0" encoding="UTF-8" standalone="no"?>
<svg
   xmlns:dc="http://purl.org/dc/elements/1.1/"
   xmlns:cc="http://creativecommons.org/ns#"
   xmlns:rdf="http://www.w3.org/1999/02/22-rdf-syntax-ns#"
   xmlns:svg="http://www.w3.org/2000/svg"
   xmlns="http://www.w3.org/2000/svg"
   xmlns:sodipodi="http://sodipodi.sourceforge.net/DTD/sodipodi-0.dtd"
   xmlns:inkscape="http://www.inkscape.org/namespaces/inkscape"
   version="1.0"
   width="100"
   height="100"
   viewBox="0 0 80 80"
   preserveAspectRatio="xMidYMid meet"
   id="svg2"
   inkscape:version="0.48.4 r9939"
   sodipodi:docname="Asociación_Deportivo_Cali_logo.svg">
  <title
     id="title3028">Deportivo Cali logo</title>
  <defs
     id="defs30" />
  <sodipodi:namedview
     pagecolor="#ffffff"
     bordercolor="#666666"
     borderopacity="1"
     objecttolerance="10"
     gridtolerance="10"
     guidetolerance="10"
     inkscape:pageopacity="1"
     inkscape:pageshadow="2"
     inkscape:window-width="1600"
     inkscape:window-height="844"
     id="namedview28"
     showgrid="false"
     inkscape:zoom="1"
     inkscape:cx="74.242692"
     inkscape:cy="49.196561"
     inkscape:window-x="-4"
     inkscape:window-y="-4"
     inkscape:window-maximized="1"
     inkscape:current-layer="svg2"
     inkscape:showpageshadow="false" />
  <metadata
     id="metadata4">
Created by potrace 1.11, written by Peter Selinger 2001-2013
<rdf:RDF>
  <cc:Work
     rdf:about="">
    <dc:format>image/svg+xml</dc:format>
    <dc:type
       rdf:resource="http://purl.org/dc/dcmitype/StillImage" />
    <dc:title>Deportivo Cali logo</dc:title>
  </cc:Work>
</rdf:RDF>
</metadata>
  <g
     transform="matrix(0.01445198,0,0,-0.01394374,-0.68027257,80.97122)"
     id="g6"
     style="fill:#00aa00;stroke:none">
    <path
       d="M 760,5619 C 669,5546 502,5413 387,5322 273,5232 180,5155 180,5151 c 0,-3 34,-46 75,-95 179,-214 301,-447 351,-673 23,-102 23,-384 1,-528 C 572,3631 501,3442 340,3140 138,2760 89,2599 89,2309 c 0,-160 10,-245 47,-392 97,-389 342,-709 752,-986 272,-183 508,-276 1067,-420 378,-97 469,-127 597,-193 75,-38 120,-70 184,-130 l 84,-80 84,80 c 64,60 109,92 184,130 128,66 219,96 597,193 476,122 703,204 917,327 594,344 915,806 946,1366 18,312 -25,499 -190,820 -239,464 -293,606 -329,856 -19,133 -16,409 5,505 51,229 182,475 370,695 31,36 56,68 56,71 0,7 -42,41 -450,364 -151,120 -281,222 -288,228 -10,8 -21,0 -45,-29 -185,-229 -417,-382 -676,-446 -116,-29 -373,-32 -470,-5 -191,52 -389,177 -584,366 l -128,124 -107,-106 c -122,-120 -152,-146 -276,-229 -97,-66 -228,-128 -327,-155 -91,-26 -343,-25 -454,1 -257,59 -506,218 -675,430 -25,31 -47,56 -50,56 -3,0 -79,-59 -170,-131 z m 256,-118 c 220,-213 451,-324 748,-361 326,-41 636,76 951,359 55,50 102,91 105,91 3,0 50,-41 105,-91 252,-227 506,-349 761,-366 179,-12 402,33 575,114 143,68 241,136 364,255 l 104,100 118,-94 c 279,-222 429,-341 447,-354 18,-13 18,-14 -10,-50 -194,-246 -310,-480 -355,-714 -19,-101 -21,-138 -16,-305 10,-386 66,-563 340,-1090 151,-292 190,-427 190,-675 2,-534 -230,-942 -728,-1282 C 4424,839 4225,759 3675,620 3218,504 3028,432 2887,318 c -33,-26 -63,-48 -67,-48 -4,0 -34,22 -67,48 -141,114 -331,186 -788,302 -550,139 -749,219 -1040,418 -498,340 -730,748 -728,1282 0,248 39,383 190,675 274,527 330,704 340,1090 5,167 3,204 -16,305 -45,234 -161,468 -355,714 -19,24 -26,40 -19,44 14,9 393,309 492,389 42,34 78,62 80,62 2,1 50,-44 107,-98 z"
       id="path8"
       style="fill:#00aa00"
       inkscape:connector-curvature="0" />
    <path
       d="m 734,5228 -152,-121 33,-46 C 759,4861 878,4564 909,4327 944,4073 890,3672 787,3407 741,3291 694,3193 539,2890 399,2617 374,2515 383,2255 c 6,-175 23,-263 78,-407 34,-88 110,-224 168,-298 45,-58 153,-170 164,-170 4,0 81,51 170,113 89,63 191,134 227,158 36,25 94,66 130,90 121,84 200,139 262,183 313,217 1166,808 1216,842 116,82 187,131 252,176 257,178 1297,899 1348,934 123,87 198,138 257,179 l 60,41 2,70 c 11,306 127,643 308,895 l 33,46 -149,119 c -83,66 -154,120 -159,122 -5,2 -40,-22 -77,-54 -174,-148 -364,-245 -597,-305 -103,-27 -145,-32 -282,-36 -181,-6 -247,2 -393,49 -167,53 -345,153 -520,291 l -61,48 -61,-48 c -175,-138 -353,-238 -520,-291 -146,-47 -212,-55 -393,-49 -137,4 -179,9 -282,36 -233,60 -423,157 -596,304 -36,31 -70,57 -75,57 -4,0 -76,-55 -159,-122 z m 1855,-367 c 62,-32 107,-91 121,-157 32,-151 -38,-275 -170,-303 -93,-20 -198,29 -243,113 -29,54 -31,193 -3,245 22,42 71,88 111,107 45,20 139,18 184,-5 z m 1949,3 c 87,-36 131,-110 132,-219 0,-94 -14,-138 -56,-179 -50,-49 -99,-69 -165,-69 -130,2 -219,96 -219,235 0,82 13,125 50,169 59,73 171,100 258,63 z m -3283,-17 c 24,-14 50,-40 65,-67 22,-39 25,-57 25,-140 0,-79 -4,-102 -22,-137 -42,-78 -103,-103 -255,-103 l -98,0 0,235 0,235 123,0 c 108,0 127,-3 162,-23 z m 515,-7 0,-30 -135,0 -135,0 0,-65 0,-64 128,-3 127,-3 3,-27 3,-28 -130,0 -131,0 0,-75 0,-75 140,0 140,0 0,-35 0,-35 -175,0 -175,0 0,235 0,235 170,0 170,0 0,-30 z m 388,10 c 59,-36 80,-126 42,-187 -33,-55 -62,-67 -171,-71 l -98,-4 -3,-92 -3,-91 -32,-3 -33,-3 0,235 0,236 133,0 c 115,0 136,-3 165,-20 z m 942,7 c 34,-17 70,-74 70,-111 0,-46 -34,-94 -83,-116 -33,-15 -38,-20 -24,-26 17,-6 137,-178 137,-196 0,-4 -17,-8 -37,-8 -37,0 -40,4 -97,91 -65,99 -92,119 -161,119 l -45,0 0,-105 0,-105 -35,0 -35,0 0,235 0,235 143,0 c 93,0 150,-5 167,-13 z m 480,-17 0,-30 -75,0 -75,0 0,-205 0,-205 -35,0 -35,0 0,205 0,205 -75,0 -75,0 0,30 0,30 185,0 185,0 0,-30 z m 138,-202 -3,-233 -32,-3 -33,-3 0,235 0,236 35,0 35,0 -2,-232 z m 157,142 c 17,-47 49,-134 70,-194 l 38,-108 34,93 c 19,52 52,139 73,194 38,99 39,100 74,103 l 36,3 -21,-53 c -11,-29 -38,-98 -59,-153 -93,-241 -103,-260 -137,-263 l -31,-3 -52,133 c -28,73 -69,177 -91,230 -21,53 -39,100 -39,103 0,3 16,5 36,3 36,-3 37,-4 69,-88 z M 1634,4220 c 94,-14 184,-59 237,-118 44,-50 104,-162 91,-173 -4,-4 -61,-18 -127,-32 -107,-23 -121,-24 -130,-10 -5,8 -19,29 -30,47 -31,47 -79,68 -148,63 -68,-4 -102,-25 -137,-88 -23,-41 -25,-54 -25,-174 0,-110 3,-136 20,-170 30,-59 75,-85 149,-85 93,0 143,40 175,141 l 12,37 87,-28 c 48,-15 103,-31 122,-36 47,-13 49,-38 11,-119 -35,-76 -106,-151 -172,-183 -83,-40 -219,-52 -349,-31 -194,31 -326,176 -352,387 -29,225 44,424 186,507 109,64 237,85 380,65 z m 941,-480 c 18,-47 60,-159 94,-250 95,-252 126,-335 176,-463 25,-65 45,-123 45,-128 0,-5 -68,-9 -154,-9 -139,0 -155,2 -160,18 -3,9 -12,43 -21,75 l -16,57 -162,0 -162,0 -23,-75 -22,-75 -151,0 c -140,0 -151,1 -144,18 4,9 22,58 40,107 45,124 112,302 180,480 50,131 107,284 120,323 4,10 42,12 166,10 l 162,-3 32,-85 z"
       id="path10"
       style="fill:#00aa00"
       inkscape:connector-curvature="0" />
    <path
       d="m 2435,4810 c -114,-47 -128,-263 -23,-328 72,-45 170,-22 213,50 29,48 29,175 -1,215 -47,63 -126,90 -189,63 z"
       id="path12"
       style="fill:#00aa00"
       inkscape:connector-curvature="0" />
    <path
       d="m 4366,4794 c -48,-33 -66,-76 -66,-156 0,-115 56,-178 157,-178 49,0 58,4 96,39 l 42,40 3,88 c 3,75 0,93 -17,121 -47,74 -143,95 -215,46 z"
       id="path14"
       style="fill:#00aa00"
       inkscape:connector-curvature="0" />
    <path
       d="m 1030,4640 0,-170 84,0 c 76,0 87,3 115,26 39,32 55,90 48,173 -8,108 -47,141 -169,141 l -78,0 0,-170 z"
       id="path16"
       style="fill:#00aa00"
       inkscape:connector-curvature="0" />
    <path
       d="m 1930,4729 0,-82 87,5 c 79,4 88,7 110,32 30,35 29,71 -2,101 -22,23 -32,25 -110,25 l -85,0 0,-81 z"
       id="path18"
       style="fill:#00aa00"
       inkscape:connector-curvature="0" />
    <path
       d="m 2860,4745 0,-75 85,0 c 98,0 141,16 151,56 9,34 -23,77 -62,85 -16,4 -62,7 -101,8 l -73,1 0,-75 z"
       id="path20"
       style="fill:#00aa00"
       inkscape:connector-curvature="0" />
    <path
       d="m 2329,3409 -46,-154 90,-3 c 49,-1 92,-1 95,2 5,5 -58,221 -81,277 -12,31 -13,29 -58,-122 z"
       id="path22"
       style="fill:#00aa00"
       inkscape:connector-curvature="0" />
    <path
       d="m 3140,2295 0,-465 363,2 362,3 3,113 3,112 -226,0 -225,0 0,350 0,350 -140,0 -140,0 0,-465 z"
       id="path24"
       style="fill:#00aa00"
       inkscape:connector-curvature="0" />
    <path
       d="m 4090,1620 0,-460 140,0 140,0 0,460 0,460 -140,0 -140,0 0,-460 z"
       id="path26"
       style="fill:#00aa00"
       inkscape:connector-curvature="0" />
  </g>
  <path
     style="fill:#ffffff;fill-opacity:1"
     d="M 38.731387,76.17805 C 36.556305,74.7189 34.427671,73.9556 27.565037,72.17395 20.233498,70.27058 17.300835,69.176 13.812993,67.04121 8.2778256,63.65331 4.5534462,59.34588 3.1969973,54.76328 2.550085,52.57776 2.3531174,51.17038 2.3531174,48.73354 c 0,-3.79968 0.207829,-4.45553 3.5422416,-11.1784 C 9.3000072,30.69066 9.8174656,28.8539 9.8413504,23.54852 9.8548304,20.5547 9.8015584,19.96142 9.3969616,18.59962 8.566524,15.80449 7.4885816,13.71755 5.4171063,10.89447 4.8324326,10.09766 4.358129,9.37732 4.3630982,9.29371 4.3680682,9.21011 6.186391,7.77478 8.4038176,6.1041 l 4.0316844,-3.0376 1.172643,1.03666 c 2.847747,2.5175 5.371919,3.95566 8.372509,4.77025 2.413724,0.65527 6.846373,0.66547 8.885944,0.0205 2.592417,-0.81986 5.336918,-2.45389 8.280726,-4.93021 0.755141,-0.63522 0.925588,-0.70219 1.224709,-0.48121 0.191114,0.14119 1.237043,0.95571 2.324285,1.81003 2.339276,1.83813 4.930191,3.1815 7.278743,3.77396 1.452963,0.36654 2.064069,0.41295 4.201986,0.31913 4.914742,-0.21567 8.151507,-1.62785 12.575342,-5.48652 l 0.963699,-0.84058 4.024082,3.04162 c 2.213247,1.6729 4.029389,3.11395 4.035875,3.20235 0.0065,0.0884 -0.465219,0.80874 -1.048228,1.60076 -2.077316,2.82204 -3.151254,4.89729 -3.982881,7.69643 -0.405071,1.36341 -0.457648,1.95154 -0.442403,4.9489 0.02741,5.3896 0.502776,7.03583 4.195137,14.52807 3.217448,6.52857 3.384807,7.11669 3.237921,11.37845 -0.113241,3.2856 -0.529866,5.2173 -1.619593,7.50928 -1.789863,3.76455 -5.183801,7.25936 -9.784486,10.07529 -3.495281,2.13935 -6.137328,3.13085 -13.454509,5.04915 -7.1231,1.86743 -9.20187,2.60091 -11.305345,3.98903 -0.605286,0.39944 -1.197734,0.78279 -1.316552,0.85188 -0.118816,0.0691 -0.804491,-0.26912 -1.523719,-0.75162 l 0,0 z m 23.850204,-17.81307 0,-6.50308 -2.100993,0 -2.100994,0 0,6.50308 0,6.50308 2.100994,0 2.100993,0 0,-6.50308 z M 31.066692,48.33613 C 42.181946,40.89735 54.942948,32.36705 59.42447,29.3799 l 8.148227,-5.43119 0.0056,-0.92424 c 0.01405,-2.30753 1.135586,-6.65925 2.326672,-9.02789 0.291251,-0.57919 1.003382,-1.7832 1.582512,-2.67557 L 72.540445,9.69851 70.41235,8.0971 C 69.241901,7.21633 68.186248,6.44192 68.066459,6.37618 67.946671,6.31038 67.051946,6.84383 66.078186,7.56148 61.963588,10.59387 57.133919,12.06088 52.17665,11.78407 48.937494,11.6032 45.311202,10.13738 41.718463,7.55667 40.863777,6.94274 40.12579,6.44043 40.078494,6.44043 c -0.0473,0 -0.914068,0.58611 -1.926159,1.30246 -2.236987,1.58333 -4.465441,2.72077 -6.761921,3.45141 -1.578848,0.50232 -1.977759,0.54708 -4.725825,0.53024 -5.10702,-0.0313 -8.779544,-1.30329 -13.231547,-4.58283 l -1.22587,-0.90302 -2.3062344,1.72477 -2.306235,1.72477 1.0669046,1.63678 c 1.3429648,2.06029 2.5890838,4.86661 3.2509138,7.32119 0.987197,3.66132 0.512665,9.69516 -1.110785,14.12399 -0.326222,0.88995 -1.5857016,3.56206 -2.7988448,5.93803 -3.0464093,5.96645 -3.1494614,6.2991 -3.1451166,10.15227 0.00294,2.6103 0.07466,3.34893 0.4528568,4.66406 0.50905,1.77018 1.1405132,3.09975 2.2988938,4.84043 0.7330508,1.10154 2.8911428,3.50535 3.1412798,3.49892 0.05847,-0.002 9.200609,-6.08899 20.315865,-13.52777 z m 24.269562,5.37665 0.05811,-1.65078 -3.309653,0 -3.309652,0 0,-4.80227 0,-4.80227 -2.100994,0 -2.100993,0 0,6.50634 0,6.50634 5.352531,-0.0533 5.35253,-0.0533 0.05811,-1.65078 z"
     id="path3004"
     inkscape:connector-curvature="0" />
  <path
     style="fill:#ffffff;fill-opacity:1"
     d="m 27.014776,40.51539 c -0.247617,-0.0477 -0.450213,-0.10517 -0.450213,-0.12772 0,-0.32869 4.874406,-12.46026 5.053111,-12.57635 0.137168,-0.0891 1.178072,-0.13923 2.313121,-0.11141 l 2.063725,0.0506 2.470902,6.30299 2.470904,6.30297 -0.832878,0.15685 c -0.458083,0.0863 -1.433709,0.10034 -2.168058,0.0313 l -1.33518,-0.12558 -0.235511,-0.98171 -0.23551,-0.98172 -2.444683,0 -2.444684,0 -0.346908,1.10052 -0.346908,1.10052 -1.540508,-0.0273 c -0.84728,-0.015 -1.743104,-0.0662 -1.990722,-0.11397 z m 7.733546,-6.28588 c -0.5354,-1.93205 -0.952227,-2.88866 -1.160192,-2.66261 -0.139129,0.15123 -0.549809,1.33581 -1.330315,3.83723 -0.0576,0.1846 0.310067,0.25011 1.403639,0.25011 l 1.481682,0 -0.394814,-1.42473 z"
     id="path3006"
     inkscape:connector-curvature="0" />
  <path
     style="fill:#ffffff;fill-opacity:1"
     d="m 19.33371,35.32324 c -0.924282,-0.16012 -2.630255,-1.33892 -3.306726,-2.2849 -1.877947,-2.62612 -1.601822,-7.07597 0.565802,-9.11808 2.010167,-1.89378 5.852416,-2.31304 8.443794,-0.92139 1.112968,0.59771 2.776393,2.68801 2.416682,3.03687 -0.103602,0.10048 -0.859255,0.3202 -1.679228,0.48829 l -1.490861,0.3056 -0.729467,-0.79015 c -0.498224,-0.53967 -0.913644,-0.79972 -1.310464,-0.82033 -2.661375,-0.13822 -3.379668,0.76509 -3.246419,4.08262 0.07856,1.95601 0.09366,2.00954 0.725677,2.57425 0.526599,0.47052 0.827346,0.57671 1.633346,0.57671 1.374538,0 1.927835,-0.31275 2.466826,-1.39436 0.255486,-0.5127 0.549226,-0.90869 0.652756,-0.87999 2.636625,0.73087 3.089582,0.92787 3.088861,1.34339 -0.0017,0.94352 -1.407751,2.70893 -2.70053,3.39058 -0.646925,0.34111 -1.203194,0.42972 -2.901371,0.46216 -1.155546,0.0221 -2.338451,-8e-4 -2.628678,-0.0513 l 0,0 z"
     id="path3008"
     inkscape:connector-curvature="0" />
</svg>
