<svg xmlns="http://www.w3.org/2000/svg" viewBox="282.23 190.75 894.07 1058.51"><defs><clipPath id="a" clipPathUnits="userSpaceOnUse"><path d="M-234.228 181.239h1080v-1080h-1080Z"/></clipPath><clipPath id="b" clipPathUnits="userSpaceOnUse"><path d="M-855.982 634.49h1080v-1080h-1080Z"/></clipPath><clipPath id="c" clipPathUnits="userSpaceOnUse"><path d="M-317.612 213.41h1080v-1080h-1080Z"/></clipPath><clipPath id="d" clipPathUnits="userSpaceOnUse"><path d="M-831.705 634.16h1080v-1080h-1080Z"/></clipPath><clipPath id="e" clipPathUnits="userSpaceOnUse"><path d="M-273.34 298.741h1080v-1080h-1080Z"/></clipPath><clipPath id="f" clipPathUnits="userSpaceOnUse"><path d="M-421.68 281.124h1080v-1080h-1080Z"/></clipPath><clipPath id="g" clipPathUnits="userSpaceOnUse"><path d="M-579.809 276.784h1080v-1080h-1080Z"/></clipPath><clipPath id="h" clipPathUnits="userSpaceOnUse"><path d="M-736.716 288.018h1080v-1080h-1080Z"/></clipPath><clipPath id="i" clipPathUnits="userSpaceOnUse"><path d="M-579.809 457.465h1080v-1080h-1080Z"/></clipPath><clipPath id="j" clipPathUnits="userSpaceOnUse"><path d="M-510.021 530.316h1080v-1080h-1080Z"/></clipPath><clipPath id="k" clipPathUnits="userSpaceOnUse"><path d="M-466.106 569.635h1080v-1080h-1080Z"/></clipPath><clipPath id="l" clipPathUnits="userSpaceOnUse"><path d="M-626.235 569.635h1080v-1080h-1080Z"/></clipPath><clipPath id="m" clipPathUnits="userSpaceOnUse"><path d="M-508.66 625.805h1080v-1080h-1080Z"/></clipPath><clipPath id="n" clipPathUnits="userSpaceOnUse"><path d="M-476.83 580.018h1080v-1080h-1080Z"/></clipPath><clipPath id="o" clipPathUnits="userSpaceOnUse"><path d="M-615.638 580.018h1080v-1080h-1080Z"/></clipPath><clipPath id="p" clipPathUnits="userSpaceOnUse"><path d="M-514.106 538.826h1080v-1080h-1080Z"/></clipPath><clipPath id="q" clipPathUnits="userSpaceOnUse"><path d="M-629.851 577.635h1080v-1080h-1080Z"/></clipPath><clipPath id="r" clipPathUnits="userSpaceOnUse"><path d="M-461.91 577.55h1080v-1080h-1080Z"/></clipPath><clipPath id="s" clipPathUnits="userSpaceOnUse"><path d="M-456.006 644.018h1080v-1080h-1080Z"/></clipPath><clipPath id="t" clipPathUnits="userSpaceOnUse"><path d="M-636.78 644.018h1080v-1080h-1080Z"/></clipPath><clipPath id="u" clipPathUnits="userSpaceOnUse"><path d="M-504.915 700.358h1080v-1080h-1080Z"/></clipPath><clipPath id="v" clipPathUnits="userSpaceOnUse"><path d="M-442.782 645.337h1080v-1080h-1080Z"/></clipPath><clipPath id="w" clipPathUnits="userSpaceOnUse"><path d="M-648.98 645.443h1080v-1080h-1080Z"/></clipPath><clipPath id="x" clipPathUnits="userSpaceOnUse"><path d="M-462.192 698.486h1080v-1080h-1080Z"/></clipPath><clipPath id="y" clipPathUnits="userSpaceOnUse"><path d="M-629.228 698.486h1080v-1080h-1080Z"/></clipPath><clipPath id="z" clipPathUnits="userSpaceOnUse"><path d="M-519.383 737.465h1080v-1080h-1080Z"/></clipPath><clipPath id="A" clipPathUnits="userSpaceOnUse"><path d="M-334.363 344.784h1080v-1080h-1080Z"/></clipPath><clipPath id="B" clipPathUnits="userSpaceOnUse"><path d="M-484.49 344.784h1080v-1080h-1080Z"/></clipPath><clipPath id="C" clipPathUnits="userSpaceOnUse"><path d="M-724.149 382.912h1080v-1080h-1080Z"/></clipPath></defs><path d="M0 0s300.815 77.743 623.027.999L640.9-322.043s10.673-94.094-30.639-169.872-114.042-138.553-184.17-185.872-114.638-65.022-114.638-65.022S94.584-636.925 38.857-529.192c0 0-60.766 72.511-56.17 189.958S0 0 0 0" clip-path="url(#a)" style="fill:#fff;fill-opacity:1;fill-rule:nonzero;stroke:none" transform="matrix(1.33333 0 0 -1.33333 312.304 241.652)"/><path d="M0 0c-18.39-40.59-53.93-102.12-119.27-156.59-65.33-54.47-159.79-104.46-190.11-117.79 0 0-136.29 53.28-235.73 164.09-7.97 8.88-15.32 18.34-22.34 27.98-16.39 22.51-30.86 46.53-42.43 71.88-6.84 15-12.65 30.5-16.96 46.43-4.99 18.47-6.94 36.63-7.04 55.76-.05 11.49.17 23.01.43 34.5.51 26.68 18.55 325.83 18.55 325.83s250.05 65.28 610.05 0l19.91-342.55S18.38 40.6 0 0m25.78 104.17L5.36 460.26c-306.38 70.13-630.47 0-630.47 0-.13-2.45-.27-4.89-.4-7.34l-2.1-38.3-3.33-60.98c-1.32-24.07-2.64-48.15-3.95-72.23-1.32-24.01-2.63-48.03-3.94-72.05-1.11-20.14-2.21-40.28-3.31-60.43-1.4-25.56-3.26-51.05-1.36-76.66 2.33-31.38 7.53-63 18.95-92.46 2.91-7.51 6.22-14.9 10.21-21.9 1.32-2.32 3.23-4.54 4.38-6.93 74.3-153.96 300.58-253.43 300.58-253.43 95.3 46.06 162.82 87.99 254.74 186.03 91.91 98.04 80.42 220.59 80.42 220.59" clip-path="url(#b)" style="fill:#1d9d53;fill-opacity:1;fill-rule:nonzero;stroke:none" transform="matrix(1.33333 0 0 -1.33333 1141.31 845.986)"/><path d="M0 0c-2-10.37-4.01-20.9-6.01-31.58 3.96.54 5.94.8 9.89 1.31C2.6-20.03 1.31-9.94 0 0m0 0c-2-10.37-4.01-20.9-6.01-31.58 3.96.54 5.94.8 9.89 1.31C2.6-20.03 1.31-9.94 0 0m0 0c-2-10.37-4.01-20.9-6.01-31.58 3.96.54 5.94.8 9.89 1.31C2.6-20.03 1.31-9.94 0 0m0 0c-2-10.37-4.01-20.9-6.01-31.58 3.96.54 5.94.8 9.89 1.31C2.6-20.03 1.31-9.94 0 0m0 0c-2-10.37-4.01-20.9-6.01-31.58 3.96.54 5.94.8 9.89 1.31C2.6-20.03 1.31-9.94 0 0m147.26 13.62c-.81.92-2.09 1.34-3.84 1.25-1.93-.09-2.89-.14-4.82-.24l-.25-18.37c1.57.09 2.35.13 3.92.2 2 .1 3.51.67 4.53 1.69q1.515 1.545 1.56 4.98c.03 2.36.04 3.54.07 5.89.02 2.15-.37 3.68-1.17 4.6m0 0c-.81.92-2.09 1.34-3.84 1.25-1.93-.09-2.89-.14-4.82-.24l-.25-18.37c1.57.09 2.35.13 3.92.2 2 .1 3.51.67 4.53 1.69q1.515 1.545 1.56 4.98c.03 2.36.04 3.54.07 5.89.02 2.15-.37 3.68-1.17 4.6M0 0c-2-10.37-4.01-20.9-6.01-31.58 3.96.54 5.94.8 9.89 1.31C2.6-20.03 1.31-9.94 0 0m0 0c-2-10.37-4.01-20.9-6.01-31.58 3.96.54 5.94.8 9.89 1.31C2.6-20.03 1.31-9.94 0 0m147.26 13.62c-.81.92-2.09 1.34-3.84 1.25-1.93-.09-2.89-.14-4.82-.24l-.25-18.37c1.57.09 2.35.13 3.92.2 2 .1 3.51.67 4.53 1.69q1.515 1.545 1.56 4.98c.03 2.36.04 3.54.07 5.89.02 2.15-.37 3.68-1.17 4.6m32.17.62a5496 5496 0 0 1-5.06-30.69c3.86.12 5.8.18 9.66.28-1.53 10.29-3.06 20.42-4.6 30.41m57.26-3.03c0 2.03-.44 3.5-1.32 4.4-.87.9-2.13 1.35-3.76 1.36H226c-.01-14.17-.01-28.63-.02-43.38h5.65c1.64 0 2.9.47 3.78 1.42q1.32 1.425 1.32 4.62c-.02 10.68-.03 21.2-.04 31.58m0 0c0 2.03-.44 3.5-1.32 4.4-.87.9-2.13 1.35-3.76 1.36H226c-.01-14.17-.01-28.63-.02-43.38h5.65c1.64 0 2.9.47 3.78 1.42q1.32 1.425 1.32 4.62c-.02 10.68-.03 21.2-.04 31.58m-57.26 3.03a5496 5496 0 0 1-5.06-30.69c3.86.12 5.8.18 9.66.28-1.53 10.29-3.06 20.42-4.6 30.41m-32.17-.62c-.81.92-2.09 1.34-3.84 1.25-1.93-.09-2.89-.14-4.82-.24l-.25-18.37c1.57.09 2.35.13 3.92.2 2 .1 3.51.67 4.53 1.69q1.515 1.545 1.56 4.98c.03 2.36.04 3.54.07 5.89.02 2.15-.37 3.68-1.17 4.6M0 0c-2-10.37-4.01-20.9-6.01-31.58 3.96.54 5.94.8 9.89 1.31C2.6-20.03 1.31-9.94 0 0m0 0c-2-10.37-4.01-20.9-6.01-31.58 3.96.54 5.94.8 9.89 1.31C2.6-20.03 1.31-9.94 0 0m147.26 13.62c-.81.92-2.09 1.34-3.84 1.25-1.93-.09-2.89-.14-4.82-.24l-.25-18.37c1.57.09 2.35.13 3.92.2 2 .1 3.51.67 4.53 1.69q1.515 1.545 1.56 4.98c.03 2.36.04 3.54.07 5.89.02 2.15-.37 3.68-1.17 4.6m32.17.62a5496 5496 0 0 1-5.06-30.69c3.86.12 5.8.18 9.66.28-1.53 10.29-3.06 20.42-4.6 30.41m57.26-3.03c0 2.03-.44 3.5-1.32 4.4-.87.9-2.13 1.35-3.76 1.36H226c-.01-14.17-.01-28.63-.02-43.38h5.65c1.64 0 2.9.47 3.78 1.42q1.32 1.425 1.32 4.62c-.02 10.68-.03 21.2-.04 31.58m0 0c0 2.03-.44 3.5-1.32 4.4-.87.9-2.13 1.35-3.76 1.36H226c-.01-14.17-.01-28.63-.02-43.38h5.65c1.64 0 2.9.47 3.78 1.42q1.32 1.425 1.32 4.62c-.02 10.68-.03 21.2-.04 31.58m-57.26 3.03a5496 5496 0 0 1-5.06-30.69c3.86.12 5.8.18 9.66.28-1.53 10.29-3.06 20.42-4.6 30.41m-32.17-.62c-.81.92-2.09 1.34-3.84 1.25-1.93-.09-2.89-.14-4.82-.24l-.25-18.37c1.57.09 2.35.13 3.92.2 2 .1 3.51.67 4.53 1.69q1.515 1.545 1.56 4.98c.03 2.36.04 3.54.07 5.89.02 2.15-.37 3.68-1.17 4.6M0 0c-2-10.37-4.01-20.9-6.01-31.58 3.96.54 5.94.8 9.89 1.31C2.6-20.03 1.31-9.94 0 0m0 0c-2-10.37-4.01-20.9-6.01-31.58 3.96.54 5.94.8 9.89 1.31C2.6-20.03 1.31-9.94 0 0m147.26 13.62c-.81.92-2.09 1.34-3.84 1.25-1.93-.09-2.89-.14-4.82-.24l-.25-18.37c1.57.09 2.35.13 3.92.2 2 .1 3.51.67 4.53 1.69q1.515 1.545 1.56 4.98c.03 2.36.04 3.54.07 5.89.02 2.15-.37 3.68-1.17 4.6m32.17.62a5496 5496 0 0 1-5.06-30.69c3.86.12 5.8.18 9.66.28-1.53 10.29-3.06 20.42-4.6 30.41m57.26-3.03c0 2.03-.44 3.5-1.32 4.4-.87.9-2.13 1.35-3.76 1.36H226c-.01-14.17-.01-28.63-.02-43.38h5.65c1.64 0 2.9.47 3.78 1.42q1.32 1.425 1.32 4.62c-.02 10.68-.03 21.2-.04 31.58m0 0c0 2.03-.44 3.5-1.32 4.4-.87.9-2.13 1.35-3.76 1.36H226c-.01-14.17-.01-28.63-.02-43.38h5.65c1.64 0 2.9.47 3.78 1.42q1.32 1.425 1.32 4.62c-.02 10.68-.03 21.2-.04 31.58m-57.26 3.03a5496 5496 0 0 1-5.06-30.69c3.86.12 5.8.18 9.66.28-1.53 10.29-3.06 20.42-4.6 30.41m-32.17-.62c-.81.92-2.09 1.34-3.84 1.25-1.93-.09-2.89-.14-4.82-.24l-.25-18.37c1.57.09 2.35.13 3.92.2 2 .1 3.51.67 4.53 1.69q1.515 1.545 1.56 4.98c.03 2.36.04 3.54.07 5.89.02 2.15-.37 3.68-1.17 4.6M0 0c-2-10.37-4.01-20.9-6.01-31.58 3.96.54 5.94.8 9.89 1.31C2.6-20.03 1.31-9.94 0 0m0 0c-2-10.37-4.01-20.9-6.01-31.58 3.96.54 5.94.8 9.89 1.31C2.6-20.03 1.31-9.94 0 0m147.26 13.62c-.81.92-2.09 1.34-3.84 1.25-1.93-.09-2.89-.14-4.82-.24l-.25-18.37c1.57.09 2.35.13 3.92.2 2 .1 3.51.67 4.53 1.69q1.515 1.545 1.56 4.98c.03 2.36.04 3.54.07 5.89.02 2.15-.37 3.68-1.17 4.6m32.17.62a5496 5496 0 0 1-5.06-30.69c3.86.12 5.8.18 9.66.28-1.53 10.29-3.06 20.42-4.6 30.41m57.26-3.03c0 2.03-.44 3.5-1.32 4.4-.87.9-2.13 1.35-3.76 1.36H226c-.01-14.17-.01-28.63-.02-43.38h5.65c1.64 0 2.9.47 3.78 1.42q1.32 1.425 1.32 4.62c-.02 10.68-.03 21.2-.04 31.58M393 3.18c-.05 2.16-.5 3.75-1.35 4.79q-1.275 1.56-3.93 1.8c-1.95.18-2.92.27-4.86.44.17-7.32.26-11.01.43-18.44 1.58-.14 2.37-.21 3.95-.36 2.02-.18 3.53.17 4.51 1.06.99.89 1.46 2.48 1.4 4.78zM429.63.31c-.12 3.92-1.93 6.08-5.43 6.47-3.51.39-5.2-1.38-5.09-5.3.31-10.86.63-21.89.95-33.09.11-4.13 1.94-6.4 5.46-6.8 3.53-.4 5.24 1.46 5.11 5.6-.34 11.21-.67 22.25-1 33.12m0 0c-.12 3.92-1.93 6.08-5.43 6.47-3.51.39-5.2-1.38-5.09-5.3.31-10.86.63-21.89.95-33.09.11-4.13 1.94-6.4 5.46-6.8 3.53-.4 5.24 1.46 5.11 5.6-.34 11.21-.67 22.25-1 33.12M393 3.18c-.05 2.16-.5 3.75-1.35 4.79q-1.275 1.56-3.93 1.8c-1.95.18-2.92.27-4.86.44.17-7.32.26-11.01.43-18.44 1.58-.14 2.37-.21 3.95-.36 2.02-.18 3.53.17 4.51 1.06.99.89 1.46 2.48 1.4 4.78zm-156.31 8.03c0 2.03-.44 3.5-1.32 4.4-.87.9-2.13 1.35-3.76 1.36H226c-.01-14.17-.01-28.63-.02-43.38h5.65c1.64 0 2.9.47 3.78 1.42q1.32 1.425 1.32 4.62c-.02 10.68-.03 21.2-.04 31.58m-57.26 3.03a5496 5496 0 0 1-5.06-30.69c3.86.12 5.8.18 9.66.28-1.53 10.29-3.06 20.42-4.6 30.41m-32.17-.62c-.81.92-2.09 1.34-3.84 1.25-1.93-.09-2.89-.14-4.82-.24l-.25-18.37c1.57.09 2.35.13 3.92.2 2 .1 3.51.67 4.53 1.69q1.515 1.545 1.56 4.98c.03 2.36.04 3.54.07 5.89.02 2.15-.37 3.68-1.17 4.6M0 0c-2-10.37-4.01-20.9-6.01-31.58 3.96.54 5.94.8 9.89 1.31C2.6-20.03 1.31-9.94 0 0m-6.01-31.58c3.96.54 5.94.8 9.89 1.31C2.6-20.03 1.31-9.94 0 0c-2-10.37-4.01-20.9-6.01-31.58m149.43 46.45c-1.93-.09-2.89-.14-4.82-.24l-.25-18.37c1.57.09 2.35.13 3.92.2 2 .1 3.51.67 4.53 1.69q1.515 1.545 1.56 4.98c.03 2.36.04 3.54.07 5.89.02 2.15-.37 3.68-1.17 4.6-.81.92-2.09 1.34-3.84 1.25m30.95-31.32c3.86.12 5.8.18 9.66.28-1.53 10.29-3.06 20.42-4.6 30.41a5496 5496 0 0 1-5.06-30.69m61 32.06c-.87.9-2.13 1.35-3.76 1.36H226c-.01-14.17-.01-28.63-.02-43.38h5.65c1.64 0 2.9.47 3.78 1.42q1.32 1.425 1.32 4.62c-.02 10.68-.03 21.2-.04 31.58 0 2.03-.44 3.5-1.32 4.4m156.28-7.64q-1.275 1.56-3.93 1.8c-1.95.18-2.92.27-4.86.44.17-7.32.26-11.01.43-18.44 1.58-.14 2.37-.21 3.95-.36 2.02-.18 3.53.17 4.51 1.06.99.89 1.46 2.48 1.4 4.78L393 3.18c-.05 2.16-.5 3.75-1.35 4.79m32.55-1.19c-3.51.39-5.2-1.38-5.09-5.3.31-10.86.63-21.89.95-33.09.11-4.13 1.94-6.4 5.46-6.8 3.53-.4 5.24 1.46 5.11 5.6-.34 11.21-.67 22.25-1 33.12-.12 3.92-1.93 6.08-5.43 6.47m83.49-61.45c-2.53-2.36-6.32-3.14-11.36-2.36s-8.92 2.75-11.66 5.92c-2.74 3.16-4.21 7.31-4.4 12.43l-.15 3.86c3.91-.56 5.86-.85 9.77-1.43.07-1.8.11-2.7.18-4.5.16-4.1 2.03-6.43 5.61-6.98s5.29 1.23 5.13 5.33c-.11 2.65-.94 5.07-2.5 7.27-1.55 2.2-3.89 4.76-6.9 7.69-2.51 2.45-4.56 4.64-6.12 6.48-1.56 1.82-2.92 3.95-4.07 6.37-1.14 2.41-1.77 5.06-1.88 7.94-.18 4.86.95 8.4 3.41 10.61 2.45 2.2 6.17 2.95 11.15 2.21 4.99-.74 8.83-2.61 11.5-5.58 2.68-2.99 4.12-6.92 4.32-11.8.03-.76.05-1.15.08-1.91-3.91.62-5.87.93-9.78 1.53l-.1 2.5c-.08 2.07-.58 3.64-1.5 4.72-.91 1.08-2.21 1.74-3.9 1.99q-2.52.375-3.78-.84c-.84-.81-1.21-2.25-1.13-4.32q.15-3.795 2.46-6.99c1.55-2.14 3.89-4.66 6.88-7.56 2.53-2.46 4.59-4.67 6.16-6.53 1.58-1.87 2.95-4.04 4.12-6.54s1.81-5.25 1.94-8.26c.22-5.14-.95-8.89-3.48-11.25m-59.74 5.21c-.69 21.07-1.36 41.54-2.01 61.45 9.26-1.12 18.54-2.33 27.84-3.62.12-3.38.18-5.08.31-8.49-7.08.98-10.61 1.46-17.67 2.36.22-6.68.34-10.04.57-16.81 5.63-.73 8.44-1.11 14.08-1.89.12-3.5.19-5.26.32-8.79-5.65.78-8.47 1.16-14.1 1.9.25-7.28.38-10.95.63-18.34 7.11-.94 10.67-1.43 17.79-2.45.14-3.64.2-5.46.34-9.13-11.27 1.62-16.89 2.38-28.1 3.81m-10.75 4.79c-2.58-2.47-6.39-3.41-11.41-2.83s-8.89 2.4-11.63 5.48c-2.73 3.06-4.17 7.11-4.31 12.14-.29 10.76-.58 21.37-.86 31.83q-.195 7.155 3.66 10.62c2.56 2.31 6.33 3.19 11.3 2.65 4.97-.55 8.83-2.28 11.55-5.17 2.73-2.9 4.17-6.75 4.33-11.53.33-10.49.67-21.13 1.01-31.93.16-5.03-1.06-8.79-3.64-11.26m-42.03 1.15c-.39 1.07-.66 2.06-.81 2.98s-.25 2.56-.31 4.9c-.09 3.96-.14 5.93-.24 9.86-.07 2.84-.64 4.91-1.72 6.22-1.07 1.3-2.77 2.06-5.1 2.27-1.4.13-2.1.19-3.5.32.24-10.1.35-15.2.59-25.51-4.06.37-6.09.55-10.15.89-.45 20.94-.89 41.28-1.32 61.06 6.07-.5 9.1-.76 15.18-1.3 5.19-.47 9.01-1.94 11.45-4.38 2.45-2.45 3.73-6 3.85-10.65.05-1.88.07-2.82.12-4.71.16-6.22-1.94-10.11-6.31-11.66 2.42-1.17 4.18-2.9 5.28-5.21 1.1-2.3 1.7-5.17 1.79-8.61l.25-9.68q.075-2.715.3-4.41c.16-1.14.49-2.28 1.02-3.42-4.15.43-6.22.63-10.37 1.04m-55.09 4.48c-.34 20.89-.68 41.19-1.01 60.92q13.65-.84 27.33-1.92c.07-3.35.11-5.03.18-8.4-6.94.54-10.41.8-17.34 1.27l.3-16.66c5.52-.38 8.28-.59 13.81-1.01.07-3.48.11-5.22.18-8.71-5.54.43-8.31.63-13.84 1.02.14-7.21.2-10.85.33-18.17 6.98-.49 10.47-.76 17.46-1.32.08-3.61.11-5.41.19-9.04-11.05.89-16.56 1.3-27.59 2.02m-17.61 1.06c-.15 10.81-.22 16.15-.37 26.72-4.56.25-6.84.36-11.4.58.13-10.57.19-15.91.32-26.71-4.02.19-6.04.29-10.06.46-.23 20.85-.45 41.11-.66 60.82 3.99-.17 5.99-.25 9.98-.44.12-10.07.18-15.15.31-25.44 4.55-.22 6.83-.33 11.39-.58-.15 10.3-.22 15.39-.36 25.46 4.07-.21 6.11-.33 10.18-.56.3-19.73.62-40.03.94-60.91-4.11.25-6.16.37-10.27.6m-69.3 2.4c-.07 20.83-.15 41.07-.22 60.75 9.05-.11 18.1-.31 27.15-.58.03-3.34.04-5.01.06-8.37-6.88.2-10.33.28-17.21.42.03-6.6.05-9.92.08-16.61 5.49-.11 8.23-.17 13.72-.33.02-3.45.04-5.19.06-8.67-5.49.15-8.24.22-13.73.33.03-7.19.05-10.81.09-18.11 6.93-.14 10.4-.23 17.33-.44.03-3.59.04-5.39.07-9-10.96.33-16.44.45-27.4.61m-10.14 4.09c-2.49-2.63-6.22-3.93-11.21-3.92-6.35.01-9.53 0-15.88-.05.04 20.83.08 41.07.12 60.75 6.29.04 9.44.05 15.73.04 4.94 0 8.66-1.25 11.13-3.72 2.48-2.48 3.73-6.11 3.74-10.9.03-10.09.05-20.33.08-30.71.02-5.04-1.22-8.88-3.71-11.49m110.29 64.66c3.93-.28 5.89-.42 9.82-.72-3.65-3.37-5.47-5.07-9.11-8.49-2.69.19-4.04.29-6.73.47 2.4 3.51 3.6 5.26 6.02 8.74M187-35.93c-.66 4.57-1 6.85-1.66 11.37-4.93-.12-7.39-.19-12.32-.36-.73-4.56-1.1-6.86-1.83-11.47-3.69-.13-5.54-.2-9.23-.34 3.59 20.99 7.18 41.36 10.75 61.16 5.83.19 8.75.27 14.58.41 3.28-19.6 6.56-39.77 9.85-60.55-4.06-.07-6.09-.12-10.14-.22m-38.13-1.37c-.35 1.01-.58 1.97-.69 2.86-.11.9-.15 2.52-.13 4.86.05 3.93.07 5.89.12 9.8.04 2.83-.46 4.81-1.48 5.96-1.01 1.15-2.68 1.67-4.99 1.56-1.39-.08-2.08-.11-3.47-.18-.14-10.06-.21-15.14-.34-25.41-4.04-.22-6.05-.33-10.09-.57.32 20.88.62 41.17.92 60.89 6.03.35 9.05.51 15.07.8 5.15.25 8.89-.69 11.22-2.79 2.33-2.11 3.47-5.47 3.43-10.09l-.05-4.69c-.07-6.18-2.3-10.35-6.69-12.52 2.36-.82 4.04-2.3 5.05-4.44 1.01-2.15 1.49-4.93 1.46-8.34l-.1-9.63c-.02-1.79.02-3.25.13-4.35.11-1.11.41-2.2.88-3.27-4.09-.16-6.14-.26-10.25-.45M122.4 13.72c-6.92-.42-10.38-.65-17.31-1.14-.12-6.62-.19-9.95-.31-16.67 5.52.4 8.28.58 13.8.93l-.15-8.69c-5.52-.35-8.28-.54-13.81-.94-.14-7.21-.2-10.85-.34-18.17 6.98.5 10.46.74 17.43 1.18l-.15-9.03c-11.01-.69-16.53-1.08-27.57-1.96.42 20.92.83 41.25 1.23 61.01 9.11.7 18.22 1.33 27.32 1.87-.05-3.35-.08-5.02-.14-8.39M90.67 11.5c-4.21-.33-6.31-.5-10.52-.86-.39-17.13-.78-34.68-1.18-52.66-4.06-.36-6.09-.55-10.16-.93l1.26 52.71c-4.22-.39-6.33-.58-10.55-.99.09 3.38.13 5.07.22 8.43 10.38.96 20.74 1.86 31.1 2.71-.07-3.35-.1-5.04-.17-8.41M53.83-44.42c-4.19-.43-6.28-.65-10.48-1.1-3.8 14.82-7.6 29.32-11.39 43.5-.44-14.67-.88-29.64-1.33-44.93-3.69-.43-5.53-.65-9.22-1.09.65 21.04 1.28 41.49 1.9 61.37 5.09.6 7.64.88 12.72 1.44 3.15-11.43 6.29-23.07 9.41-34.93q.495 18.315.99 36.03c3.6.37 5.4.55 9 .91-.52-19.83-1.05-40.22-1.6-61.2M6.39-49.93c-.56 4.55-.83 6.81-1.39 11.32-5.04-.65-7.57-.99-12.62-1.68-.88-4.7-1.31-7.07-2.19-11.81-3.79-.53-5.69-.8-9.48-1.35C-15.03-31.81-10.8-10.79-6.6 9.62c5.98.79 8.97 1.17 14.93 1.91 2.83-19.47 5.63-39.51 8.42-60.15-4.14-.51-6.21-.77-10.36-1.31M-21.09-6.62c-.09-2.34-.13-3.52-.22-5.88-3.89-.55-5.84-.83-9.73-1.41l.25 6.5q.225 5.925-5.1 5.13c-3.56-.53-5.42-2.78-5.59-6.73q-.66-16.44-1.35-33.39c-.17-4.1 1.55-5.88 5.13-5.33s5.45 2.88 5.61 6.98l.35 8.97c3.91.58 5.86.87 9.76 1.43-.12-3.32-.19-4.98-.31-8.33-.19-5.12-1.66-9.27-4.4-12.43-2.74-3.17-6.63-5.14-11.66-5.92-5.04-.78-8.83 0-11.37 2.36-2.53 2.36-3.69 6.11-3.47 11.25.45 10.89.91 21.62 1.35 32.19.21 4.89 1.68 8.82 4.42 11.82 2.73 2.98 6.59 4.85 11.58 5.59s8.74 0 11.25-2.19c2.52-2.21 3.68-5.74 3.5-10.61M542.2-331.2 525.35 19.09c-307.41 63.32-592.86 0-592.86 0s-14.8-291.06-15.83-352.85c-1-60.84 15.32-86.54 15.82-87.3-7.99 34.38-4.07 71.22-4.07 71.22l16.08 272.68c248.17 55.15 569.88 0 569.88 0s14.55-228 17.1-265.64c2.53-37.13-5.39-77.18-5.6-78.26 17.86 25.03 16.33 89.86 16.33 89.86M0 0c-2-10.37-4.01-20.9-6.01-31.58 3.96.54 5.94.8 9.89 1.31C2.6-20.03 1.31-9.94 0 0m147.26 13.62c-.81.92-2.09 1.34-3.84 1.25-1.93-.09-2.89-.14-4.82-.24l-.25-18.37c1.57.09 2.35.13 3.92.2 2 .1 3.51.67 4.53 1.69q1.515 1.545 1.56 4.98c.03 2.36.04 3.54.07 5.89.02 2.15-.37 3.68-1.17 4.6m32.17.62a5496 5496 0 0 1-5.06-30.69c3.86.12 5.8.18 9.66.28-1.53 10.29-3.06 20.42-4.6 30.41m57.26-3.03c0 2.03-.44 3.5-1.32 4.4-.87.9-2.13 1.35-3.76 1.36H226c-.01-14.17-.01-28.63-.02-43.38h5.65c1.64 0 2.9.47 3.78 1.42q1.32 1.425 1.32 4.62c-.02 10.68-.03 21.2-.04 31.58M393 3.18c-.05 2.16-.5 3.75-1.35 4.79q-1.275 1.56-3.93 1.8c-1.95.18-2.92.27-4.86.44.17-7.32.26-11.01.43-18.44 1.58-.14 2.37-.21 3.95-.36 2.02-.18 3.53.17 4.51 1.06.99.89 1.46 2.48 1.4 4.78zM429.63.31c-.12 3.92-1.93 6.08-5.43 6.47-3.51.39-5.2-1.38-5.09-5.3.31-10.86.63-21.89.95-33.09.11-4.13 1.94-6.4 5.46-6.8 3.53-.4 5.24 1.46 5.11 5.6-.34 11.21-.67 22.25-1 33.12m0 0c-.12 3.92-1.93 6.08-5.43 6.47-3.51.39-5.2-1.38-5.09-5.3.31-10.86.63-21.89.95-33.09.11-4.13 1.94-6.4 5.46-6.8 3.53-.4 5.24 1.46 5.11 5.6-.34 11.21-.67 22.25-1 33.12M393 3.18c-.05 2.16-.5 3.75-1.35 4.79q-1.275 1.56-3.93 1.8c-1.95.18-2.92.27-4.86.44.17-7.32.26-11.01.43-18.44 1.58-.14 2.37-.21 3.95-.36 2.02-.18 3.53.17 4.51 1.06.99.89 1.46 2.48 1.4 4.78zm-156.31 8.03c0 2.03-.44 3.5-1.32 4.4-.87.9-2.13 1.35-3.76 1.36H226c-.01-14.17-.01-28.63-.02-43.38h5.65c1.64 0 2.9.47 3.78 1.42q1.32 1.425 1.32 4.62c-.02 10.68-.03 21.2-.04 31.58m-57.26 3.03a5496 5496 0 0 1-5.06-30.69c3.86.12 5.8.18 9.66.28-1.53 10.29-3.06 20.42-4.6 30.41m-32.17-.62c-.81.92-2.09 1.34-3.84 1.25-1.93-.09-2.89-.14-4.82-.24l-.25-18.37c1.57.09 2.35.13 3.92.2 2 .1 3.51.67 4.53 1.69q1.515 1.545 1.56 4.98c.03 2.36.04 3.54.07 5.89.02 2.15-.37 3.68-1.17 4.6M0 0c-2-10.37-4.01-20.9-6.01-31.58 3.96.54 5.94.8 9.89 1.31C2.6-20.03 1.31-9.94 0 0m0 0c-2-10.37-4.01-20.9-6.01-31.58 3.96.54 5.94.8 9.89 1.31C2.6-20.03 1.31-9.94 0 0m147.26 13.62c-.81.92-2.09 1.34-3.84 1.25-1.93-.09-2.89-.14-4.82-.24l-.25-18.37c1.57.09 2.35.13 3.92.2 2 .1 3.51.67 4.53 1.69q1.515 1.545 1.56 4.98c.03 2.36.04 3.54.07 5.89.02 2.15-.37 3.68-1.17 4.6m32.17.62a5496 5496 0 0 1-5.06-30.69c3.86.12 5.8.18 9.66.28-1.53 10.29-3.06 20.42-4.6 30.41m57.26-3.03c0 2.03-.44 3.5-1.32 4.4-.87.9-2.13 1.35-3.76 1.36H226c-.01-14.17-.01-28.63-.02-43.38h5.65c1.64 0 2.9.47 3.78 1.42q1.32 1.425 1.32 4.62c-.02 10.68-.03 21.2-.04 31.58M393 3.18c-.05 2.16-.5 3.75-1.35 4.79q-1.275 1.56-3.93 1.8c-1.95.18-2.92.27-4.86.44.17-7.32.26-11.01.43-18.44 1.58-.14 2.37-.21 3.95-.36 2.02-.18 3.53.17 4.51 1.06.99.89 1.46 2.48 1.4 4.78zm0 0c-.05 2.16-.5 3.75-1.35 4.79q-1.275 1.56-3.93 1.8c-1.95.18-2.92.27-4.86.44.17-7.32.26-11.01.43-18.44 1.58-.14 2.37-.21 3.95-.36 2.02-.18 3.53.17 4.51 1.06.99.89 1.46 2.48 1.4 4.78zm-156.31 8.03c0 2.03-.44 3.5-1.32 4.4-.87.9-2.13 1.35-3.76 1.36H226c-.01-14.17-.01-28.63-.02-43.38h5.65c1.64 0 2.9.47 3.78 1.42q1.32 1.425 1.32 4.62c-.02 10.68-.03 21.2-.04 31.58m-57.26 3.03a5496 5496 0 0 1-5.06-30.69c3.86.12 5.8.18 9.66.28-1.53 10.29-3.06 20.42-4.6 30.41m-32.17-.62c-.81.92-2.09 1.34-3.84 1.25-1.93-.09-2.89-.14-4.82-.24l-.25-18.37c1.57.09 2.35.13 3.92.2 2 .1 3.51.67 4.53 1.69q1.515 1.545 1.56 4.98c.03 2.36.04 3.54.07 5.89.02 2.15-.37 3.68-1.17 4.6M0 0c-2-10.37-4.01-20.9-6.01-31.58 3.96.54 5.94.8 9.89 1.31C2.6-20.03 1.31-9.94 0 0m0 0c-2-10.37-4.01-20.9-6.01-31.58 3.96.54 5.94.8 9.89 1.31C2.6-20.03 1.31-9.94 0 0m147.26 13.62c-.81.92-2.09 1.34-3.84 1.25-1.93-.09-2.89-.14-4.82-.24l-.25-18.37c1.57.09 2.35.13 3.92.2 2 .1 3.51.67 4.53 1.69q1.515 1.545 1.56 4.98c.03 2.36.04 3.54.07 5.89.02 2.15-.37 3.68-1.17 4.6m32.17.62a5496 5496 0 0 1-5.06-30.69c3.86.12 5.8.18 9.66.28-1.53 10.29-3.06 20.42-4.6 30.41m57.26-3.03c0 2.03-.44 3.5-1.32 4.4-.87.9-2.13 1.35-3.76 1.36H226c-.01-14.17-.01-28.63-.02-43.38h5.65c1.64 0 2.9.47 3.78 1.42q1.32 1.425 1.32 4.62c-.02 10.68-.03 21.2-.04 31.58m0 0c0 2.03-.44 3.5-1.32 4.4-.87.9-2.13 1.35-3.76 1.36H226c-.01-14.17-.01-28.63-.02-43.38h5.65c1.64 0 2.9.47 3.78 1.42q1.32 1.425 1.32 4.62c-.02 10.68-.03 21.2-.04 31.58m-57.26 3.03a5496 5496 0 0 1-5.06-30.69c3.86.12 5.8.18 9.66.28-1.53 10.29-3.06 20.42-4.6 30.41m-32.17-.62c-.81.92-2.09 1.34-3.84 1.25-1.93-.09-2.89-.14-4.82-.24l-.25-18.37c1.57.09 2.35.13 3.92.2 2 .1 3.51.67 4.53 1.69q1.515 1.545 1.56 4.98c.03 2.36.04 3.54.07 5.89.02 2.15-.37 3.68-1.17 4.6M0 0c-2-10.37-4.01-20.9-6.01-31.58 3.96.54 5.94.8 9.89 1.31C2.6-20.03 1.31-9.94 0 0m0 0c-2-10.37-4.01-20.9-6.01-31.58 3.96.54 5.94.8 9.89 1.31C2.6-20.03 1.31-9.94 0 0m147.26 13.62c-.81.92-2.09 1.34-3.84 1.25-1.93-.09-2.89-.14-4.82-.24l-.25-18.37c1.57.09 2.35.13 3.92.2 2 .1 3.51.67 4.53 1.69q1.515 1.545 1.56 4.98c.03 2.36.04 3.54.07 5.89.02 2.15-.37 3.68-1.17 4.6m32.17.62a5496 5496 0 0 1-5.06-30.69c3.86.12 5.8.18 9.66.28-1.53 10.29-3.06 20.42-4.6 30.41m57.26-3.03c0 2.03-.44 3.5-1.32 4.4-.87.9-2.13 1.35-3.76 1.36H226c-.01-14.17-.01-28.63-.02-43.38h5.65c1.64 0 2.9.47 3.78 1.42q1.32 1.425 1.32 4.62c-.02 10.68-.03 21.2-.04 31.58m0 0c0 2.03-.44 3.5-1.32 4.4-.87.9-2.13 1.35-3.76 1.36H226c-.01-14.17-.01-28.63-.02-43.38h5.65c1.64 0 2.9.47 3.78 1.42q1.32 1.425 1.32 4.62c-.02 10.68-.03 21.2-.04 31.58m-57.26 3.03a5496 5496 0 0 1-5.06-30.69c3.86.12 5.8.18 9.66.28-1.53 10.29-3.06 20.42-4.6 30.41m-32.17-.62c-.81.92-2.09 1.34-3.84 1.25-1.93-.09-2.89-.14-4.82-.24l-.25-18.37c1.57.09 2.35.13 3.92.2 2 .1 3.51.67 4.53 1.69q1.515 1.545 1.56 4.98c.03 2.36.04 3.54.07 5.89.02 2.15-.37 3.68-1.17 4.6M0 0c-2-10.37-4.01-20.9-6.01-31.58 3.96.54 5.94.8 9.89 1.31C2.6-20.03 1.31-9.94 0 0m0 0c-2-10.37-4.01-20.9-6.01-31.58 3.96.54 5.94.8 9.89 1.31C2.6-20.03 1.31-9.94 0 0m147.26 13.62c-.81.92-2.09 1.34-3.84 1.25-1.93-.09-2.89-.14-4.82-.24l-.25-18.37c1.57.09 2.35.13 3.92.2 2 .1 3.51.67 4.53 1.69q1.515 1.545 1.56 4.98c.03 2.36.04 3.54.07 5.89.02 2.15-.37 3.68-1.17 4.6m32.17.62a5496 5496 0 0 1-5.06-30.69c3.86.12 5.8.18 9.66.28-1.53 10.29-3.06 20.42-4.6 30.41m0 0a5496 5496 0 0 1-5.06-30.69c3.86.12 5.8.18 9.66.28-1.53 10.29-3.06 20.42-4.6 30.41m-32.17-.62c-.81.92-2.09 1.34-3.84 1.25-1.93-.09-2.89-.14-4.82-.24l-.25-18.37c1.57.09 2.35.13 3.92.2 2 .1 3.51.67 4.53 1.69q1.515 1.545 1.56 4.98c.03 2.36.04 3.54.07 5.89.02 2.15-.37 3.68-1.17 4.6M0 0c-2-10.37-4.01-20.9-6.01-31.58 3.96.54 5.94.8 9.89 1.31C2.6-20.03 1.31-9.94 0 0m0 0c-2-10.37-4.01-20.9-6.01-31.58 3.96.54 5.94.8 9.89 1.31C2.6-20.03 1.31-9.94 0 0m0 0c-2-10.37-4.01-20.9-6.01-31.58 3.96.54 5.94.8 9.89 1.31C2.6-20.03 1.31-9.94 0 0m0 0c-2-10.37-4.01-20.9-6.01-31.58 3.96.54 5.94.8 9.89 1.31C2.6-20.03 1.31-9.94 0 0m0 0c-2-10.37-4.01-20.9-6.01-31.58 3.96.54 5.94.8 9.89 1.31C2.6-20.03 1.31-9.94 0 0" clip-path="url(#c)" style="fill:#ed7039;fill-opacity:1;fill-rule:nonzero;stroke:none" transform="matrix(1.33333 0 0 -1.33333 423.483 284.546)"/><path d="M0 0c-13.672-33.16-35.585-62.579-61.069-87.6-35.982-35.33-79.478-62.059-121.83-88.95-28.511-18.103-57.372-34.039-89.178-45.465-1.263-.454-12.591-3.801-12.591-4.524 0 .723-11.328 4.07-12.591 4.524-31.806 11.426-60.668 27.362-89.178 45.465-42.352 26.891-85.848 53.62-121.831 88.95-25.484 25.021-47.397 54.44-61.068 87.6-4.948 12-9.442 24.958-10.731 37.971 2.98-30.094 11.676-59.586 25.895-86.297 20.319-38.172 53.178-69.291 86.358-96.341 37.772-30.794 79.688-56.51 123.525-77.707 14.166-6.85 28.563-13.241 43.203-19.012 1.049-.414 16.418-5.298 16.418-6.09 0 .792 15.369 5.676 16.418 6.09 14.639 5.771 29.037 12.162 43.202 19.012 43.837 21.197 85.754 46.913 123.525 77.707 33.181 27.05 66.04 58.169 86.359 96.341C-.946-21.615 7.751 7.877 10.73 37.971 9.442 24.958 4.947 12 0 0" clip-path="url(#d)" style="fill:#ed713a;fill-opacity:1;fill-rule:nonzero;stroke:none" transform="matrix(1.33333 0 0 -1.33333 1108.94 845.546)"/><path d="M0 0s33.447 5.362 81.191 10.213v-34.979H36v-192.255h45.191v-212.17s-90.638 68.595-94.723 147.234l7.489 161.361z" clip-path="url(#e)" style="fill:#ed7039;fill-opacity:1;fill-rule:nonzero;stroke:none" transform="matrix(1.33333 0 0 -1.33333 364.454 398.322)"/><path d="M0 0s58.213 3.574 89.362 4.34v-46.468H0Z" clip-path="url(#f)" style="fill:#ed7039;fill-opacity:1;fill-rule:nonzero;stroke:none" transform="matrix(1.33333 0 0 -1.33333 562.241 374.832)"/><path d="M0 0s49.362-1.617 89.191-4.34v-42.128S63.319-49.277 41.532-75.83v29.362H0Z" clip-path="url(#g)" style="fill:#ed7039;fill-opacity:1;fill-rule:nonzero;stroke:none" transform="matrix(1.33333 0 0 -1.33333 773.078 369.045)"/><path d="m0 0 82.752-12 13.021-250.979s4.851-43.915-12-76.851-55.915-80.425-82.724-101.872v213.957s34.469 9.958 54.894 46.979L1.049-137.362v25.05l48.511 43.12S28.312-41.362 0-34.213z" clip-path="url(#h)" style="fill:#ed7039;fill-opacity:1;fill-rule:nonzero;stroke:none" transform="matrix(1.33333 0 0 -1.33333 982.289 384.024)"/><path d="M0 0v-72.511s70.808-17.021 77.617-104.51c0 0 10.894-73.873-77.617-110.298v-84.085l88.851 48.681v264.17S42.894-46.638 25.191 0z" clip-path="url(#i)" style="fill:#ed7039;fill-opacity:1;fill-rule:nonzero;stroke:none" transform="matrix(1.33333 0 0 -1.33333 773.078 609.953)"/><path d="M0 0v14.298h-87.83v-263.149L0-297.191v83.063s-74.553 26.894-76.255 101.277S-23.149-5.787 0 0" clip-path="url(#j)" style="fill:#ed7039;fill-opacity:1;fill-rule:nonzero;stroke:none" transform="matrix(1.33333 0 0 -1.33333 680.028 707.088)"/><path d="M0 0s16.511 20.255 41.532 28.426v-8.171S20.085 5.447 9.362-5.106z" clip-path="url(#k)" style="fill:#ed7039;fill-opacity:1;fill-rule:nonzero;stroke:none" transform="matrix(1.33333 0 0 -1.33333 621.475 759.513)"/><path d="M0 0s-16.511 20.255-41.532 28.426v-8.171S-20.085 5.447-9.362-5.106z" clip-path="url(#l)" style="fill:#ed7039;fill-opacity:1;fill-rule:nonzero;stroke:none" transform="matrix(1.33333 0 0 -1.33333 834.98 759.513)"/><path d="m0 0 37.941 27.404L75.234 0 60.426-42.553H13.787Z" clip-path="url(#m)" style="fill:#ed7039;fill-opacity:1;fill-rule:nonzero;stroke:none" transform="matrix(1.33333 0 0 -1.33333 678.213 834.407)"/><path d="m0 0 30.809 23.809 33.702-7.979v-27.404L29.106-39.83l-30.127 9.702Z" clip-path="url(#n)" style="fill:#ed7039;fill-opacity:1;fill-rule:nonzero;stroke:none" transform="matrix(1.33333 0 0 -1.33333 635.773 773.357)"/><path d="m0 0-30.809 23.809-33.702-7.979v-27.404l35.405-28.256 30.127 9.702z" clip-path="url(#o)" style="fill:#ed7039;fill-opacity:1;fill-rule:nonzero;stroke:none" transform="matrix(1.33333 0 0 -1.33333 820.851 773.357)"/><path d="M0 0s34.894 12.085 62.979 0v-8.34L32.93-18.213 1.021-7.83Z" clip-path="url(#p)" style="fill:#ed7039;fill-opacity:1;fill-rule:nonzero;stroke:none" transform="matrix(1.33333 0 0 -1.33333 685.475 718.435)"/><path d="M0 0s20.426-26.894 19.064-61.447h-8.17L-5.617-36.766-7.319-1.532z" clip-path="url(#q)" style="fill:#ed7039;fill-opacity:1;fill-rule:nonzero;stroke:none" transform="matrix(1.33333 0 0 -1.33333 839.801 770.18)"/><path d="M0 0s-20.426-26.894-19.064-61.447h8.17L5.617-36.766 7.319-1.532z" clip-path="url(#r)" style="fill:#ed7039;fill-opacity:1;fill-rule:nonzero;stroke:none" transform="matrix(1.33333 0 0 -1.33333 615.881 770.066)"/><path d="m0 0 18.1 25.702 27.915-9.872 12.936-42.043-16.34-24-25.872 8.17z" clip-path="url(#s)" style="fill:#ed7039;fill-opacity:1;fill-rule:nonzero;stroke:none" transform="matrix(1.33333 0 0 -1.33333 608.008 858.69)"/><path d="m0 0-18.1 25.702-27.915-9.872-12.936-42.043 16.34-24 25.872 8.17z" clip-path="url(#t)" style="fill:#ed7039;fill-opacity:1;fill-rule:nonzero;stroke:none" transform="matrix(1.33333 0 0 -1.33333 849.041 858.69)"/><path d="m0 0 17.362 24H64L81.532 0l-16.17-23.66H16.851Z" clip-path="url(#u)" style="fill:#ed7039;fill-opacity:1;fill-rule:nonzero;stroke:none" transform="matrix(1.33333 0 0 -1.33333 673.22 933.811)"/><path d="M0 0h9.154l11.49-40.596-7.42-5.234S.293-20.809 0 0" clip-path="url(#v)" style="fill:#ed7039;fill-opacity:1;fill-rule:nonzero;stroke:none" transform="matrix(1.33333 0 0 -1.33333 590.376 860.45)"/><path d="M0 0h-9.154l-11.49-40.596 7.42-5.234S-.293-20.809 0 0" clip-path="url(#w)" style="fill:#ed7039;fill-opacity:1;fill-rule:nonzero;stroke:none" transform="matrix(1.33333 0 0 -1.33333 865.307 860.591)"/><path d="m0 0 8 7.213L33.362-3.745l21.276-27.574-5.787-5.787S15.489-25.532 0 0" clip-path="url(#x)" style="fill:#ed7039;fill-opacity:1;fill-rule:nonzero;stroke:none" transform="matrix(1.33333 0 0 -1.33333 616.255 931.315)"/><path d="m0 0-8 7.213-25.362-10.958-21.276-27.574 5.787-5.787S-15.489-25.532 0 0" clip-path="url(#y)" style="fill:#ed7039;fill-opacity:1;fill-rule:nonzero;stroke:none" transform="matrix(1.33333 0 0 -1.33333 838.97 931.315)"/><path d="m0 0 5.617 7.149 43.404-.851L55.207 0S15.149-9.872 0 .851" clip-path="url(#z)" style="fill:#ed7039;fill-opacity:1;fill-rule:nonzero;stroke:none" transform="matrix(1.33333 0 0 -1.33333 692.51 983.286)"/><path d="M0 0c.851-.851 116.765 0 116.765 0v-28.936H30.637v-32h80.681v-28.596H30.297v-30.638h86.468v-29.277H-2.044Z" clip-path="url(#A)" style="fill:#1d9d53;fill-opacity:1;fill-rule:nonzero;stroke:none" transform="matrix(1.33333 0 0 -1.33333 445.817 459.712)"/><path d="M0 0v-149.447h34.043v57.873h73.531v29.957H33.702v30.979h82.043V0Z" clip-path="url(#B)" style="fill:#1d9d53;fill-opacity:1;fill-rule:nonzero;stroke:none" transform="matrix(1.33333 0 0 -1.33333 645.986 459.712)"/><path d="M0 0c1.148-.807 27.574 25.872 27.574 25.872S8.17 44.936-26.553 43.915s-76.936-27.575-78.298-78.979 45.277-79.659 73.872-80.34c28.596-.681 50.927 10.553 65.293 25.532L6.128-66.723s-9.192-12.256-30.639-12.256-42.553 14.308-44.595 43.239S-45.715 6.128-35.283 7.83-12.596 8.851 0 0" clip-path="url(#C)" style="fill:#1d9d53;fill-opacity:1;fill-rule:nonzero;stroke:none" transform="matrix(1.33333 0 0 -1.33333 965.532 510.549)"/></svg>