<svg xmlns="http://www.w3.org/2000/svg" xml:space="preserve" viewBox="0 0 199.31 266.67"><path d="M686.801 36.75c.597-.281 1.191-.55 1.789-.82 5.476 5.218 10.965 10.449 16.433 15.691 53.118 50.93 106.348 101.738 159.2 152.949 7.519 7.289 15.527 13.008 24.785 17.739C1016.11 287.25 1122.85 376.59 1207.94 491.18c111.32 149.91 171.75 318.461 181.85 504.898 3.74 69.272-1.28 138.082-13.03 206.402-1.01 5.9.18 9.79 4.82 13.67 13.77 11.49 27.17 23.42 40.69 35.2 42.7 37.13 52.03 96.15 22.75 144.79-108.22 179.78-216.58 359.47-324.6 539.35-12.94 21.56-30.67 31.58-55.9 31.54-210.864-.3-421.723-.35-632.582.06-26.563.05-44.735-10.39-58.309-33.01-107.246-178.82-214.922-357.39-322.461-536.04-30.8-51.18-21.992-108.35 22.879-147.8 23.574-20.72 47.238-41.35 71.066-61.78 3.836-3.3 4.727-5.78 2.461-10.55-5.078-10.69-9.375-21.75-14.023-32.65-32.571-76.3-45.938-155.408-33.645-237.951 10.371-69.571 38.477-131.579 81.68-186.957 3.867-4.961 6.769-11.321 8.164-17.461 11.797-51.762 26.711-102.289 50.664-150.039 31.906-63.633 78.762-111.512 145.168-137.84 40.789-16.16 82.859-29.192 124.598-42.883 33.742-11.07 68.722-18.891 101.582-32.051 39.64-15.867 71.008-42.418 84.531-85.289 7.051-22.32 8.586-45.469 9.551-68.687 1.34-32.153-4.688-63.5-9.93-94.954-3.019-18.129-6.074-36.27-9.113-54.398m808.049 1283.91c-2.61-10.44-4.61-21.07-7.96-31.28-7.7-23.52-21.08-43.52-39.55-60.04-10.42-9.32-20.9-18.57-31.56-27.61-3.34-2.84-4.59-5.44-3.85-10.09 7.99-50.07 12.17-100.48 12.11-151.19-.17-141.052-30.18-275.47-90.01-403.212-47.56-101.527-110.84-192.117-190.25-271.25-71.35-71.097-152.292-129.078-242.085-174.758-5.246-2.671-9.941-6.769-14.25-10.878-49.961-47.731-99.804-95.583-149.675-143.41-6.856-6.57-13.86-12.993-20.579-19.692C709.488 9.55 701.43 2.52 690.414 0h-9.492c-2.402.98-4.805 1.95-7.207 2.93-14.11 5.718-22.52 19.8-20.125 34.8 5.547 34.872 11.992 69.59 16.941 104.54 4.649 32.878 3.391 65.769-4.578 98.152-5.41 21.976-18.691 38.519-36.594 51.91-21.972 16.449-47.343 24.77-73.211 32.527-53.437 16.032-107.07 31.602-159.843 49.621-101.504 34.629-166.418 106.641-204.504 205.079-14.102 36.461-24.598 73.921-33.418 111.929-.965 4.192-2.938 8.492-5.555 11.903-48.613 63.339-78.574 134.41-87.578 213.82-9.238 81.398 4.012 159.649 35.32 235.059.403.98.762 1.97 1.164 2.94 8.329 19.86 8.243 19.75-8.261 34.13-17.11 14.89-34.524 29.48-50.88 45.16-23.241 22.26-36.476 49.98-41.093 81.82-.215 1.49-.988 2.9-1.504 4.34v31.67c.457 1.21 1.192 2.38 1.336 3.62 2.414 20.5 9.426 39.36 20.031 56.96 108.797 180.68 217.586 361.36 326.395 542.03 7.59 12.59 16.64 24.38 29.726 31.11 11.75 6.04 24.883 9.4 37.403 13.95h665.083c.71-.33 1.39-.88 2.13-.97 31.4-3.98 52.18-22.22 68-48.55 104.03-173.2 208.48-346.14 312.41-519.4 10.23-17.04 18.34-35.42 26.5-53.59 3.26-7.27 3.97-15.68 5.84-23.57z" style="fill:#16233d;fill-opacity:1;fill-rule:nonzero;stroke:none" transform="matrix(.13333 0 0 -.13333 0 266.667)"/><path d="M825.484 1648.43c-2.804 33.2-5.519 65.36-8.242 97.58h-19.277c2-32.76 3.965-64.97 5.957-97.58zm111.739 97.39h-66.016c4.754-31.67 9.402-62.89 14.297-94.07.215-1.42 2.539-3.45 4.004-3.55 5.703-.42 11.453-.17 17.957-.17-2.352 14.08-4.531 27.15-6.883 41.27h42.781c-.625 16.09-1.172 16.65-15.261 16.65-8.438 0-16.895-.22-25.313.18-2.043.1-5.312 1.92-5.734 3.54-1.571 6.01-2.196 12.27-3.328 19.37h47.558c-1.523 6.28-2.785 11.51-4.062 16.78m-144.727 154.06c.899-13.8 1.707-27.13 2.656-40.46 2.039-28.63 4.239-57.26 6.141-85.91.293-4.37 1.777-6.03 6.184-5.91 8.425.23 16.875.07 25.312.06h43.789c-1.633 8.63-3.047 16.16-4.484 23.8-15.125 0-29.09.26-43.055-.12-5.566-.15-8.047 1.36-8.547 7.18-1.414 16.53-3.301 33.02-5.027 49.52-1.817 17.22-3.672 34.44-5.527 51.84zm-118.605-22.9c-5.457-37.08-10.711-72.84-16.082-109.31 6.699 0 12.011-.53 17.129.26 2.136.33 5.195 3.25 5.535 5.37 1.64 10.12 2.441 20.38 3.625 30.59 2.761 24.02 5.566 48.03 8.476 73.12h26.082c.586 8.32 1.106 15.51 1.653 23.28-22.063 0-43.118.09-64.172-.17-1.621-.02-4.199-2.21-4.629-3.85-1.61-6.04-2.5-12.27-3.817-19.29zm-52.625-163.25c1.336 16.68-7.461 29.4-22.637 33.05-16.621 3.99-31.359-.04-44.004-11.42-14.863-13.37-22.187-30.65-24.102-50.12-2.589-26.28 10.157-39.96 36.317-40.02 2.109 0 4.23.04 6.328.2 20.227 1.54 39.211 17.49 42.363 35.89-9.804.1-20.379 3.73-25.789-9.34-1.211-2.92-5.273-5.13-8.496-6.66-12.375-5.89-25.332-.99-28.555 10.43-4.277 15.2 5.653 42.4 18.739 50.96 12.343 8.07 28.644 3.61 29.668-10.24.07-.94.82-1.83 1.25-2.73zm70.847-47.91c.735 9.12 1.36 16.9 2.063 25.64h47.566v16.69h-46.836c.547 7.44 1.016 13.87 1.563 21.22h49.336v16.5h-67.442c-2.851-32.78-5.644-64.93-8.465-97.41h78.555v17.36zm-205.027 234.49c-18.391 0-36.008-.21-53.625.14-5.449.1-8.398-1.71-11.191-6.41-23.555-39.64-47.422-79.1-71.161-118.63-1.308-2.17-2.382-4.47-4.113-7.75 5 0 8.945.48 12.715-.1 6.836-1.07 10.383 1.97 13.477 7.79 7.687 14.4 15.812 28.59 24.277 42.55 1.515 2.51 5.43 4.74 8.398 4.96 10.762.79 21.594.54 32.395.98 2.344.1 5.789.77 6.758 2.37 3.738 6.17 6.679 12.81 10.683 20.81h-41.621c1.785 3.47 3.242 5.68 4.11 8.1 6.289 17.54 17.531 24.22 36.972 22.33 22.754-2.22 22.922-.52 31.926 22.86m498.055-109.26c.351 2.36.566 3.62.734 4.88 3.348 25.55 7.723 51.03 9.461 76.69.586 8.56-4.5 18.24-9.277 26.02-1.668 2.71-10.164 1.36-15.555 1.63-3.945.21-7.91.04-11.867.04h-32.801c2.109-6.55 4.051-11.7 5.391-17.01 1.211-4.8 3.515-6.71 8.75-6.51 11.472.44 22.968.14 36.336.14-4.208-24.31-7.235-47.28-12.469-69.74-2.785-11.95-2.492-22.51 2.051-33.62 1.757-4.28 3.574-6.09 8.378-6.02 19.5.28 39.017.12 58.517.11h12.44c-2.63 6.09-5.08 10.74-6.66 15.68-1.99 6.21-5.64 8.13-12.15 7.87-13.58-.54-27.217-.16-41.279-.16m67.589-23.08h20.58c-2.11 9.02-4.13 17.6-6.26 26.73 19.41.89 39.01 5.48 49.59-16.98 1.3-2.78 3.77-5.08 5.97-7.33 1.18-1.21 2.94-2.5 4.49-2.57 6.47-.28 12.95-.12 20.54-.12-1.34 2.12-1.89 3.24-2.65 4.18-34.33 41.72-68.65 83.43-103.07 125.06-1.32 1.59-3.68 3.03-5.66 3.2-5.14.45-10.34.16-14.9.16 10.53-44.41 20.89-88.13 31.37-132.33m-296.386 132.34c-2.403 0-5.606-.39-8.664.08-7.715 1.2-10.516-2.13-12.754-9.53-11.563-38.26-23.926-76.29-36.004-114.4-.832-2.63-1.633-5.27-2.512-8.08 22.012-2.61 22.012-2.61 28.125 17.14.539 1.77.625 3.93 1.731 5.19 1.621 1.84 3.914 4.2 6.035 4.31 8.945.48 17.949.53 26.875-.02 2.265-.14 5.457-2.67 6.316-4.84 2.219-5.59 3.145-11.68 5.039-17.42.625-1.9 2.512-4.67 3.996-4.78 6.661-.52 13.379-.23 19.871-.23-12.773 44.49-25.234 87.9-38.054 132.58m205.117-132.64c-1.984 6.45-3.918 11.59-5.098 16.91-1.164 5.24-3.633 7.2-9.218 7.02-13.692-.43-27.415-.24-41.114-.04-2.324.04-6.301.9-6.66 2.19-2.91 10.34-5.137 20.87-7.773 32.23h45.136c-1.945 6.5-3.957 12.19-5.304 18.04-.977 4.29-3.328 5.24-7.313 5.17-10.812-.2-21.621-.23-32.422.08-2.14.06-5.636 1.52-6.086 3.04-2.265 7.73-3.73 15.7-5.703 24.6h45c-2.664 8.44-4.988 15.8-7.246 22.97h-60.359c8.387-42.87 16.621-85.22 25.176-127.5.378-1.88 3.718-4.48 5.722-4.5 23.965-.32 47.938-.21 73.262-.21m-343.516 63.47c16.121 9.76 21.016 24.36 22.618 40.75 1.894 19.38-5.997 28.42-24.973 28.42-10.555.01-21.113-.22-31.649.11-4.531.14-6.347-1.53-7.726-5.73-13.25-40.23-26.746-80.39-40.106-120.57-.617-1.83-.675-3.84-1.105-6.46 4.309 0 7.766.38 11.105-.07 7.481-1.01 11.153 1.55 13.055 9.35 3.477 14.27 8.32 28.2 12.695 42.61 8.039 0 15.676.23 23.282-.08 5.597-.22 8.906-3.34 8.234-9.24-.586-5.21-1.641-10.37-2.551-15.54-1.511-8.66-3.066-17.31-4.617-26.1H621c0 7.33-.437 13.75.129 20.08.496 5.47 2.148 10.84 3.242 16.26 1.883 9.32 2.52 18.39-6.426 26.21m-136.242-66.96c8.235.12 22.121 5.7 34.043 16.17 16.719 14.67 27.082 33.38 33.945 54.23 5.391 16.34 9.797 32.83 6.192 50.31-2.625 12.79-10.106 19.29-22.899 19.64-11.261.32-21.379-3.36-30.129-10.1-31.062-23.96-50.488-55.72-58.835-93.66-5.344-24.27 5.828-36.64 37.683-36.59M724.848 294.852c.539 3.886 1.367 7.777 1.582 11.687 1.582 29.82.519 59.441-4.364 89.031-5.871 35.559-23.41 63.219-52.5 84.032-22.773 16.296-47.851 28.058-74.855 34.66-28.594 6.988-57.793 11.418-86.57 17.679-82.942 18.039-160.598 48.661-230.266 97.981-.918.648-2.051.969-5.059 2.348 6.164-13.809 11.243-25.872 16.868-37.661 15.41-32.32 33.476-62.769 61.101-86.519 23.125-19.879 49.649-34.192 78.215-43.692 50.906-16.929 102.266-32.57 153.758-47.66 31.75-9.308 62.941-19.347 90.226-38.726 28.7-20.383 49.532-45.711 51.864-83.16M728.5 1515.92c0 14.25.051 28.49-.008 42.73-.109 26.54-17.629 50.27-43.183 58.05-21.993 6.68-42.871 2.58-62.5-8.2-12.11-6.64-23.684-7.68-35.989-.96-30.105 16.44-60.398 16.5-90.554.16-11.953-6.48-23.293-6.15-35.266.31-29.59 15.96-59.551 15.93-89.129-.04-12.297-6.64-23.547-5.96-36.055-.06-10.8 5.09-22.531 9.24-34.269 11.08-33.875 5.3-64.832-16.17-70.957-49.24-2.227-12.04-.82-24.71-1.582-37.05-.34-5.55 1.972-7.64 6.855-9.51 88.723-33.99 177.434-68.01 265.989-102.43 28.769-11.19 56.464-11.23 83.593 4.26 12.606 7.19 24.891 6.93 37.442-.39 12.285-7.17 25.742-10.45 39.961-11.02 36.699-1.49 65.613 26.05 65.652 62.74.012 13.19 0 26.38 0 39.57m37.852 1.31c0-14.25-.125-28.5.031-42.75.312-27.43 19.109-51.85 45.75-58.64 19.992-5.09 39.601-2.44 57.422 7.6 14.883 8.38 28.351 8.37 43.203.1 23.672-13.19 48.722-14.58 74.043-4.89 91.249 34.95 182.429 70.08 273.689 105.02 4.21 1.61 5.44 3.96 5.32 8.21-.27 8.96.15 17.95-.13 26.91-.75 24.22-11.85 42.52-33.24 53.63-24.42 12.68-48.76 8.64-71.94-3.7-13.06-6.96-24.98-7.45-38.15-.38-29.38 15.76-59.14 15.44-88.45-.4-12.26-6.63-23.75-6.45-36.005.16-29.344 15.83-59.082 15.83-88.446.06-12.238-6.57-23.488-6.43-36.086-.46-10.789 5.11-22.48 9.37-34.218 11.24-39.434 6.29-72.676-22.96-72.782-62.92-.039-12.93-.011-25.86-.011-38.79m561.818-491.41c-1.68-9.02-2.8-18.18-5.13-27.019-22.18-84.102-75.76-136.653-159.9-157.961-69.71-17.649-139.52-34.828-209.238-52.379-28.281-7.121-44.113-34.332-36.757-62.152 3.347-12.68 12.578-21.047 21.023-30.079 44.953-48.05 68.492-105.089 70.502-170.73 1.87-60.801-13.842-117.879-38.451-172.891-1.426-3.179-2.891-6.339-4.336-9.507.871-.411 1.75-.832 2.617-1.243 227.89 170.813 348.09 398.563 359.67 683.961M756.5 165.09c3.855 5.832 7.168 11.879 11.434 17.148 28.535 35.242 56.339 71.133 86.152 105.262 54.375 62.281 86.926 133.309 91.719 216.359 3.867 66.891-19.18 122.5-70.223 166.051-42.023 35.852-91.582 57.211-144.355 70.699-132.942 33.969-266.172 66.762-399.258 100.172-81.914 20.559-135.176 71.309-158.535 152.571-4.161 14.498-5.45 29.828-8.196 45.478-5.976-31.46-9.023-62.459-7.285-93.998 4.824-87.293 41.172-159.73 103.145-220.082 45.8-44.602 99.738-76.609 158.703-100.461 39.179-15.848 79.422-28.5 121.258-34.801 46.425-6.988 91.445-17.968 133.41-39.636 59.336-30.633 97.617-77.102 109.883-143.954 10.41-56.769 7.39-112.937-6.25-168.597-5.93-24.18-14.211-47.781-21.602-72.211m-28.43 1240.17c-3.211-2.43-5.586-4.38-8.113-6.11-35.527-24.21-72.051-20.63-108.789-3.39-5.371 2.52-9.414 2.77-14.668.02-18.965-9.94-39.238-17.13-60.664-14.37-17.297 2.22-34.191 7.98-51.047 12.92-9.969 2.92-19.531 7.3-29.414 11.07-14.07-38.45-42.754-58.84-80.086-68.23-52.16-13.11-101.387-1.43-149.004 20.01-3.371 1.52-6.789 7.27-6.828 11.1-.144 14.14 9.609 20.33 22.766 15.43 4.941-1.85 9.824-3.81 14.715-5.74 26.828-10.59 54.55-15.97 83.468-14.61 21.434 1 41.621 6.07 59.774 18 9.648 6.34 14.933 14.75 13.261 26.61-1.57 11.24-8.867 17.19-18.972 21.05-56.817 21.74-113.547 43.68-170.324 65.51-23.641 9.08-40.118 3.51-53.075-17.99a58151 58151 0 0 1-65.207-108.42c-17.234-28.76-13.484-51.41 11.907-73.47 32.05-27.85 63.875-55.97 96.14-83.58 10.664-9.13 15.422-19.92 15.324-33.86-.304-43.8-.226-87.6-.078-131.41.203-61.972 37.129-115.409 94.903-137.601 4.519-1.738 9.218-2.988 14.089-4.551.832 3.711 1.543 6.25 1.954 8.832 10.234 64.508 35.285 122.72 74.238 175.04 1.875 2.52 3.625 5.84 6.23 6.99 16.973 7.56 34.18 14.63 51.914 22.11.442-2.37.84-3.59.86-4.82.742-47.21 1.543-94.41 1.953-141.609.031-3.472-2.031-7.57-4.363-10.332-19.375-22.988-39.063-45.73-58.614-68.57-1.261-1.469-2.226-3.187-3.644-5.25 69.953-17.48 139.035-34.73 209.14-52.25-.664 2.801-.867 4.039-1.257 5.231-9.036 27.8-17.961 55.628-27.239 83.351-1.922 5.75-1.336 9.039 4.075 12.918 43.3 31.02 86.25 62.539 129.46 93.701 4.063 2.93 5.793 5.81 5.774 10.93-.227 40.9-.129 81.8-.149 122.7 0 2.34-.214 4.67-.332 7.19-43.503 10.49-86.648 20.89-130.261 31.4 16.824 23.6 33.816 45.11 65.136 46.53 3.387.15 6.719 1.31 10.106 1.77 18.203 2.48 36.426 4.88 54.941 7.36zm293.2-288.22c17.11-7.11 32.44-13.2 47.5-19.91 4.09-1.83 8.18-4.9 10.86-8.46 32.79-43.46 56.31-91.4 68.79-144.529 3.11-13.211 5.69-26.551 8.54-39.961 1.49.179 2.57.172 3.55.461 61.21 17.398 105.08 75.23 105.2 138.809.09 43.8.26 87.61-.11 131.41-.14 15.31 4.71 27.19 16.64 37.32 33.59 28.5 66.63 57.62 99.72 86.7 18.6 16.34 23.43 41.58 11.16 62.39-23.68 40.2-47.85 80.11-72.18 119.92-9.46 15.49-27.23 21.75-44.08 15.36-60.08-22.76-120.07-45.75-179.92-69.09-18.29-7.14-21.59-30.25-6.37-42.6 5.86-4.75 12.67-8.66 19.6-11.68 27.59-12.01 56.62-12.86 85.37-6.93 20.25 4.18 39.74 11.95 59.53 18.21 9.81 3.09 15.44.42 19.17-9.36 3.6-9.45 1.49-15.52-7.51-19.32-34.75-14.67-70.47-25.3-108.73-23.9-33.73 1.23-65.11 9.46-91.24 32.33-12.74 11.16-21.33 25.13-27.18 41.22-13.84-5.29-27.14-10.27-40.377-15.44-33.281-13.01-66.015-12.19-97.801 4.48-7.324 3.85-12.91 3.33-20.449 0-38.906-17.21-76.945-19.21-112.129 9.58-.429.35-1.386.05-1.906.05v-146.6c24.375-3.85 48.008-7.65 71.66-11.29 17.207-2.65 32.031-8.82 42.051-24.33 4.582-7.09 11.047-12.96 17.559-20.42-45.118-10.88-88.438-21.33-131.836-31.79 0-43.72.097-86.45-.125-129.19-.032-5.37 1.746-8.47 6.035-11.57 43.426-31.308 86.64-62.91 130.058-94.23 4.325-3.121 5.653-5.692 3.75-10.981-4.824-13.371-8.898-27.008-13.293-40.527-5.175-15.934-10.371-31.863-16.121-49.492 70.77 17.64 140.004 34.902 210.174 52.402-2.44 3.039-4 5.098-5.68 7.059-18.89 22.031-37.89 43.961-56.57 66.16-2.48 2.929-4.75 7.219-4.73 10.879.18 36.39.92 72.78 1.4 109.17.15 12.04.02 24.07.02 37.69M686.801 36.75c3.039 18.129 6.094 36.27 9.113 54.398 5.242 31.454 11.27 62.801 9.93 94.954-.965 23.218-2.5 46.367-9.551 68.687-13.523 42.871-44.891 69.422-84.531 85.289-32.86 13.16-67.84 20.981-101.582 32.051-41.739 13.691-83.809 26.723-124.598 42.883-66.406 26.328-113.262 74.207-145.168 137.84-23.953 47.75-38.867 98.277-50.664 150.039-1.395 6.14-4.297 12.5-8.164 17.461-43.203 55.378-71.309 117.386-81.68 186.957-12.293 82.543 1.074 161.651 33.645 237.951 4.648 10.9 8.945 21.96 14.023 32.65 2.266 4.77 1.375 7.25-2.461 10.55-23.828 20.43-47.492 41.06-71.066 61.78-44.871 39.45-53.68 96.62-22.879 147.8 107.539 178.65 215.215 357.22 322.461 536.04 13.574 22.62 31.746 33.06 58.309 33.01 210.859-.41 421.718-.36 632.582-.06 25.23.04 42.96-9.98 55.9-31.54 108.02-179.88 216.38-359.57 324.6-539.35 29.28-48.64 19.95-107.66-22.75-144.79-13.52-11.78-26.92-23.71-40.69-35.2-4.64-3.88-5.83-7.77-4.82-13.67 11.75-68.32 16.77-137.13 13.03-206.402-10.1-186.437-70.53-354.988-181.85-504.898-85.09-114.59-191.83-203.93-318.932-268.871-9.258-4.731-17.266-10.45-24.785-17.739-52.852-51.211-106.082-102.019-159.2-152.949-5.468-5.242-10.957-10.473-16.433-15.691-.598.27-1.192.539-1.789.82" style="fill:#fff;fill-opacity:1;fill-rule:nonzero;stroke:none" transform="matrix(.13333 0 0 -.13333 0 266.667)"/><path d="M1021.27 1117.04c0-13.62.13-25.65-.02-37.69-.48-36.39-1.22-72.78-1.4-109.17-.02-3.66 2.25-7.95 4.73-10.879 18.68-22.199 37.68-44.129 56.57-66.16 1.68-1.961 3.24-4.02 5.68-7.059-70.17-17.5-139.404-34.762-210.174-52.402 5.75 17.629 10.946 33.558 16.121 49.492 4.395 13.519 8.469 27.156 13.293 40.527 1.903 5.289.575 7.86-3.75 10.981-43.418 31.32-86.632 62.922-130.058 94.23-4.289 3.1-6.067 6.2-6.035 11.57.222 42.74.125 85.47.125 129.19 43.398 10.46 86.718 20.91 131.836 31.79-6.512 7.46-12.977 13.33-17.559 20.42-10.02 15.51-24.844 21.68-42.051 24.33-23.652 3.64-47.285 7.44-71.66 11.29v146.6c.52 0 1.477.3 1.906-.05 35.184-28.79 73.223-26.79 112.129-9.58 7.539 3.33 13.125 3.85 20.449 0 31.786-16.67 64.52-17.49 97.801-4.48 13.237 5.17 26.537 10.15 40.377 15.44 5.85-16.09 14.44-30.06 27.18-41.22 26.13-22.87 57.51-31.1 91.24-32.33 38.26-1.4 73.98 9.23 108.73 23.9 9 3.8 11.11 9.87 7.51 19.32-3.73 9.78-9.36 12.45-19.17 9.36-19.79-6.26-39.28-14.03-59.53-18.21-28.75-5.93-57.78-5.08-85.37 6.93-6.93 3.02-13.74 6.93-19.6 11.68-15.22 12.35-11.92 35.46 6.37 42.6 59.85 23.34 119.84 46.33 179.92 69.09 16.85 6.39 34.62.13 44.08-15.36 24.33-39.81 48.5-79.72 72.18-119.92 12.27-20.81 7.44-46.05-11.16-62.39-33.09-29.08-66.13-58.2-99.72-86.7-11.93-10.13-16.78-22.01-16.64-37.32.37-43.8.2-87.61.11-131.41-.12-63.579-43.99-121.411-105.2-138.809-.98-.289-2.06-.282-3.55-.461-2.85 13.41-5.43 26.75-8.54 39.961-12.48 53.129-36 101.069-68.79 144.529-2.68 3.56-6.77 6.63-10.86 8.46-15.06 6.71-30.39 12.8-47.5 19.91M728.07 1405.26v-148.39c-18.515-2.48-36.738-4.88-54.941-7.36-3.387-.46-6.719-1.62-10.106-1.77-31.32-1.42-48.312-22.93-65.136-46.53 43.613-10.51 86.758-20.91 130.261-31.4.118-2.52.332-4.85.332-7.19.02-40.9-.078-81.8.149-122.7.019-5.12-1.711-8-5.774-10.93-43.21-31.162-86.16-62.681-129.46-93.701-5.411-3.879-5.997-7.168-4.075-12.918 9.278-27.723 18.203-55.551 27.239-83.351.39-1.192.593-2.43 1.257-5.231-70.105 17.52-139.187 34.77-209.14 52.25 1.418 2.063 2.383 3.781 3.644 5.25 19.551 22.84 39.239 45.582 58.614 68.57 2.332 2.762 4.394 6.86 4.363 10.332-.41 47.199-1.211 94.399-1.953 141.609-.02 1.23-.418 2.45-.86 4.82-17.734-7.48-34.941-14.55-51.914-22.11-2.605-1.15-4.355-4.47-6.23-6.99-38.953-52.32-64.004-110.532-74.238-175.04-.411-2.582-1.122-5.121-1.954-8.832-4.871 1.563-9.57 2.813-14.089 4.551-57.774 22.192-94.7 75.629-94.903 137.601-.148 43.81-.226 87.61.078 131.41.098 13.94-4.66 24.73-15.324 33.86-32.265 27.61-64.09 55.73-96.14 83.58-25.391 22.06-29.141 44.71-11.907 73.47 21.692 36.17 43.438 72.3 65.207 108.42 12.957 21.5 29.434 27.07 53.075 17.99 56.777-21.83 113.507-43.77 170.324-65.51 10.105-3.86 17.402-9.81 18.972-21.05 1.672-11.86-3.613-20.27-13.261-26.61-18.153-11.93-38.34-17-59.774-18-28.918-1.36-56.64 4.02-83.468 14.61-4.891 1.93-9.774 3.89-14.715 5.74-13.157 4.9-22.91-1.29-22.766-15.43.039-3.83 3.457-9.58 6.828-11.1 47.617-21.44 96.844-33.12 149.004-20.01 37.332 9.39 66.016 29.78 80.086 68.23 9.883-3.77 19.445-8.15 29.414-11.07 16.856-4.94 33.75-10.7 51.047-12.92 21.426-2.76 41.699 4.43 60.664 14.37 5.254 2.75 9.297 2.5 14.668-.02 36.738-17.24 73.262-20.82 108.789 3.39 2.527 1.73 4.902 3.68 8.113 6.11" style="fill:#16233d;fill-opacity:1;fill-rule:nonzero;stroke:none" transform="matrix(.13333 0 0 -.13333 0 266.667)"/><path d="M756.5 165.09c7.391 24.43 15.672 48.031 21.602 72.211 13.64 55.66 16.66 111.828 6.25 168.597-12.266 66.852-50.547 113.321-109.883 143.954-41.965 21.668-86.985 32.648-133.41 39.636-41.836 6.301-82.079 18.953-121.258 34.801-58.965 23.852-112.903 55.859-158.703 100.461-61.973 60.352-98.321 132.789-103.145 220.082-1.738 31.539 1.309 62.538 7.285 93.998 2.746-15.65 4.035-30.98 8.196-45.478 23.359-81.262 76.621-132.012 158.535-152.571 133.086-33.41 266.316-66.203 399.258-100.172C784 727.121 833.559 705.762 875.582 669.91c51.043-43.551 74.09-99.16 70.223-166.051-4.793-83.05-37.344-154.078-91.719-216.359-29.813-34.129-57.617-70.02-86.152-105.262-4.266-5.269-7.579-11.316-11.434-17.148" style="fill:#bc183d;fill-opacity:1;fill-rule:nonzero;stroke:none" transform="matrix(.13333 0 0 -.13333 0 266.667)"/><path d="M1328.17 1025.82c-11.58-285.398-131.78-513.148-359.67-683.961-.867.411-1.746.832-2.617 1.243 1.445 3.168 2.91 6.328 4.336 9.507 24.609 55.012 40.321 112.09 38.451 172.891-2.01 65.641-25.549 122.68-70.502 170.73-8.445 9.032-17.676 17.399-21.023 30.079-7.356 27.82 8.476 55.031 36.757 62.152 69.718 17.551 139.528 34.73 209.238 52.379 84.14 21.308 137.72 73.859 159.9 157.961 2.33 8.839 3.45 17.999 5.13 27.019" style="fill:#bc183d;fill-opacity:1;fill-rule:nonzero;stroke:none" transform="matrix(.13333 0 0 -.13333 0 266.667)"/><path d="M766.352 1517.23c0 12.93-.028 25.86.011 38.79.106 39.96 33.348 69.21 72.782 62.92 11.738-1.87 23.429-6.13 34.218-11.24 12.598-5.97 23.848-6.11 36.086.46 29.364 15.77 59.102 15.77 88.446-.06 12.255-6.61 23.745-6.79 36.005-.16 29.31 15.84 59.07 16.16 88.45.4 13.17-7.07 25.09-6.58 38.15.38 23.18 12.34 47.52 16.38 71.94 3.7 21.39-11.11 32.49-29.41 33.24-53.63.28-8.96-.14-17.95.13-26.91.12-4.25-1.11-6.6-5.32-8.21-91.26-34.94-182.44-70.07-273.689-105.02-25.321-9.69-50.371-8.3-74.043 4.89-14.852 8.27-28.32 8.28-43.203-.1-17.821-10.04-37.43-12.69-57.422-7.6-26.641 6.79-45.438 31.21-45.75 58.64-.156 14.25-.031 28.5-.031 42.75M728.5 1515.92c0-13.19.012-26.38 0-39.57-.039-36.69-28.953-64.23-65.652-62.74-14.219.57-27.676 3.85-39.961 11.02-12.551 7.32-24.836 7.58-37.442.39-27.129-15.49-54.824-15.45-83.593-4.26-88.555 34.42-177.266 68.44-265.989 102.43-4.883 1.87-7.195 3.96-6.855 9.51.762 12.34-.645 25.01 1.582 37.05 6.125 33.07 37.082 54.54 70.957 49.24 11.738-1.84 23.469-5.99 34.269-11.08 12.508-5.9 23.758-6.58 36.055.06 29.578 15.97 59.539 16 89.129.04 11.973-6.46 23.313-6.79 35.266-.31 30.156 16.34 60.449 16.28 90.554-.16 12.305-6.72 23.879-5.68 35.989.96 19.629 10.78 40.507 14.88 62.5 8.2 25.554-7.78 43.074-31.51 43.183-58.05.059-14.24.008-28.48.008-42.73" style="fill:#16233d;fill-opacity:1;fill-rule:nonzero;stroke:none" transform="matrix(.13333 0 0 -.13333 0 266.667)"/><path d="M724.848 294.852c-2.332 37.449-23.164 62.777-51.864 83.16-27.285 19.379-58.476 29.418-90.226 38.726-51.492 15.09-102.852 30.731-153.758 47.66-28.566 9.5-55.09 23.813-78.215 43.692-27.625 23.75-45.691 54.199-61.101 86.519-5.625 11.789-10.704 23.852-16.868 37.661 3.008-1.379 4.141-1.7 5.059-2.348 69.668-49.32 147.324-79.942 230.266-97.981 28.777-6.261 57.976-10.691 86.57-17.679 27.004-6.602 52.082-18.364 74.855-34.66 29.09-20.813 46.629-48.473 52.5-84.032 4.883-29.59 5.946-59.211 4.364-89.031-.215-3.91-1.043-7.801-1.582-11.687" style="fill:#bc183d;fill-opacity:1;fill-rule:nonzero;stroke:none" transform="matrix(.13333 0 0 -.13333 0 266.667)"/><path d="M535.445 1858.11c.36 15.84-4.355 23.18-13.058 22.77-4.774-.23-10.242-1.69-14.012-4.47-24.016-17.68-36.484-42.51-40.879-71.31-1.808-11.84 7.012-19.65 18.711-16.9 7.578 1.78 15.664 5.68 21.199 11.03 17.598 16.98 24.844 39.18 28.039 58.88m-53.742-93.93c-31.855-.05-43.027 12.32-37.683 36.59 8.347 37.94 27.773 69.7 58.835 93.66 8.75 6.74 18.868 10.42 30.129 10.1 12.793-.35 20.274-6.85 22.899-19.64 3.605-17.48-.801-33.97-6.192-50.31-6.863-20.85-17.226-39.56-33.945-54.23-11.922-10.47-25.808-16.05-34.043-16.17M578.539 1841.72c6.731 0 12.219.37 17.649-.06 17.742-1.41 23.261 10.23 24.121 26.11.144 2.88-3.477 8.12-6.028 8.59-7.402 1.36-15.144.93-22.761.96-.95.01-2.454-1.26-2.766-2.23-3.387-10.7-6.602-21.46-10.215-33.37m39.406-10.58c8.946-7.82 8.309-16.89 6.426-26.21-1.094-5.42-2.746-10.79-3.242-16.26-.566-6.33-.129-12.75-.129-20.08h-24.793c1.551 8.79 3.106 17.44 4.617 26.1.91 5.17 1.965 10.33 2.551 15.54.672 5.9-2.637 9.02-8.234 9.24-7.606.31-15.243.08-23.282.08-4.375-14.41-9.218-28.34-12.695-42.61-1.902-7.8-5.574-10.36-13.055-9.35-3.339.45-6.796.07-11.105.07.43 2.62.488 4.63 1.105 6.46 13.36 40.18 26.856 80.34 40.106 120.57 1.379 4.2 3.195 5.87 7.726 5.73 10.536-.33 21.094-.1 31.649-.11 18.976 0 26.867-9.04 24.973-28.42-1.602-16.39-6.497-30.99-22.618-40.75M961.461 1767.67c-25.324 0-49.297-.11-73.262.21-2.004.02-5.344 2.62-5.722 4.5-8.555 42.28-16.789 84.63-25.176 127.5h60.359c2.258-7.17 4.582-14.53 7.246-22.97h-45c1.973-8.9 3.438-16.87 5.703-24.6.45-1.52 3.946-2.98 6.086-3.04 10.801-.31 21.61-.28 32.422-.08 3.985.07 6.336-.88 7.313-5.17 1.347-5.85 3.359-11.54 5.304-18.04h-45.136c2.636-11.36 4.863-21.89 7.773-32.23.359-1.29 4.336-2.15 6.66-2.19 13.699-.2 27.422-.39 41.114.04 5.585.18 8.054-1.78 9.218-7.02 1.18-5.32 3.114-10.46 5.098-16.91M734.242 1818.45h24.141c-3.641 16.22-7.149 31.84-10.664 47.47-.449-.08-.899-.15-1.348-.22-3.953-15.43-7.918-30.87-12.129-47.25m22.102 81.86c12.82-44.68 25.281-88.09 38.054-132.58-6.492 0-13.21-.29-19.871.23-1.484.11-3.371 2.88-3.996 4.78-1.894 5.74-2.82 11.83-5.039 17.42-.859 2.17-4.051 4.7-6.316 4.84-8.926.55-17.93.5-26.875.02-2.121-.11-4.414-2.47-6.035-4.31-1.106-1.26-1.192-3.42-1.731-5.19-6.113-19.75-6.113-19.75-28.125-17.14.879 2.81 1.68 5.45 2.512 8.08 12.078 38.11 24.441 76.14 36.004 114.4 2.238 7.4 5.039 10.73 12.754 9.53 3.058-.47 6.261-.08 8.664-.08M1048.03 1866.02c-.29-.14-.59-.3-.89-.45 4.23-14.81 8.41-29.63 12.79-44.4.36-1.23 1.96-2.92 3.04-2.96 6.62-.28 13.24-.14 21.41-.14-12.94 17.07-24.64 32.51-36.35 47.95m4.7-98.05c-10.48 44.2-20.84 87.92-31.37 132.33 4.56 0 9.76.29 14.9-.16 1.98-.17 4.34-1.61 5.66-3.2 34.42-41.63 68.74-83.34 103.07-125.06.76-.94 1.31-2.06 2.65-4.18-7.59 0-14.07-.16-20.54.12-1.55.07-3.31 1.36-4.49 2.57-2.2 2.25-4.67 4.55-5.97 7.33-10.58 22.46-30.18 17.87-49.59 16.98 2.13-9.13 4.15-17.71 6.26-26.73zM985.141 1791.05c14.062 0 27.699-.38 41.279.16 6.51.26 10.16-1.66 12.15-7.87 1.58-4.94 4.03-9.59 6.66-15.68h-12.44c-19.5.01-39.017.17-58.517-.11-4.804-.07-6.621 1.74-8.378 6.02-4.543 11.11-4.836 21.67-2.051 33.62 5.234 22.46 8.261 45.43 12.469 69.74-13.368 0-24.864.3-36.336-.14-5.235-.2-7.539 1.71-8.75 6.51-1.34 5.31-3.282 10.46-5.391 17.01h32.801c3.957 0 7.922.17 11.867-.04 5.391-.27 13.887 1.08 15.555-1.63 4.777-7.78 9.863-17.46 9.277-26.02-1.738-25.66-6.113-51.14-9.461-76.69-.168-1.26-.383-2.52-.734-4.88" style="fill:#16233d;fill-opacity:1;fill-rule:nonzero;stroke:none" transform="matrix(.13333 0 0 -.13333 0 266.667)"/><path d="M487.086 1900.31c-9.004-23.38-9.172-25.08-31.926-22.86-19.441 1.89-30.683-4.79-36.972-22.33-.868-2.42-2.325-4.63-4.11-8.1h41.621c-4.004-8-6.945-14.64-10.683-20.81-.969-1.6-4.414-2.27-6.758-2.37-10.801-.44-21.633-.19-32.395-.98-2.968-.22-6.883-2.45-8.398-4.96-8.465-13.96-16.59-28.15-24.277-42.55-3.094-5.82-6.641-8.86-13.477-7.79-3.77.58-7.715.1-12.715.1 1.731 3.28 2.805 5.58 4.113 7.75 23.739 39.53 47.606 78.99 71.161 118.63 2.793 4.7 5.742 6.51 11.191 6.41 17.617-.35 35.234-.14 53.625-.14M692.113 1665.82h56.34v-17.36h-78.555c2.821 32.48 5.614 64.63 8.465 97.41h67.442v-16.5h-49.336c-.547-7.35-1.016-13.78-1.563-21.22h46.836v-16.69h-47.566c-.703-8.74-1.328-16.52-2.063-25.64M621.266 1713.73h-18.918c-.43.9-1.18 1.79-1.25 2.73-1.024 13.85-17.325 18.31-29.668 10.24-13.086-8.56-23.016-35.76-18.739-50.96 3.223-11.42 16.18-16.32 28.555-10.43 3.223 1.53 7.285 3.74 8.496 6.66 5.41 13.07 15.985 9.44 25.789 9.34-3.152-18.4-22.136-34.35-42.363-35.89-2.098-.16-4.219-.2-6.328-.2-26.16.06-38.906 13.74-36.317 40.02 1.915 19.47 9.239 36.75 24.102 50.12 12.645 11.38 27.383 15.41 44.004 11.42 15.176-3.65 23.973-16.37 22.637-33.05M673.891 1876.98h-26.2c1.317 7.02 2.207 13.25 3.817 19.29.43 1.64 3.008 3.83 4.629 3.85 21.054.26 42.109.17 64.172.17-.547-7.77-1.067-14.96-1.653-23.28h-26.082c-2.91-25.09-5.715-49.1-8.476-73.12-1.184-10.21-1.985-20.47-3.625-30.59-.34-2.12-3.399-5.04-5.535-5.37-5.118-.79-10.43-.26-17.129-.26 5.371 36.47 10.625 72.23 16.082 109.31M792.496 1899.88h17.442c1.855-17.4 3.71-34.62 5.527-51.84 1.726-16.5 3.613-32.99 5.027-49.52.5-5.82 2.981-7.33 8.547-7.18 13.965.38 27.93.12 43.055.12 1.437-7.64 2.851-15.17 4.484-23.8h-43.789c-8.437.01-16.887.17-25.312-.06-4.407-.12-5.891 1.54-6.184 5.91-1.902 28.65-4.102 57.28-6.141 85.91-.949 13.33-1.757 26.66-2.656 40.46M937.223 1745.82c1.277-5.27 2.539-10.5 4.062-16.78h-47.558c1.132-7.1 1.757-13.36 3.328-19.37.422-1.62 3.691-3.44 5.734-3.54 8.418-.4 16.875-.18 25.313-.18 14.089 0 14.636-.56 15.261-16.65h-42.781c2.352-14.12 4.531-27.19 6.883-41.27-6.504 0-12.254-.25-17.957.17-1.465.1-3.789 2.13-4.004 3.55-4.895 31.18-9.543 62.4-14.297 94.07zM825.484 1648.43h-21.562c-1.992 32.61-3.957 64.82-5.957 97.58h19.277c2.723-32.22 5.438-64.38 8.242-97.58" style="fill:#16233d;fill-opacity:1;fill-rule:nonzero;stroke:none" transform="matrix(.13333 0 0 -.13333 0 266.667)"/><path d="M535.445 1858.11c-3.195-19.7-10.441-41.9-28.039-58.88-5.535-5.35-13.621-9.25-21.199-11.03-11.699-2.75-20.519 5.06-18.711 16.9 4.395 28.8 16.863 53.63 40.879 71.31 3.77 2.78 9.238 4.24 14.012 4.47 8.703.41 13.418-6.93 13.058-22.77M578.539 1841.72c3.613 11.91 6.828 22.67 10.215 33.37.312.97 1.816 2.24 2.766 2.23 7.617-.03 15.359.4 22.761-.96 2.551-.47 6.172-5.71 6.028-8.59-.86-15.88-6.379-27.52-24.121-26.11-5.43.43-10.918.06-17.649.06M734.242 1818.45c4.211 16.38 8.176 31.82 12.129 47.25.449.07.899.14 1.348.22 3.515-15.63 7.023-31.25 10.664-47.47zM1048.03 1866.02c11.71-15.44 23.41-30.88 36.35-47.95-8.17 0-14.79-.14-21.41.14-1.08.04-2.68 1.73-3.04 2.96-4.38 14.77-8.56 29.59-12.79 44.4.3.15.6.31.89.45" style="fill:#fff;fill-opacity:1;fill-rule:nonzero;stroke:none" transform="matrix(.13333 0 0 -.13333 0 266.667)"/><path d="M630.152 1668.47h20.821l-1.621-21.02h-20.411zM764.781 1668.47h20.352v-21.16h-20.352zM842.914 1668.47h20.52l3.339-20.42H844.43zM952.984 1668.37h20.926l5.254-20.52h-22.137z" style="fill:#16233d;fill-opacity:1;fill-rule:nonzero;stroke:none" transform="matrix(.13333 0 0 -.13333 0 266.667)"/></svg>