<svg xmlns="http://www.w3.org/2000/svg" xml:space="preserve" viewBox="20.55 15.26 216.91 236.28"><path d="M1261.43 271.73c-131.84-11.191-215.52-54.402-262.137-90.949-14.055-9.98-23.41-20.34-32.148-29.402l-.625.992c-37.852 38.207-124.817 104.789-294.375 120.957-303.868 25.922-468.379 248.613-467.657 442.781.223 113.352 55.899 204.442 108.739 293.341 47.578 77.17 91.964 151.84 92.324 232.83.265 143.4-97.403 290.01-132.293 336.82 19.59 24.08 138.992 171.52 160.156 198.14 44.473-21.58 156.543-72.81 268.934-73.18 117.394-.31 230.461 54.3 268.625 74.04h.449c7.156-3.58 18.055-8.85 31.998-16.59 51.99-24.12 142.06-58.64 236.67-58.88 112.08-.27 224.88 50.32 267.91 71.89 20.62-26.79 140.74-174.78 160.24-199.16-34.75-46.66-135.13-192.46-135.72-336.27 0-80.86 44.16-155.74 91.02-233.24 52.93-89.311 108.25-180.479 107.94-293.952-.59-194.187-166.32-415.636-470.05-440.168" style="fill:#fff;fill-opacity:1;fill-rule:evenodd;stroke:none" transform="matrix(.13333 0 0 -.13333 0 261.227)"/><path d="M1261.43 276.879c-131.84-11.231-215.52-54.43-262.137-90.949-14.055-10.008-23.41-20.371-32.148-29.41l-.625 1.011c-37.852 38.16-124.817 104.758-294.375 120.918C368.277 304.391 203.766 527.09 204.488 721.23c.223 113.36 55.899 204.461 108.739 293.34 47.578 77.18 91.964 151.86 92.324 232.85.265 143.4-97.403 289.99-132.293 336.81 19.59 24.09 138.992 171.53 160.156 198.13 44.473-21.58 156.543-72.82 268.934-73.16 117.394-.32 230.461 54.26 268.625 74.03h.449c7.156-3.62 18.055-8.84 31.998-16.6 51.99-24.11 142.06-58.63 236.67-58.86 112.08-.29 224.88 50.3 267.91 71.84 20.62-26.75 140.74-174.75 160.24-199.11-34.75-46.68-135.13-192.47-135.72-336.29 0-80.85 44.16-155.74 91.02-233.25 52.93-89.28 108.25-180.448 107.94-293.929-.59-194.199-166.32-415.652-470.05-440.152m406.67 758.311c-44.25 71.94-84.08 140.37-83.95 208.89.45 152.74 134 320.09 135.62 322.71l12.56 13.53-210.11 261.56-19.49-10.4c-1.53-1.08-136.47-75.82-262.5-75.47-97.04.21-195.66 44.86-236.53 66.57-12.602 5.17-19.399 10.24-19.399 10.24l-12.696 7.75-.546-.67-12.911-6.87c-1.445-1.07-130.937-75.93-255.664-75.6-126.57.24-262.05 75.96-263.496 77.06l-17.957 10.33-211.328-260.31 10.985-13.68c1.308-2.75 135.527-170.51 135.167-323.32 0-68.73-42.402-136.85-85.605-208.65-54.328-88.559-115.684-190.462-116.086-317.399-.496-217.242 179.59-462.813 513.848-493.18 206.504-17.941 273.84-118.511 276.992-122.48l21.379-31.762.586-1.348 21.023 32.879c1.485 0 3.906 5.121 10.977 14.239 26.151 28 103.971 93.769 267.721 106.91 332.95 28.691 513.75 273.172 514.3 490.211.31 127.09-60.36 229.101-112.89 318.26" style="fill:#252c5e;fill-opacity:1;fill-rule:evenodd;stroke:none" transform="matrix(.13333 0 0 -.13333 0 261.227)"/><path d="m1593.74 1562.01-109.33 150.14s-107.34-73.5-238.92-73.06c-120.62.3-274.197 85.96-274.197 85.96s-153.895-84.75-274.48-84.54c-133.723.39-238.469 74.33-238.469 74.33l-110.098-149.52s120.188-163.11 119.688-329.49c-.536-210.37-192.012-321.701-192.559-521.111 0-42.418 12.16-85 33.801-125.289l1196.034 809.71c36.14 94.39 88.53 162.87 88.53 162.87" style="fill:#e91b29;fill-opacity:1;fill-rule:nonzero;stroke:none" transform="matrix(.13333 0 0 -.13333 0 261.227)"/><path d="M1471.54 1233.08c0 26.15 3.06 52.38 8.33 77.38L341.637 539.859c91.504-117.347 260.789-203.089 415.222-214.961 156.543-10.628 210.383-91.558 210.383-91.558s10.078 13.64 32.176 31.422c31.602 23.629 87.322 52.918 177.432 58.91 224.83 15.969 483.11 189.367 483.55 387.238.5 199.57-189.45 311.78-188.86 522.17" style="fill:#252c5e;fill-opacity:1;fill-rule:nonzero;stroke:none" transform="matrix(.13333 0 0 -.13333 0 261.227)"/><path d="M733.766 1287.18c55.769 0 86.875 39.96 86.875 106.37 0 42.26-9.317 71.55-29.258 90.11-15.352 14.86-41.817 24.17-71.074 24.17h-37.852c-2.707 0-4.863-2.19-4.863-4.9v-210.86c0-2.7 2.156-4.89 4.863-4.89zM585.59 1556.34c0 2.69 2.207 4.89 4.914 4.89h141.414c100.781 0 161.184-61.3 161.184-164.43 0-48.77-13.457-91.06-38.079-118.91-26.96-30.18-63.64-44.12-117.07-44.12H590.004c-2.656 0-4.863 2.19-4.863 4.89v43.66c0 2.69 2.207 4.86 4.863 4.86h15.801c2.695 0 4.902 2.19 4.902 4.89v210.86c0 2.71-2.207 4.9-4.902 4.9h-15.301c-2.707 0-4.914 2.19-4.914 4.88zM1118.83 807.922h109.79c2.07 0 4-1.41 4.5-3.422l30.56-110.148 25.61-97.332c1.17-4.692 7.83-4.668 9.01.05l24.84 99.02 29.26 108.39c.53 2.032 2.38 3.442 4.54 3.442h109.73c2.57 0 4.64-2.082 4.64-4.66V761.57a4.64 4.64 0 0 0-4.64-4.66h-15.52c-2.52 0-4.63-2.09-4.63-4.672V550.809c0-2.579 2.11-4.68 4.63-4.68h15.52c2.57 0 4.64-2.098 4.64-4.66v-41.688a4.64 4.64 0 0 0-4.64-4.66h-72.28c-2.56 0-4.68 2.078-4.68 4.66v195.891l.85 35.519c.14 5.489-7.65 6.68-9.13 1.368l-65.76-234.039a4.61 4.61 0 0 0-4.45-3.399h-35.57a4.7 4.7 0 0 0-4.5 3.367l-67.34 238.063c-1.53 5.347-9.4 4.109-9.13-1.442l2.02-54.078v-181.25c0-2.582-2.12-4.66-4.67-4.66h-73.2c-2.57 0-4.68 2.078-4.68 4.66v41.688c0 2.562 2.11 4.66 4.68 4.66h15.04c2.61 0 4.68 2.101 4.68 4.68v201.429a4.66 4.66 0 0 1-4.68 4.672h-15.04c-2.57 0-4.68 2.078-4.68 4.66v41.692c0 2.578 2.11 4.66 4.68 4.66M912.555 1164.72h109.995c2.76 0 5-2.24 5-4.97v-44.37c0-2.75-2.24-4.97-5-4.97h-15.56c-2.76 0-4.95-2.21-4.95-4.96V891.102a4.93 4.93 0 0 1 4.95-4.954h16.06c2.75 0 4.95-2.226 4.95-4.988v-44.34c0-2.75-2.2-4.968-4.95-4.968H912.094c-2.742 0-4.942 2.218-4.942 4.968v44.34c0 2.762 2.2 4.988 4.942 4.988h16.972c2.747 0 5 2.211 5 4.954v214.348c0 2.75-2.253 4.96-5 4.96h-16.511c-2.707 0-4.953 2.22-4.953 4.97v44.37c0 2.73 2.246 4.97 4.953 4.97" style="fill:#fff;fill-opacity:1;fill-rule:nonzero;stroke:none" transform="matrix(.13333 0 0 -.13333 0 261.227)"/></svg>