<svg xmlns="http://www.w3.org/2000/svg" xml:space="preserve" viewBox="2 2 2000 2588"><path fill="#FFFFFE" d="M2 680V2h2000v2588H2zm1532.42 1631.404c62.013-42.734 118.753-91.558 168.806-147.872 145.844-164.084 222.147-355.337 222.292-575.547.32-487.943.1-975.887.1-1463.83v-9.686c-9.977-2.322-1835.372-2.03-1843.18.279v9.792c0 489.61-.033 979.22.057 1468.83.008 45.042 3.8 89.81 10.996 134.322 16.337 101.056 50.198 195.874 101.432 284.378 80.744 139.48 191.91 249.086 329.749 331.719 136.172 81.634 283.52 127.783 442.428 135.442 69.547 3.352 138.537-2.342 206.794-15.82 130.128-25.695 249.773-76.524 360.526-152.007"/><path fill="#ED1E26" d="M1533.815 2311.787c-110.148 75.1-229.793 125.93-359.921 151.624-68.257 13.478-137.247 19.172-206.794 15.82-158.908-7.659-306.256-53.808-442.428-135.442-137.84-82.633-249.005-192.239-329.749-331.72-51.234-88.503-85.095-183.32-101.432-284.377-7.196-44.511-10.988-89.28-10.996-134.322-.09-489.61-.057-979.22-.057-1468.83v-9.792c7.808-2.31 1833.203-2.601 1843.18-.279v9.686c0 487.943.22 975.887-.1 1463.83-.145 220.21-76.448 411.463-222.292 575.547-50.053 56.314-106.793 105.138-169.411 148.255m259.862-443.324c30.485-82.766 44.683-168.198 44.57-256.446-.405-318.97-.159-637.94-.16-956.909 0-3 .12-6.006-.043-8.997-.119-2.178-.612-4.336-.997-6.887-553.212 0-1105.81 0-1658.409.02-1.975 0-3.951.297-5.924.489-.317.03-.666.183-.91.386s-.376.541-1.248 1.889v7.784c0 322.303-.03 644.606.03 966.908.011 58.2 6.426 115.67 20.563 172.21 33.203 132.784 98.77 247.721 194.285 345.024 153.77 156.646 341.724 240.68 559.978 257.564 70.388 5.445 140.48 1.042 210.086-11.086 115.332-20.095 222.621-61.12 320.8-124.844 146.283-94.946 254.06-221.899 317.38-387.105M792.177 319v82.427c-7.482 2.345-8.005-3.322-9.661-6.8-28.327-59.503-56.525-119.068-84.77-178.61-1.831-3.858-3.819-7.643-5.469-10.934h-67.65v342.665h67.5V340.592c3.519 1.957 6.135 2.62 7.405 4.301 1.967 2.602 3.02 5.896 4.452 8.901 29.35 61.598 58.694 123.198 88.063 184.786 1.545 3.24 3.309 6.373 5.064 9.736 19.725 0 39.029.01 58.332-.023 1.254-.002 2.507-.34 4.017-.56v-342.42c-15.039-1.918-60.128-1.323-67.284.935zm-422.94 229.344h54.508l16.96-71.705h83.827c5.493 24.074 10.87 47.635 16.194 70.974h70.003l-89.56-343.371h-77.686l-89.749 344.102zm927.948-108.425-61.393-235.02h-77.422l-89.424 342.919h69.883l16.745-71.195h83.622l16.373 71.783c23.415-.001 46.14.01 69.786-.008a88629 88629 0 0 0-28.17-108.479M1658.147 497v50.686h177.45v-53.918h-104.326v-93.273h104.537V346.19h-52.242c-8.996 0-17.998.197-26.987-.056-8.475-.24-17.072 1.156-25.323-.88v-87.237h103.94v-53.308h-177.049zm-200.31-214v264.708h73.654V401.904c34.115-.257 67.227.098 100.287-.2v-54.356h-99.566c-2.021-16.84-1.274-81.724 1.183-89.512H1636c0-9.649.027-18.276-.007-26.904-.036-8.837-.131-17.673-.198-26.276h-177.958zm-1212.85 12.166c-5.828-20.856 7.583-31.716 21.787-34.81 5.447-1.186 11.253-1.344 16.854-1.087 16.754.768 31.398 8.152 46.008 15.477 3.756 1.882 7.477 3.833 12.572 6.451 0-19.194.19-36.74-.249-54.271-.052-2.095-3.137-5.073-5.467-5.992-12.658-4.992-25.214-10.774-38.373-13.853-29.215-6.837-57.669-4.013-83.88 11.77-31.936 19.23-46.404 53.513-38.49 90.022 3.98 18.352 12.62 34.505 24.836 48.373 13.409 15.223 28.055 29.354 42.104 44.018 8.29 8.653 17.101 16.916 24.478 26.298 5.248 6.676 9.824 14.503 12.385 22.553 7.468 23.478-7.165 43.033-31.793 43.777-11.233.339-22.048-2.007-31.763-7.363-11.041-6.088-21.454-13.316-32.136-20.053-2.105-1.328-4.195-2.68-7.104-4.54v66.057c11.843 5.453 23.676 11.54 35.984 16.43 23.181 9.21 47.16 11.305 71.558 5.497 47.43-11.292 77.342-55.739 70.154-103.797-2.731-18.262-10.235-34.576-21.387-48.886-10.617-13.623-22.311-26.46-34.138-39.073-11.613-12.387-24.495-23.603-35.84-36.214-6.798-7.556-11.716-16.802-18.1-26.784M1037 204.386H879.12v65.597h78.891V547.82h72.425V269.725c14.175 0 27.154.02 40.133-.006 12.837-.027 25.683.122 38.315-.102 1.816-19.507 1.141-57.985-1.118-65.23z"/><path fill="#FFF" d="M1793.39 1869.188c-63.031 164.481-170.81 291.434-317.092 386.38-98.179 63.724-205.468 104.75-320.8 124.844-69.606 12.128-139.698 16.53-210.086 11.086-218.254-16.883-406.208-100.918-559.978-257.564-95.516-97.303-161.082-212.24-194.285-345.025-14.137-56.538-20.552-114.01-20.563-172.209-.06-322.302-.03-644.605-.03-966.908v-7.784c.872-1.348 1.004-1.686 1.247-1.889.245-.203.594-.356.911-.386 1.973-.192 3.95-.488 5.924-.489 552.599-.02 1105.197-.02 1658.409-.02.385 2.551.878 4.709.997 6.887.163 2.99.044 5.997.044 8.997 0 318.97-.246 637.94.16 956.909.112 88.248-14.086 173.68-44.857 257.17m-176.486-475.1c-76.104-50.277-158.77-65.141-247.303-43.935-162.62 38.95-264.312 206.933-224.372 369.44 40.982 166.749 206.762 267.553 373.505 226.112 152.53-37.909 254.699-186.077 228.472-347.176-13.965-85.78-58.153-153.456-130.302-204.441"/><path fill="#FFFDFD" d="M792.177 318V206.248c7.156-2.258 52.245-2.853 67.284-.935v342.42c-1.51.22-2.763.558-4.017.56-19.303.033-38.607.023-58.332.023-1.755-3.363-3.52-6.497-5.064-9.736-29.37-61.588-58.713-123.188-88.063-184.786-1.432-3.005-2.485-6.299-4.452-8.9-1.27-1.682-3.886-2.345-7.405-4.302v207.156h-67.5V205.083h67.65c1.65 3.291 3.638 7.076 5.469 10.935 28.245 59.541 56.443 119.106 84.77 178.609 1.656 3.478 2.18 9.145 9.66 6.8zM368.276 548.344h-14.542l89.749-344.102h77.686l89.56 343.37h-70.003c-5.325-23.338-10.7-46.9-16.194-70.973h-83.828l-16.959 71.705zM474.41 315.4c-7.445 36.57-16.365 72.842-23.45 109.876h63.086L485.79 293.237c-5.269-1.707-6.668.665-7.387 3.973-1.201 5.52-2.394 11.043-3.993 18.19M1297.414 440.708c9.326 35.88 18.423 70.973 27.941 107.69-23.645.019-46.371.007-69.786.008l-16.373-71.783h-83.622l-16.745 71.195h-69.883l89.424-342.92h77.422c20.408 78.125 40.9 156.573 61.622 235.81m-116.551-84.916-15.08 69.987h61.88c0-1.819.23-3.17-.034-4.414a96656 96656 0 0 0-25.827-120.856c-.278-1.295-.34-2.863-1.122-3.765-.94-1.083-2.495-2.021-3.88-2.18-.836-.096-2.186 1.234-2.713 2.235-.756 1.439-1.055 3.143-1.406 4.765-3.79 17.536-7.554 35.077-11.818 54.228"/><path fill="#FFFEFD" d="M1658.147 496V204.708h177.05v53.308h-103.941v87.237c8.251 2.036 16.848.64 25.323.88 8.989.253 17.99.056 26.987.056h52.242v54.306h-104.537v93.273h104.327v53.918h-177.45z"/><path fill="#FFFDFD" d="M1457.837 282v-77.344h177.958c.067 8.603.162 17.44.198 26.276.034 8.628.007 17.255.007 26.904h-102.605c-2.457 7.788-3.204 72.672-1.183 89.512h99.566v54.356c-33.06.298-66.172-.057-100.287.2v145.804h-73.654z"/><path fill="#FFFDFC" d="M245.297 295.914c6.074 9.234 10.992 18.48 17.79 26.036 11.345 12.611 24.227 23.827 35.84 36.214 11.827 12.614 23.52 25.45 34.138 39.073 11.152 14.31 18.656 30.624 21.387 48.886 7.188 48.058-22.723 92.505-70.154 103.797-24.397 5.808-48.377 3.713-71.558-5.496-12.308-4.89-24.141-10.978-35.984-16.431v-66.056c2.909 1.86 4.999 3.211 7.104 4.539 10.682 6.737 21.095 13.965 32.136 20.053 9.715 5.356 20.53 7.702 31.763 7.363 24.628-.744 39.261-20.3 31.793-43.777-2.561-8.05-7.137-15.877-12.385-22.553-7.377-9.382-16.188-17.645-24.478-26.298-14.049-14.664-28.695-28.795-42.104-44.018-12.216-13.868-20.856-30.02-24.835-48.373-7.915-36.509 6.553-70.792 38.488-90.022 26.212-15.783 54.666-18.607 83.88-11.77 13.16 3.08 25.716 8.86 38.374 13.853 2.33.92 5.415 3.897 5.467 5.992.438 17.53.25 35.077.25 54.271-5.096-2.618-8.817-4.569-12.573-6.451-14.61-7.325-29.254-14.71-46.008-15.477-5.601-.257-11.407-.099-16.854 1.088-14.204 3.093-27.615 13.953-21.477 35.557"/><path fill="#FFFDFD" d="M1038 204.387h69.766c2.259 7.245 2.934 45.723 1.118 65.23-12.632.224-25.478.075-38.315.102-12.979.027-25.958.006-40.133.006V547.82H958.01V269.983h-78.89v-65.596z"/><path fill="#ED1D24" d="M1617.493 1394.5c71.561 50.572 115.75 118.247 129.714 204.028 26.227 161.099-75.942 309.267-228.472 347.176-166.743 41.441-332.523-59.363-373.505-226.111-39.94-162.508 61.753-330.49 224.372-369.441 88.534-21.206 171.199-6.342 247.89 44.347"/><path fill="#ED242A" d="M474.612 314.588c1.397-6.335 2.59-11.857 3.79-17.378.72-3.308 2.12-5.68 7.388-3.973l28.256 132.039H450.96c7.085-37.034 16.005-73.307 23.652-110.688"/><path fill="#ED2229" d="M1181.11 354.987c4.017-18.346 7.78-35.887 11.571-53.423.351-1.622.65-3.326 1.406-4.765.527-1 1.877-2.331 2.713-2.235 1.385.159 2.94 1.097 3.88 2.18.782.902.844 2.47 1.122 3.765 8.628 40.281 17.25 80.564 25.827 120.856.265 1.245.033 2.595.033 4.414h-61.878c5.088-23.615 10.083-46.801 15.326-70.792"/></svg>