<svg xmlns="http://www.w3.org/2000/svg" xmlns:xlink="http://www.w3.org/1999/xlink" viewBox="270.66 27.54 478.01 550.8"><path fill="#FFF" d="M720.65 301.1c-8.57 43.46-25.1 83.85-46.51 116.9-52.64 78.94-142.6 126.68-164.02 137.7h-1.22c-21.42-11.02-111.4-58.76-163.4-137.7-22.04-33.05-37.95-73.44-46.52-116.9-6.73-33.04-9.18-66.7-7.34-102.2H728.6c1.23 35.5-1.83 69.16-7.95 102.2"/><path fill="#b21117" d="M483.2 557.53V192.78h52.01v364.75l-25.7 11.63zm106.48-44.67V192.78h58.14v273.56zm-159.12 0V192.78h-58.14v273.56zm-116.9-327.42v192.78s-37.32-92.42-29.98-192.78zm389.85 0v192.78s37.33-92.42 29.99-192.78z"/><path fill="#1b2754" d="M742.68 145.04c0-1.22-1.22-3.67-1.22-4.9h-.62c-11.62-.6-146.88-7.34-231.33-112.6-84.46 105.26-220.32 112.6-231.34 113.22h-.61c0 1.22-1.22 3.67-1.22 4.9-8.57 55.69-7.35 108.93 3.06 159.73 9.18 45.9 26.31 88.74 49.57 123.62 60.59 92.41 171.36 145.05 180.54 149.33h.61c5.5-2.45 118.73-55.7 181.15-149.33 23.26-35.5 40.4-78.33 49.57-123.62 9.8-50.8 10.4-104.65 1.84-160.35M720.65 301.1c-8.57 43.46-25.1 83.85-46.52 116.9-52.63 78.94-142.6 126.68-164.01 137.7h-1.22c-21.42-11.02-111.4-58.76-163.4-137.7-22.04-33.05-37.95-73.44-46.52-116.9-6.73-33.04-9.18-66.7-7.34-102.2H728.6c1.23 35.5-1.83 69.16-7.95 102.2"/><path fill="#fff" stroke="#1b2754" stroke-width="8.5" d="M334.48 217.87h350.06v78.95H334.48z"/><path fill="#1b2754" d="M599.47 279.68v-46.5h23.87c4.28 0 7.96.6 10.4 1.22 2.45.6 4.29 2.44 5.51 4.28a13.1 13.1 0 0 1 2.45 7.34c0 2.45-.61 4.9-1.84 6.74-1.22 1.83-2.44 3.67-4.28 4.28-1.22.61-3.06 1.22-4.9 1.84 1.84.6 3.07 1.22 3.68 1.83l2.44 2.45c1.23 1.22 1.84 2.45 1.84 3.06l6.73 13.46h-15.91l-7.96-14.07c-1.22-1.84-1.83-3.06-2.44-3.67-1.23-.62-2.45-1.23-3.68-1.23h-1.22v18.97zm14.69-27.54h6.12c.61 0 1.84 0 3.67-.6 1.23 0 1.84-.62 2.45-1.23s.61-1.84.61-2.45c0-1.22-.61-2.45-1.22-3.67-1.23-.61-2.45-1.23-5.51-1.23h-6.12zM545 256.43c0-7.35 1.84-13.47 6.12-17.75 4.29-4.28 9.8-6.12 17.75-6.12 7.96 0 13.47 1.84 17.75 6.12s6.12 9.8 6.12 17.14c0 5.5-.61 9.79-2.45 13.46a16.74 16.74 0 0 1-7.95 7.96 28.45 28.45 0 0 1-12.86 3.06c-5.5 0-9.79-.62-12.85-2.45-3.67-1.84-6.12-4.29-8.57-7.96-1.83-3.06-3.06-7.95-3.06-13.46m14.08.61c0 4.9.61 7.96 2.45 9.8a10.13 10.13 0 0 0 7.34 3.05c3.06 0 5.51-1.22 7.35-3.06 1.83-1.83 2.44-5.5 2.44-11.01 0-4.29-.6-7.35-2.44-9.8a10.13 10.13 0 0 0-7.35-3.06c-3.06 0-5.5 1.23-6.73 3.06-1.84 2.45-3.06 6.12-3.06 11.02m-35.5-23.26h14.08v46.52h-14.08zm-53.24 0h13.46l17.75 25.7v-25.7h13.47v46.52h-13.47l-17.13-25.7v25.7h-13.47v-46.52zm-22.64 0h14.07v27.54c0 2.45-.61 5.51-1.22 7.96-.62 2.45-2.45 4.28-4.29 6.12a14.45 14.45 0 0 1-5.5 3.67 25.4 25.4 0 0 1-9.8 1.84c-2.45 0-4.9 0-7.34-.61-2.45-.62-4.9-1.23-6.73-1.84-1.84-1.22-3.68-2.45-4.9-4.28-1.22-1.84-2.45-3.68-3.06-5.51-.61-3.06-1.22-5.51-1.22-7.96v-27.54h14.07v28.15c0 2.45.61 4.29 1.84 6.12 1.22 1.23 3.06 1.84 6.12 1.84 2.44 0 4.28-.61 5.5-1.84 1.23-1.22 1.84-3.67 1.84-6.12v-27.54zm-53.25 0h14.08v25.1a58 58 0 0 1-1.23 12.24c-1.22 3.06-3.06 4.9-5.5 6.73a21.13 21.13 0 0 1-11.02 3.06c-4.9 0-8.57-.61-11.02-1.84-2.45-1.22-4.28-3.06-6.12-5.5-1.22-2.45-1.83-6.74-1.83-11.02h12.85c0 1.83 0 3.67.61 4.28.61 1.23.61 1.84 1.84 2.45.6.61 1.22.61 2.44.61 1.84 0 3.06-.61 3.68-1.83.6-1.23 1.22-3.06 1.22-6.12z"/><path id="a" fill="#fff" d="M530.93 70.38 519.9 81.4l3.06 14.68-13.46-6.73-13.47 6.73 2.45-14.68-11.01-11.02 15.3-1.84 6.73-13.46 6.73 13.46z"/><use xlink:href="#a" width="100%" height="100%" transform="translate(0 46.542)"/><use xlink:href="#a" width="100%" height="100%" transform="translate(55.27 46.542)"/><use xlink:href="#a" width="100%" height="100%" transform="translate(-110.29 91.8)"/><use xlink:href="#a" width="100%" height="100%" transform="translate(-55.53 91.8)"/><use xlink:href="#a" width="100%" height="100%" transform="translate(0 91.8)"/><use xlink:href="#a" width="100%" height="100%" transform="translate(55.27 91.8)"/><use xlink:href="#a" width="100%" height="100%" transform="translate(109.967 91.8)"/><use xlink:href="#a" width="100%" height="100%" transform="translate(-55.53 46.542)"/></svg>