<svg xmlns="http://www.w3.org/2000/svg" width="97.614" height="107.808"><defs><clipPath id="a" clipPathUnits="userSpaceOnUse"><path d="M98.246 2914.12c281.067 179.8 630.586 270.49 977.694 272.12 347.1-1.63 696.63-92.32 977.69-272.12 13.12-184.99-6.48-352.85-21.4-494-128.07-807.2-502.19-1226.78-956.29-1411.67-454.116 184.89-828.225 604.47-956.288 1411.67-14.929 141.15-34.523 309.01-21.406 494" style="clip-rule:evenodd"/></clipPath><clipPath id="b" clipPathUnits="userSpaceOnUse"><path d="M1081.96 2393.25c-253.116 0-458.386-205.27-458.386-458.39 0-253.11 205.27-458.39 458.386-458.39 253.12 0 458.39 205.28 458.39 458.39 0 253.12-205.27 458.39-458.39 458.39" style="clip-rule:evenodd"/></clipPath><clipPath id="c" clipPathUnits="userSpaceOnUse"><path d="M1084.97 2402.34c261.01 0 472.68-211.67 472.68-472.68s-211.67-472.68-472.68-472.68c-261.017 0-472.685 211.67-472.685 472.68s211.668 472.68 472.685 472.68" style="clip-rule:evenodd"/></clipPath><clipPath id="d" clipPathUnits="userSpaceOnUse"><path d="M622.387 1475.56v919.21h919.203v-919.21z"/></clipPath><clipPath id="e" clipPathUnits="userSpaceOnUse"><path d="M611.395 1465.92H1552.2v936H611.395Z"/></clipPath><clipPath id="f" clipPathUnits="userSpaceOnUse"><path d="M1081.96 2393.25c-253.116 0-458.386-205.27-458.386-458.39 0-253.11 205.27-458.39 458.386-458.39 253.12 0 458.39 205.28 458.39 458.39 0 253.12-205.27 458.39-458.39 458.39" style="clip-rule:evenodd"/></clipPath><clipPath id="g" clipPathUnits="userSpaceOnUse"><path d="M1530.77 1841.26c6.27 30.21 9.58 61.52 9.58 93.6 0 227.56-165.92 416.42-383.35 452.24-81.66-392.91 264.28-514.73 373.77-545.84m-525.54 545.56c-216.597-36.52-381.656-224.99-381.656-451.96 0-31.91 3.274-63.06 9.485-93.13 111.254 31.85 453.201 154.37 372.171 545.09m46.53 5.41c10.25-164.86 17.37-658.79-336.518-732.39 83.641-111.34 216.778-183.37 366.718-183.37 149.8 0 282.82 71.91 366.47 183.06-355.51 72.5-348.28 567.83-338.01 732.82-9.41.57-18.9.9-28.46.9-10.15 0-20.22-.37-30.2-1.02" style="clip-rule:evenodd"/></clipPath><clipPath id="h" clipPathUnits="userSpaceOnUse"><path d="M3309.99 2914.12c281.06 179.8 630.6 270.49 977.7 272.12 347.1-1.63 696.63-92.32 977.7-272.12 13.11-184.99-6.48-352.85-21.41-494-128.06-807.2-502.18-1226.78-956.29-1411.67-454.12 184.89-828.23 604.47-956.29 1411.67-14.93 141.15-34.52 309.01-21.41 494" style="clip-rule:evenodd"/></clipPath><clipPath id="i" clipPathUnits="userSpaceOnUse"><path d="M4293.71 2393.25c-253.12 0-458.39-205.27-458.39-458.39 0-253.11 205.27-458.39 458.39-458.39 253.13 0 458.4 205.28 458.4 458.39 0 253.12-205.27 458.39-458.4 458.39" style="clip-rule:evenodd"/></clipPath><clipPath id="j" clipPathUnits="userSpaceOnUse"><path d="M4296.71 2402.34c261.02 0 472.68-211.67 472.68-472.68s-211.66-472.68-472.68-472.68c-261.01 0-472.68 211.67-472.68 472.68s211.67 472.68 472.68 472.68" style="clip-rule:evenodd"/></clipPath><clipPath id="k" clipPathUnits="userSpaceOnUse"><path d="M3833.58 1475.56v919.21h919.21v-919.21z"/></clipPath><clipPath id="l" clipPathUnits="userSpaceOnUse"><path d="M3822.01 1465.92h940.797v936H3822.01Z"/></clipPath><clipPath id="m" clipPathUnits="userSpaceOnUse"><path d="M4293.71 2393.25c-253.12 0-458.39-205.27-458.39-458.39 0-253.11 205.27-458.39 458.39-458.39 253.13 0 458.4 205.28 458.4 458.39 0 253.12-205.27 458.39-458.4 458.39" style="clip-rule:evenodd"/></clipPath><clipPath id="n" clipPathUnits="userSpaceOnUse"><path d="M4742.52 1841.26c6.27 30.21 9.59 61.52 9.59 93.6 0 227.56-165.94 416.42-383.36 452.24-81.67-392.91 264.28-514.73 373.77-545.84m-525.54 545.56c-216.6-36.52-381.66-224.99-381.66-451.96 0-31.91 3.27-63.06 9.48-93.13 111.25 31.85 453.21 154.37 372.18 545.09m46.53 5.41c10.25-164.86 17.37-658.79-336.52-732.39 83.64-111.34 216.78-183.37 366.72-183.37 149.81 0 282.81 71.91 366.49 183.06-355.52 72.5-348.31 567.83-338.03 732.82-9.42.57-18.9.9-28.46.9-10.16 0-20.22-.37-30.2-1.02" style="clip-rule:evenodd"/></clipPath></defs><g style="display:inline" transform="matrix(.34022 0 0 .34022 -115.498 108.136)"><path d="M338.613-272.899c74.86-51.038 196.121-55.533 281.119 0 6.201 51.624-4.114 214.488-141.484 272.542C371.986-48.765 333.065-156.975 338.613-272.9" style="fill:#fff;fill-opacity:1;fill-rule:evenodd;stroke:none;stroke-width:.133333"/><g clip-path="url(#a)" transform="matrix(.13333 0 0 -.13333 339.48 119.483)"><path d="M1082.26 3882.64h108.46V398.781h-108.46zM1299.17 3882.64h108.46V398.781h-108.46zM1516.08 3882.64h108.46V398.781h-108.46zM1733 3882.64h108.46V398.781H1733zM1949.91 3882.64h108.46V398.781h-108.46z" style="fill:#e3ba28;fill-opacity:1;fill-rule:evenodd;stroke:none"/></g><circle cx="483.749" cy="-138.239" r="70.711" style="fill:#fff;stroke:#000;stroke-width:0"/><path d="M483.587-200.43q-2.043.001-4.051.134l.03.059c1.393 21.321 2.933 89.265-45.645 98.578 11.278 15.155 29.326 24.975 49.666 24.975 20.334 0 38.38-9.816 49.658-24.965l-.1-.006c-48.598-9.3-47.058-77.258-45.664-98.582l.034-.067a63 63 0 0 0-3.928-.127zm10.222.845-.011.022c-11.59 53.413 35.758 69.63 50.031 73.638l.316.102a62 62 0 0 0 1.315-12.734c0-30.683-22.348-56.153-51.65-61.028zm-20.562.018c-29.244 4.924-51.533 30.367-51.533 61.01 0 4.352.452 8.596 1.306 12.695l.2-.063c14.272-4.008 61.62-20.225 50.029-73.638z" style="fill:#33b540;fill-opacity:1;stroke:#000;stroke-width:0"/><path d="M613.324-270.365c1.58 22.501.138 44.08-2.573 64.253-83.62-48.061-171.922-48.061-255.543 0-2.71-20.173-4.154-41.752-2.574-64.253 85.351-48.73 175.23-48.73 260.69 0" style="fill:#33b540;fill-opacity:1;fill-rule:evenodd;stroke:none;stroke-width:.133295"/><path d="M591.362-248.967v1.684c0 1.614-.208 2.872-.602 3.806q-.625 1.371-1.736 1.925c-.74.353-1.644.473-2.685.353-1.041-.126-2.199-.438-3.424-.898a16.2 16.2 0 0 1-3.45-1.479 9.9 9.9 0 0 1-2.683-2.241c-.742-.886-1.311-1.956-1.714-3.186-.406-1.24-.624-2.666-.624-4.286v-1.698c0-1.62.208-2.922.624-3.92.394-1.005.972-1.718 1.714-2.172.74-.445 1.642-.629 2.684-.573 1.041.056 2.198.325 3.449.772 1.225.41 2.383.99 3.424 1.705a11.2 11.2 0 0 1 2.685 2.532c.74.968 1.32 2.095 1.736 3.368.394 1.26.602 2.695.602 4.308m6.944 3.474v-24.118c-2.316-.898-4.63-1.804-6.944-2.709l-.07 6.735c-.024 2.241-.046 4.493-.069 6.728a45 45 0 0 0-3.819-2.654 23 23 0 0 0-4.79-2.328c-2.654-.924-4.93-1.364-6.782-1.385s-3.378.304-4.582.983c-1.204.686-2.106 1.684-2.708 3.028-.602 1.352-.948 2.957-1.018 4.818.07 1.903.416 3.686 1.018 5.356a15.7 15.7 0 0 0 2.708 4.683c1.204 1.45 2.73 2.767 4.582 3.933 1.851 1.183 4.131 2.175 6.782 3.086 2.765.95 5.137 1.605 7.081 1.776 1.944.176 3.541-.028 4.79-.595 1.25-.573 2.175-1.48 2.778-2.73q.902-1.87 1.043-4.607m-42.932-15.055c0 3.261-.767 5.552-2.315 6.947-1.552 1.398-3.587 1.79-6.132 1.14a14.4 14.4 0 0 1-3.427-1.126 8.5 8.5 0 0 1-2.684-1.988c-.764-.82-1.329-1.816-1.736-3.013-.401-1.185-.601-2.604-.601-4.245v-1.719c0-1.641.197-2.984.601-4.019.406-1.037.972-1.797 1.736-2.278.742-.482 1.62-.736 2.684-.75 1.042-.013 2.176.135 3.427.46 1.25.262 2.405.654 3.447 1.174a9 9 0 0 1 2.685 2.017c.741.828 1.319 1.853 1.713 3.05.416 1.209.602 2.623.602 4.251zm6.942 14.73v-11.992c-.069-1.91-.417-3.7-1.017-5.362q-.905-2.506-2.777-4.621c-1.252-1.412-2.847-2.682-4.791-3.792-1.968-1.032-4.33-1.87-7.107-2.519-2.637-.616-4.905-.863-6.757-.721-1.852.205-3.379.75-4.581 1.598-1.204.843-2.107 1.975-2.708 3.375q-.904 2.1-1.042 4.932.138 2.885 1.042 5.313a12.8 12.8 0 0 0 2.708 4.351c1.202 1.28 2.745 2.332 4.581 3.253 1.868.94 4.12 1.771 6.757 2.371.903.207 1.738.316 2.5.347a6.4 6.4 0 0 0 2.222-.276c.674-.216 1.344-.587 2.014-1.09.671-.488 1.343-1.152 2.014-1.98a329 329 0 0 0-.047 4.867v.156c2.315.636 4.652 1.288 6.99 1.939zM519.408-267.7v1.726c0 1.648-.185 3.007-.601 4.062-.393 1.053-.972 1.86-1.713 2.426-.74.56-1.643.92-2.684 1.068-1.042.15-2.199.12-3.448-.057-1.251-.077-2.386-.278-3.45-.63a7 7 0 0 1-2.684-1.598c-.741-.714-1.318-1.656-1.713-2.808-.393-1.16-.601-2.568-.601-4.224v-1.741c0-1.655.208-3.041.601-4.167.395-1.132.972-2.016 1.713-2.673a5.85 5.85 0 0 1 2.684-1.303c1.066-.218 2.199-.261 3.45-.084a11.3 11.3 0 0 1 3.448.87 7.74 7.74 0 0 1 2.684 1.88c.741.809 1.32 1.806 1.713 2.988.416 1.196.601 2.61.601 4.265m6.943 1.797v-24.719c-2.313-.41-4.628-.722-6.943-1.026-.022 2.306-.069 4.613-.069 6.92 0 2.305-.047 4.618-.047 6.926a33 33 0 0 0-3.841-1.72 19 19 0 0 0-4.79-1.146c-2.658-.282-4.907-.112-6.76.354q-2.776.702-4.58 2.222c-1.205 1.018-2.107 2.277-2.731 3.792-.603 1.528-.927 3.246-1.019 5.164.092 1.932.416 3.672 1.019 5.23a11.7 11.7 0 0 0 2.73 4.102c1.202 1.17 2.731 2.108 4.582 2.83 1.852.728 4.102 1.131 6.758 1.394 2.784.274 5.138.346 7.082.007 1.966-.326 3.564-.942 4.814-1.854a8.27 8.27 0 0 0 2.778-3.509c.6-1.423.948-3.07 1.017-4.967zm-44.897-24.727c0 1.034.438 1.932 1.296 2.683.856.743 1.92 1.139 3.17 1.173a4.6 4.6 0 0 0 1.596-.254 5.2 5.2 0 0 0 1.482-.786c.44-.338.794-.717 1.065-1.166.261-.435.37-.915.37-1.408q0-1.54-1.32-2.675c-.878-.757-1.943-1.147-3.193-1.181-1.25-.036-2.314.297-3.17 1.01-.858.708-1.296 1.58-1.296 2.604m8.076 8.738-6.943-.19v25.002c2.315.064 4.63.12 6.943.184v-24.996m-36.266 14.745v-13.421c-2.313.261-4.628.565-6.943.876v11.872c0 2.03.278 3.821.81 5.364.556 1.533 1.415 2.797 2.616 3.784 1.183.972 2.71 1.652 4.605 2.101 1.9.45 4.19.595 6.874.39 4.883-.375 8.611-1.72 11.202-4.126 2.592-2.41 3.888-5.652 3.888-9.713v-11.872c-2.316.057-4.629.128-6.944.184v13.421c0 1.663-.185 3.07-.602 4.21-.393 1.146-.972 2.058-1.712 2.758-.74.716-1.643 1.253-2.685 1.6-1.041.345-2.198.55-3.448.615-1.25.134-2.338.085-3.31-.119-.972-.213-1.782-.617-2.407-1.239q-.972-.922-1.458-2.554c-.323-1.098-.486-2.462-.486-4.13m-40.06 5.447c0-1.656.3-3.106.925-4.359a10.7 10.7 0 0 1 2.452-3.232c1-.896 2.13-1.643 3.38-2.223 1.25-.578 2.477-.997 3.726-1.252a15.2 15.2 0 0 1 3.773-.368c1.272.028 2.406.284 3.424.758.996.481 1.807 1.222 2.43 2.236.627 1.017.95 2.348.95 4.01v1.742c0 1.662-.325 3.12-.95 4.365s-1.43 2.29-2.43 3.127a12.2 12.2 0 0 1-3.424 2.01c-1.25.487-2.523.84-3.773 1.06a16.3 16.3 0 0 1-3.61.502c-1.204.03-2.315-.142-3.287-.523a5.54 5.54 0 0 1-2.476-1.855c-.67-.854-1.042-2.022-1.11-3.52zm14.903 14.256v1.194c0 .595 0 1.204.023 1.812a20 20 0 0 1 0 1.691c-.023.517-.046.841-.092.976 2.338-.41 4.699-.82 7.059-1.237v-4.479c-.07-.757-.255-1.387-.51-1.91a3.4 3.4 0 0 0-1.11-1.295 7.9 7.9 0 0 0-1.76-.906 25 25 0 0 0-2.475-.77c3.702-1.338 6.555-3.22 8.631-5.639 2.043-2.379 3.171-5.13 3.334-8.341-.209-3.828-1.805-6.658-4.768-8.412-2.985-1.663-7.153-2.126-12.451-.998-5.605 1.194-9.906 3.46-12.937 6.403-3.032 3.013-4.63 6.495-4.79 10.357 0 1.52.262 2.932.81 4.267a7.53 7.53 0 0 0 2.521 3.232c1.165.867 2.64 1.465 4.444 1.755 1.806.297 4.004.113 6.573-.544 1.851-.262 3.499-.258 4.906.099 1.393.352 2.268 1.28 2.592 2.745m-53.646-2.93c.022-1.224.231-2.49.879-3.869a12.7 12.7 0 0 1 2.36-3.453 16.7 16.7 0 0 1 3.264-2.652 19.2 19.2 0 0 1 3.61-1.614 17.2 17.2 0 0 1 3.634-.933c1.226-.17 2.313-.11 3.286.183q1.458.44 2.36 1.733c.555.793.858 1.89.904 3.283-6.781 2.328-13.54 4.648-20.297 7.322m25.11-.644c-1.041.298-2.083.602-3.123.9-6.435 6.53-22.172 13.35-22.01 2.44 8.54-3.276 17.08-6.19 25.62-8.852 1.11-.317 1.457-1.053 1.388-1.894-.139-3.63-1.736-6.064-4.605-7.344-2.87-1.203-6.866-.903-11.989.933-5.407 1.94-9.559 4.712-12.474 7.973-2.94 3.27-4.466 6.715-4.629 10.372-.88 14.49 24.625 7.31 31.822-4.528" style="fill:#fff;fill-opacity:1;fill-rule:nonzero;stroke:none;stroke-width:.133333"/><path d="M345.339-272.899c73.068-49.817 191.429-54.205 274.393 0 6.053 50.39-4.016 209.358-138.1 266.022-103.718-47.25-141.71-152.87-136.293-266.022M340-277.3c75.903-51.75 198.855-56.308 285.036 0 6.29 52.342-4.17 217.477-143.456 276.34-107.741-49.083-147.205-158.8-141.58-276.34" style="fill:#e3ba28;fill-opacity:1;fill-rule:evenodd;stroke:none;stroke-width:.133333"/></g></svg>