<svg xmlns="http://www.w3.org/2000/svg" xml:space="preserve" viewBox="0 0 243.52 266.67"><path d="M918.621 293.609 512.117 553.18l-58.633 432.672v399.658l97.532 75.7h128.222l605.622-362.32 24.78-551.351zM204.551 2000V457.289L921.691 0l704.859 457.969V2000z" style="fill:#efdb3e;fill-opacity:1;fill-rule:nonzero;stroke:none" transform="matrix(.13333 0 0 -.13333 0 266.667)"/><path d="M679.238 1461.21H551.016l-97.532-75.7V985.852l58.633-432.672 406.504-259.571 391.019 253.93-24.78 551.351z" style="fill:#fff;fill-opacity:1;fill-rule:nonzero;stroke:none" transform="matrix(.13333 0 0 -.13333 0 266.667)"/><path d="M467.578 1347.31v-344.95l9.539 14.06v338.85zM540.781 1420.97v-261.89l5.457 12.73v251.89zM504.641 1393.01v-319.86l8.179 19.77v306.23z" style="fill:#b59127;fill-opacity:1;fill-rule:nonzero;stroke:none" transform="matrix(.13333 0 0 -.13333 0 266.667)"/><path d="M226.379 1130.78v-72.24l-17.277 19.67 17.277-26.89v-24.6l-21.828 32.78s-5 7.97-12.727 20.39v67.37c11.574-7.35 23.324-13.26 34.555-16.48m3.75-85.3 14.891-23.19v15.01l-14.891 16.96v75.33c4.394-1.32 14.156-3.8 27.281-4.63V980.109l-27.281 40.981zm32.398-50.519 32.395-50.563V923.77l-32.395 48.66zm0 129.779c9.563-.24 20.571.48 32.395 3.1V971.77l-32.395 40.27zm-76.843-34.96c-26.661 43-72.754 118.2-78.204 132.95 0 0 37.083-43.41 78.204-71.43zm113.332-151.76L315.039 913v33.762l-16.023 19.918v162.15a130.4 130.4 0 0 1 27.273 10.29V876.641l-27.273 40.98zm64.461 228.55 2.257-283.609-32.738 39.961V1142.8c10.199 5.96 20.461 13.72 30.481 23.77m450.363 481.29H609.445s-148.222 10.91-262.804-260.98c0 0-54.114-158.69-106.399-160.51 0 0-48.648-18.87-119.058 72.18 0 0 80.593-60.63 126.304-43.79-5.691-1.04-31.14 1.85-115.906 87.78 0 0-85.937 60.08-130.262-43.96 0 0-11.601-55.61 34.09-126.54 0 0 265.762-527.2 265.762-564.481l.422 1.281c-2.258 38.719-2.453 26.07-5.649 40.551-3.418 15.461 0 54.097 0 54.097 3.891 26.16 35.239 77.942 64.551 121.782l-27.5 41.3v19.16l34.047-51.839 15.008 29.16-13.133 16.019 1.023-1.019v295.619c7.344 10.1 53.36 73.76 67.356 101.49V944.891l3.57 3.918v334.801l-.027-.04c.144.52.293 1.02.371 1.45l4.551 25.01s-63.66-122.31-91.399-135.04c0 0-40.457-52.29-149.812-14.55 0 0 103.894-24.55 157.551 59.11 0 0 58.191 84.08 92.293 140.25 34.101 56.17 103.214 76.63 103.214 76.63h18.184v-197.26l7.734 16.83v180.43h26.368v-84.27l7.273 6.14v78.13h19.363c-22.312 71.16 1.555 157.77 1.555 157.77 9.551-21.36 85.019-103.66 85.019-103.66 34.563-34.56 67.297-47.06 67.297-47.06-25.839 96.89 18.653 194.34 23.438 204.38" style="fill:#b59127;fill-opacity:1;fill-rule:nonzero;stroke:none" transform="matrix(.13333 0 0 -.13333 0 266.667)"/><path d="M247.488 1254.76c.996.19 1.399.48 1.399.48-.457-.18-.938-.31-1.399-.48M397.559 874.75l8.418 11.371v334.859l-8.418-11.48zM999.777 1401.88c-2.043 55.92-67.519 103.56-67.519 103.56 30.691 3.31 143.222-11.49 186.872-25.14 43.65-13.63 151.41-25.23 151.41-25.23 109.21-11.05 174.53 10.87 213.13 37.36-.12.05-.23.1-.34.15 0 0-389.21 130.72-603.807 155.28h-64.906c25.473-67.99 88.996-145.73 88.996-145.73 26.258-12.96 96.164-100.25 96.164-100.25" style="fill:#b59127;fill-opacity:1;fill-rule:nonzero;stroke:none" transform="matrix(.13333 0 0 -.13333 0 266.667)"/><path d="M1164.82 950.379c8.19-13.981 20.46-113.891 20.46-113.891-28.64 83.203-136.63 211.192-136.63 211.192 4.55-50.461-17.72-123.211-17.72-123.211-39.563-89.571-116.399-92.758-116.399-92.758 95.019 81.84 88.659 235.069 88.659 235.069-41.831-65.93-213.698-103.671-213.698-103.671l-85.703-29.089c-153.801-42.629-201.648-168.692-201.648-168.692-3.645 21.832 18.64 109.582 18.64 109.582-14.101-5.91-63.652-103.672-63.652-103.672 2.726 21.371-80.477 40.922-80.477 40.922 19.93 24.828 60.868 111.18 102.032 203.92l-65.43-116.158S303.445 753.961 295.945 703.488c0 0-3.418-38.636 0-54.097 3.41-15.461 3.41 0 6.133-49.11 0 0 130.039-128.222 243.254-22.73L656.27 687.129s28.195 20 98.671 33.191c0 0 180.735 39.782 193.692 73.879l10.226-.34 2.539-1.461c-.89 3.063-1.41 4.762-1.41 4.762 119.582 54.559 113.222 171.41 113.222 171.41 81.84-243.699 45.24-389.89 45.24-389.89 18.42 3.422 49.78 116.629 49.78 116.629 3.94-69.528-28.08-243.758-30.53-256.969l.07-.371 171.99 108.269c-.07.832-.12 1.301-.12 1.301-33.64 280.992-144.82 402.84-144.82 402.84" style="fill:#0d0d0d;fill-opacity:1;fill-rule:nonzero;stroke:none" transform="matrix(.13333 0 0 -.13333 0 266.667)"/><path d="M1826.38 1105.88s-117.99 120.72-414.66 220.98c0 0 127.99 62.74 125.25 231.88 0 0-32.73-127.31-266.43-103.67 0 0-107.76 11.6-151.41 25.23-43.65 13.65-156.181 28.45-186.872 25.14 0 0 65.476-47.64 67.519-103.56 0 0-69.906 87.29-96.164 100.25 0 0-64.109 78.44-89.343 146.63 0 0-51.145-102.98-23.868-205.28 0 0-32.734 12.5-67.297 47.06 0 0-75.468 82.3-85.019 103.66 0 0-34.102-123.67 17.273-196.87 0 0-97.75-72.29-144.578-209.61l85.02 104.12s-58.778-144.29-117.117-275.76c-41.164-92.74-82.102-179.092-102.032-203.92 0 0 83.203-19.551 80.477-40.922 0 0 49.551 97.762 63.652 103.672 0 0-22.285-87.75-18.64-109.582 0 0 47.847 126.063 201.648 168.692l85.703 29.089s171.867 37.741 213.698 103.671c0 0 6.36-153.229-88.659-235.069 0 0 76.836 3.187 116.399 92.758 0 0 22.27 72.75 17.72 123.211 0 0 107.99-127.989 136.63-211.192 0 0-12.27 99.91-20.46 113.891 0 0 111.18-121.848 144.82-402.84 0 0 .05-.469.12-1.301 1.71-18.937 21.81-245.34 3.52-291.508l313.27 203.239v579.711a259 259 0 0 1-18.3 30.7c-14.81 21.31-30.77 37.39-44.45 49.09 0 0 86.62 30.01 262.58-11.59" style="fill:#3e4051;fill-opacity:1;fill-rule:nonzero;stroke:none" transform="matrix(.13333 0 0 -.13333 0 266.667)"/><path d="M1168.23 695.309s-31.36-113.207-49.78-116.629c0 0 36.6 146.191-45.24 389.89 0 0 6.36-116.851-113.222-171.41 0 0 .52-1.699 1.41-4.762 4.774-16.457 20.465-72.566 26.786-120.277 0 0 6.828-70.93 0-79.789L883.152 318.84l35.469-25.231 218.929 143.903s.05.297.15.828c2.45 13.211 34.47 187.441 30.53 256.969" style="fill:#3e4051;fill-opacity:1;fill-rule:nonzero;stroke:none" transform="matrix(.13333 0 0 -.13333 0 266.667)"/><path d="M1411.14 1326.56c86.21-29.13 157.31-59.99 214.84-89.11v190.05c-33.51 15.16-67.01 30.3-100.5 45.46-30.54-105.3-114.34-146.4-114.34-146.4" style="fill:#b59127;fill-opacity:1;fill-rule:nonzero;stroke:none" transform="matrix(.13333 0 0 -.13333 0 266.667)"/><path d="M740.957 1077.58s23.527-19.1 67.18-12.95c0 0 5.84 2.12 14.785 6.48 18.262 16.05 22.613 37.21 23.75 44.32l30.351 12.62c-7.511 5.45-92.082 13.3-92.082 13.3 2.051 12.27 36.836 27.28 36.836 27.28-104.355-.68-107.761-90.03-107.761-90.03l-36.828-43.65-2.383-5.8 22.55 13.08-7.55-3.87z" style="fill:#0d0d0d;fill-opacity:1;fill-rule:nonzero;stroke:none" transform="matrix(.13333 0 0 -.13333 0 266.667)"/><path d="M822.922 1071.11c-8.945-4.36-14.785-6.48-14.785-6.48-43.653-6.15-67.18 12.95-67.18 12.95l-51.152-39.22 7.55 3.87 44.286 22.73c55.918-32.73 82.519-19.09 82.519-19.09 50.125 13.63 68.543 79.45 68.543 79.45-21.383-27.75-51.844-45.47-69.781-54.21" style="fill:#1e1f2a;fill-opacity:1;fill-rule:nonzero;stroke:none" transform="matrix(.13333 0 0 -.13333 0 266.667)"/><path d="M1544.71 1648.76H288.438v263.26H1544.71z" style="fill:#fff;fill-opacity:1;fill-rule:nonzero;stroke:none" transform="matrix(.13333 0 0 -.13333 0 266.667)"/><path d="m394.836 1836.55-18.184-108.21h76.832l3.188 21.82-52.285.45 15.457 85.94zM485.938 1836.55l-18.184-108.21h76.836l3.183 21.82-52.285.45 15.457 85.94zM679.465 1728.34l16.812 108.21h27.289l34.102-70.48 10.906 70.48h25.012l-15.461-108.21h-27.734l-34.563 68.19-9.539-68.19zM796.77 1728.34l17.847 108.21h77.18l-5.203-22.28h-51.633v-20.92l47.742-.91-1.824-20.91h-51.824l-2.278-21.37 50.918.91-2.722-22.73zM1252.12 1729.24l17.73 106.74h77.07l-2.05-20.8-54.56 1.02-1.35-23.53 48.75-.69-1.69-22.5-51.16 1.02-5.11-41.26zM615.129 1761.3l-12.961 7.5 18.75 39.55 10.918-39.89zm22.5 75.25h-24.555l-60.926-108.21h30.918l9.102 17.72 22.727-9.54 20.464 10.45 4.543-18.63h27.735zM947.949 1784.14h-22.168l3.41 32.74h25.235c22.168-19.67-6.477-32.74-6.477-32.74m39.895 29.67c-6.817 19.1-24.211 22.74-24.211 22.74h-55.242l-16.594-106.96 25.117-1.25 5.801 36.71 17.14-.69 10.477-36.02h29.324l-17.39 39.44c28.308 8.18 25.578 46.03 25.578 46.03M1059.09 1810.88c-17.81.06-33.73-16.23-33.57-34.36.12-14.28 10.33-24.32 24.67-24.25 17.87.07 33.59 16.31 33.51 34.6-.06 14.5-9.76 23.97-24.61 24.01m-12.53-85.5c-27.85-.02-49.236 21-48.826 48 .539 35.2 30.016 64.33 65.076 64.3 28.4-.02 48.66-20.17 48.36-48.11-.38-35.51-29.22-64.17-64.61-64.19M1445.33 1757.39c-14.1-30.37-51.51-34.35-71.06-25.26-23.51 10.94-32.63 37.76-21.62 65 9.48 23.46 27.1 36.8 51.98 39.77 19.65 2.35 36.17-3.83 47.25-21.26.97-1.53 1.5-3.34 2.67-6.04-5.47-5.47-12.5-10.44-21.54-10.22-4.76.11-6.17 5.55-11.75 8.63-9.96 5.51-27.34 2.85-37.46-8.67-8.74-9.94-12.65-27.16-3.97-37.54 8.29-9.89 25.18-10.17 34.96-4.94 5.5 2.95 7.22 6.84 12.95 7.68 6.86 1 13.21-3.27 17.59-7.15M1201.47 1810.92c-11.47-3.47-18.08-5.99-22.19-4.37-5.54 2.17-7.03 6.65-12.64 7.94-6.39 1.49-12.7-2.42-16.82-5.68-.21-2.45-.28-7.46 2.95-11.14 2.11-2.39 4.68-3.17 8.87-4.32 14.39-3.93 15.45-3.31 19.5-4.96 1.77-.71 11.29-4.51 15.4-13.64 2.65-5.88 2.51-12.99-.26-21.49-5.45-16.71-24.1-27.34-46.48-26.5-19.91.75-30.95 9.28-35.18 27.87 12.35 7.69 19.21 7.35 23.24 5.35 4.36-2.16 4.59-5.84 10.6-8.46 1.18-.52 9.22-3.88 15.92.23 2.83 1.73 6.72 5.6 6.01 9.54-.16.91-.46 4.14-7.24 6.7-4.88 1.85-9.91 3.31-14.89 4.91-12.86 4.14-24.85 10.24-26.15 25.19-1.24 14.41 6.19 25.56 18.53 33.22 22.87 14.17 60.56 7.42 60.83-20.39" style="fill:#0d0d0d;fill-opacity:1;fill-rule:nonzero;stroke:none" transform="matrix(.13333 0 0 -.13333 0 266.667)"/></svg>